M48
METRIC,TZ
T1C0.400
T2C0.500
T3C1.000
T4C1.100
T5C1.300
T6C2.500
%
G90
G05
T1
X1000Y42800
X1600Y34400
X1600Y30600
X2200Y20800
X2600Y5800
X3600Y31200
X3800Y12800
X4400Y22600
X4600Y42600
X7600Y6600
X8200Y42400
X8400Y23000
X10600Y36800
X10600Y35600
X11800Y42600
X12000Y23200
X12000Y18600
X12600Y12800
X14000Y5800
X15400Y42600
X15400Y23200
X15800Y27800
X16000Y1600
X18400Y5800
X19400Y13400
X21200Y20800
X21600Y12800
X22000Y27600
X22200Y26600
X22400Y40400
X22600Y42400
X23400Y34600
X24000Y39400
X24200Y40800
X25000Y22800
X25063Y27098
X25200Y38200
X25200Y9000
X25400Y18200
X25400Y2000
X26747Y27649
X27000Y22600
X27800Y42400
X28380Y27916
X28600Y31400
X29168Y28531
X30200Y16600
X30400Y41800
X30800Y17800
X31400Y29000
X31600Y38600
X31882Y27347
X32200Y26400
X32400Y35800
X32400Y17600
X32400Y5000
X33000Y42400
X33200Y9200
X34000Y13000
X34200Y31600
X34200Y19000
X34200Y2000
X34600Y8000
X34800Y38600
X35000Y41400
X35000Y30600
X35600Y18200
X35800Y34600
X36600Y23000
X38000Y8800
X38000Y6000
X38200Y24400
X38400Y21800
X38456Y17575
X39400Y26600
X39400Y19800
X40621Y17575
X41200Y42200
X41600Y1600
X42200Y13600
X43000Y28400
X43600Y19000
X44400Y20800
X44800Y23400
X46200Y42400
X46400Y11000
X46800Y8200
X47000Y4000
X47600Y18600
X48746Y20155
X48800Y29200
X49200Y36000
X49600Y25200
X49745Y20123
X50000Y23144
X50800Y19605
X51400Y13800
X51400Y1400
X51800Y10000
X51800Y4600
X52549Y13038
X54000Y40000
X54000Y37400
X54000Y34800
X54000Y29800
X54000Y27200
X57200Y16800
X58400Y15400
X58600Y3800
X58800Y42000
X58800Y11600
X59200Y7800
T2
X25525Y34800
X26074Y36126
X26074Y33474
X27400Y36675
X27400Y32925
X28726Y36126
X28726Y33474
X29275Y34800
T3
X5075Y2800
X7615Y2800
X10155Y2800
X41570Y39620
X41570Y37080
X41570Y34540
X41570Y32000
X45570Y39600
X45570Y37060
X45570Y34520
X45570Y31980
T4
X2450Y16200
X2450Y9700
X6950Y16200
X6950Y9700
X11500Y16250
X11500Y9750
X16000Y16250
X16000Y9750
T5
X22900Y6100
X27900Y6100
T6
X27400Y34800
T0
M30
