M48
METRIC,TZ
T1C0.970
%
G90
G05
T1
X52730Y41230
X52730Y38690
X52730Y36150
X52730Y33610
X52730Y31070
X52730Y28530
X52730Y25990
X52730Y23450
X52730Y20910
X52730Y18370
X55270Y41230
X55270Y38690
X55270Y36150
X55270Y33610
X55270Y31070
X55270Y28530
X55270Y25990
X55270Y23450
X55270Y20910
X55270Y18370
T0
M30
