%TF.GenerationSoftware,KiCad,Pcbnew,(6.0.11-0)*%
%TF.CreationDate,2025-11-14T21:04:09+00:00*%
%TF.ProjectId,local-zappi-power,6c6f6361-6c2d-47a6-9170-70692d706f77,rev?*%
%TF.SameCoordinates,Original*%
%TF.FileFunction,Copper,L2,Bot*%
%TF.FilePolarity,Positive*%
%FSLAX46Y46*%
G04 Gerber Fmt 4.6, Leading zero omitted, Abs format (unit mm)*
G04 Created by KiCad (PCBNEW (6.0.11-0)) date 2025-11-14 21:04:09*
%MOMM*%
%LPD*%
G01*
G04 APERTURE LIST*
%TA.AperFunction,ComponentPad*%
%ADD10C,2.000000*%
%TD*%
%TA.AperFunction,ComponentPad*%
%ADD11R,1.700000X1.700000*%
%TD*%
%TA.AperFunction,ComponentPad*%
%ADD12O,1.700000X1.700000*%
%TD*%
%TA.AperFunction,ComponentPad*%
%ADD13R,2.600000X2.600000*%
%TD*%
%TA.AperFunction,ComponentPad*%
%ADD14C,2.600000*%
%TD*%
%TA.AperFunction,ComponentPad*%
%ADD15C,0.800000*%
%TD*%
%TA.AperFunction,ComponentPad*%
%ADD16C,5.000000*%
%TD*%
%TA.AperFunction,ViaPad*%
%ADD17C,0.800000*%
%TD*%
%TA.AperFunction,Conductor*%
%ADD18C,1.000000*%
%TD*%
%TA.AperFunction,Conductor*%
%ADD19C,0.750000*%
%TD*%
%TA.AperFunction,Conductor*%
%ADD20C,0.300000*%
%TD*%
%ADD21C,0.350000*%
G04 APERTURE END LIST*
D10*
%TO.P,SW1,1,1*%
%TO.N,GND*%
X11500000Y16250000D03*
X11500000Y9750000D03*
%TO.P,SW1,2,2*%
%TO.N,/EN*%
X16000000Y16250000D03*
X16000000Y9750000D03*
%TD*%
D11*
%TO.P,J1,1,Pin_1*%
%TO.N,GND*%
X41570000Y32000000D03*
D12*
%TO.P,J1,2,Pin_2*%
%TO.N,Net-(J1-Pad2)*%
X41570000Y34540000D03*
%TO.P,J1,3,Pin_3*%
%TO.N,Net-(J1-Pad3)*%
X41570000Y37080000D03*
%TO.P,J1,4,Pin_4*%
%TO.N,+5V*%
X41570000Y39620000D03*
%TD*%
D10*
%TO.P,SW2,1,1*%
%TO.N,GND*%
X2450000Y9700000D03*
X2450000Y16200000D03*
%TO.P,SW2,2,2*%
%TO.N,/GPIO0*%
X6950000Y16200000D03*
X6950000Y9700000D03*
%TD*%
D11*
%TO.P,J5,1,Pin_1*%
%TO.N,/Relay*%
X5075000Y2800000D03*
D12*
%TO.P,J5,2,Pin_2*%
%TO.N,+3.3V*%
X7615000Y2800000D03*
%TO.P,J5,3,Pin_3*%
%TO.N,GND*%
X10155000Y2800000D03*
%TD*%
D13*
%TO.P,J3,1,Pin_1*%
%TO.N,/CP*%
X22900000Y6100000D03*
D14*
%TO.P,J3,2,Pin_2*%
X27900000Y6100000D03*
%TD*%
D15*
%TO.P,H1,1*%
%TO.N,N/C*%
X26074175Y36125825D03*
X28725825Y33474175D03*
X27400000Y36675000D03*
X29275000Y34800000D03*
X27400000Y32925000D03*
X28725825Y36125825D03*
X26074175Y33474175D03*
X25525000Y34800000D03*
D16*
%TO.N,GND*%
X27400000Y34800000D03*
%TD*%
D11*
%TO.P,J2,1,Pin_1*%
%TO.N,GND*%
X45570000Y39600000D03*
D12*
%TO.P,J2,2,Pin_2*%
%TO.N,/D_N*%
X45570000Y37060000D03*
%TO.P,J2,3,Pin_3*%
%TO.N,/D_P*%
X45570000Y34520000D03*
%TO.P,J2,4,Pin_4*%
%TO.N,+5V*%
X45570000Y31980000D03*
%TD*%
D17*
%TO.N,GND*%
X10600000Y35600000D03*
X10600000Y36800000D03*
X47600000Y18600000D03*
X43600000Y19000000D03*
X8400000Y23000000D03*
X15400000Y23200000D03*
X12000000Y23200000D03*
X25400000Y2000000D03*
X25200000Y9000000D03*
X22400000Y40400000D03*
X34200000Y31600000D03*
X1000000Y42800000D03*
X15400000Y42600000D03*
X11800000Y42600000D03*
X4600000Y42600000D03*
X8200000Y42400000D03*
X1600000Y34400000D03*
X1600000Y30600000D03*
X39400000Y19800000D03*
X42200000Y13600000D03*
X38000000Y6000000D03*
X38000000Y8800000D03*
X58800000Y42000000D03*
X43000000Y28400000D03*
X48800000Y29200000D03*
X49200000Y36000000D03*
X46200000Y42400000D03*
X41200000Y42200000D03*
X34200000Y2000000D03*
X32400000Y5000000D03*
X21600000Y12800000D03*
X19400000Y13400000D03*
X21200000Y20800000D03*
X2200000Y20800000D03*
X12600000Y12800000D03*
X3800000Y12800000D03*
X16000000Y1600000D03*
X18400000Y5800000D03*
X14000000Y5800000D03*
X2600000Y5800000D03*
X23400000Y34600000D03*
X24200000Y40800000D03*
X25200000Y38200000D03*
X24000000Y39400000D03*
X27800000Y42400000D03*
X31600000Y38600000D03*
X33000000Y42400000D03*
X30400000Y41800000D03*
X35000000Y41400000D03*
X34800000Y38600000D03*
X35800000Y34600000D03*
X32400000Y35800000D03*
X28600000Y31400000D03*
X35000000Y30600000D03*
X31400000Y29000000D03*
X27000000Y22600000D03*
X25000000Y22800000D03*
X38400000Y21800000D03*
X44800000Y23400000D03*
X35600000Y18200000D03*
X34200000Y19000000D03*
X34600000Y8000000D03*
X34000000Y13000000D03*
X33200000Y9200000D03*
X58800000Y11600000D03*
X59200000Y7800000D03*
X58600000Y3800000D03*
X41600000Y1600000D03*
X51400000Y1400000D03*
X46400000Y11000000D03*
X46800000Y8200000D03*
X47000000Y4000000D03*
X57200000Y16800000D03*
X54000000Y29800000D03*
X54000000Y27200000D03*
X54000000Y40000000D03*
X54000000Y37400000D03*
X54000000Y34800000D03*
%TO.N,+3.3V*%
X25400000Y18200000D03*
X12000000Y18600000D03*
X4400000Y22600000D03*
X3600000Y31200000D03*
%TO.N,Net-(J4-Pad18)*%
X30200000Y16600000D03*
X50800000Y19604502D03*
%TO.N,+3.3V*%
X7600000Y6600000D03*
%TO.N,/GPIO0*%
X22600000Y42400000D03*
%TO.N,/Up*%
X51800000Y10000000D03*
X49745005Y20123157D03*
X51400000Y13800000D03*
X50000000Y23144015D03*
%TO.N,/Enter*%
X48745996Y20154553D03*
X49600000Y25200000D03*
%TO.N,/Select_return*%
X44400000Y20800000D03*
X36600000Y23000000D03*
%TO.N,/Up_return*%
X38200000Y24400000D03*
X32200000Y26400000D03*
%TO.N,/Enter_return*%
X39400000Y26600000D03*
X31881545Y27347413D03*
%TO.N,/Select*%
X51800000Y4600000D03*
X52549500Y13038494D03*
%TO.N,/Select_b*%
X25062746Y27097700D03*
X30800000Y17800000D03*
%TO.N,/Down_b*%
X26746744Y27649001D03*
X32400000Y17600000D03*
%TO.N,/Up_b*%
X38456359Y17574500D03*
X28380430Y27916012D03*
%TO.N,/Enter_b*%
X29168094Y28531310D03*
X40621084Y17574500D03*
%TO.N,/D_N*%
X22000000Y27600000D03*
%TO.N,/D_P*%
X22200000Y26600000D03*
%TO.N,+5V*%
X15800000Y27800000D03*
X58400000Y15400000D03*
%TD*%
D18*
%TO.N,+5V*%
X29754928Y15400000D02*
X17354928Y27800000D01*
X17354928Y27800000D02*
X15800000Y27800000D01*
D19*
%TO.N,+3.3V*%
X25000000Y18600000D02*
X25400000Y18200000D01*
D18*
%TO.N,+5V*%
X58400000Y15400000D02*
X29754928Y15400000D01*
D19*
%TO.N,+3.3V*%
X12000000Y18600000D02*
X25000000Y18600000D01*
X4400000Y22600000D02*
X4400000Y30400000D01*
X4400000Y30400000D02*
X3600000Y31200000D01*
D20*
%TO.N,/Enter_b*%
X39825500Y17574500D02*
X40621084Y17574500D01*
D19*
%TO.N,Net-(J4-Pad18)*%
X47795498Y16600000D02*
X50800000Y19604502D01*
D20*
%TO.N,/Up*%
X49800000Y22944015D02*
X49800000Y20178152D01*
%TO.N,/Enter*%
X49600000Y25200000D02*
X48954735Y24554735D01*
%TO.N,/Enter_b*%
X29168094Y28531310D02*
X29168094Y28231906D01*
%TO.N,/Up_b*%
X28380430Y27916012D02*
X28380430Y27619570D01*
%TO.N,/Enter*%
X48954735Y20363292D02*
X48745996Y20154553D01*
%TO.N,/Up_b*%
X28380430Y27619570D02*
X38425500Y17574500D01*
X38425500Y17574500D02*
X38456359Y17574500D01*
%TO.N,/Enter_b*%
X29168094Y28231906D02*
X39825500Y17574500D01*
D19*
%TO.N,Net-(J4-Pad18)*%
X30200000Y16600000D02*
X47795498Y16600000D01*
D20*
%TO.N,/Up*%
X49800000Y20178152D02*
X49745005Y20123157D01*
X50000000Y23144015D02*
X49800000Y22944015D01*
%TO.N,/Enter*%
X48954735Y24554735D02*
X48954735Y20363292D01*
D19*
%TO.N,+3.3V*%
X7600000Y6600000D02*
X7600000Y2815000D01*
X7600000Y2815000D02*
X7615000Y2800000D01*
D20*
%TO.N,/GPIO0*%
X22600000Y42400000D02*
X6950000Y26750000D01*
X6950000Y26750000D02*
X6950000Y16200000D01*
%TO.N,/Select*%
X52549500Y5349500D02*
X52549500Y13038494D01*
%TO.N,/Up*%
X51800000Y13400000D02*
X51400000Y13800000D01*
%TO.N,/Select*%
X51800000Y4600000D02*
X52549500Y5349500D01*
%TO.N,/Up*%
X51800000Y10000000D02*
X51800000Y13400000D01*
%TO.N,/Select_return*%
X42200000Y23000000D02*
X36600000Y23000000D01*
X44400000Y20800000D02*
X42200000Y23000000D01*
%TO.N,/Down_b*%
X32400000Y21800000D02*
X26746744Y27453256D01*
X32400000Y17600000D02*
X32400000Y21800000D01*
%TO.N,/Up_return*%
X36200000Y26400000D02*
X32200000Y26400000D01*
%TO.N,/Down_b*%
X26746744Y27453256D02*
X26746744Y27649001D01*
%TO.N,/Enter_return*%
X39400000Y26600000D02*
X38652587Y27347413D01*
X38652587Y27347413D02*
X31881545Y27347413D01*
%TO.N,/Up_return*%
X38200000Y24400000D02*
X36200000Y26400000D01*
%TO.N,/Select_b*%
X30800000Y17800000D02*
X30800000Y21400000D01*
X25102300Y27097700D02*
X25062746Y27097700D01*
X30800000Y21400000D02*
X25102300Y27097700D01*
%TO.N,/D_N*%
X29413955Y29780311D02*
X35513644Y35880000D01*
X44390000Y35880000D02*
X45570000Y37060000D01*
%TO.N,/D_P*%
X24880810Y29280810D02*
X29620856Y29280810D01*
%TO.N,/D_N*%
X22000000Y27600000D02*
X24180311Y29780311D01*
X35513644Y35880000D02*
X44390000Y35880000D01*
%TO.N,/D_P*%
X33540046Y33200000D02*
X44250000Y33200000D01*
X22200000Y26600000D02*
X24880810Y29280810D01*
X44250000Y33200000D02*
X45570000Y34520000D01*
X29620856Y29280810D02*
X33540046Y33200000D01*
%TO.N,/D_N*%
X24180311Y29780311D02*
X29413955Y29780311D01*
%TD*%
%TA.AperFunction,Conductor*%
%TO.N,GND*%
G36*
X22293254Y43471498D02*
G01*
X22339747Y43417842D01*
X22349851Y43347568D01*
X22320357Y43282988D01*
X22276382Y43250393D01*
X22149278Y43193803D01*
X22149276Y43193802D01*
X22143248Y43191118D01*
X21988747Y43078866D01*
X21860960Y42936944D01*
X21765473Y42771556D01*
X21706458Y42589928D01*
X21705768Y42583365D01*
X21705768Y42583363D01*
X21693245Y42464214D01*
X21666232Y42398557D01*
X21657030Y42388289D01*
X6542395Y27273655D01*
X6533615Y27265665D01*
X6533613Y27265663D01*
X6526920Y27261416D01*
X6521494Y27255638D01*
X6521493Y27255637D01*
X6478396Y27209743D01*
X6475641Y27206901D01*
X6455073Y27186333D01*
X6452356Y27182830D01*
X6444648Y27173805D01*
X6413028Y27140133D01*
X6409207Y27133182D01*
X6409206Y27133181D01*
X6402697Y27121342D01*
X6391843Y27104818D01*
X6384834Y27095781D01*
X6378696Y27087868D01*
X6375549Y27080596D01*
X6375548Y27080594D01*
X6360346Y27045465D01*
X6355124Y27034805D01*
X6340146Y27007560D01*
X6332876Y26994337D01*
X6327541Y26973559D01*
X6321142Y26954869D01*
X6312620Y26935176D01*
X6308280Y26907772D01*
X6305394Y26889552D01*
X6302987Y26877929D01*
X6295798Y26849928D01*
X6291500Y26833188D01*
X6291500Y26811741D01*
X6289949Y26792031D01*
X6286594Y26770848D01*
X6287340Y26762957D01*
X6290941Y26724862D01*
X6291500Y26713004D01*
X6291500Y17636246D01*
X6271498Y17568125D01*
X6231335Y17528814D01*
X6064807Y17426765D01*
X6064797Y17426758D01*
X6060584Y17424176D01*
X5880031Y17269969D01*
X5725824Y17089416D01*
X5723245Y17085208D01*
X5723241Y17085202D01*
X5634986Y16941183D01*
X5601760Y16886963D01*
X5599867Y16882393D01*
X5599865Y16882389D01*
X5529612Y16712782D01*
X5510895Y16667594D01*
X5509740Y16662782D01*
X5466266Y16481699D01*
X5455465Y16436711D01*
X5436835Y16200000D01*
X5455465Y15963289D01*
X5456619Y15958482D01*
X5456620Y15958476D01*
X5474118Y15885592D01*
X5510895Y15732406D01*
X5512788Y15727835D01*
X5512789Y15727833D01*
X5599772Y15517837D01*
X5601760Y15513037D01*
X5604346Y15508817D01*
X5723241Y15314798D01*
X5723245Y15314792D01*
X5725824Y15310584D01*
X5880031Y15130031D01*
X6060584Y14975824D01*
X6064792Y14973245D01*
X6064798Y14973241D01*
X6183806Y14900313D01*
X6263037Y14851760D01*
X6267607Y14849867D01*
X6267611Y14849865D01*
X6477833Y14762789D01*
X6482406Y14760895D01*
X6562609Y14741640D01*
X6708476Y14706620D01*
X6708482Y14706619D01*
X6713289Y14705465D01*
X6950000Y14686835D01*
X7186711Y14705465D01*
X7191518Y14706619D01*
X7191524Y14706620D01*
X7337391Y14741640D01*
X7417594Y14760895D01*
X7422167Y14762789D01*
X7632389Y14849865D01*
X7632393Y14849867D01*
X7636963Y14851760D01*
X7716194Y14900313D01*
X7835202Y14973241D01*
X7835208Y14973245D01*
X7839416Y14975824D01*
X7888013Y15017330D01*
X10632160Y15017330D01*
X10637887Y15009680D01*
X10809042Y14904795D01*
X10817837Y14900313D01*
X11027988Y14813266D01*
X11037373Y14810217D01*
X11258554Y14757115D01*
X11268301Y14755572D01*
X11495070Y14737725D01*
X11504930Y14737725D01*
X11731699Y14755572D01*
X11741446Y14757115D01*
X11962627Y14810217D01*
X11972012Y14813266D01*
X12182163Y14900313D01*
X12190958Y14904795D01*
X12358445Y15007432D01*
X12367907Y15017890D01*
X12364124Y15026666D01*
X11512812Y15877978D01*
X11498868Y15885592D01*
X11497035Y15885461D01*
X11490420Y15881210D01*
X10638920Y15029710D01*
X10632160Y15017330D01*
X7888013Y15017330D01*
X8019969Y15130031D01*
X8174176Y15310584D01*
X8176755Y15314792D01*
X8176759Y15314798D01*
X8295654Y15508817D01*
X8298240Y15513037D01*
X8300229Y15517837D01*
X8387211Y15727833D01*
X8387212Y15727835D01*
X8389105Y15732406D01*
X8425882Y15885592D01*
X8443380Y15958476D01*
X8443381Y15958482D01*
X8444535Y15963289D01*
X8463165Y16200000D01*
X8459618Y16245070D01*
X9987725Y16245070D01*
X10005572Y16018301D01*
X10007115Y16008554D01*
X10060217Y15787373D01*
X10063266Y15777988D01*
X10150313Y15567837D01*
X10154795Y15559042D01*
X10257432Y15391555D01*
X10267890Y15382093D01*
X10276666Y15385876D01*
X11127978Y16237188D01*
X11134356Y16248868D01*
X11864408Y16248868D01*
X11864539Y16247035D01*
X11868790Y16240420D01*
X12720290Y15388920D01*
X12732670Y15382160D01*
X12740320Y15387887D01*
X12845205Y15559042D01*
X12849687Y15567837D01*
X12936734Y15777988D01*
X12939783Y15787373D01*
X12992885Y16008554D01*
X12994428Y16018301D01*
X13012275Y16245070D01*
X13012275Y16254930D01*
X12994428Y16481699D01*
X12992885Y16491446D01*
X12939783Y16712627D01*
X12936734Y16722012D01*
X12849687Y16932163D01*
X12845205Y16940958D01*
X12742568Y17108445D01*
X12732110Y17117907D01*
X12723334Y17114124D01*
X11872022Y16262812D01*
X11864408Y16248868D01*
X11134356Y16248868D01*
X11135592Y16251132D01*
X11135461Y16252965D01*
X11131210Y16259580D01*
X10279710Y17111080D01*
X10267330Y17117840D01*
X10259680Y17112113D01*
X10154795Y16940958D01*
X10150313Y16932163D01*
X10063266Y16722012D01*
X10060217Y16712627D01*
X10007115Y16491446D01*
X10005572Y16481699D01*
X9987725Y16254930D01*
X9987725Y16245070D01*
X8459618Y16245070D01*
X8444535Y16436711D01*
X8433735Y16481699D01*
X8390260Y16662782D01*
X8389105Y16667594D01*
X8370388Y16712782D01*
X8300135Y16882389D01*
X8300133Y16882393D01*
X8298240Y16886963D01*
X8265014Y16941183D01*
X8176759Y17085202D01*
X8176755Y17085208D01*
X8174176Y17089416D01*
X8019969Y17269969D01*
X7839416Y17424176D01*
X7835203Y17426758D01*
X7835193Y17426765D01*
X7668665Y17528814D01*
X7621034Y17581461D01*
X7608500Y17636246D01*
X7608500Y26425050D01*
X7628502Y26493171D01*
X7645405Y26514145D01*
X16022272Y34891013D01*
X24388484Y34891013D01*
X24397374Y34551495D01*
X24397980Y34544279D01*
X24445835Y34208037D01*
X24447269Y34200926D01*
X24533455Y33872405D01*
X24535692Y33865522D01*
X24659064Y33549086D01*
X24662081Y33542497D01*
X24821002Y33242348D01*
X24824761Y33236140D01*
X25017129Y32956243D01*
X25021574Y32950514D01*
X25088743Y32873516D01*
X25101917Y32865112D01*
X25111769Y32870980D01*
X25166808Y32926019D01*
X25229120Y32960045D01*
X25299935Y32954980D01*
X25349539Y32921234D01*
X25452051Y32807383D01*
X25462922Y32795309D01*
X25468264Y32791428D01*
X25468266Y32791426D01*
X25512462Y32759316D01*
X25555816Y32703094D01*
X25561891Y32632357D01*
X25527496Y32568285D01*
X25471474Y32512263D01*
X25463860Y32498319D01*
X25463878Y32498066D01*
X25469792Y32489324D01*
X25501111Y32460826D01*
X25506748Y32456262D01*
X25782544Y32258082D01*
X25788682Y32254187D01*
X26085435Y32089016D01*
X26091955Y32085864D01*
X26405738Y31955891D01*
X26412589Y31953505D01*
X26739212Y31860464D01*
X26746301Y31858880D01*
X27081465Y31803994D01*
X27088671Y31803237D01*
X27427926Y31787238D01*
X27435176Y31787314D01*
X27774010Y31810413D01*
X27781219Y31811324D01*
X28115160Y31873216D01*
X28122190Y31874943D01*
X28446819Y31974813D01*
X28453597Y31977333D01*
X28764603Y32113855D01*
X28771043Y32117136D01*
X29064293Y32288498D01*
X29070326Y32292507D01*
X29328828Y32486595D01*
X29337282Y32497922D01*
X29330537Y32510252D01*
X29272504Y32568285D01*
X29238478Y32630597D01*
X29243543Y32701412D01*
X29287538Y32759316D01*
X29331734Y32791426D01*
X29331736Y32791428D01*
X29337078Y32795309D01*
X29347950Y32807383D01*
X29450461Y32921234D01*
X29510907Y32958474D01*
X29581890Y32957122D01*
X29633192Y32926019D01*
X29686268Y32872943D01*
X29699622Y32865651D01*
X29709595Y32872706D01*
X29816641Y33000733D01*
X29820957Y33006544D01*
X30007432Y33290425D01*
X30011046Y33296687D01*
X30163658Y33600118D01*
X30166530Y33606756D01*
X30283249Y33925707D01*
X30285345Y33932649D01*
X30364631Y34262897D01*
X30365915Y34270036D01*
X30406816Y34608027D01*
X30407240Y34613597D01*
X30413010Y34797203D01*
X30412937Y34802796D01*
X30393338Y35142697D01*
X30392506Y35149887D01*
X30334113Y35484471D01*
X30332458Y35491526D01*
X30235998Y35817166D01*
X30233540Y35823994D01*
X30100290Y36136392D01*
X30097073Y36142875D01*
X29928788Y36437911D01*
X29924856Y36443966D01*
X29723774Y36717705D01*
X29719166Y36723274D01*
X29713830Y36729016D01*
X29700178Y36737134D01*
X29699570Y36737113D01*
X29691092Y36731881D01*
X29633192Y36673981D01*
X29570880Y36639955D01*
X29500065Y36645020D01*
X29450461Y36678766D01*
X29430326Y36701129D01*
X29337078Y36804691D01*
X29287538Y36840684D01*
X29244185Y36896905D01*
X29238110Y36967641D01*
X29272505Y37031714D01*
X29327076Y37086285D01*
X29334467Y37099820D01*
X29327679Y37109521D01*
X29224476Y37197665D01*
X29218704Y37202047D01*
X28936796Y37391481D01*
X28930575Y37395161D01*
X28628757Y37550940D01*
X28622146Y37553884D01*
X28304439Y37673935D01*
X28297513Y37676106D01*
X27968112Y37758845D01*
X27961005Y37760201D01*
X27624278Y37804532D01*
X27617036Y37805063D01*
X27277467Y37810398D01*
X27270205Y37810094D01*
X26932256Y37776362D01*
X26925108Y37775230D01*
X26593263Y37702876D01*
X26586285Y37700928D01*
X26264960Y37590914D01*
X26258253Y37588177D01*
X25951707Y37441961D01*
X25945349Y37438466D01*
X25657654Y37257995D01*
X25651731Y37253786D01*
X25473601Y37111077D01*
X25465132Y37098952D01*
X25471527Y37087684D01*
X25527496Y37031715D01*
X25561522Y36969403D01*
X25556457Y36898588D01*
X25512462Y36840684D01*
X25462922Y36804691D01*
X25369675Y36701129D01*
X25349539Y36678766D01*
X25289093Y36641526D01*
X25218110Y36642878D01*
X25166808Y36673981D01*
X25112374Y36728415D01*
X25099581Y36735401D01*
X25088828Y36727537D01*
X24928037Y36522473D01*
X24923902Y36516524D01*
X24746440Y36226932D01*
X24743019Y36220553D01*
X24600016Y35912478D01*
X24597356Y35905759D01*
X24490711Y35583293D01*
X24488834Y35576289D01*
X24419961Y35243712D01*
X24418904Y35236551D01*
X24388712Y34898265D01*
X24388484Y34891013D01*
X16022272Y34891013D01*
X22312476Y41181217D01*
X51732568Y41181217D01*
X51762750Y40981652D01*
X51832443Y40792232D01*
X51835809Y40786804D01*
X51835811Y40786799D01*
X51885580Y40706531D01*
X51938801Y40620694D01*
X51943187Y40616056D01*
X52057978Y40494669D01*
X52077479Y40474047D01*
X52242812Y40358279D01*
X52428046Y40278121D01*
X52625615Y40236847D01*
X52630457Y40236593D01*
X52630459Y40236593D01*
X52630482Y40236592D01*
X52632236Y40236500D01*
X52780444Y40236500D01*
X52855352Y40244109D01*
X52924452Y40251128D01*
X52924453Y40251128D01*
X52930801Y40251773D01*
X53123400Y40312129D01*
X53299928Y40409981D01*
X53453175Y40541329D01*
X53461726Y40552352D01*
X53572972Y40695771D01*
X53576881Y40700810D01*
X53665992Y40881908D01*
X53682903Y40946827D01*
X53715259Y41071044D01*
X53715259Y41071045D01*
X53716869Y41077225D01*
X53722319Y41181217D01*
X54272568Y41181217D01*
X54302750Y40981652D01*
X54372443Y40792232D01*
X54375809Y40786804D01*
X54375811Y40786799D01*
X54425580Y40706531D01*
X54478801Y40620694D01*
X54483187Y40616056D01*
X54597978Y40494669D01*
X54617479Y40474047D01*
X54782812Y40358279D01*
X54968046Y40278121D01*
X55165615Y40236847D01*
X55170457Y40236593D01*
X55170459Y40236593D01*
X55170482Y40236592D01*
X55172236Y40236500D01*
X55320444Y40236500D01*
X55395352Y40244109D01*
X55464452Y40251128D01*
X55464453Y40251128D01*
X55470801Y40251773D01*
X55663400Y40312129D01*
X55839928Y40409981D01*
X55993175Y40541329D01*
X56001726Y40552352D01*
X56112972Y40695771D01*
X56116881Y40700810D01*
X56205992Y40881908D01*
X56222903Y40946827D01*
X56255259Y41071044D01*
X56255259Y41071045D01*
X56256869Y41077225D01*
X56267432Y41278783D01*
X56237250Y41478348D01*
X56167557Y41667768D01*
X56164191Y41673196D01*
X56164189Y41673201D01*
X56064563Y41833880D01*
X56061199Y41839306D01*
X55986147Y41918671D01*
X55926910Y41981312D01*
X55926909Y41981313D01*
X55922521Y41985953D01*
X55757188Y42101721D01*
X55571954Y42181879D01*
X55374385Y42223153D01*
X55369543Y42223407D01*
X55369541Y42223407D01*
X55369518Y42223408D01*
X55367764Y42223500D01*
X55219556Y42223500D01*
X55151973Y42216635D01*
X55075548Y42208872D01*
X55075547Y42208872D01*
X55069199Y42208227D01*
X54876600Y42147871D01*
X54700072Y42050019D01*
X54546825Y41918671D01*
X54423119Y41759190D01*
X54334008Y41578092D01*
X54332399Y41571914D01*
X54332398Y41571912D01*
X54311452Y41491500D01*
X54283131Y41382775D01*
X54272568Y41181217D01*
X53722319Y41181217D01*
X53727432Y41278783D01*
X53697250Y41478348D01*
X53627557Y41667768D01*
X53624191Y41673196D01*
X53624189Y41673201D01*
X53524563Y41833880D01*
X53521199Y41839306D01*
X53446147Y41918671D01*
X53386910Y41981312D01*
X53386909Y41981313D01*
X53382521Y41985953D01*
X53217188Y42101721D01*
X53031954Y42181879D01*
X52834385Y42223153D01*
X52829543Y42223407D01*
X52829541Y42223407D01*
X52829518Y42223408D01*
X52827764Y42223500D01*
X52679556Y42223500D01*
X52611973Y42216635D01*
X52535548Y42208872D01*
X52535547Y42208872D01*
X52529199Y42208227D01*
X52336600Y42147871D01*
X52160072Y42050019D01*
X52006825Y41918671D01*
X51883119Y41759190D01*
X51794008Y41578092D01*
X51792399Y41571914D01*
X51792398Y41571912D01*
X51771452Y41491500D01*
X51743131Y41382775D01*
X51732568Y41181217D01*
X22312476Y41181217D01*
X22585854Y41454595D01*
X22648166Y41488621D01*
X22674949Y41491500D01*
X22695487Y41491500D01*
X22701939Y41492872D01*
X22701944Y41492872D01*
X22788888Y41511353D01*
X22882288Y41531206D01*
X22973716Y41571912D01*
X23050722Y41606197D01*
X23050724Y41606198D01*
X23056752Y41608882D01*
X23211253Y41721134D01*
X23312770Y41833880D01*
X23334621Y41858148D01*
X23334622Y41858149D01*
X23339040Y41863056D01*
X23434527Y42028444D01*
X23493542Y42210072D01*
X23494920Y42223177D01*
X23512814Y42393435D01*
X23513504Y42400000D01*
X23493542Y42589928D01*
X23434527Y42771556D01*
X23339040Y42936944D01*
X23211253Y43078866D01*
X23056752Y43191118D01*
X23050724Y43193802D01*
X23050722Y43193803D01*
X22923618Y43250393D01*
X22869522Y43296373D01*
X22848873Y43364300D01*
X22868225Y43432609D01*
X22921436Y43479610D01*
X22974867Y43491500D01*
X59369095Y43491500D01*
X59437216Y43471498D01*
X59483709Y43417842D01*
X59495093Y43366217D01*
X59536335Y36107598D01*
X59653239Y15532464D01*
X59633624Y15464231D01*
X59580234Y15417434D01*
X59510018Y15406931D01*
X59445271Y15436056D01*
X59406549Y15495563D01*
X59401762Y15520316D01*
X59395430Y15589888D01*
X59339590Y15779619D01*
X59335618Y15787218D01*
X59250813Y15949432D01*
X59247960Y15954890D01*
X59124032Y16109025D01*
X58972526Y16236154D01*
X58967128Y16239121D01*
X58967123Y16239125D01*
X58804608Y16328467D01*
X58804609Y16328467D01*
X58799213Y16331433D01*
X58793346Y16333294D01*
X58793344Y16333295D01*
X58616564Y16389373D01*
X58616563Y16389373D01*
X58610694Y16391235D01*
X58456773Y16408500D01*
X49157646Y16408500D01*
X49089525Y16428502D01*
X49043032Y16482158D01*
X49032928Y16552432D01*
X49062422Y16617012D01*
X49068551Y16623595D01*
X50766173Y18321217D01*
X51732568Y18321217D01*
X51762750Y18121652D01*
X51832443Y17932232D01*
X51835809Y17926804D01*
X51835811Y17926799D01*
X51885580Y17846531D01*
X51938801Y17760694D01*
X51943187Y17756056D01*
X52053142Y17639783D01*
X52077479Y17614047D01*
X52082709Y17610385D01*
X52082710Y17610384D01*
X52102783Y17596329D01*
X52242812Y17498279D01*
X52428046Y17418121D01*
X52625615Y17376847D01*
X52630457Y17376593D01*
X52630459Y17376593D01*
X52630482Y17376592D01*
X52632236Y17376500D01*
X52780444Y17376500D01*
X52886146Y17387237D01*
X52924452Y17391128D01*
X52924453Y17391128D01*
X52930801Y17391773D01*
X53123400Y17452129D01*
X53299928Y17549981D01*
X53453175Y17681329D01*
X53461065Y17691500D01*
X53540133Y17793435D01*
X53576881Y17840810D01*
X53665992Y18021908D01*
X53676711Y18063056D01*
X53715259Y18211044D01*
X53715259Y18211045D01*
X53716869Y18217225D01*
X53722319Y18321217D01*
X54272568Y18321217D01*
X54302750Y18121652D01*
X54372443Y17932232D01*
X54375809Y17926804D01*
X54375811Y17926799D01*
X54425580Y17846531D01*
X54478801Y17760694D01*
X54483187Y17756056D01*
X54593142Y17639783D01*
X54617479Y17614047D01*
X54622709Y17610385D01*
X54622710Y17610384D01*
X54642783Y17596329D01*
X54782812Y17498279D01*
X54968046Y17418121D01*
X55165615Y17376847D01*
X55170457Y17376593D01*
X55170459Y17376593D01*
X55170482Y17376592D01*
X55172236Y17376500D01*
X55320444Y17376500D01*
X55426146Y17387237D01*
X55464452Y17391128D01*
X55464453Y17391128D01*
X55470801Y17391773D01*
X55663400Y17452129D01*
X55839928Y17549981D01*
X55993175Y17681329D01*
X56001065Y17691500D01*
X56080133Y17793435D01*
X56116881Y17840810D01*
X56205992Y18021908D01*
X56216711Y18063056D01*
X56255259Y18211044D01*
X56255259Y18211045D01*
X56256869Y18217225D01*
X56262653Y18327598D01*
X56267098Y18412402D01*
X56267098Y18412406D01*
X56267432Y18418783D01*
X56237250Y18618348D01*
X56167557Y18807768D01*
X56164191Y18813196D01*
X56164189Y18813201D01*
X56064563Y18973880D01*
X56061199Y18979306D01*
X56037181Y19004704D01*
X55926910Y19121312D01*
X55926909Y19121313D01*
X55922521Y19125953D01*
X55914991Y19131226D01*
X55836961Y19185863D01*
X55757188Y19241721D01*
X55571954Y19321879D01*
X55374385Y19363153D01*
X55369543Y19363407D01*
X55369541Y19363407D01*
X55369518Y19363408D01*
X55367764Y19363500D01*
X55219556Y19363500D01*
X55144648Y19355891D01*
X55075548Y19348872D01*
X55075547Y19348872D01*
X55069199Y19348227D01*
X54876600Y19287871D01*
X54700072Y19190019D01*
X54546825Y19058671D01*
X54423119Y18899190D01*
X54334008Y18718092D01*
X54283131Y18522775D01*
X54282797Y18516396D01*
X54273093Y18331226D01*
X54272568Y18321217D01*
X53722319Y18321217D01*
X53722653Y18327598D01*
X53727098Y18412402D01*
X53727098Y18412406D01*
X53727432Y18418783D01*
X53697250Y18618348D01*
X53627557Y18807768D01*
X53624191Y18813196D01*
X53624189Y18813201D01*
X53524563Y18973880D01*
X53521199Y18979306D01*
X53497181Y19004704D01*
X53386910Y19121312D01*
X53386909Y19121313D01*
X53382521Y19125953D01*
X53374991Y19131226D01*
X53296961Y19185863D01*
X53217188Y19241721D01*
X53031954Y19321879D01*
X52834385Y19363153D01*
X52829543Y19363407D01*
X52829541Y19363407D01*
X52829518Y19363408D01*
X52827764Y19363500D01*
X52679556Y19363500D01*
X52604648Y19355891D01*
X52535548Y19348872D01*
X52535547Y19348872D01*
X52529199Y19348227D01*
X52336600Y19287871D01*
X52160072Y19190019D01*
X52006825Y19058671D01*
X51883119Y18899190D01*
X51794008Y18718092D01*
X51743131Y18522775D01*
X51742797Y18516396D01*
X51733093Y18331226D01*
X51732568Y18321217D01*
X50766173Y18321217D01*
X51255545Y18810589D01*
X51270579Y18823430D01*
X51374853Y18899190D01*
X51411253Y18925636D01*
X51415675Y18930547D01*
X51534621Y19062650D01*
X51534622Y19062651D01*
X51539040Y19067558D01*
X51634527Y19232946D01*
X51693542Y19414574D01*
X51698959Y19466109D01*
X51712814Y19597937D01*
X51713504Y19604502D01*
X51693542Y19794430D01*
X51634527Y19976058D01*
X51625249Y19992129D01*
X51542341Y20135728D01*
X51539040Y20141446D01*
X51527239Y20154553D01*
X51415675Y20278457D01*
X51415674Y20278458D01*
X51411253Y20283368D01*
X51256752Y20395620D01*
X51250724Y20398304D01*
X51250722Y20398305D01*
X51088319Y20470611D01*
X51088318Y20470611D01*
X51082288Y20473296D01*
X50988888Y20493149D01*
X50901944Y20511630D01*
X50901939Y20511630D01*
X50895487Y20513002D01*
X50704513Y20513002D01*
X50698058Y20511630D01*
X50698049Y20511629D01*
X50673333Y20506375D01*
X50602542Y20511776D01*
X50545909Y20554592D01*
X50538016Y20566621D01*
X50487347Y20654382D01*
X50487346Y20654383D01*
X50484045Y20660101D01*
X50482167Y20662187D01*
X50458500Y20735026D01*
X50458500Y20861217D01*
X51732568Y20861217D01*
X51762750Y20661652D01*
X51832443Y20472232D01*
X51835809Y20466804D01*
X51835811Y20466799D01*
X51879944Y20395620D01*
X51938801Y20300694D01*
X51955185Y20283368D01*
X52017780Y20217177D01*
X52077479Y20154047D01*
X52082709Y20150385D01*
X52082710Y20150384D01*
X52095475Y20141446D01*
X52242812Y20038279D01*
X52428046Y19958121D01*
X52625615Y19916847D01*
X52630457Y19916593D01*
X52630459Y19916593D01*
X52630482Y19916592D01*
X52632236Y19916500D01*
X52780444Y19916500D01*
X52855352Y19924109D01*
X52924452Y19931128D01*
X52924453Y19931128D01*
X52930801Y19931773D01*
X53123400Y19992129D01*
X53299928Y20089981D01*
X53453175Y20221329D01*
X53576881Y20380810D01*
X53665992Y20561908D01*
X53676903Y20603793D01*
X53715259Y20751044D01*
X53715259Y20751045D01*
X53716869Y20757225D01*
X53722319Y20861217D01*
X54272568Y20861217D01*
X54302750Y20661652D01*
X54372443Y20472232D01*
X54375809Y20466804D01*
X54375811Y20466799D01*
X54419944Y20395620D01*
X54478801Y20300694D01*
X54495185Y20283368D01*
X54557780Y20217177D01*
X54617479Y20154047D01*
X54622709Y20150385D01*
X54622710Y20150384D01*
X54635475Y20141446D01*
X54782812Y20038279D01*
X54968046Y19958121D01*
X55165615Y19916847D01*
X55170457Y19916593D01*
X55170459Y19916593D01*
X55170482Y19916592D01*
X55172236Y19916500D01*
X55320444Y19916500D01*
X55395352Y19924109D01*
X55464452Y19931128D01*
X55464453Y19931128D01*
X55470801Y19931773D01*
X55663400Y19992129D01*
X55839928Y20089981D01*
X55993175Y20221329D01*
X56116881Y20380810D01*
X56205992Y20561908D01*
X56216903Y20603793D01*
X56255259Y20751044D01*
X56255259Y20751045D01*
X56256869Y20757225D01*
X56262653Y20867598D01*
X56267098Y20952402D01*
X56267098Y20952406D01*
X56267432Y20958783D01*
X56237250Y21158348D01*
X56167557Y21347768D01*
X56164191Y21353196D01*
X56164189Y21353201D01*
X56070793Y21503832D01*
X56061199Y21519306D01*
X56017928Y21565064D01*
X55926910Y21661312D01*
X55926909Y21661313D01*
X55922521Y21665953D01*
X55916505Y21670166D01*
X55861758Y21708500D01*
X55757188Y21781721D01*
X55571954Y21861879D01*
X55374385Y21903153D01*
X55369543Y21903407D01*
X55369541Y21903407D01*
X55369518Y21903408D01*
X55367764Y21903500D01*
X55219556Y21903500D01*
X55144648Y21895891D01*
X55075548Y21888872D01*
X55075547Y21888872D01*
X55069199Y21888227D01*
X54876600Y21827871D01*
X54700072Y21730019D01*
X54546825Y21598671D01*
X54542918Y21593634D01*
X54542916Y21593632D01*
X54516834Y21560007D01*
X54423119Y21439190D01*
X54334008Y21258092D01*
X54332399Y21251914D01*
X54332398Y21251912D01*
X54309587Y21164341D01*
X54283131Y21062775D01*
X54282797Y21056396D01*
X54275283Y20913014D01*
X54272568Y20861217D01*
X53722319Y20861217D01*
X53722653Y20867598D01*
X53727098Y20952402D01*
X53727098Y20952406D01*
X53727432Y20958783D01*
X53697250Y21158348D01*
X53627557Y21347768D01*
X53624191Y21353196D01*
X53624189Y21353201D01*
X53530793Y21503832D01*
X53521199Y21519306D01*
X53477928Y21565064D01*
X53386910Y21661312D01*
X53386909Y21661313D01*
X53382521Y21665953D01*
X53376505Y21670166D01*
X53321758Y21708500D01*
X53217188Y21781721D01*
X53031954Y21861879D01*
X52834385Y21903153D01*
X52829543Y21903407D01*
X52829541Y21903407D01*
X52829518Y21903408D01*
X52827764Y21903500D01*
X52679556Y21903500D01*
X52604648Y21895891D01*
X52535548Y21888872D01*
X52535547Y21888872D01*
X52529199Y21888227D01*
X52336600Y21827871D01*
X52160072Y21730019D01*
X52006825Y21598671D01*
X52002918Y21593634D01*
X52002916Y21593632D01*
X51976834Y21560007D01*
X51883119Y21439190D01*
X51794008Y21258092D01*
X51792399Y21251914D01*
X51792398Y21251912D01*
X51769587Y21164341D01*
X51743131Y21062775D01*
X51742797Y21056396D01*
X51735283Y20913014D01*
X51732568Y20861217D01*
X50458500Y20861217D01*
X50458500Y22289967D01*
X50478502Y22358088D01*
X50510439Y22391903D01*
X50544479Y22416635D01*
X50611253Y22465149D01*
X50671562Y22532129D01*
X50734621Y22602163D01*
X50734622Y22602164D01*
X50739040Y22607071D01*
X50828101Y22761329D01*
X50831223Y22766736D01*
X50831224Y22766737D01*
X50834527Y22772459D01*
X50893542Y22954087D01*
X50897678Y22993433D01*
X50912814Y23137450D01*
X50913504Y23144015D01*
X50907446Y23201652D01*
X50894232Y23327380D01*
X50894232Y23327382D01*
X50893542Y23333943D01*
X50871683Y23401217D01*
X51732568Y23401217D01*
X51762750Y23201652D01*
X51832443Y23012232D01*
X51835809Y23006804D01*
X51835811Y23006799D01*
X51868494Y22954087D01*
X51938801Y22840694D01*
X51943187Y22836056D01*
X52017780Y22757177D01*
X52077479Y22694047D01*
X52242812Y22578279D01*
X52428046Y22498121D01*
X52625615Y22456847D01*
X52630457Y22456593D01*
X52630459Y22456593D01*
X52630482Y22456592D01*
X52632236Y22456500D01*
X52780444Y22456500D01*
X52865590Y22465149D01*
X52924452Y22471128D01*
X52924453Y22471128D01*
X52930801Y22471773D01*
X53123400Y22532129D01*
X53299928Y22629981D01*
X53453175Y22761329D01*
X53461809Y22772459D01*
X53525554Y22854640D01*
X53576881Y22920810D01*
X53665992Y23101908D01*
X53716869Y23297225D01*
X53722319Y23401217D01*
X54272568Y23401217D01*
X54302750Y23201652D01*
X54372443Y23012232D01*
X54375809Y23006804D01*
X54375811Y23006799D01*
X54408494Y22954087D01*
X54478801Y22840694D01*
X54483187Y22836056D01*
X54557780Y22757177D01*
X54617479Y22694047D01*
X54782812Y22578279D01*
X54968046Y22498121D01*
X55165615Y22456847D01*
X55170457Y22456593D01*
X55170459Y22456593D01*
X55170482Y22456592D01*
X55172236Y22456500D01*
X55320444Y22456500D01*
X55405590Y22465149D01*
X55464452Y22471128D01*
X55464453Y22471128D01*
X55470801Y22471773D01*
X55663400Y22532129D01*
X55839928Y22629981D01*
X55993175Y22761329D01*
X56001809Y22772459D01*
X56065554Y22854640D01*
X56116881Y22920810D01*
X56205992Y23101908D01*
X56256869Y23297225D01*
X56267432Y23498783D01*
X56237250Y23698348D01*
X56167557Y23887768D01*
X56164191Y23893196D01*
X56164189Y23893201D01*
X56066260Y24051143D01*
X56061199Y24059306D01*
X55986147Y24138671D01*
X55926910Y24201312D01*
X55926909Y24201313D01*
X55922521Y24205953D01*
X55916639Y24210072D01*
X55836961Y24265863D01*
X55757188Y24321721D01*
X55571954Y24401879D01*
X55374385Y24443153D01*
X55369543Y24443407D01*
X55369541Y24443407D01*
X55369518Y24443408D01*
X55367764Y24443500D01*
X55219556Y24443500D01*
X55144648Y24435891D01*
X55075548Y24428872D01*
X55075547Y24428872D01*
X55069199Y24428227D01*
X54876600Y24367871D01*
X54700072Y24270019D01*
X54546825Y24138671D01*
X54423119Y23979190D01*
X54334008Y23798092D01*
X54332399Y23791914D01*
X54332398Y23791912D01*
X54294027Y23644606D01*
X54283131Y23602775D01*
X54279681Y23536944D01*
X54272903Y23407605D01*
X54272568Y23401217D01*
X53722319Y23401217D01*
X53727432Y23498783D01*
X53697250Y23698348D01*
X53627557Y23887768D01*
X53624191Y23893196D01*
X53624189Y23893201D01*
X53526260Y24051143D01*
X53521199Y24059306D01*
X53446147Y24138671D01*
X53386910Y24201312D01*
X53386909Y24201313D01*
X53382521Y24205953D01*
X53376639Y24210072D01*
X53296961Y24265863D01*
X53217188Y24321721D01*
X53031954Y24401879D01*
X52834385Y24443153D01*
X52829543Y24443407D01*
X52829541Y24443407D01*
X52829518Y24443408D01*
X52827764Y24443500D01*
X52679556Y24443500D01*
X52604648Y24435891D01*
X52535548Y24428872D01*
X52535547Y24428872D01*
X52529199Y24428227D01*
X52336600Y24367871D01*
X52160072Y24270019D01*
X52006825Y24138671D01*
X51883119Y23979190D01*
X51794008Y23798092D01*
X51792399Y23791914D01*
X51792398Y23791912D01*
X51754027Y23644606D01*
X51743131Y23602775D01*
X51739681Y23536944D01*
X51732903Y23407605D01*
X51732568Y23401217D01*
X50871683Y23401217D01*
X50834527Y23515571D01*
X50819965Y23540794D01*
X50760028Y23644606D01*
X50739040Y23680959D01*
X50701600Y23722541D01*
X50615675Y23817970D01*
X50615674Y23817971D01*
X50611253Y23822881D01*
X50512157Y23894879D01*
X50462094Y23931252D01*
X50462093Y23931253D01*
X50456752Y23935133D01*
X50450724Y23937817D01*
X50450722Y23937818D01*
X50288319Y24010124D01*
X50288318Y24010124D01*
X50282288Y24012809D01*
X50179163Y24034729D01*
X50101944Y24051143D01*
X50101939Y24051143D01*
X50095487Y24052515D01*
X49904513Y24052515D01*
X49898061Y24051143D01*
X49898056Y24051143D01*
X49820837Y24034729D01*
X49765431Y24022952D01*
X49694641Y24028354D01*
X49638009Y24071171D01*
X49613515Y24137808D01*
X49613235Y24146199D01*
X49613235Y24171984D01*
X49633237Y24240105D01*
X49686893Y24286598D01*
X49713035Y24295230D01*
X49882288Y24331206D01*
X49892575Y24335786D01*
X50050722Y24406197D01*
X50050724Y24406198D01*
X50056752Y24408882D01*
X50080751Y24426318D01*
X50112157Y24449136D01*
X50211253Y24521134D01*
X50339040Y24663056D01*
X50434527Y24828444D01*
X50493542Y25010072D01*
X50500065Y25072129D01*
X50512814Y25193435D01*
X50513504Y25200000D01*
X50506129Y25270166D01*
X50494232Y25383365D01*
X50494232Y25383367D01*
X50493542Y25389928D01*
X50434527Y25571556D01*
X50339040Y25736944D01*
X50276685Y25806197D01*
X50215675Y25873955D01*
X50215674Y25873956D01*
X50211253Y25878866D01*
X50125435Y25941217D01*
X51732568Y25941217D01*
X51762750Y25741652D01*
X51832443Y25552232D01*
X51835809Y25546804D01*
X51835811Y25546799D01*
X51848456Y25526405D01*
X51938801Y25380694D01*
X51943187Y25376056D01*
X52017780Y25297177D01*
X52077479Y25234047D01*
X52242812Y25118279D01*
X52428046Y25038121D01*
X52625615Y24996847D01*
X52630457Y24996593D01*
X52630459Y24996593D01*
X52630482Y24996592D01*
X52632236Y24996500D01*
X52780444Y24996500D01*
X52855352Y25004109D01*
X52924452Y25011128D01*
X52924453Y25011128D01*
X52930801Y25011773D01*
X53123400Y25072129D01*
X53299928Y25169981D01*
X53453175Y25301329D01*
X53457674Y25307128D01*
X53572972Y25455771D01*
X53576881Y25460810D01*
X53665992Y25641908D01*
X53690748Y25736944D01*
X53715259Y25831044D01*
X53715259Y25831045D01*
X53716869Y25837225D01*
X53722319Y25941217D01*
X54272568Y25941217D01*
X54302750Y25741652D01*
X54372443Y25552232D01*
X54375809Y25546804D01*
X54375811Y25546799D01*
X54388456Y25526405D01*
X54478801Y25380694D01*
X54483187Y25376056D01*
X54557780Y25297177D01*
X54617479Y25234047D01*
X54782812Y25118279D01*
X54968046Y25038121D01*
X55165615Y24996847D01*
X55170457Y24996593D01*
X55170459Y24996593D01*
X55170482Y24996592D01*
X55172236Y24996500D01*
X55320444Y24996500D01*
X55395352Y25004109D01*
X55464452Y25011128D01*
X55464453Y25011128D01*
X55470801Y25011773D01*
X55663400Y25072129D01*
X55839928Y25169981D01*
X55993175Y25301329D01*
X55997674Y25307128D01*
X56112972Y25455771D01*
X56116881Y25460810D01*
X56205992Y25641908D01*
X56230748Y25736944D01*
X56255259Y25831044D01*
X56255259Y25831045D01*
X56256869Y25837225D01*
X56267432Y26038783D01*
X56237250Y26238348D01*
X56167557Y26427768D01*
X56164191Y26433196D01*
X56164189Y26433201D01*
X56081556Y26566474D01*
X56061199Y26599306D01*
X56000228Y26663781D01*
X55926910Y26741312D01*
X55926909Y26741313D01*
X55922521Y26745953D01*
X55757188Y26861721D01*
X55571954Y26941879D01*
X55374385Y26983153D01*
X55369543Y26983407D01*
X55369541Y26983407D01*
X55369518Y26983408D01*
X55367764Y26983500D01*
X55219556Y26983500D01*
X55158313Y26977279D01*
X55075548Y26968872D01*
X55075547Y26968872D01*
X55069199Y26968227D01*
X54876600Y26907871D01*
X54700072Y26810019D01*
X54546825Y26678671D01*
X54423119Y26519190D01*
X54334008Y26338092D01*
X54332399Y26331914D01*
X54332398Y26331912D01*
X54306381Y26232033D01*
X54283131Y26142775D01*
X54272568Y25941217D01*
X53722319Y25941217D01*
X53727432Y26038783D01*
X53697250Y26238348D01*
X53627557Y26427768D01*
X53624191Y26433196D01*
X53624189Y26433201D01*
X53541556Y26566474D01*
X53521199Y26599306D01*
X53460228Y26663781D01*
X53386910Y26741312D01*
X53386909Y26741313D01*
X53382521Y26745953D01*
X53217188Y26861721D01*
X53031954Y26941879D01*
X52834385Y26983153D01*
X52829543Y26983407D01*
X52829541Y26983407D01*
X52829518Y26983408D01*
X52827764Y26983500D01*
X52679556Y26983500D01*
X52618313Y26977279D01*
X52535548Y26968872D01*
X52535547Y26968872D01*
X52529199Y26968227D01*
X52336600Y26907871D01*
X52160072Y26810019D01*
X52006825Y26678671D01*
X51883119Y26519190D01*
X51794008Y26338092D01*
X51792399Y26331914D01*
X51792398Y26331912D01*
X51766381Y26232033D01*
X51743131Y26142775D01*
X51732568Y25941217D01*
X50125435Y25941217D01*
X50056752Y25991118D01*
X50050724Y25993802D01*
X50050722Y25993803D01*
X49888319Y26066109D01*
X49888318Y26066109D01*
X49882288Y26068794D01*
X49788888Y26088647D01*
X49701944Y26107128D01*
X49701939Y26107128D01*
X49695487Y26108500D01*
X49504513Y26108500D01*
X49498061Y26107128D01*
X49498056Y26107128D01*
X49411112Y26088647D01*
X49317712Y26068794D01*
X49311682Y26066109D01*
X49311681Y26066109D01*
X49149278Y25993803D01*
X49149276Y25993802D01*
X49143248Y25991118D01*
X48988747Y25878866D01*
X48984326Y25873956D01*
X48984325Y25873955D01*
X48923316Y25806197D01*
X48860960Y25736944D01*
X48765473Y25571556D01*
X48706458Y25389928D01*
X48693871Y25270166D01*
X48693245Y25264214D01*
X48666232Y25198558D01*
X48657030Y25188290D01*
X48547130Y25078390D01*
X48538350Y25070400D01*
X48538348Y25070398D01*
X48531655Y25066151D01*
X48526229Y25060373D01*
X48526228Y25060372D01*
X48483131Y25014478D01*
X48480376Y25011636D01*
X48459808Y24991068D01*
X48457091Y24987565D01*
X48449383Y24978540D01*
X48417763Y24944868D01*
X48413942Y24937917D01*
X48413941Y24937916D01*
X48407432Y24926077D01*
X48396578Y24909553D01*
X48388753Y24899464D01*
X48383431Y24892603D01*
X48380284Y24885331D01*
X48380283Y24885329D01*
X48365081Y24850200D01*
X48359859Y24839540D01*
X48337611Y24799072D01*
X48332276Y24778294D01*
X48325877Y24759604D01*
X48317355Y24739911D01*
X48316115Y24732080D01*
X48310129Y24694287D01*
X48307722Y24682664D01*
X48296235Y24637923D01*
X48296235Y24616476D01*
X48294684Y24596766D01*
X48291329Y24575583D01*
X48292075Y24567692D01*
X48295676Y24529597D01*
X48296235Y24517739D01*
X48296235Y21014950D01*
X48276233Y20946829D01*
X48244296Y20913014D01*
X48164308Y20854899D01*
X48134743Y20833419D01*
X48130322Y20828509D01*
X48130321Y20828508D01*
X48046150Y20735026D01*
X48006956Y20691497D01*
X47911469Y20526109D01*
X47852454Y20344481D01*
X47832492Y20154553D01*
X47833182Y20147988D01*
X47849238Y19995227D01*
X47852454Y19964625D01*
X47911469Y19782997D01*
X48006956Y19617609D01*
X48011374Y19612702D01*
X48011375Y19612701D01*
X48024669Y19597937D01*
X48134743Y19475687D01*
X48289244Y19363435D01*
X48295272Y19360751D01*
X48295274Y19360750D01*
X48454672Y19289782D01*
X48463708Y19285759D01*
X48557108Y19265906D01*
X48644052Y19247425D01*
X48644057Y19247425D01*
X48650509Y19246053D01*
X48841483Y19246053D01*
X48847935Y19247425D01*
X48847940Y19247425D01*
X48870661Y19252255D01*
X48941452Y19246853D01*
X48998084Y19204036D01*
X49022578Y19137399D01*
X49007157Y19068097D01*
X48985953Y19039913D01*
X47466445Y17520405D01*
X47404133Y17486379D01*
X47377350Y17483500D01*
X41657604Y17483500D01*
X41589483Y17503502D01*
X41542990Y17557158D01*
X41532294Y17596329D01*
X41515316Y17757865D01*
X41515316Y17757867D01*
X41514626Y17764428D01*
X41455611Y17946056D01*
X41450535Y17954849D01*
X41408250Y18028088D01*
X41360124Y18111444D01*
X41264879Y18217225D01*
X41236759Y18248455D01*
X41236758Y18248456D01*
X41232337Y18253366D01*
X41105854Y18345262D01*
X41083178Y18361737D01*
X41083175Y18361739D01*
X41077836Y18365618D01*
X41071808Y18368302D01*
X41071806Y18368303D01*
X40909403Y18440609D01*
X40909402Y18440609D01*
X40903372Y18443294D01*
X40809971Y18463147D01*
X40723028Y18481628D01*
X40723023Y18481628D01*
X40716571Y18483000D01*
X40525597Y18483000D01*
X40519145Y18481628D01*
X40519140Y18481628D01*
X40432197Y18463147D01*
X40338796Y18443294D01*
X40332766Y18440609D01*
X40332765Y18440609D01*
X40170362Y18368303D01*
X40170360Y18368302D01*
X40164332Y18365618D01*
X40136312Y18345261D01*
X40069448Y18321403D01*
X40000297Y18337482D01*
X39973158Y18358102D01*
X36454855Y21876405D01*
X36420829Y21938717D01*
X36425894Y22009532D01*
X36468441Y22066368D01*
X36534961Y22091179D01*
X36543950Y22091500D01*
X36695487Y22091500D01*
X36701939Y22092872D01*
X36701944Y22092872D01*
X36788888Y22111353D01*
X36882288Y22131206D01*
X36888319Y22133891D01*
X37050722Y22206197D01*
X37050724Y22206198D01*
X37056752Y22208882D01*
X37206163Y22317436D01*
X37273031Y22341294D01*
X37280224Y22341500D01*
X41875050Y22341500D01*
X41943171Y22321498D01*
X41964145Y22304595D01*
X43457030Y20811710D01*
X43491056Y20749398D01*
X43493244Y20735789D01*
X43506458Y20610072D01*
X43508498Y20603795D01*
X43508498Y20603793D01*
X43523968Y20556181D01*
X43565473Y20428444D01*
X43568776Y20422722D01*
X43568777Y20422721D01*
X43592975Y20380810D01*
X43660960Y20263056D01*
X43665378Y20258149D01*
X43665379Y20258148D01*
X43784325Y20126045D01*
X43788747Y20121134D01*
X43943248Y20008882D01*
X43949276Y20006198D01*
X43949278Y20006197D01*
X44060193Y19956815D01*
X44117712Y19931206D01*
X44211113Y19911353D01*
X44298056Y19892872D01*
X44298061Y19892872D01*
X44304513Y19891500D01*
X44495487Y19891500D01*
X44501939Y19892872D01*
X44501944Y19892872D01*
X44588887Y19911353D01*
X44682288Y19931206D01*
X44739807Y19956815D01*
X44850722Y20006197D01*
X44850724Y20006198D01*
X44856752Y20008882D01*
X45011253Y20121134D01*
X45015675Y20126045D01*
X45134621Y20258148D01*
X45134622Y20258149D01*
X45139040Y20263056D01*
X45207025Y20380810D01*
X45231223Y20422721D01*
X45231224Y20422722D01*
X45234527Y20428444D01*
X45293542Y20610072D01*
X45313504Y20800000D01*
X45298072Y20946829D01*
X45294232Y20983365D01*
X45294232Y20983367D01*
X45293542Y20989928D01*
X45234527Y21171556D01*
X45139040Y21336944D01*
X45131370Y21345463D01*
X45015675Y21473955D01*
X45015674Y21473956D01*
X45011253Y21478866D01*
X44912157Y21550864D01*
X44862094Y21587237D01*
X44862093Y21587238D01*
X44856752Y21591118D01*
X44850724Y21593802D01*
X44850722Y21593803D01*
X44688319Y21666109D01*
X44688318Y21666109D01*
X44682288Y21668794D01*
X44588887Y21688647D01*
X44501944Y21707128D01*
X44501939Y21707128D01*
X44495487Y21708500D01*
X44474950Y21708500D01*
X44406829Y21728502D01*
X44385855Y21745405D01*
X42723655Y23407605D01*
X42715665Y23416385D01*
X42715663Y23416387D01*
X42711416Y23423080D01*
X42659742Y23471605D01*
X42656901Y23474359D01*
X42636333Y23494927D01*
X42632826Y23497647D01*
X42623804Y23505353D01*
X42612923Y23515571D01*
X42590133Y23536972D01*
X42583181Y23540794D01*
X42571342Y23547303D01*
X42554818Y23558157D01*
X42544132Y23566445D01*
X42537868Y23571304D01*
X42530596Y23574451D01*
X42530594Y23574452D01*
X42495465Y23589654D01*
X42484805Y23594876D01*
X42451284Y23613305D01*
X42451282Y23613306D01*
X42444337Y23617124D01*
X42423559Y23622459D01*
X42404869Y23628858D01*
X42385176Y23637380D01*
X42339552Y23644606D01*
X42327929Y23647013D01*
X42299928Y23654202D01*
X42283188Y23658500D01*
X42261741Y23658500D01*
X42242031Y23660051D01*
X42228677Y23662166D01*
X42220848Y23663406D01*
X42174859Y23659059D01*
X42163004Y23658500D01*
X39036857Y23658500D01*
X38968736Y23678502D01*
X38922243Y23732158D01*
X38912139Y23802432D01*
X38934862Y23858416D01*
X38939040Y23863056D01*
X39006090Y23979190D01*
X39031223Y24022721D01*
X39031224Y24022722D01*
X39034527Y24028444D01*
X39093542Y24210072D01*
X39102493Y24295231D01*
X39112814Y24393435D01*
X39113504Y24400000D01*
X39109073Y24442161D01*
X39094232Y24583365D01*
X39094232Y24583367D01*
X39093542Y24589928D01*
X39034527Y24771556D01*
X38939040Y24936944D01*
X38885337Y24996588D01*
X38815675Y25073955D01*
X38815674Y25073956D01*
X38811253Y25078866D01*
X38690104Y25166886D01*
X38662094Y25187237D01*
X38662093Y25187238D01*
X38656752Y25191118D01*
X38650724Y25193802D01*
X38650722Y25193803D01*
X38488319Y25266109D01*
X38488318Y25266109D01*
X38482288Y25268794D01*
X38388888Y25288647D01*
X38301944Y25307128D01*
X38301939Y25307128D01*
X38295487Y25308500D01*
X38274950Y25308500D01*
X38206829Y25328502D01*
X38185855Y25345405D01*
X37057442Y26473818D01*
X37023416Y26536130D01*
X37028481Y26606945D01*
X37071028Y26663781D01*
X37137548Y26688592D01*
X37146537Y26688913D01*
X38327637Y26688913D01*
X38395758Y26668911D01*
X38416732Y26652008D01*
X38457030Y26611710D01*
X38491056Y26549398D01*
X38493244Y26535789D01*
X38506458Y26410072D01*
X38565473Y26228444D01*
X38660960Y26063056D01*
X38665378Y26058149D01*
X38665379Y26058148D01*
X38725733Y25991118D01*
X38788747Y25921134D01*
X38943248Y25808882D01*
X38949276Y25806198D01*
X38949278Y25806197D01*
X39094591Y25741500D01*
X39117712Y25731206D01*
X39211112Y25711353D01*
X39298056Y25692872D01*
X39298061Y25692872D01*
X39304513Y25691500D01*
X39495487Y25691500D01*
X39501939Y25692872D01*
X39501944Y25692872D01*
X39588888Y25711353D01*
X39682288Y25731206D01*
X39705409Y25741500D01*
X39850722Y25806197D01*
X39850724Y25806198D01*
X39856752Y25808882D01*
X40011253Y25921134D01*
X40074267Y25991118D01*
X40134621Y26058148D01*
X40134622Y26058149D01*
X40139040Y26063056D01*
X40234527Y26228444D01*
X40293542Y26410072D01*
X40308864Y26555848D01*
X40312814Y26593435D01*
X40313504Y26600000D01*
X40305765Y26673632D01*
X40294232Y26783365D01*
X40294232Y26783367D01*
X40293542Y26789928D01*
X40234527Y26971556D01*
X40227832Y26983153D01*
X40165488Y27091135D01*
X40139040Y27136944D01*
X40101953Y27178134D01*
X40015675Y27273955D01*
X40015674Y27273956D01*
X40011253Y27278866D01*
X39856752Y27391118D01*
X39850724Y27393802D01*
X39850722Y27393803D01*
X39688319Y27466109D01*
X39688318Y27466109D01*
X39682288Y27468794D01*
X39588887Y27488647D01*
X39501944Y27507128D01*
X39501939Y27507128D01*
X39495487Y27508500D01*
X39474950Y27508500D01*
X39406829Y27528502D01*
X39385855Y27545405D01*
X39176242Y27755018D01*
X39168252Y27763798D01*
X39168250Y27763800D01*
X39164003Y27770493D01*
X39148470Y27785080D01*
X39112330Y27819017D01*
X39109488Y27821772D01*
X39088920Y27842340D01*
X39085413Y27845060D01*
X39076391Y27852766D01*
X39048500Y27878957D01*
X39042720Y27884385D01*
X39035768Y27888207D01*
X39023929Y27894716D01*
X39007405Y27905570D01*
X38996719Y27913858D01*
X38990455Y27918717D01*
X38983183Y27921864D01*
X38983181Y27921865D01*
X38948052Y27937067D01*
X38937392Y27942289D01*
X38903871Y27960718D01*
X38903869Y27960719D01*
X38896924Y27964537D01*
X38876146Y27969872D01*
X38857456Y27976271D01*
X38837763Y27984793D01*
X38792139Y27992019D01*
X38780516Y27994426D01*
X38744129Y28003768D01*
X38735775Y28005913D01*
X38714328Y28005913D01*
X38694618Y28007464D01*
X38681264Y28009579D01*
X38673435Y28010819D01*
X38627446Y28006472D01*
X38615591Y28005913D01*
X32561769Y28005913D01*
X32493648Y28025915D01*
X32487708Y28029977D01*
X32487454Y28030162D01*
X32393769Y28098228D01*
X32343639Y28134650D01*
X32343638Y28134651D01*
X32338297Y28138531D01*
X32332269Y28141215D01*
X32332267Y28141216D01*
X32169864Y28213522D01*
X32169863Y28213522D01*
X32163833Y28216207D01*
X32070432Y28236060D01*
X31983489Y28254541D01*
X31983484Y28254541D01*
X31977032Y28255913D01*
X31786058Y28255913D01*
X31779606Y28254541D01*
X31779601Y28254541D01*
X31692658Y28236060D01*
X31599257Y28216207D01*
X31593227Y28213522D01*
X31593226Y28213522D01*
X31430823Y28141216D01*
X31430821Y28141215D01*
X31424793Y28138531D01*
X31419452Y28134651D01*
X31419451Y28134650D01*
X31369388Y28098277D01*
X31270292Y28026279D01*
X31265871Y28021369D01*
X31265870Y28021368D01*
X31156134Y27899493D01*
X31142505Y27884357D01*
X31105555Y27820358D01*
X31076703Y27770384D01*
X31047018Y27718969D01*
X31026475Y27655744D01*
X31003944Y27586402D01*
X30963870Y27527797D01*
X30898473Y27500160D01*
X30828517Y27512267D01*
X30795016Y27536244D01*
X30096850Y28234410D01*
X30062824Y28296722D01*
X30062721Y28341268D01*
X30061636Y28341382D01*
X30076333Y28481217D01*
X51732568Y28481217D01*
X51762750Y28281652D01*
X51832443Y28092232D01*
X51835809Y28086804D01*
X51835811Y28086799D01*
X51876883Y28020557D01*
X51938801Y27920694D01*
X51943187Y27916056D01*
X52067046Y27785080D01*
X52077479Y27774047D01*
X52082709Y27770385D01*
X52082710Y27770384D01*
X52095202Y27761637D01*
X52242812Y27658279D01*
X52428046Y27578121D01*
X52625615Y27536847D01*
X52630457Y27536593D01*
X52630459Y27536593D01*
X52630482Y27536592D01*
X52632236Y27536500D01*
X52780444Y27536500D01*
X52855352Y27544109D01*
X52924452Y27551128D01*
X52924453Y27551128D01*
X52930801Y27551773D01*
X53123400Y27612129D01*
X53299928Y27709981D01*
X53453175Y27841329D01*
X53462047Y27852766D01*
X53529264Y27939423D01*
X53576881Y28000810D01*
X53665992Y28181908D01*
X53668804Y28192701D01*
X53715259Y28371044D01*
X53715259Y28371045D01*
X53716869Y28377225D01*
X53721668Y28468794D01*
X53722319Y28481217D01*
X54272568Y28481217D01*
X54302750Y28281652D01*
X54372443Y28092232D01*
X54375809Y28086804D01*
X54375811Y28086799D01*
X54416883Y28020557D01*
X54478801Y27920694D01*
X54483187Y27916056D01*
X54607046Y27785080D01*
X54617479Y27774047D01*
X54622709Y27770385D01*
X54622710Y27770384D01*
X54635202Y27761637D01*
X54782812Y27658279D01*
X54968046Y27578121D01*
X55165615Y27536847D01*
X55170457Y27536593D01*
X55170459Y27536593D01*
X55170482Y27536592D01*
X55172236Y27536500D01*
X55320444Y27536500D01*
X55395352Y27544109D01*
X55464452Y27551128D01*
X55464453Y27551128D01*
X55470801Y27551773D01*
X55663400Y27612129D01*
X55839928Y27709981D01*
X55993175Y27841329D01*
X56002047Y27852766D01*
X56069264Y27939423D01*
X56116881Y28000810D01*
X56205992Y28181908D01*
X56208804Y28192701D01*
X56255259Y28371044D01*
X56255259Y28371045D01*
X56256869Y28377225D01*
X56261668Y28468794D01*
X56267098Y28572402D01*
X56267098Y28572406D01*
X56267432Y28578783D01*
X56237250Y28778348D01*
X56167557Y28967768D01*
X56164191Y28973196D01*
X56164189Y28973201D01*
X56064563Y29133880D01*
X56061199Y29139306D01*
X55986147Y29218671D01*
X55926910Y29281312D01*
X55926909Y29281313D01*
X55922521Y29285953D01*
X55757188Y29401721D01*
X55571954Y29481879D01*
X55374385Y29523153D01*
X55369543Y29523407D01*
X55369541Y29523407D01*
X55369518Y29523408D01*
X55367764Y29523500D01*
X55219556Y29523500D01*
X55144648Y29515891D01*
X55075548Y29508872D01*
X55075547Y29508872D01*
X55069199Y29508227D01*
X54876600Y29447871D01*
X54700072Y29350019D01*
X54546825Y29218671D01*
X54423119Y29059190D01*
X54334008Y28878092D01*
X54332399Y28871914D01*
X54332398Y28871912D01*
X54296130Y28732680D01*
X54283131Y28682775D01*
X54281006Y28642226D01*
X54273998Y28508500D01*
X54272568Y28481217D01*
X53722319Y28481217D01*
X53727098Y28572402D01*
X53727098Y28572406D01*
X53727432Y28578783D01*
X53697250Y28778348D01*
X53627557Y28967768D01*
X53624191Y28973196D01*
X53624189Y28973201D01*
X53524563Y29133880D01*
X53521199Y29139306D01*
X53446147Y29218671D01*
X53386910Y29281312D01*
X53386909Y29281313D01*
X53382521Y29285953D01*
X53217188Y29401721D01*
X53031954Y29481879D01*
X52834385Y29523153D01*
X52829543Y29523407D01*
X52829541Y29523407D01*
X52829518Y29523408D01*
X52827764Y29523500D01*
X52679556Y29523500D01*
X52604648Y29515891D01*
X52535548Y29508872D01*
X52535547Y29508872D01*
X52529199Y29508227D01*
X52336600Y29447871D01*
X52160072Y29350019D01*
X52006825Y29218671D01*
X51883119Y29059190D01*
X51794008Y28878092D01*
X51792399Y28871914D01*
X51792398Y28871912D01*
X51756130Y28732680D01*
X51743131Y28682775D01*
X51741006Y28642226D01*
X51733998Y28508500D01*
X51732568Y28481217D01*
X30076333Y28481217D01*
X30080908Y28524745D01*
X30081598Y28531310D01*
X30061640Y28721197D01*
X30074412Y28791034D01*
X30089867Y28814683D01*
X30104660Y28832564D01*
X30112648Y28841342D01*
X32376637Y31105331D01*
X40212001Y31105331D01*
X40212371Y31098510D01*
X40217895Y31047648D01*
X40221521Y31032396D01*
X40266676Y30911946D01*
X40275214Y30896351D01*
X40351715Y30794276D01*
X40364276Y30781715D01*
X40466351Y30705214D01*
X40481946Y30696676D01*
X40602394Y30651522D01*
X40617649Y30647895D01*
X40668514Y30642369D01*
X40675328Y30642000D01*
X41297885Y30642000D01*
X41313124Y30646475D01*
X41314329Y30647865D01*
X41316000Y30655548D01*
X41316000Y30660116D01*
X41824000Y30660116D01*
X41828475Y30644877D01*
X41829865Y30643672D01*
X41837548Y30642001D01*
X42464669Y30642001D01*
X42471490Y30642371D01*
X42522352Y30647895D01*
X42537604Y30651521D01*
X42658054Y30696676D01*
X42673649Y30705214D01*
X42775724Y30781715D01*
X42788285Y30794276D01*
X42864786Y30896351D01*
X42873324Y30911946D01*
X42918478Y31032394D01*
X42922105Y31047649D01*
X42927631Y31098514D01*
X42928000Y31105328D01*
X42928000Y31727885D01*
X42923525Y31743124D01*
X42922135Y31744329D01*
X42914452Y31746000D01*
X41842115Y31746000D01*
X41826876Y31741525D01*
X41825671Y31740135D01*
X41824000Y31732452D01*
X41824000Y30660116D01*
X41316000Y30660116D01*
X41316000Y31727885D01*
X41311525Y31743124D01*
X41310135Y31744329D01*
X41302452Y31746000D01*
X40230116Y31746000D01*
X40214877Y31741525D01*
X40213672Y31740135D01*
X40212001Y31732452D01*
X40212001Y31105331D01*
X32376637Y31105331D01*
X33775901Y32504595D01*
X33838213Y32538621D01*
X33864996Y32541500D01*
X40086000Y32541500D01*
X40154121Y32521498D01*
X40200614Y32467842D01*
X40212000Y32415500D01*
X40212000Y32272115D01*
X40216475Y32256876D01*
X40217865Y32255671D01*
X40225548Y32254000D01*
X42909884Y32254000D01*
X42925123Y32258475D01*
X42926328Y32259865D01*
X42927999Y32267548D01*
X42927999Y32415500D01*
X42948001Y32483621D01*
X43001657Y32530114D01*
X43053999Y32541500D01*
X44150172Y32541500D01*
X44218293Y32521498D01*
X44264786Y32467842D01*
X44274890Y32397568D01*
X44271589Y32381828D01*
X44230989Y32235430D01*
X44207251Y32013305D01*
X44207548Y32008152D01*
X44207548Y32008149D01*
X44216155Y31858880D01*
X44220110Y31790285D01*
X44221247Y31785239D01*
X44221248Y31785233D01*
X44241119Y31697061D01*
X44269222Y31572361D01*
X44307461Y31478189D01*
X44340751Y31396206D01*
X44353266Y31365384D01*
X44404019Y31282562D01*
X44444566Y31216396D01*
X44469987Y31174912D01*
X44616250Y31006062D01*
X44788126Y30863368D01*
X44981000Y30750662D01*
X44985825Y30748820D01*
X44985826Y30748819D01*
X45034278Y30730317D01*
X45189692Y30670970D01*
X45194760Y30669939D01*
X45194763Y30669938D01*
X45265493Y30655548D01*
X45408597Y30626433D01*
X45413772Y30626243D01*
X45413774Y30626243D01*
X45626673Y30618436D01*
X45626677Y30618436D01*
X45631837Y30618247D01*
X45636957Y30618903D01*
X45636959Y30618903D01*
X45848288Y30645975D01*
X45848289Y30645975D01*
X45853416Y30646632D01*
X45858366Y30648117D01*
X46062429Y30709339D01*
X46062434Y30709341D01*
X46067384Y30710826D01*
X46267994Y30809104D01*
X46449860Y30938827D01*
X46532538Y31021217D01*
X51732568Y31021217D01*
X51762750Y30821652D01*
X51832443Y30632232D01*
X51835809Y30626804D01*
X51835811Y30626799D01*
X51885580Y30546531D01*
X51938801Y30460694D01*
X51943187Y30456056D01*
X52017780Y30377177D01*
X52077479Y30314047D01*
X52242812Y30198279D01*
X52428046Y30118121D01*
X52625615Y30076847D01*
X52630457Y30076593D01*
X52630459Y30076593D01*
X52630482Y30076592D01*
X52632236Y30076500D01*
X52780444Y30076500D01*
X52855352Y30084109D01*
X52924452Y30091128D01*
X52924453Y30091128D01*
X52930801Y30091773D01*
X53123400Y30152129D01*
X53299928Y30249981D01*
X53453175Y30381329D01*
X53461193Y30391665D01*
X53558607Y30517251D01*
X53576881Y30540810D01*
X53665992Y30721908D01*
X53668183Y30730317D01*
X53715259Y30911044D01*
X53715259Y30911045D01*
X53716869Y30917225D01*
X53722319Y31021217D01*
X54272568Y31021217D01*
X54302750Y30821652D01*
X54372443Y30632232D01*
X54375809Y30626804D01*
X54375811Y30626799D01*
X54425580Y30546531D01*
X54478801Y30460694D01*
X54483187Y30456056D01*
X54557780Y30377177D01*
X54617479Y30314047D01*
X54782812Y30198279D01*
X54968046Y30118121D01*
X55165615Y30076847D01*
X55170457Y30076593D01*
X55170459Y30076593D01*
X55170482Y30076592D01*
X55172236Y30076500D01*
X55320444Y30076500D01*
X55395352Y30084109D01*
X55464452Y30091128D01*
X55464453Y30091128D01*
X55470801Y30091773D01*
X55663400Y30152129D01*
X55839928Y30249981D01*
X55993175Y30381329D01*
X56001193Y30391665D01*
X56098607Y30517251D01*
X56116881Y30540810D01*
X56205992Y30721908D01*
X56208183Y30730317D01*
X56255259Y30911044D01*
X56255259Y30911045D01*
X56256869Y30917225D01*
X56264361Y31060185D01*
X56267098Y31112402D01*
X56267098Y31112406D01*
X56267432Y31118783D01*
X56237250Y31318348D01*
X56167557Y31507768D01*
X56164191Y31513196D01*
X56164189Y31513201D01*
X56094696Y31625280D01*
X56061199Y31679306D01*
X56000849Y31743124D01*
X55926910Y31821312D01*
X55926909Y31821313D01*
X55922521Y31825953D01*
X55757188Y31941721D01*
X55571954Y32021879D01*
X55374385Y32063153D01*
X55369543Y32063407D01*
X55369541Y32063407D01*
X55369518Y32063408D01*
X55367764Y32063500D01*
X55219556Y32063500D01*
X55147749Y32056206D01*
X55075548Y32048872D01*
X55075547Y32048872D01*
X55069199Y32048227D01*
X54876600Y31987871D01*
X54700072Y31890019D01*
X54695223Y31885863D01*
X54682482Y31874943D01*
X54546825Y31758671D01*
X54542918Y31753634D01*
X54542916Y31753632D01*
X54522945Y31727885D01*
X54423119Y31599190D01*
X54334008Y31418092D01*
X54332399Y31411914D01*
X54332398Y31411912D01*
X54297496Y31277923D01*
X54283131Y31222775D01*
X54280853Y31179311D01*
X54273154Y31032394D01*
X54272568Y31021217D01*
X53722319Y31021217D01*
X53724361Y31060185D01*
X53727098Y31112402D01*
X53727098Y31112406D01*
X53727432Y31118783D01*
X53697250Y31318348D01*
X53627557Y31507768D01*
X53624191Y31513196D01*
X53624189Y31513201D01*
X53554696Y31625280D01*
X53521199Y31679306D01*
X53460849Y31743124D01*
X53386910Y31821312D01*
X53386909Y31821313D01*
X53382521Y31825953D01*
X53217188Y31941721D01*
X53031954Y32021879D01*
X52834385Y32063153D01*
X52829543Y32063407D01*
X52829541Y32063407D01*
X52829518Y32063408D01*
X52827764Y32063500D01*
X52679556Y32063500D01*
X52607749Y32056206D01*
X52535548Y32048872D01*
X52535547Y32048872D01*
X52529199Y32048227D01*
X52336600Y31987871D01*
X52160072Y31890019D01*
X52155223Y31885863D01*
X52142482Y31874943D01*
X52006825Y31758671D01*
X52002918Y31753634D01*
X52002916Y31753632D01*
X51982945Y31727885D01*
X51883119Y31599190D01*
X51794008Y31418092D01*
X51792399Y31411914D01*
X51792398Y31411912D01*
X51757496Y31277923D01*
X51743131Y31222775D01*
X51740853Y31179311D01*
X51733154Y31032394D01*
X51732568Y31021217D01*
X46532538Y31021217D01*
X46608096Y31096511D01*
X46667594Y31179311D01*
X46735435Y31273723D01*
X46738453Y31277923D01*
X46790566Y31383365D01*
X46835136Y31473547D01*
X46835137Y31473549D01*
X46837430Y31478189D01*
X46896886Y31673880D01*
X46900865Y31686977D01*
X46900865Y31686979D01*
X46902370Y31691931D01*
X46931529Y31913410D01*
X46933156Y31980000D01*
X46914852Y32202639D01*
X46860431Y32419298D01*
X46771354Y32624160D01*
X46650014Y32811723D01*
X46499670Y32976949D01*
X46495619Y32980148D01*
X46495615Y32980152D01*
X46328414Y33112200D01*
X46328410Y33112202D01*
X46324359Y33115402D01*
X46283053Y33138204D01*
X46233084Y33188636D01*
X46218312Y33258079D01*
X46243428Y33324484D01*
X46270780Y33351091D01*
X46410909Y33451044D01*
X46449860Y33478827D01*
X46532538Y33561217D01*
X51732568Y33561217D01*
X51762750Y33361652D01*
X51832443Y33172232D01*
X51835809Y33166804D01*
X51835811Y33166799D01*
X51867679Y33115402D01*
X51938801Y33000694D01*
X51943187Y32996056D01*
X52066506Y32865651D01*
X52077479Y32854047D01*
X52242812Y32738279D01*
X52428046Y32658121D01*
X52625615Y32616847D01*
X52630457Y32616593D01*
X52630459Y32616593D01*
X52630482Y32616592D01*
X52632236Y32616500D01*
X52780444Y32616500D01*
X52855854Y32624160D01*
X52924452Y32631128D01*
X52924453Y32631128D01*
X52930801Y32631773D01*
X53123400Y32692129D01*
X53299928Y32789981D01*
X53453175Y32921329D01*
X53479278Y32954980D01*
X53572972Y33075771D01*
X53576881Y33080810D01*
X53665992Y33261908D01*
X53675052Y33296687D01*
X53715259Y33451044D01*
X53715259Y33451045D01*
X53716869Y33457225D01*
X53722319Y33561217D01*
X54272568Y33561217D01*
X54302750Y33361652D01*
X54372443Y33172232D01*
X54375809Y33166804D01*
X54375811Y33166799D01*
X54407679Y33115402D01*
X54478801Y33000694D01*
X54483187Y32996056D01*
X54606506Y32865651D01*
X54617479Y32854047D01*
X54782812Y32738279D01*
X54968046Y32658121D01*
X55165615Y32616847D01*
X55170457Y32616593D01*
X55170459Y32616593D01*
X55170482Y32616592D01*
X55172236Y32616500D01*
X55320444Y32616500D01*
X55395854Y32624160D01*
X55464452Y32631128D01*
X55464453Y32631128D01*
X55470801Y32631773D01*
X55663400Y32692129D01*
X55839928Y32789981D01*
X55993175Y32921329D01*
X56019278Y32954980D01*
X56112972Y33075771D01*
X56116881Y33080810D01*
X56205992Y33261908D01*
X56215052Y33296687D01*
X56255259Y33451044D01*
X56255259Y33451045D01*
X56256869Y33457225D01*
X56264358Y33600118D01*
X56267098Y33652402D01*
X56267098Y33652406D01*
X56267432Y33658783D01*
X56237250Y33858348D01*
X56167557Y34047768D01*
X56164191Y34053196D01*
X56164189Y34053201D01*
X56064563Y34213880D01*
X56061199Y34219306D01*
X55986147Y34298671D01*
X55926910Y34361312D01*
X55926909Y34361313D01*
X55922521Y34365953D01*
X55757188Y34481721D01*
X55571954Y34561879D01*
X55374385Y34603153D01*
X55369543Y34603407D01*
X55369541Y34603407D01*
X55369518Y34603408D01*
X55367764Y34603500D01*
X55219556Y34603500D01*
X55144648Y34595891D01*
X55075548Y34588872D01*
X55075547Y34588872D01*
X55069199Y34588227D01*
X54876600Y34527871D01*
X54700072Y34430019D01*
X54546825Y34298671D01*
X54423119Y34139190D01*
X54334008Y33958092D01*
X54332399Y33951914D01*
X54332398Y33951912D01*
X54297496Y33817923D01*
X54283131Y33762775D01*
X54282797Y33756396D01*
X54274607Y33600118D01*
X54272568Y33561217D01*
X53722319Y33561217D01*
X53724358Y33600118D01*
X53727098Y33652402D01*
X53727098Y33652406D01*
X53727432Y33658783D01*
X53697250Y33858348D01*
X53627557Y34047768D01*
X53624191Y34053196D01*
X53624189Y34053201D01*
X53524563Y34213880D01*
X53521199Y34219306D01*
X53446147Y34298671D01*
X53386910Y34361312D01*
X53386909Y34361313D01*
X53382521Y34365953D01*
X53217188Y34481721D01*
X53031954Y34561879D01*
X52834385Y34603153D01*
X52829543Y34603407D01*
X52829541Y34603407D01*
X52829518Y34603408D01*
X52827764Y34603500D01*
X52679556Y34603500D01*
X52604648Y34595891D01*
X52535548Y34588872D01*
X52535547Y34588872D01*
X52529199Y34588227D01*
X52336600Y34527871D01*
X52160072Y34430019D01*
X52006825Y34298671D01*
X51883119Y34139190D01*
X51794008Y33958092D01*
X51792399Y33951914D01*
X51792398Y33951912D01*
X51757496Y33817923D01*
X51743131Y33762775D01*
X51742797Y33756396D01*
X51734607Y33600118D01*
X51732568Y33561217D01*
X46532538Y33561217D01*
X46608096Y33636511D01*
X46738453Y33817923D01*
X46752197Y33845731D01*
X46835136Y34013547D01*
X46835137Y34013549D01*
X46837430Y34018189D01*
X46892950Y34200926D01*
X46900865Y34226977D01*
X46900865Y34226979D01*
X46902370Y34231931D01*
X46931529Y34453410D01*
X46933156Y34520000D01*
X46914852Y34742639D01*
X46860431Y34959298D01*
X46771354Y35164160D01*
X46724522Y35236551D01*
X46652822Y35347383D01*
X46652820Y35347386D01*
X46650014Y35351723D01*
X46499670Y35516949D01*
X46495619Y35520148D01*
X46495615Y35520152D01*
X46328414Y35652200D01*
X46328410Y35652202D01*
X46324359Y35655402D01*
X46283053Y35678204D01*
X46233084Y35728636D01*
X46218312Y35798079D01*
X46243428Y35864484D01*
X46270780Y35891091D01*
X46410909Y35991044D01*
X46449860Y36018827D01*
X46532538Y36101217D01*
X51732568Y36101217D01*
X51762750Y35901652D01*
X51832443Y35712232D01*
X51835809Y35706804D01*
X51835811Y35706799D01*
X51867679Y35655402D01*
X51938801Y35540694D01*
X51943187Y35536056D01*
X52017780Y35457177D01*
X52077479Y35394047D01*
X52242812Y35278279D01*
X52428046Y35198121D01*
X52625615Y35156847D01*
X52630457Y35156593D01*
X52630459Y35156593D01*
X52630482Y35156592D01*
X52632236Y35156500D01*
X52780444Y35156500D01*
X52859585Y35164539D01*
X52924452Y35171128D01*
X52924453Y35171128D01*
X52930801Y35171773D01*
X53123400Y35232129D01*
X53131378Y35236551D01*
X53213814Y35282247D01*
X53299928Y35329981D01*
X53453175Y35461329D01*
X53576881Y35620810D01*
X53665992Y35801908D01*
X53669967Y35817166D01*
X53715259Y35991044D01*
X53715259Y35991045D01*
X53716869Y35997225D01*
X53722319Y36101217D01*
X54272568Y36101217D01*
X54302750Y35901652D01*
X54372443Y35712232D01*
X54375809Y35706804D01*
X54375811Y35706799D01*
X54407679Y35655402D01*
X54478801Y35540694D01*
X54483187Y35536056D01*
X54557780Y35457177D01*
X54617479Y35394047D01*
X54782812Y35278279D01*
X54968046Y35198121D01*
X55165615Y35156847D01*
X55170457Y35156593D01*
X55170459Y35156593D01*
X55170482Y35156592D01*
X55172236Y35156500D01*
X55320444Y35156500D01*
X55399585Y35164539D01*
X55464452Y35171128D01*
X55464453Y35171128D01*
X55470801Y35171773D01*
X55663400Y35232129D01*
X55671378Y35236551D01*
X55753814Y35282247D01*
X55839928Y35329981D01*
X55993175Y35461329D01*
X56116881Y35620810D01*
X56205992Y35801908D01*
X56209967Y35817166D01*
X56255259Y35991044D01*
X56255259Y35991045D01*
X56256869Y35997225D01*
X56267432Y36198783D01*
X56237250Y36398348D01*
X56167557Y36587768D01*
X56164191Y36593196D01*
X56164189Y36593201D01*
X56083540Y36723274D01*
X56061199Y36759306D01*
X55984243Y36840684D01*
X55926910Y36901312D01*
X55926909Y36901313D01*
X55922521Y36905953D01*
X55757188Y37021721D01*
X55571954Y37101879D01*
X55374385Y37143153D01*
X55369543Y37143407D01*
X55369541Y37143407D01*
X55369518Y37143408D01*
X55367764Y37143500D01*
X55219556Y37143500D01*
X55144648Y37135891D01*
X55075548Y37128872D01*
X55075547Y37128872D01*
X55069199Y37128227D01*
X54876600Y37067871D01*
X54700072Y36970019D01*
X54546825Y36838671D01*
X54423119Y36679190D01*
X54334008Y36498092D01*
X54332399Y36491914D01*
X54332398Y36491912D01*
X54297496Y36357923D01*
X54283131Y36302775D01*
X54282797Y36296396D01*
X54273858Y36125825D01*
X54272568Y36101217D01*
X53722319Y36101217D01*
X53727432Y36198783D01*
X53697250Y36398348D01*
X53627557Y36587768D01*
X53624191Y36593196D01*
X53624189Y36593201D01*
X53543540Y36723274D01*
X53521199Y36759306D01*
X53444243Y36840684D01*
X53386910Y36901312D01*
X53386909Y36901313D01*
X53382521Y36905953D01*
X53217188Y37021721D01*
X53031954Y37101879D01*
X52834385Y37143153D01*
X52829543Y37143407D01*
X52829541Y37143407D01*
X52829518Y37143408D01*
X52827764Y37143500D01*
X52679556Y37143500D01*
X52604648Y37135891D01*
X52535548Y37128872D01*
X52535547Y37128872D01*
X52529199Y37128227D01*
X52336600Y37067871D01*
X52160072Y36970019D01*
X52006825Y36838671D01*
X51883119Y36679190D01*
X51794008Y36498092D01*
X51792399Y36491914D01*
X51792398Y36491912D01*
X51757496Y36357923D01*
X51743131Y36302775D01*
X51742797Y36296396D01*
X51733858Y36125825D01*
X51732568Y36101217D01*
X46532538Y36101217D01*
X46608096Y36176511D01*
X46738453Y36357923D01*
X46750489Y36382275D01*
X46835136Y36553547D01*
X46835137Y36553549D01*
X46837430Y36558189D01*
X46891271Y36735401D01*
X46900865Y36766977D01*
X46900865Y36766979D01*
X46902370Y36771931D01*
X46931529Y36993410D01*
X46933156Y37060000D01*
X46914852Y37282639D01*
X46860431Y37499298D01*
X46771354Y37704160D01*
X46724644Y37776362D01*
X46652822Y37887383D01*
X46652820Y37887386D01*
X46650014Y37891723D01*
X46646540Y37895541D01*
X46646533Y37895550D01*
X46502435Y38053912D01*
X46471383Y38117758D01*
X46479779Y38188256D01*
X46524956Y38243024D01*
X46551400Y38256693D01*
X46658052Y38296675D01*
X46673649Y38305214D01*
X46775724Y38381715D01*
X46788285Y38394276D01*
X46864786Y38496351D01*
X46873324Y38511946D01*
X46918478Y38632394D01*
X46920576Y38641217D01*
X51732568Y38641217D01*
X51762750Y38441652D01*
X51832443Y38252232D01*
X51835809Y38246804D01*
X51835811Y38246799D01*
X51885580Y38166531D01*
X51938801Y38080694D01*
X51943187Y38076056D01*
X52017780Y37997177D01*
X52077479Y37934047D01*
X52242812Y37818279D01*
X52428046Y37738121D01*
X52625615Y37696847D01*
X52630457Y37696593D01*
X52630459Y37696593D01*
X52630482Y37696592D01*
X52632236Y37696500D01*
X52780444Y37696500D01*
X52855854Y37704160D01*
X52924452Y37711128D01*
X52924453Y37711128D01*
X52930801Y37711773D01*
X53123400Y37772129D01*
X53131037Y37776362D01*
X53213262Y37821941D01*
X53299928Y37869981D01*
X53453175Y38001329D01*
X53508870Y38073130D01*
X53572972Y38155771D01*
X53576881Y38160810D01*
X53665992Y38341908D01*
X53675376Y38377931D01*
X53715259Y38531044D01*
X53715259Y38531045D01*
X53716869Y38537225D01*
X53721420Y38624070D01*
X53722319Y38641217D01*
X54272568Y38641217D01*
X54302750Y38441652D01*
X54372443Y38252232D01*
X54375809Y38246804D01*
X54375811Y38246799D01*
X54425580Y38166531D01*
X54478801Y38080694D01*
X54483187Y38076056D01*
X54557780Y37997177D01*
X54617479Y37934047D01*
X54782812Y37818279D01*
X54968046Y37738121D01*
X55165615Y37696847D01*
X55170457Y37696593D01*
X55170459Y37696593D01*
X55170482Y37696592D01*
X55172236Y37696500D01*
X55320444Y37696500D01*
X55395854Y37704160D01*
X55464452Y37711128D01*
X55464453Y37711128D01*
X55470801Y37711773D01*
X55663400Y37772129D01*
X55671037Y37776362D01*
X55753262Y37821941D01*
X55839928Y37869981D01*
X55993175Y38001329D01*
X56048870Y38073130D01*
X56112972Y38155771D01*
X56116881Y38160810D01*
X56205992Y38341908D01*
X56215376Y38377931D01*
X56255259Y38531044D01*
X56255259Y38531045D01*
X56256869Y38537225D01*
X56261420Y38624070D01*
X56267098Y38732402D01*
X56267098Y38732406D01*
X56267432Y38738783D01*
X56237250Y38938348D01*
X56167557Y39127768D01*
X56164191Y39133196D01*
X56164189Y39133201D01*
X56064563Y39293880D01*
X56061199Y39299306D01*
X55986147Y39378671D01*
X55926910Y39441312D01*
X55926909Y39441313D01*
X55922521Y39445953D01*
X55757188Y39561721D01*
X55571954Y39641879D01*
X55374385Y39683153D01*
X55369543Y39683407D01*
X55369541Y39683407D01*
X55369518Y39683408D01*
X55367764Y39683500D01*
X55219556Y39683500D01*
X55144648Y39675891D01*
X55075548Y39668872D01*
X55075547Y39668872D01*
X55069199Y39668227D01*
X54876600Y39607871D01*
X54700072Y39510019D01*
X54546825Y39378671D01*
X54542918Y39373634D01*
X54542916Y39373632D01*
X54516933Y39340135D01*
X54423119Y39219190D01*
X54334008Y39038092D01*
X54283131Y38842775D01*
X54278580Y38755930D01*
X54273027Y38649969D01*
X54272568Y38641217D01*
X53722319Y38641217D01*
X53727098Y38732402D01*
X53727098Y38732406D01*
X53727432Y38738783D01*
X53697250Y38938348D01*
X53627557Y39127768D01*
X53624191Y39133196D01*
X53624189Y39133201D01*
X53524563Y39293880D01*
X53521199Y39299306D01*
X53446147Y39378671D01*
X53386910Y39441312D01*
X53386909Y39441313D01*
X53382521Y39445953D01*
X53217188Y39561721D01*
X53031954Y39641879D01*
X52834385Y39683153D01*
X52829543Y39683407D01*
X52829541Y39683407D01*
X52829518Y39683408D01*
X52827764Y39683500D01*
X52679556Y39683500D01*
X52604648Y39675891D01*
X52535548Y39668872D01*
X52535547Y39668872D01*
X52529199Y39668227D01*
X52336600Y39607871D01*
X52160072Y39510019D01*
X52006825Y39378671D01*
X52002918Y39373634D01*
X52002916Y39373632D01*
X51976933Y39340135D01*
X51883119Y39219190D01*
X51794008Y39038092D01*
X51743131Y38842775D01*
X51738580Y38755930D01*
X51733027Y38649969D01*
X51732568Y38641217D01*
X46920576Y38641217D01*
X46922105Y38647649D01*
X46927631Y38698514D01*
X46928000Y38705328D01*
X46928000Y39327885D01*
X46923525Y39343124D01*
X46922135Y39344329D01*
X46914452Y39346000D01*
X44230116Y39346000D01*
X44214877Y39341525D01*
X44213672Y39340135D01*
X44212001Y39332452D01*
X44212001Y38705331D01*
X44212371Y38698510D01*
X44217895Y38647648D01*
X44221521Y38632396D01*
X44266676Y38511946D01*
X44275214Y38496351D01*
X44351715Y38394276D01*
X44364276Y38381715D01*
X44466351Y38305214D01*
X44481946Y38296676D01*
X44590827Y38255858D01*
X44647591Y38213216D01*
X44672291Y38146655D01*
X44657083Y38077306D01*
X44637691Y38050825D01*
X44530531Y37938688D01*
X44510629Y37917862D01*
X44507715Y37913590D01*
X44507714Y37913589D01*
X44445196Y37821941D01*
X44384743Y37733320D01*
X44367813Y37696847D01*
X44299972Y37550695D01*
X44290688Y37530695D01*
X44230989Y37315430D01*
X44207251Y37093305D01*
X44207548Y37088152D01*
X44207548Y37088149D01*
X44214599Y36965863D01*
X44220110Y36870285D01*
X44221247Y36865238D01*
X44221248Y36865234D01*
X44228370Y36833632D01*
X44246344Y36753880D01*
X44246951Y36751185D01*
X44242415Y36680334D01*
X44213129Y36634389D01*
X44154145Y36575405D01*
X44091833Y36541379D01*
X44065050Y36538500D01*
X42995340Y36538500D01*
X42927219Y36558502D01*
X42880726Y36612158D01*
X42870622Y36682432D01*
X42874782Y36701129D01*
X42881510Y36723274D01*
X42902370Y36791931D01*
X42931529Y37013410D01*
X42932585Y37056635D01*
X42933074Y37076635D01*
X42933074Y37076639D01*
X42933156Y37080000D01*
X42914852Y37302639D01*
X42860431Y37519298D01*
X42771354Y37724160D01*
X42719359Y37804532D01*
X42652822Y37907383D01*
X42652820Y37907386D01*
X42650014Y37911723D01*
X42499670Y38076949D01*
X42495619Y38080148D01*
X42495615Y38080152D01*
X42328414Y38212200D01*
X42328410Y38212202D01*
X42324359Y38215402D01*
X42283053Y38238204D01*
X42233084Y38288636D01*
X42218312Y38358079D01*
X42243428Y38424484D01*
X42270780Y38451091D01*
X42334232Y38496351D01*
X42449860Y38578827D01*
X42608096Y38736511D01*
X42667594Y38819311D01*
X42735435Y38913723D01*
X42738453Y38917923D01*
X42800675Y39043819D01*
X42835136Y39113547D01*
X42835137Y39113549D01*
X42837430Y39118189D01*
X42902370Y39331931D01*
X42931529Y39553410D01*
X42932860Y39607871D01*
X42933074Y39616635D01*
X42933074Y39616639D01*
X42933156Y39620000D01*
X42914852Y39842639D01*
X42907448Y39872115D01*
X44212000Y39872115D01*
X44216475Y39856876D01*
X44217865Y39855671D01*
X44225548Y39854000D01*
X45297885Y39854000D01*
X45313124Y39858475D01*
X45314329Y39859865D01*
X45316000Y39867548D01*
X45316000Y39872115D01*
X45824000Y39872115D01*
X45828475Y39856876D01*
X45829865Y39855671D01*
X45837548Y39854000D01*
X46909884Y39854000D01*
X46925123Y39858475D01*
X46926328Y39859865D01*
X46927999Y39867548D01*
X46927999Y40494669D01*
X46927629Y40501490D01*
X46922105Y40552352D01*
X46918479Y40567604D01*
X46873324Y40688054D01*
X46864786Y40703649D01*
X46788285Y40805724D01*
X46775724Y40818285D01*
X46673649Y40894786D01*
X46658054Y40903324D01*
X46537606Y40948478D01*
X46522351Y40952105D01*
X46471486Y40957631D01*
X46464672Y40958000D01*
X45842115Y40958000D01*
X45826876Y40953525D01*
X45825671Y40952135D01*
X45824000Y40944452D01*
X45824000Y39872115D01*
X45316000Y39872115D01*
X45316000Y40939884D01*
X45311525Y40955123D01*
X45310135Y40956328D01*
X45302452Y40957999D01*
X44675331Y40957999D01*
X44668510Y40957629D01*
X44617648Y40952105D01*
X44602396Y40948479D01*
X44481946Y40903324D01*
X44466351Y40894786D01*
X44364276Y40818285D01*
X44351715Y40805724D01*
X44275214Y40703649D01*
X44266676Y40688054D01*
X44221522Y40567606D01*
X44217895Y40552351D01*
X44212369Y40501486D01*
X44212000Y40494672D01*
X44212000Y39872115D01*
X42907448Y39872115D01*
X42860431Y40059298D01*
X42771354Y40264160D01*
X42708097Y40361941D01*
X42652822Y40447383D01*
X42652820Y40447386D01*
X42650014Y40451723D01*
X42499670Y40616949D01*
X42495619Y40620148D01*
X42495615Y40620152D01*
X42328414Y40752200D01*
X42328410Y40752202D01*
X42324359Y40755402D01*
X42128789Y40863362D01*
X42123920Y40865086D01*
X42123916Y40865088D01*
X41923087Y40936205D01*
X41923083Y40936206D01*
X41918212Y40937931D01*
X41913119Y40938838D01*
X41913116Y40938839D01*
X41703373Y40976200D01*
X41703367Y40976201D01*
X41698284Y40977106D01*
X41624452Y40978008D01*
X41480081Y40979772D01*
X41480079Y40979772D01*
X41474911Y40979835D01*
X41254091Y40946045D01*
X41041756Y40876643D01*
X41011443Y40860863D01*
X40869168Y40786799D01*
X40843607Y40773493D01*
X40839474Y40770390D01*
X40839471Y40770388D01*
X40669100Y40642470D01*
X40664965Y40639365D01*
X40661393Y40635627D01*
X40571280Y40541329D01*
X40510629Y40477862D01*
X40384743Y40293320D01*
X40290688Y40090695D01*
X40230989Y39875430D01*
X40207251Y39653305D01*
X40207548Y39648152D01*
X40207548Y39648149D01*
X40213011Y39553410D01*
X40220110Y39430285D01*
X40221247Y39425239D01*
X40221248Y39425233D01*
X40230806Y39382823D01*
X40269222Y39212361D01*
X40353266Y39005384D01*
X40355965Y39000980D01*
X40456822Y38836396D01*
X40469987Y38814912D01*
X40616250Y38646062D01*
X40788126Y38503368D01*
X40858595Y38462189D01*
X40861445Y38460524D01*
X40910169Y38408886D01*
X40923240Y38339103D01*
X40896509Y38273331D01*
X40856055Y38239973D01*
X40843607Y38233493D01*
X40839474Y38230390D01*
X40839471Y38230388D01*
X40727949Y38146655D01*
X40664965Y38099365D01*
X40661393Y38095627D01*
X40571280Y38001329D01*
X40510629Y37937862D01*
X40507715Y37933590D01*
X40507714Y37933589D01*
X40467159Y37874137D01*
X40384743Y37753320D01*
X40369003Y37719410D01*
X40305916Y37583500D01*
X40290688Y37550695D01*
X40230989Y37335430D01*
X40207251Y37113305D01*
X40207548Y37108152D01*
X40207548Y37108149D01*
X40213011Y37013410D01*
X40220110Y36890285D01*
X40221247Y36885239D01*
X40221248Y36885233D01*
X40264751Y36692201D01*
X40260215Y36621350D01*
X40218093Y36564198D01*
X40151760Y36538892D01*
X40141834Y36538500D01*
X35595703Y36538500D01*
X35583847Y36539059D01*
X35576107Y36540789D01*
X35568181Y36540540D01*
X35568180Y36540540D01*
X35505255Y36538562D01*
X35501297Y36538500D01*
X35472212Y36538500D01*
X35468281Y36538003D01*
X35468274Y36538003D01*
X35467823Y36537946D01*
X35455987Y36537014D01*
X35409813Y36535562D01*
X35389223Y36529580D01*
X35369862Y36525570D01*
X35362874Y36524688D01*
X35356440Y36523875D01*
X35356439Y36523875D01*
X35348580Y36522882D01*
X35341215Y36519966D01*
X35341211Y36519965D01*
X35305623Y36505874D01*
X35294413Y36502035D01*
X35250044Y36489145D01*
X35231579Y36478225D01*
X35213839Y36469534D01*
X35193888Y36461635D01*
X35169569Y36443966D01*
X35156518Y36434484D01*
X35146596Y36427967D01*
X35113667Y36408493D01*
X35113663Y36408490D01*
X35106837Y36404453D01*
X35091673Y36389289D01*
X35076640Y36376449D01*
X35059287Y36363841D01*
X35050917Y36353723D01*
X35029842Y36328248D01*
X35021852Y36319468D01*
X29178100Y30475716D01*
X29115788Y30441690D01*
X29089005Y30438811D01*
X24262367Y30438811D01*
X24250511Y30439370D01*
X24250508Y30439370D01*
X24242774Y30441099D01*
X24187757Y30439370D01*
X24171942Y30438873D01*
X24167984Y30438811D01*
X24138879Y30438811D01*
X24134479Y30438255D01*
X24122647Y30437323D01*
X24076480Y30435873D01*
X24055890Y30429891D01*
X24036529Y30425881D01*
X24029541Y30424999D01*
X24023107Y30424186D01*
X24023106Y30424186D01*
X24015247Y30423193D01*
X24007882Y30420277D01*
X24007878Y30420276D01*
X23972290Y30406185D01*
X23961080Y30402346D01*
X23916711Y30389456D01*
X23898254Y30378540D01*
X23880504Y30369845D01*
X23860555Y30361946D01*
X23854144Y30357288D01*
X23854142Y30357287D01*
X23823175Y30334788D01*
X23813257Y30328273D01*
X23773504Y30304763D01*
X23758343Y30289602D01*
X23743311Y30276763D01*
X23725954Y30264152D01*
X23696504Y30228553D01*
X23688514Y30219773D01*
X22014145Y28545405D01*
X21951833Y28511379D01*
X21925050Y28508500D01*
X21904513Y28508500D01*
X21898061Y28507128D01*
X21898056Y28507128D01*
X21811113Y28488647D01*
X21717712Y28468794D01*
X21711682Y28466109D01*
X21711681Y28466109D01*
X21549278Y28393803D01*
X21549276Y28393802D01*
X21543248Y28391118D01*
X21537907Y28387238D01*
X21537906Y28387237D01*
X21509605Y28366675D01*
X21388747Y28278866D01*
X21384326Y28273956D01*
X21384325Y28273955D01*
X21305081Y28185945D01*
X21260960Y28136944D01*
X21232009Y28086799D01*
X21169553Y27978622D01*
X21165473Y27971556D01*
X21106458Y27789928D01*
X21105768Y27783367D01*
X21105768Y27783365D01*
X21099000Y27718969D01*
X21086496Y27600000D01*
X21087186Y27593435D01*
X21100238Y27469256D01*
X21106458Y27410072D01*
X21165473Y27228444D01*
X21168776Y27222722D01*
X21168777Y27222721D01*
X21197019Y27173804D01*
X21260960Y27063056D01*
X21265378Y27058149D01*
X21265379Y27058148D01*
X21310929Y27007560D01*
X21341646Y26943552D01*
X21337126Y26884314D01*
X21328538Y26857883D01*
X21311636Y26805863D01*
X21306458Y26789928D01*
X21305768Y26783365D01*
X21305767Y26783358D01*
X21291962Y26652008D01*
X21286496Y26600000D01*
X21287186Y26593435D01*
X21291137Y26555848D01*
X21306458Y26410072D01*
X21365473Y26228444D01*
X21460960Y26063056D01*
X21465378Y26058149D01*
X21465379Y26058148D01*
X21525733Y25991118D01*
X21588747Y25921134D01*
X21743248Y25808882D01*
X21749276Y25806198D01*
X21749278Y25806197D01*
X21894591Y25741500D01*
X21917712Y25731206D01*
X22011112Y25711353D01*
X22098056Y25692872D01*
X22098061Y25692872D01*
X22104513Y25691500D01*
X22295487Y25691500D01*
X22301939Y25692872D01*
X22301944Y25692872D01*
X22388888Y25711353D01*
X22482288Y25731206D01*
X22505409Y25741500D01*
X22650722Y25806197D01*
X22650724Y25806198D01*
X22656752Y25808882D01*
X22811253Y25921134D01*
X22874267Y25991118D01*
X22934621Y26058148D01*
X22934622Y26058149D01*
X22939040Y26063056D01*
X23034527Y26228444D01*
X23093542Y26410072D01*
X23106755Y26535787D01*
X23133768Y26601442D01*
X23142970Y26611710D01*
X23966705Y27435445D01*
X24029017Y27469471D01*
X24099832Y27464406D01*
X24156668Y27421859D01*
X24181479Y27355339D01*
X24175633Y27307415D01*
X24169204Y27287628D01*
X24168514Y27281067D01*
X24168514Y27281065D01*
X24153367Y27136944D01*
X24149242Y27097700D01*
X24149932Y27091135D01*
X24163051Y26966318D01*
X24169204Y26907772D01*
X24228219Y26726144D01*
X24323706Y26560756D01*
X24451493Y26418834D01*
X24605994Y26306582D01*
X24612022Y26303898D01*
X24612024Y26303897D01*
X24774427Y26231591D01*
X24780458Y26228906D01*
X24873859Y26209053D01*
X24960802Y26190572D01*
X24960807Y26190572D01*
X24967259Y26189200D01*
X25027350Y26189200D01*
X25095471Y26169198D01*
X25116445Y26152295D01*
X30104595Y21164145D01*
X30138621Y21101833D01*
X30141500Y21075050D01*
X30141500Y18474759D01*
X30121498Y18406638D01*
X30109136Y18390449D01*
X30068450Y18345262D01*
X30060960Y18336944D01*
X29965473Y18171556D01*
X29906458Y17989928D01*
X29905768Y17983367D01*
X29905768Y17983365D01*
X29890785Y17840810D01*
X29886496Y17800000D01*
X29887186Y17793435D01*
X29898401Y17686734D01*
X29906458Y17610072D01*
X29911289Y17595205D01*
X29912924Y17590173D01*
X29914953Y17519205D01*
X29878292Y17458406D01*
X29844340Y17436127D01*
X29749281Y17393805D01*
X29749274Y17393801D01*
X29743248Y17391118D01*
X29737907Y17387238D01*
X29737906Y17387237D01*
X29723256Y17376593D01*
X29588747Y17278866D01*
X29584325Y17273955D01*
X29584324Y17273954D01*
X29541871Y17226806D01*
X29481425Y17189567D01*
X29410441Y17190919D01*
X29359141Y17222022D01*
X18111783Y28469379D01*
X18102681Y28479522D01*
X18082825Y28504218D01*
X18078960Y28509025D01*
X18040506Y28541292D01*
X18036859Y28544472D01*
X18035047Y28546115D01*
X18032853Y28548309D01*
X17999579Y28575642D01*
X17998781Y28576304D01*
X17927454Y28636154D01*
X17922784Y28638722D01*
X17918667Y28642103D01*
X17854710Y28676396D01*
X17836842Y28685977D01*
X17835683Y28686606D01*
X17759547Y28728462D01*
X17759539Y28728465D01*
X17754141Y28731433D01*
X17749059Y28733045D01*
X17744365Y28735562D01*
X17655397Y28762762D01*
X17654369Y28763082D01*
X17565622Y28791235D01*
X17560326Y28791829D01*
X17555230Y28793387D01*
X17462671Y28802790D01*
X17461535Y28802911D01*
X17427920Y28806681D01*
X17415198Y28808108D01*
X17415194Y28808108D01*
X17411701Y28808500D01*
X17408174Y28808500D01*
X17407189Y28808555D01*
X17401509Y28809002D01*
X17372103Y28811989D01*
X17364591Y28812752D01*
X17364589Y28812752D01*
X17358466Y28813374D01*
X17316187Y28809377D01*
X17312819Y28809059D01*
X17300961Y28808500D01*
X15750231Y28808500D01*
X15747175Y28808200D01*
X15747168Y28808200D01*
X15691915Y28802782D01*
X15603167Y28794080D01*
X15597266Y28792298D01*
X15597264Y28792298D01*
X15551060Y28778348D01*
X15413831Y28736916D01*
X15239204Y28644066D01*
X15188004Y28602308D01*
X15090713Y28522960D01*
X15090710Y28522957D01*
X15085938Y28519065D01*
X15082011Y28514318D01*
X15082009Y28514316D01*
X14963799Y28371425D01*
X14963797Y28371421D01*
X14959870Y28366675D01*
X14865802Y28192701D01*
X14807318Y28003768D01*
X14806674Y27997643D01*
X14806674Y27997642D01*
X14790955Y27848079D01*
X14786645Y27807075D01*
X14804570Y27610112D01*
X14806308Y27604206D01*
X14806309Y27604202D01*
X14823614Y27545405D01*
X14860410Y27420381D01*
X14863263Y27414923D01*
X14863265Y27414919D01*
X14894413Y27355339D01*
X14952040Y27245110D01*
X15075968Y27090975D01*
X15227474Y26963846D01*
X15232872Y26960879D01*
X15232877Y26960875D01*
X15362615Y26889552D01*
X15400787Y26868567D01*
X15406654Y26866706D01*
X15406656Y26866705D01*
X15575596Y26813114D01*
X15589306Y26808765D01*
X15743227Y26791500D01*
X16885003Y26791500D01*
X16953124Y26771498D01*
X16974098Y26754595D01*
X20584679Y23144015D01*
X24030099Y19698595D01*
X24064125Y19636283D01*
X24059060Y19565468D01*
X24016513Y19508632D01*
X23949993Y19483821D01*
X23941004Y19483500D01*
X12226347Y19483500D01*
X12200150Y19486253D01*
X12101944Y19507128D01*
X12101939Y19507128D01*
X12095487Y19508500D01*
X11904513Y19508500D01*
X11898061Y19507128D01*
X11898056Y19507128D01*
X11811113Y19488647D01*
X11717712Y19468794D01*
X11711682Y19466109D01*
X11711681Y19466109D01*
X11549278Y19393803D01*
X11549276Y19393802D01*
X11543248Y19391118D01*
X11388747Y19278866D01*
X11384326Y19273956D01*
X11384325Y19273955D01*
X11311536Y19193114D01*
X11260960Y19136944D01*
X11165473Y18971556D01*
X11106458Y18789928D01*
X11086496Y18600000D01*
X11087186Y18593435D01*
X11104743Y18426393D01*
X11106458Y18410072D01*
X11165473Y18228444D01*
X11260960Y18063056D01*
X11265378Y18058149D01*
X11265379Y18058148D01*
X11358390Y17954849D01*
X11389108Y17890842D01*
X11380343Y17820388D01*
X11334880Y17765857D01*
X11274638Y17744927D01*
X11268302Y17744428D01*
X11258554Y17742885D01*
X11037373Y17689783D01*
X11027988Y17686734D01*
X10817837Y17599687D01*
X10809042Y17595205D01*
X10641555Y17492568D01*
X10632093Y17482110D01*
X10635876Y17473334D01*
X11487188Y16622022D01*
X11501132Y16614408D01*
X11502965Y16614539D01*
X11509580Y16618790D01*
X12361080Y17470290D01*
X12367840Y17482670D01*
X12348533Y17508461D01*
X12349888Y17509476D01*
X12323893Y17541034D01*
X12315546Y17611539D01*
X12346641Y17675363D01*
X12407307Y17712244D01*
X12439777Y17716500D01*
X15059258Y17716500D01*
X15127379Y17696498D01*
X15173872Y17642842D01*
X15183976Y17572568D01*
X15154482Y17507988D01*
X15125092Y17483067D01*
X15114803Y17476762D01*
X15114798Y17476758D01*
X15110584Y17474176D01*
X14930031Y17319969D01*
X14775824Y17139416D01*
X14773245Y17135208D01*
X14773241Y17135202D01*
X14654346Y16941183D01*
X14651760Y16936963D01*
X14649867Y16932393D01*
X14649865Y16932389D01*
X14632797Y16891183D01*
X14560895Y16717594D01*
X14505465Y16486711D01*
X14486835Y16250000D01*
X14505465Y16013289D01*
X14506619Y16008482D01*
X14506620Y16008476D01*
X14536122Y15885592D01*
X14560895Y15782406D01*
X14562788Y15777835D01*
X14562789Y15777833D01*
X14649772Y15567837D01*
X14651760Y15563037D01*
X14654346Y15558817D01*
X14773241Y15364798D01*
X14773245Y15364792D01*
X14775824Y15360584D01*
X14930031Y15180031D01*
X15110584Y15025824D01*
X15114792Y15023245D01*
X15114798Y15023241D01*
X15222189Y14957432D01*
X15313037Y14901760D01*
X15317607Y14899867D01*
X15317611Y14899865D01*
X15527833Y14812789D01*
X15532406Y14810895D01*
X15612609Y14791640D01*
X15758476Y14756620D01*
X15758482Y14756619D01*
X15763289Y14755465D01*
X16000000Y14736835D01*
X16236711Y14755465D01*
X16241518Y14756619D01*
X16241524Y14756620D01*
X16387391Y14791640D01*
X16467594Y14810895D01*
X16472167Y14812789D01*
X16682389Y14899865D01*
X16682393Y14899867D01*
X16686963Y14901760D01*
X16777811Y14957432D01*
X16885202Y15023241D01*
X16885208Y15023245D01*
X16889416Y15025824D01*
X17069969Y15180031D01*
X17224176Y15360584D01*
X17226755Y15364792D01*
X17226759Y15364798D01*
X17345654Y15558817D01*
X17348240Y15563037D01*
X17350229Y15567837D01*
X17437211Y15777833D01*
X17437212Y15777835D01*
X17439105Y15782406D01*
X17463878Y15885592D01*
X17493380Y16008476D01*
X17493381Y16008482D01*
X17494535Y16013289D01*
X17513165Y16250000D01*
X17494535Y16486711D01*
X17439105Y16717594D01*
X17367203Y16891183D01*
X17350135Y16932389D01*
X17350133Y16932393D01*
X17348240Y16936963D01*
X17345654Y16941183D01*
X17226759Y17135202D01*
X17226755Y17135208D01*
X17224176Y17139416D01*
X17069969Y17319969D01*
X16889416Y17474176D01*
X16885202Y17476758D01*
X16885197Y17476762D01*
X16874908Y17483067D01*
X16827276Y17535714D01*
X16815669Y17605756D01*
X16843772Y17670953D01*
X16902662Y17710608D01*
X16940742Y17716500D01*
X24558784Y17716500D01*
X24626905Y17696498D01*
X24659337Y17665867D01*
X24660960Y17663056D01*
X24665378Y17658149D01*
X24665379Y17658148D01*
X24781832Y17528814D01*
X24788747Y17521134D01*
X24860787Y17468794D01*
X24930532Y17418121D01*
X24943248Y17408882D01*
X24949276Y17406198D01*
X24949278Y17406197D01*
X25111681Y17333891D01*
X25117712Y17331206D01*
X25211112Y17311353D01*
X25298056Y17292872D01*
X25298061Y17292872D01*
X25304513Y17291500D01*
X25495487Y17291500D01*
X25501939Y17292872D01*
X25501944Y17292872D01*
X25588888Y17311353D01*
X25682288Y17331206D01*
X25688319Y17333891D01*
X25850722Y17406197D01*
X25850724Y17406198D01*
X25856752Y17408882D01*
X25869469Y17418121D01*
X25939213Y17468794D01*
X26011253Y17521134D01*
X26015675Y17526046D01*
X26020577Y17530459D01*
X26021456Y17529483D01*
X26075873Y17563002D01*
X26146857Y17561645D01*
X26198149Y17530544D01*
X28998073Y14730621D01*
X29007175Y14720478D01*
X29030896Y14690975D01*
X29035624Y14687008D01*
X29069349Y14658709D01*
X29072997Y14655528D01*
X29074809Y14653885D01*
X29077003Y14651691D01*
X29110277Y14624358D01*
X29111075Y14623696D01*
X29182402Y14563846D01*
X29187072Y14561278D01*
X29191189Y14557897D01*
X29249073Y14526860D01*
X29273014Y14514023D01*
X29274173Y14513394D01*
X29350309Y14471538D01*
X29350317Y14471535D01*
X29355715Y14468567D01*
X29360797Y14466955D01*
X29365491Y14464438D01*
X29454459Y14437238D01*
X29455487Y14436918D01*
X29544234Y14408765D01*
X29549530Y14408171D01*
X29554626Y14406613D01*
X29647185Y14397210D01*
X29648321Y14397089D01*
X29681936Y14393319D01*
X29694658Y14391892D01*
X29694662Y14391892D01*
X29698155Y14391500D01*
X29701682Y14391500D01*
X29702667Y14391445D01*
X29708347Y14390998D01*
X29737753Y14388011D01*
X29745265Y14387248D01*
X29745267Y14387248D01*
X29751390Y14386626D01*
X29797036Y14390941D01*
X29808895Y14391500D01*
X50474220Y14391500D01*
X50542341Y14371498D01*
X50588834Y14317842D01*
X50598938Y14247568D01*
X50583338Y14202499D01*
X50565473Y14171556D01*
X50506458Y13989928D01*
X50505768Y13983367D01*
X50505768Y13983365D01*
X50489608Y13829612D01*
X50486496Y13800000D01*
X50506458Y13610072D01*
X50565473Y13428444D01*
X50568776Y13422722D01*
X50568777Y13422721D01*
X50576093Y13410050D01*
X50660960Y13263056D01*
X50665378Y13258149D01*
X50665379Y13258148D01*
X50698054Y13221859D01*
X50788747Y13121134D01*
X50943248Y13008882D01*
X50949276Y13006198D01*
X50949278Y13006197D01*
X51066749Y12953896D01*
X51120845Y12907916D01*
X51141500Y12838789D01*
X51141500Y10674759D01*
X51121498Y10606638D01*
X51109136Y10590449D01*
X51080320Y10558445D01*
X51060960Y10536944D01*
X50965473Y10371556D01*
X50906458Y10189928D01*
X50905768Y10183367D01*
X50905768Y10183365D01*
X50894066Y10072022D01*
X50886496Y10000000D01*
X50906458Y9810072D01*
X50965473Y9628444D01*
X51060960Y9463056D01*
X51065378Y9458149D01*
X51065379Y9458148D01*
X51182585Y9327978D01*
X51188747Y9321134D01*
X51343248Y9208882D01*
X51349276Y9206198D01*
X51349278Y9206197D01*
X51511681Y9133891D01*
X51517712Y9131206D01*
X51611113Y9111353D01*
X51698056Y9092872D01*
X51698061Y9092872D01*
X51704513Y9091500D01*
X51765000Y9091500D01*
X51833121Y9071498D01*
X51879614Y9017842D01*
X51891000Y8965500D01*
X51891000Y5674450D01*
X51870998Y5606329D01*
X51854095Y5585355D01*
X51814145Y5545405D01*
X51751833Y5511379D01*
X51725050Y5508500D01*
X51704513Y5508500D01*
X51698061Y5507128D01*
X51698056Y5507128D01*
X51611113Y5488647D01*
X51517712Y5468794D01*
X51511682Y5466109D01*
X51511681Y5466109D01*
X51349278Y5393803D01*
X51349276Y5393802D01*
X51343248Y5391118D01*
X51337907Y5387238D01*
X51337906Y5387237D01*
X51320565Y5374638D01*
X51188747Y5278866D01*
X51184326Y5273956D01*
X51184325Y5273955D01*
X51067889Y5144639D01*
X51060960Y5136944D01*
X51019247Y5064695D01*
X50969285Y4978158D01*
X50965473Y4971556D01*
X50906458Y4789928D01*
X50905768Y4783367D01*
X50905768Y4783365D01*
X50889942Y4632790D01*
X50886496Y4600000D01*
X50887186Y4593435D01*
X50902901Y4443919D01*
X50906458Y4410072D01*
X50965473Y4228444D01*
X51060960Y4063056D01*
X51065378Y4058149D01*
X51065379Y4058148D01*
X51162788Y3949964D01*
X51188747Y3921134D01*
X51265538Y3865342D01*
X51322066Y3824272D01*
X51343248Y3808882D01*
X51349276Y3806198D01*
X51349278Y3806197D01*
X51509334Y3734936D01*
X51517712Y3731206D01*
X51611113Y3711353D01*
X51698056Y3692872D01*
X51698061Y3692872D01*
X51704513Y3691500D01*
X51895487Y3691500D01*
X51901939Y3692872D01*
X51901944Y3692872D01*
X51988888Y3711353D01*
X52082288Y3731206D01*
X52090666Y3734936D01*
X52250722Y3806197D01*
X52250724Y3806198D01*
X52256752Y3808882D01*
X52277935Y3824272D01*
X52334462Y3865342D01*
X52411253Y3921134D01*
X52437212Y3949964D01*
X52534621Y4058148D01*
X52534622Y4058149D01*
X52539040Y4063056D01*
X52634527Y4228444D01*
X52673447Y4348225D01*
X52691502Y4403793D01*
X52691502Y4403795D01*
X52693542Y4410072D01*
X52697100Y4443919D01*
X52706755Y4535786D01*
X52733768Y4601442D01*
X52742970Y4611710D01*
X52957105Y4825845D01*
X52965885Y4833835D01*
X52965887Y4833837D01*
X52972580Y4838084D01*
X53021105Y4889758D01*
X53023859Y4892599D01*
X53044427Y4913167D01*
X53047147Y4916674D01*
X53054853Y4925696D01*
X53081044Y4953587D01*
X53086472Y4959367D01*
X53093173Y4971556D01*
X53096803Y4978158D01*
X53107657Y4994682D01*
X53115945Y5005368D01*
X53120804Y5011632D01*
X53123952Y5018906D01*
X53139154Y5054035D01*
X53144376Y5064695D01*
X53162805Y5098216D01*
X53162806Y5098218D01*
X53166624Y5105163D01*
X53171959Y5125941D01*
X53178358Y5144631D01*
X53186880Y5164324D01*
X53194106Y5209948D01*
X53196513Y5221571D01*
X53206028Y5258632D01*
X53208000Y5266312D01*
X53208000Y5287759D01*
X53209551Y5307469D01*
X53211666Y5320823D01*
X53212906Y5328652D01*
X53208559Y5374641D01*
X53208000Y5386496D01*
X53208000Y12363735D01*
X53228002Y12431856D01*
X53240364Y12448045D01*
X53284121Y12496642D01*
X53284122Y12496643D01*
X53288540Y12501550D01*
X53384027Y12666938D01*
X53443042Y12848566D01*
X53454113Y12953896D01*
X53462314Y13031929D01*
X53463004Y13038494D01*
X53443042Y13228422D01*
X53384027Y13410050D01*
X53376712Y13422721D01*
X53291841Y13569720D01*
X53288540Y13575438D01*
X53257356Y13610072D01*
X53165175Y13712449D01*
X53165174Y13712450D01*
X53160753Y13717360D01*
X53006252Y13829612D01*
X53000224Y13832296D01*
X53000222Y13832297D01*
X52837819Y13904603D01*
X52837818Y13904603D01*
X52831788Y13907288D01*
X52738387Y13927141D01*
X52651444Y13945622D01*
X52651439Y13945622D01*
X52644987Y13946994D01*
X52454013Y13946994D01*
X52447556Y13945622D01*
X52447551Y13945621D01*
X52427927Y13941450D01*
X52357137Y13946853D01*
X52300505Y13989670D01*
X52281899Y14025761D01*
X52236569Y14165271D01*
X52234527Y14171556D01*
X52216662Y14202499D01*
X52199923Y14271494D01*
X52223143Y14338586D01*
X52278949Y14382474D01*
X52325780Y14391500D01*
X58449769Y14391500D01*
X58452825Y14391800D01*
X58452832Y14391800D01*
X58511340Y14397537D01*
X58596833Y14405920D01*
X58602734Y14407702D01*
X58602736Y14407702D01*
X58700036Y14437079D01*
X58786169Y14463084D01*
X58960796Y14555934D01*
X59075807Y14649735D01*
X59109287Y14677040D01*
X59109290Y14677043D01*
X59114062Y14680935D01*
X59134444Y14705572D01*
X59236201Y14828575D01*
X59236203Y14828579D01*
X59240130Y14833325D01*
X59334198Y15007299D01*
X59392682Y15196232D01*
X59403337Y15297606D01*
X59430350Y15363263D01*
X59488572Y15403892D01*
X59559517Y15406595D01*
X59620661Y15370513D01*
X59652591Y15307101D01*
X59654645Y15285155D01*
X59729544Y2102817D01*
X59737883Y635216D01*
X59718268Y566983D01*
X59664878Y520186D01*
X59611885Y508500D01*
X634500Y508500D01*
X566379Y528502D01*
X519886Y582158D01*
X508500Y634500D01*
X508500Y1901866D01*
X3716500Y1901866D01*
X3723255Y1839684D01*
X3774385Y1703295D01*
X3861739Y1586739D01*
X3978295Y1499385D01*
X4114684Y1448255D01*
X4176866Y1441500D01*
X5973134Y1441500D01*
X6035316Y1448255D01*
X6171705Y1499385D01*
X6288261Y1586739D01*
X6375615Y1703295D01*
X6397799Y1762471D01*
X6419598Y1820618D01*
X6462240Y1877382D01*
X6528802Y1902082D01*
X6598150Y1886874D01*
X6632817Y1858886D01*
X6661250Y1826062D01*
X6833126Y1683368D01*
X7026000Y1570662D01*
X7234692Y1490970D01*
X7239760Y1489939D01*
X7239763Y1489938D01*
X7334862Y1470590D01*
X7453597Y1446433D01*
X7458772Y1446243D01*
X7458774Y1446243D01*
X7671673Y1438436D01*
X7671677Y1438436D01*
X7676837Y1438247D01*
X7681957Y1438903D01*
X7681959Y1438903D01*
X7893288Y1465975D01*
X7893289Y1465975D01*
X7898416Y1466632D01*
X7903366Y1468117D01*
X8107429Y1529339D01*
X8107434Y1529341D01*
X8112384Y1530826D01*
X8312994Y1629104D01*
X8494860Y1758827D01*
X8653096Y1916511D01*
X8783453Y2097923D01*
X8784640Y2097070D01*
X8831960Y2140638D01*
X8901897Y2152855D01*
X8967338Y2125322D01*
X8995166Y2093489D01*
X9052694Y1999612D01*
X9058777Y1991301D01*
X9198213Y1830333D01*
X9205580Y1823117D01*
X9369434Y1687084D01*
X9377881Y1681169D01*
X9561756Y1573721D01*
X9571042Y1569271D01*
X9770001Y1493297D01*
X9779899Y1490421D01*
X9883250Y1469394D01*
X9897299Y1470590D01*
X9901000Y1480935D01*
X9901000Y1481483D01*
X10409000Y1481483D01*
X10413064Y1467641D01*
X10426478Y1465607D01*
X10433184Y1466466D01*
X10443262Y1468608D01*
X10647255Y1529809D01*
X10656842Y1533567D01*
X10848095Y1627261D01*
X10856945Y1632536D01*
X11030328Y1756208D01*
X11038200Y1762861D01*
X11189052Y1913188D01*
X11195730Y1921035D01*
X11320003Y2093980D01*
X11325313Y2102817D01*
X11419670Y2293733D01*
X11423469Y2303328D01*
X11485377Y2507090D01*
X11487555Y2517163D01*
X11488986Y2528038D01*
X11486775Y2542222D01*
X11473617Y2546000D01*
X10427115Y2546000D01*
X10411876Y2541525D01*
X10410671Y2540135D01*
X10409000Y2532452D01*
X10409000Y1481483D01*
X9901000Y1481483D01*
X9901000Y3072115D01*
X10409000Y3072115D01*
X10413475Y3056876D01*
X10414865Y3055671D01*
X10422548Y3054000D01*
X11473344Y3054000D01*
X11486875Y3057973D01*
X11488180Y3067053D01*
X11446214Y3234125D01*
X11442894Y3243876D01*
X11357972Y3439186D01*
X11353105Y3448261D01*
X11237426Y3627074D01*
X11231136Y3635243D01*
X11087806Y3792760D01*
X11080273Y3799785D01*
X10913139Y3931778D01*
X10904552Y3937483D01*
X10718117Y4040401D01*
X10708705Y4044631D01*
X10507959Y4115720D01*
X10497988Y4118354D01*
X10426837Y4131028D01*
X10413540Y4129568D01*
X10409000Y4115011D01*
X10409000Y3072115D01*
X9901000Y3072115D01*
X9901000Y4116898D01*
X9897082Y4130242D01*
X9882806Y4132229D01*
X9844324Y4126340D01*
X9834288Y4123949D01*
X9631868Y4057788D01*
X9622359Y4053791D01*
X9433463Y3955458D01*
X9424738Y3949964D01*
X9254433Y3822095D01*
X9246726Y3815252D01*
X9099590Y3661283D01*
X9093109Y3653278D01*
X8988498Y3499926D01*
X8933587Y3454924D01*
X8863062Y3446753D01*
X8799315Y3478007D01*
X8778618Y3502491D01*
X8697822Y3627383D01*
X8697820Y3627386D01*
X8695014Y3631723D01*
X8544670Y3796949D01*
X8531406Y3807425D01*
X8490345Y3865342D01*
X8483500Y3906305D01*
X8483500Y4751866D01*
X21091500Y4751866D01*
X21098255Y4689684D01*
X21149385Y4553295D01*
X21236739Y4436739D01*
X21353295Y4349385D01*
X21489684Y4298255D01*
X21551866Y4291500D01*
X24248134Y4291500D01*
X24310316Y4298255D01*
X24446705Y4349385D01*
X24563261Y4436739D01*
X24650615Y4553295D01*
X24701745Y4689684D01*
X24708500Y4751866D01*
X24708500Y6147474D01*
X26087050Y6147474D01*
X26099947Y5878981D01*
X26152388Y5615344D01*
X26243220Y5362354D01*
X26245432Y5358238D01*
X26245433Y5358235D01*
X26298952Y5258632D01*
X26370450Y5125569D01*
X26373241Y5121832D01*
X26373245Y5121825D01*
X26419799Y5059482D01*
X26531281Y4910190D01*
X26534590Y4906910D01*
X26534595Y4906904D01*
X26718863Y4724238D01*
X26722180Y4720950D01*
X26725942Y4718192D01*
X26725945Y4718189D01*
X26887135Y4600000D01*
X26938954Y4562005D01*
X26943089Y4559829D01*
X26943093Y4559827D01*
X27172698Y4439025D01*
X27176840Y4436846D01*
X27430613Y4348225D01*
X27435206Y4347353D01*
X27690109Y4298958D01*
X27690112Y4298958D01*
X27694698Y4298087D01*
X27822370Y4293071D01*
X27958625Y4287717D01*
X27958630Y4287717D01*
X27963293Y4287534D01*
X28067607Y4298958D01*
X28225844Y4316287D01*
X28225850Y4316288D01*
X28230497Y4316797D01*
X28342302Y4346233D01*
X28485918Y4384044D01*
X28485920Y4384045D01*
X28490441Y4385235D01*
X28533636Y4403793D01*
X28733120Y4489498D01*
X28733122Y4489499D01*
X28737414Y4491343D01*
X28913002Y4600000D01*
X28962017Y4630331D01*
X28962021Y4630334D01*
X28965990Y4632790D01*
X29171149Y4806470D01*
X29348382Y5008566D01*
X29381133Y5059482D01*
X29491269Y5230709D01*
X29493797Y5234639D01*
X29604199Y5479722D01*
X29641209Y5610949D01*
X29675893Y5733928D01*
X29675894Y5733931D01*
X29677163Y5738432D01*
X29695043Y5878981D01*
X29710688Y6001955D01*
X29710688Y6001959D01*
X29711086Y6005085D01*
X29713571Y6100000D01*
X29693650Y6368063D01*
X29685565Y6403794D01*
X29635361Y6625669D01*
X29635360Y6625674D01*
X29634327Y6630237D01*
X29536902Y6880762D01*
X29403518Y7114136D01*
X29390046Y7131226D01*
X29337416Y7197986D01*
X29237105Y7325231D01*
X29041317Y7509409D01*
X28843407Y7646705D01*
X28824299Y7659961D01*
X28824296Y7659963D01*
X28820457Y7662626D01*
X28816264Y7664694D01*
X28583564Y7779449D01*
X28583561Y7779450D01*
X28579376Y7781514D01*
X28531745Y7796761D01*
X28353657Y7853767D01*
X28323370Y7863462D01*
X28318763Y7864212D01*
X28318760Y7864213D01*
X28105337Y7898971D01*
X28058063Y7906670D01*
X27927719Y7908376D01*
X27793961Y7910127D01*
X27793958Y7910127D01*
X27789284Y7910188D01*
X27522937Y7873940D01*
X27264874Y7798722D01*
X27020763Y7686185D01*
X27016854Y7683622D01*
X26799881Y7541369D01*
X26799876Y7541365D01*
X26795968Y7538803D01*
X26698188Y7451531D01*
X26633510Y7393803D01*
X26595426Y7359812D01*
X26423544Y7153146D01*
X26284096Y6923344D01*
X26180148Y6675455D01*
X26113981Y6414923D01*
X26087050Y6147474D01*
X24708500Y6147474D01*
X24708500Y7448134D01*
X24701745Y7510316D01*
X24650615Y7646705D01*
X24563261Y7763261D01*
X24446705Y7850615D01*
X24310316Y7901745D01*
X24248134Y7908500D01*
X21551866Y7908500D01*
X21489684Y7901745D01*
X21353295Y7850615D01*
X21236739Y7763261D01*
X21149385Y7646705D01*
X21098255Y7510316D01*
X21091500Y7448134D01*
X21091500Y4751866D01*
X8483500Y4751866D01*
X8483500Y6359210D01*
X8489667Y6398146D01*
X8491502Y6403794D01*
X8493542Y6410072D01*
X8513504Y6600000D01*
X8506050Y6670923D01*
X8494232Y6783365D01*
X8494232Y6783367D01*
X8493542Y6789928D01*
X8434527Y6971556D01*
X8339040Y7136944D01*
X8211253Y7278866D01*
X8056752Y7391118D01*
X8050724Y7393802D01*
X8050722Y7393803D01*
X7888319Y7466109D01*
X7888318Y7466109D01*
X7882288Y7468794D01*
X7788887Y7488647D01*
X7701944Y7507128D01*
X7701939Y7507128D01*
X7695487Y7508500D01*
X7504513Y7508500D01*
X7498061Y7507128D01*
X7498056Y7507128D01*
X7411113Y7488647D01*
X7317712Y7468794D01*
X7311682Y7466109D01*
X7311681Y7466109D01*
X7149278Y7393803D01*
X7149276Y7393802D01*
X7143248Y7391118D01*
X6988747Y7278866D01*
X6860960Y7136944D01*
X6765473Y6971556D01*
X6706458Y6789928D01*
X6705768Y6783367D01*
X6705768Y6783365D01*
X6693950Y6670923D01*
X6686496Y6600000D01*
X6706458Y6410072D01*
X6708498Y6403794D01*
X6710333Y6398146D01*
X6716500Y6359210D01*
X6716500Y3876728D01*
X6696498Y3808607D01*
X6681594Y3789677D01*
X6629283Y3734936D01*
X6567759Y3699506D01*
X6496847Y3702962D01*
X6439060Y3744208D01*
X6420207Y3777757D01*
X6378767Y3888297D01*
X6375615Y3896705D01*
X6288261Y4013261D01*
X6171705Y4100615D01*
X6035316Y4151745D01*
X5973134Y4158500D01*
X4176866Y4158500D01*
X4114684Y4151745D01*
X3978295Y4100615D01*
X3861739Y4013261D01*
X3774385Y3896705D01*
X3723255Y3760316D01*
X3716500Y3698134D01*
X3716500Y1901866D01*
X508500Y1901866D01*
X508500Y8467330D01*
X1582160Y8467330D01*
X1587887Y8459680D01*
X1759042Y8354795D01*
X1767837Y8350313D01*
X1977988Y8263266D01*
X1987373Y8260217D01*
X2208554Y8207115D01*
X2218301Y8205572D01*
X2445070Y8187725D01*
X2454930Y8187725D01*
X2681699Y8205572D01*
X2691446Y8207115D01*
X2912627Y8260217D01*
X2922012Y8263266D01*
X3132163Y8350313D01*
X3140958Y8354795D01*
X3308445Y8457432D01*
X3317907Y8467890D01*
X3314124Y8476666D01*
X2462812Y9327978D01*
X2448868Y9335592D01*
X2447035Y9335461D01*
X2440420Y9331210D01*
X1588920Y8479710D01*
X1582160Y8467330D01*
X508500Y8467330D01*
X508500Y9695070D01*
X937725Y9695070D01*
X955572Y9468301D01*
X957115Y9458554D01*
X1010217Y9237373D01*
X1013266Y9227988D01*
X1100311Y9017842D01*
X1104795Y9009042D01*
X1207432Y8841555D01*
X1217890Y8832093D01*
X1226666Y8835876D01*
X2077978Y9687188D01*
X2084356Y9698868D01*
X2814408Y9698868D01*
X2814539Y9697035D01*
X2818790Y9690420D01*
X3670290Y8838920D01*
X3682670Y8832160D01*
X3690320Y8837887D01*
X3795205Y9009042D01*
X3799689Y9017842D01*
X3886734Y9227988D01*
X3889783Y9237373D01*
X3942885Y9458554D01*
X3944428Y9468301D01*
X3962275Y9695070D01*
X3962275Y9700000D01*
X5436835Y9700000D01*
X5455465Y9463289D01*
X5510895Y9232406D01*
X5512788Y9227835D01*
X5512789Y9227833D01*
X5599770Y9017842D01*
X5601760Y9013037D01*
X5604346Y9008817D01*
X5723241Y8814798D01*
X5723245Y8814792D01*
X5725824Y8810584D01*
X5880031Y8630031D01*
X6060584Y8475824D01*
X6064792Y8473245D01*
X6064798Y8473241D01*
X6183806Y8400313D01*
X6263037Y8351760D01*
X6267607Y8349867D01*
X6267611Y8349865D01*
X6477833Y8262789D01*
X6482406Y8260895D01*
X6562609Y8241640D01*
X6708476Y8206620D01*
X6708482Y8206619D01*
X6713289Y8205465D01*
X6950000Y8186835D01*
X7186711Y8205465D01*
X7191518Y8206619D01*
X7191524Y8206620D01*
X7337391Y8241640D01*
X7417594Y8260895D01*
X7422167Y8262789D01*
X7632389Y8349865D01*
X7632393Y8349867D01*
X7636963Y8351760D01*
X7716194Y8400313D01*
X7835202Y8473241D01*
X7835208Y8473245D01*
X7839416Y8475824D01*
X7888013Y8517330D01*
X10632160Y8517330D01*
X10637887Y8509680D01*
X10809042Y8404795D01*
X10817837Y8400313D01*
X11027988Y8313266D01*
X11037373Y8310217D01*
X11258554Y8257115D01*
X11268301Y8255572D01*
X11495070Y8237725D01*
X11504930Y8237725D01*
X11731699Y8255572D01*
X11741446Y8257115D01*
X11962627Y8310217D01*
X11972012Y8313266D01*
X12182163Y8400313D01*
X12190958Y8404795D01*
X12358445Y8507432D01*
X12367907Y8517890D01*
X12364124Y8526666D01*
X11512812Y9377978D01*
X11498868Y9385592D01*
X11497035Y9385461D01*
X11490420Y9381210D01*
X10638920Y8529710D01*
X10632160Y8517330D01*
X7888013Y8517330D01*
X8019969Y8630031D01*
X8174176Y8810584D01*
X8176755Y8814792D01*
X8176759Y8814798D01*
X8295654Y9008817D01*
X8298240Y9013037D01*
X8300231Y9017842D01*
X8387211Y9227833D01*
X8387212Y9227835D01*
X8389105Y9232406D01*
X8444535Y9463289D01*
X8463165Y9700000D01*
X8459618Y9745070D01*
X9987725Y9745070D01*
X10005572Y9518301D01*
X10007115Y9508554D01*
X10060217Y9287373D01*
X10063266Y9277988D01*
X10150313Y9067837D01*
X10154795Y9059042D01*
X10257432Y8891555D01*
X10267890Y8882093D01*
X10276666Y8885876D01*
X11127978Y9737188D01*
X11134356Y9748868D01*
X11864408Y9748868D01*
X11864539Y9747035D01*
X11868790Y9740420D01*
X12720290Y8888920D01*
X12732670Y8882160D01*
X12740320Y8887887D01*
X12845205Y9059042D01*
X12849687Y9067837D01*
X12936734Y9277988D01*
X12939783Y9287373D01*
X12992885Y9508554D01*
X12994428Y9518301D01*
X13012275Y9745070D01*
X13012275Y9750000D01*
X14486835Y9750000D01*
X14505465Y9513289D01*
X14506619Y9508482D01*
X14506620Y9508476D01*
X14518624Y9458476D01*
X14560895Y9282406D01*
X14562788Y9277835D01*
X14562789Y9277833D01*
X14649772Y9067837D01*
X14651760Y9063037D01*
X14654346Y9058817D01*
X14773241Y8864798D01*
X14773245Y8864792D01*
X14775824Y8860584D01*
X14930031Y8680031D01*
X15110584Y8525824D01*
X15114792Y8523245D01*
X15114798Y8523241D01*
X15222189Y8457432D01*
X15313037Y8401760D01*
X15317607Y8399867D01*
X15317611Y8399865D01*
X15527833Y8312789D01*
X15532406Y8310895D01*
X15612609Y8291640D01*
X15758476Y8256620D01*
X15758482Y8256619D01*
X15763289Y8255465D01*
X16000000Y8236835D01*
X16236711Y8255465D01*
X16241518Y8256619D01*
X16241524Y8256620D01*
X16387391Y8291640D01*
X16467594Y8310895D01*
X16472167Y8312789D01*
X16682389Y8399865D01*
X16682393Y8399867D01*
X16686963Y8401760D01*
X16777811Y8457432D01*
X16885202Y8523241D01*
X16885208Y8523245D01*
X16889416Y8525824D01*
X17069969Y8680031D01*
X17224176Y8860584D01*
X17226755Y8864792D01*
X17226759Y8864798D01*
X17345654Y9058817D01*
X17348240Y9063037D01*
X17350229Y9067837D01*
X17437211Y9277833D01*
X17437212Y9277835D01*
X17439105Y9282406D01*
X17481376Y9458476D01*
X17493380Y9508476D01*
X17493381Y9508482D01*
X17494535Y9513289D01*
X17513165Y9750000D01*
X17494535Y9986711D01*
X17489769Y10006565D01*
X17450011Y10172167D01*
X17439105Y10217594D01*
X17377936Y10365271D01*
X17350135Y10432389D01*
X17350133Y10432393D01*
X17348240Y10436963D01*
X17345654Y10441183D01*
X17226759Y10635202D01*
X17226755Y10635208D01*
X17224176Y10639416D01*
X17069969Y10819969D01*
X16889416Y10974176D01*
X16885208Y10976755D01*
X16885202Y10976759D01*
X16691183Y11095654D01*
X16686963Y11098240D01*
X16682393Y11100133D01*
X16682389Y11100135D01*
X16472167Y11187211D01*
X16472165Y11187212D01*
X16467594Y11189105D01*
X16367377Y11213165D01*
X16241524Y11243380D01*
X16241518Y11243381D01*
X16236711Y11244535D01*
X16000000Y11263165D01*
X15763289Y11244535D01*
X15758482Y11243381D01*
X15758476Y11243380D01*
X15632623Y11213165D01*
X15532406Y11189105D01*
X15527835Y11187212D01*
X15527833Y11187211D01*
X15317611Y11100135D01*
X15317607Y11100133D01*
X15313037Y11098240D01*
X15308817Y11095654D01*
X15114798Y10976759D01*
X15114792Y10976755D01*
X15110584Y10974176D01*
X14930031Y10819969D01*
X14775824Y10639416D01*
X14773245Y10635208D01*
X14773241Y10635202D01*
X14654346Y10441183D01*
X14651760Y10436963D01*
X14649867Y10432393D01*
X14649865Y10432389D01*
X14622064Y10365271D01*
X14560895Y10217594D01*
X14549989Y10172167D01*
X14510232Y10006565D01*
X14505465Y9986711D01*
X14486835Y9750000D01*
X13012275Y9750000D01*
X13012275Y9754930D01*
X12994428Y9981699D01*
X12992885Y9991446D01*
X12939783Y10212627D01*
X12936734Y10222012D01*
X12849687Y10432163D01*
X12845205Y10440958D01*
X12742568Y10608445D01*
X12732110Y10617907D01*
X12723334Y10614124D01*
X11872022Y9762812D01*
X11864408Y9748868D01*
X11134356Y9748868D01*
X11135592Y9751132D01*
X11135461Y9752965D01*
X11131210Y9759580D01*
X10279710Y10611080D01*
X10267330Y10617840D01*
X10259680Y10612113D01*
X10154795Y10440958D01*
X10150313Y10432163D01*
X10063266Y10222012D01*
X10060217Y10212627D01*
X10007115Y9991446D01*
X10005572Y9981699D01*
X9987725Y9754930D01*
X9987725Y9745070D01*
X8459618Y9745070D01*
X8444535Y9936711D01*
X8433735Y9981699D01*
X8390260Y10162782D01*
X8389105Y10167594D01*
X8387211Y10172167D01*
X8300135Y10382389D01*
X8300133Y10382393D01*
X8298240Y10386963D01*
X8265014Y10441183D01*
X8176759Y10585202D01*
X8176755Y10585208D01*
X8174176Y10589416D01*
X8019969Y10769969D01*
X7839416Y10924176D01*
X7835208Y10926755D01*
X7835202Y10926759D01*
X7744877Y10982110D01*
X10632093Y10982110D01*
X10635876Y10973334D01*
X11487188Y10122022D01*
X11501132Y10114408D01*
X11502965Y10114539D01*
X11509580Y10118790D01*
X12361080Y10970290D01*
X12367840Y10982670D01*
X12362113Y10990320D01*
X12190958Y11095205D01*
X12182163Y11099687D01*
X11972012Y11186734D01*
X11962627Y11189783D01*
X11741446Y11242885D01*
X11731699Y11244428D01*
X11504930Y11262275D01*
X11495070Y11262275D01*
X11268301Y11244428D01*
X11258554Y11242885D01*
X11037373Y11189783D01*
X11027988Y11186734D01*
X10817837Y11099687D01*
X10809042Y11095205D01*
X10641555Y10992568D01*
X10632093Y10982110D01*
X7744877Y10982110D01*
X7641183Y11045654D01*
X7636963Y11048240D01*
X7632393Y11050133D01*
X7632389Y11050135D01*
X7422167Y11137211D01*
X7422165Y11137212D01*
X7417594Y11139105D01*
X7337391Y11158360D01*
X7191524Y11193380D01*
X7191518Y11193381D01*
X7186711Y11194535D01*
X6950000Y11213165D01*
X6713289Y11194535D01*
X6708482Y11193381D01*
X6708476Y11193380D01*
X6562609Y11158360D01*
X6482406Y11139105D01*
X6477835Y11137212D01*
X6477833Y11137211D01*
X6267611Y11050135D01*
X6267607Y11050133D01*
X6263037Y11048240D01*
X6258817Y11045654D01*
X6064798Y10926759D01*
X6064792Y10926755D01*
X6060584Y10924176D01*
X5880031Y10769969D01*
X5725824Y10589416D01*
X5723245Y10585208D01*
X5723241Y10585202D01*
X5634986Y10441183D01*
X5601760Y10386963D01*
X5599867Y10382393D01*
X5599865Y10382389D01*
X5512789Y10172167D01*
X5510895Y10167594D01*
X5509740Y10162782D01*
X5466266Y9981699D01*
X5455465Y9936711D01*
X5436835Y9700000D01*
X3962275Y9700000D01*
X3962275Y9704930D01*
X3944428Y9931699D01*
X3942885Y9941446D01*
X3889783Y10162627D01*
X3886734Y10172012D01*
X3799687Y10382163D01*
X3795205Y10390958D01*
X3692568Y10558445D01*
X3682110Y10567907D01*
X3673334Y10564124D01*
X2822022Y9712812D01*
X2814408Y9698868D01*
X2084356Y9698868D01*
X2085592Y9701132D01*
X2085461Y9702965D01*
X2081210Y9709580D01*
X1229710Y10561080D01*
X1217330Y10567840D01*
X1209680Y10562113D01*
X1104795Y10390958D01*
X1100313Y10382163D01*
X1013266Y10172012D01*
X1010217Y10162627D01*
X957115Y9941446D01*
X955572Y9931699D01*
X937725Y9704930D01*
X937725Y9695070D01*
X508500Y9695070D01*
X508500Y10932110D01*
X1582093Y10932110D01*
X1585876Y10923334D01*
X2437188Y10072022D01*
X2451132Y10064408D01*
X2452965Y10064539D01*
X2459580Y10068790D01*
X3311080Y10920290D01*
X3317840Y10932670D01*
X3312113Y10940320D01*
X3140958Y11045205D01*
X3132163Y11049687D01*
X2922012Y11136734D01*
X2912627Y11139783D01*
X2691446Y11192885D01*
X2681699Y11194428D01*
X2454930Y11212275D01*
X2445070Y11212275D01*
X2218301Y11194428D01*
X2208554Y11192885D01*
X1987373Y11139783D01*
X1977988Y11136734D01*
X1767837Y11049687D01*
X1759042Y11045205D01*
X1591555Y10942568D01*
X1582093Y10932110D01*
X508500Y10932110D01*
X508500Y14967330D01*
X1582160Y14967330D01*
X1587887Y14959680D01*
X1759042Y14854795D01*
X1767837Y14850313D01*
X1977988Y14763266D01*
X1987373Y14760217D01*
X2208554Y14707115D01*
X2218301Y14705572D01*
X2445070Y14687725D01*
X2454930Y14687725D01*
X2681699Y14705572D01*
X2691446Y14707115D01*
X2912627Y14760217D01*
X2922012Y14763266D01*
X3132163Y14850313D01*
X3140958Y14854795D01*
X3308445Y14957432D01*
X3317907Y14967890D01*
X3314124Y14976666D01*
X2462812Y15827978D01*
X2448868Y15835592D01*
X2447035Y15835461D01*
X2440420Y15831210D01*
X1588920Y14979710D01*
X1582160Y14967330D01*
X508500Y14967330D01*
X508500Y16195070D01*
X937725Y16195070D01*
X955572Y15968301D01*
X957115Y15958554D01*
X1010217Y15737373D01*
X1013266Y15727988D01*
X1100313Y15517837D01*
X1104795Y15509042D01*
X1207432Y15341555D01*
X1217890Y15332093D01*
X1226666Y15335876D01*
X2077978Y16187188D01*
X2084356Y16198868D01*
X2814408Y16198868D01*
X2814539Y16197035D01*
X2818790Y16190420D01*
X3670290Y15338920D01*
X3682670Y15332160D01*
X3690320Y15337887D01*
X3795205Y15509042D01*
X3799687Y15517837D01*
X3886734Y15727988D01*
X3889783Y15737373D01*
X3942885Y15958554D01*
X3944428Y15968301D01*
X3962275Y16195070D01*
X3962275Y16204930D01*
X3944428Y16431699D01*
X3942885Y16441446D01*
X3889783Y16662627D01*
X3886734Y16672012D01*
X3799687Y16882163D01*
X3795205Y16890958D01*
X3692568Y17058445D01*
X3682110Y17067907D01*
X3673334Y17064124D01*
X2822022Y16212812D01*
X2814408Y16198868D01*
X2084356Y16198868D01*
X2085592Y16201132D01*
X2085461Y16202965D01*
X2081210Y16209580D01*
X1229710Y17061080D01*
X1217330Y17067840D01*
X1209680Y17062113D01*
X1104795Y16890958D01*
X1100313Y16882163D01*
X1013266Y16672012D01*
X1010217Y16662627D01*
X957115Y16441446D01*
X955572Y16431699D01*
X937725Y16204930D01*
X937725Y16195070D01*
X508500Y16195070D01*
X508500Y17432110D01*
X1582093Y17432110D01*
X1585876Y17423334D01*
X2437188Y16572022D01*
X2451132Y16564408D01*
X2452965Y16564539D01*
X2459580Y16568790D01*
X3311080Y17420290D01*
X3317840Y17432670D01*
X3312113Y17440320D01*
X3140958Y17545205D01*
X3132163Y17549687D01*
X2922012Y17636734D01*
X2912627Y17639783D01*
X2691446Y17692885D01*
X2681699Y17694428D01*
X2454930Y17712275D01*
X2445070Y17712275D01*
X2218301Y17694428D01*
X2208554Y17692885D01*
X1987373Y17639783D01*
X1977988Y17636734D01*
X1767837Y17549687D01*
X1759042Y17545205D01*
X1591555Y17442568D01*
X1582093Y17432110D01*
X508500Y17432110D01*
X508500Y31200000D01*
X2686496Y31200000D01*
X2687186Y31193435D01*
X2705287Y31021217D01*
X2706458Y31010072D01*
X2765473Y30828444D01*
X2768776Y30822722D01*
X2768777Y30822721D01*
X2785200Y30794276D01*
X2860960Y30663056D01*
X2865378Y30658149D01*
X2865379Y30658148D01*
X2975568Y30535771D01*
X2988747Y30521134D01*
X2994089Y30517253D01*
X2994091Y30517251D01*
X3129423Y30418927D01*
X3144457Y30406086D01*
X3479595Y30070948D01*
X3513621Y30008636D01*
X3516500Y29981853D01*
X3516500Y22840790D01*
X3510333Y22801854D01*
X3506458Y22789928D01*
X3505768Y22783367D01*
X3505768Y22783365D01*
X3504622Y22772459D01*
X3486496Y22600000D01*
X3487186Y22593435D01*
X3501569Y22456593D01*
X3506458Y22410072D01*
X3565473Y22228444D01*
X3660960Y22063056D01*
X3665378Y22058149D01*
X3665379Y22058148D01*
X3709153Y22009532D01*
X3788747Y21921134D01*
X3834922Y21887586D01*
X3927032Y21820664D01*
X3943248Y21808882D01*
X3949276Y21806198D01*
X3949278Y21806197D01*
X4048695Y21761934D01*
X4117712Y21731206D01*
X4211112Y21711353D01*
X4298056Y21692872D01*
X4298061Y21692872D01*
X4304513Y21691500D01*
X4495487Y21691500D01*
X4501939Y21692872D01*
X4501944Y21692872D01*
X4588888Y21711353D01*
X4682288Y21731206D01*
X4751305Y21761934D01*
X4850722Y21806197D01*
X4850724Y21806198D01*
X4856752Y21808882D01*
X4872969Y21820664D01*
X4965078Y21887586D01*
X5011253Y21921134D01*
X5090847Y22009532D01*
X5134621Y22058148D01*
X5134622Y22058149D01*
X5139040Y22063056D01*
X5234527Y22228444D01*
X5293542Y22410072D01*
X5298432Y22456593D01*
X5312814Y22593435D01*
X5313504Y22600000D01*
X5295378Y22772459D01*
X5294232Y22783365D01*
X5294232Y22783367D01*
X5293542Y22789928D01*
X5289667Y22801854D01*
X5283500Y22840790D01*
X5283500Y30320543D01*
X5285051Y30340255D01*
X5286118Y30346992D01*
X5287150Y30353507D01*
X5285910Y30377177D01*
X5283673Y30419850D01*
X5283500Y30426445D01*
X5283500Y30446306D01*
X5281423Y30466069D01*
X5280907Y30472633D01*
X5280746Y30475716D01*
X5280079Y30488427D01*
X5277776Y30532377D01*
X5277775Y30532381D01*
X5277430Y30538971D01*
X5273958Y30551929D01*
X5270355Y30571372D01*
X5269644Y30578134D01*
X5268954Y30584702D01*
X5248422Y30647895D01*
X5246556Y30654196D01*
X5231071Y30711985D01*
X5229362Y30718363D01*
X5226366Y30724242D01*
X5226363Y30724251D01*
X5223272Y30730317D01*
X5215708Y30748579D01*
X5213608Y30755043D01*
X5213605Y30755051D01*
X5211564Y30761331D01*
X5208262Y30767050D01*
X5208260Y30767055D01*
X5178346Y30818867D01*
X5175213Y30824637D01*
X5145047Y30883839D01*
X5136610Y30894258D01*
X5125410Y30910554D01*
X5122004Y30916454D01*
X5122002Y30916457D01*
X5118704Y30922169D01*
X5114288Y30927074D01*
X5114284Y30927079D01*
X5074246Y30971547D01*
X5069966Y30976557D01*
X5059546Y30989424D01*
X5059545Y30989425D01*
X5057472Y30991985D01*
X5043436Y31006021D01*
X5038895Y31010806D01*
X4998854Y31055276D01*
X4994434Y31060185D01*
X4983575Y31068075D01*
X4968544Y31080914D01*
X4387007Y31662451D01*
X4366983Y31688545D01*
X4339040Y31736944D01*
X4315739Y31762823D01*
X4215675Y31873955D01*
X4215674Y31873956D01*
X4211253Y31878866D01*
X4076686Y31976635D01*
X4062094Y31987237D01*
X4062093Y31987238D01*
X4056752Y31991118D01*
X4050724Y31993802D01*
X4050722Y31993803D01*
X3888319Y32066109D01*
X3888318Y32066109D01*
X3882288Y32068794D01*
X3787152Y32089016D01*
X3701944Y32107128D01*
X3701939Y32107128D01*
X3695487Y32108500D01*
X3504513Y32108500D01*
X3498061Y32107128D01*
X3498056Y32107128D01*
X3412848Y32089016D01*
X3317712Y32068794D01*
X3311682Y32066109D01*
X3311681Y32066109D01*
X3149278Y31993803D01*
X3149276Y31993802D01*
X3143248Y31991118D01*
X3137907Y31987238D01*
X3137906Y31987237D01*
X3123314Y31976635D01*
X2988747Y31878866D01*
X2984326Y31873956D01*
X2984325Y31873955D01*
X2884262Y31762823D01*
X2860960Y31736944D01*
X2827683Y31679306D01*
X2778125Y31593469D01*
X2765473Y31571556D01*
X2706458Y31389928D01*
X2705768Y31383367D01*
X2705768Y31383365D01*
X2689539Y31228956D01*
X2686496Y31200000D01*
X508500Y31200000D01*
X508500Y43365500D01*
X528502Y43433621D01*
X582158Y43480114D01*
X634500Y43491500D01*
X22225133Y43491500D01*
X22293254Y43471498D01*
G37*
%TD.AperFunction*%
%TA.AperFunction,Conductor*%
G36*
X27951585Y35606629D02*
G01*
X28001188Y35572884D01*
X28114572Y35446959D01*
X28119918Y35443075D01*
X28119919Y35443074D01*
X28164112Y35410965D01*
X28207465Y35354743D01*
X28213540Y35284006D01*
X28179145Y35219934D01*
X27772021Y34812811D01*
X27764408Y34798868D01*
X27764539Y34797034D01*
X27768790Y34790420D01*
X28179145Y34380066D01*
X28213170Y34317753D01*
X28208106Y34246938D01*
X28164112Y34189035D01*
X28119919Y34156926D01*
X28114572Y34153041D01*
X28001189Y34027116D01*
X27940743Y33989877D01*
X27869759Y33991229D01*
X27818458Y34022332D01*
X27412812Y34427978D01*
X27398868Y34435592D01*
X27397035Y34435461D01*
X27390420Y34431210D01*
X26981542Y34022332D01*
X26919230Y33988306D01*
X26848415Y33993371D01*
X26798811Y34027116D01*
X26685428Y34153041D01*
X26680081Y34156926D01*
X26635888Y34189035D01*
X26592535Y34245257D01*
X26586460Y34315994D01*
X26620855Y34380066D01*
X27027979Y34787189D01*
X27035592Y34801132D01*
X27035461Y34802966D01*
X27031210Y34809580D01*
X26620855Y35219934D01*
X26586830Y35282247D01*
X26591894Y35353062D01*
X26635888Y35410965D01*
X26680081Y35443074D01*
X26680082Y35443075D01*
X26685428Y35446959D01*
X26798812Y35572884D01*
X26859257Y35610123D01*
X26930241Y35608771D01*
X26981542Y35577668D01*
X27387188Y35172022D01*
X27401132Y35164408D01*
X27402965Y35164539D01*
X27409580Y35168790D01*
X27818458Y35577668D01*
X27880770Y35611694D01*
X27951585Y35606629D01*
G37*
%TD.AperFunction*%
%TA.AperFunction,Conductor*%
G36*
X33267012Y21801274D02*
G01*
X33273595Y21795145D01*
X37370145Y17698595D01*
X37404171Y17636283D01*
X37399106Y17565468D01*
X37356559Y17508632D01*
X37290039Y17483821D01*
X37281050Y17483500D01*
X33438814Y17483500D01*
X33370693Y17503502D01*
X33324200Y17557158D01*
X33314850Y17600141D01*
X33313504Y17600000D01*
X33294232Y17783365D01*
X33294232Y17783367D01*
X33293542Y17789928D01*
X33234527Y17971556D01*
X33139040Y18136944D01*
X33090864Y18190449D01*
X33060146Y18254456D01*
X33058500Y18274759D01*
X33058500Y21706050D01*
X33078502Y21774171D01*
X33132158Y21820664D01*
X33202432Y21830768D01*
X33267012Y21801274D01*
G37*
%TD.AperFunction*%
%TA.AperFunction,Conductor*%
G36*
X40259261Y35201498D02*
G01*
X40305754Y35147842D01*
X40315858Y35077568D01*
X40305428Y35042450D01*
X40290688Y35010695D01*
X40230989Y34795430D01*
X40207251Y34573305D01*
X40207548Y34568152D01*
X40207548Y34568149D01*
X40213011Y34473410D01*
X40220110Y34350285D01*
X40221247Y34345239D01*
X40221248Y34345233D01*
X40227838Y34315994D01*
X40269222Y34132361D01*
X40273781Y34121134D01*
X40310013Y34031904D01*
X40317109Y33961263D01*
X40284887Y33897999D01*
X40223577Y33862199D01*
X40193270Y33858500D01*
X34727594Y33858500D01*
X34659473Y33878502D01*
X34612980Y33932158D01*
X34602876Y34002432D01*
X34632370Y34067012D01*
X34638499Y34073595D01*
X35749499Y35184595D01*
X35811811Y35218621D01*
X35838594Y35221500D01*
X40191140Y35221500D01*
X40259261Y35201498D01*
G37*
%TD.AperFunction*%
%TD*%
D21*
X10600000Y35600000D03*
X10600000Y36800000D03*
X47600000Y18600000D03*
X43600000Y19000000D03*
X8400000Y23000000D03*
X15400000Y23200000D03*
X12000000Y23200000D03*
X25400000Y2000000D03*
X25200000Y9000000D03*
X22400000Y40400000D03*
X34200000Y31600000D03*
X1000000Y42800000D03*
X15400000Y42600000D03*
X11800000Y42600000D03*
X4600000Y42600000D03*
X8200000Y42400000D03*
X1600000Y34400000D03*
X1600000Y30600000D03*
X39400000Y19800000D03*
X42200000Y13600000D03*
X38000000Y6000000D03*
X38000000Y8800000D03*
X58800000Y42000000D03*
X43000000Y28400000D03*
X48800000Y29200000D03*
X49200000Y36000000D03*
X46200000Y42400000D03*
X41200000Y42200000D03*
X34200000Y2000000D03*
X32400000Y5000000D03*
X21600000Y12800000D03*
X19400000Y13400000D03*
X21200000Y20800000D03*
X2200000Y20800000D03*
X12600000Y12800000D03*
X3800000Y12800000D03*
X16000000Y1600000D03*
X18400000Y5800000D03*
X14000000Y5800000D03*
X2600000Y5800000D03*
X23400000Y34600000D03*
X24200000Y40800000D03*
X25200000Y38200000D03*
X24000000Y39400000D03*
X27800000Y42400000D03*
X31600000Y38600000D03*
X33000000Y42400000D03*
X30400000Y41800000D03*
X35000000Y41400000D03*
X34800000Y38600000D03*
X35800000Y34600000D03*
X32400000Y35800000D03*
X28600000Y31400000D03*
X35000000Y30600000D03*
X31400000Y29000000D03*
X27000000Y22600000D03*
X25000000Y22800000D03*
X38400000Y21800000D03*
X44800000Y23400000D03*
X35600000Y18200000D03*
X34200000Y19000000D03*
X34600000Y8000000D03*
X34000000Y13000000D03*
X33200000Y9200000D03*
X58800000Y11600000D03*
X59200000Y7800000D03*
X58600000Y3800000D03*
X41600000Y1600000D03*
X51400000Y1400000D03*
X46400000Y11000000D03*
X46800000Y8200000D03*
X47000000Y4000000D03*
X57200000Y16800000D03*
X54000000Y29800000D03*
X54000000Y27200000D03*
X54000000Y40000000D03*
X54000000Y37400000D03*
X54000000Y34800000D03*
X25400000Y18200000D03*
X12000000Y18600000D03*
X4400000Y22600000D03*
X3600000Y31200000D03*
X30200000Y16600000D03*
X50800000Y19604502D03*
X7600000Y6600000D03*
X22600000Y42400000D03*
X51800000Y10000000D03*
X49745005Y20123157D03*
X51400000Y13800000D03*
X50000000Y23144015D03*
X48745996Y20154553D03*
X49600000Y25200000D03*
X44400000Y20800000D03*
X36600000Y23000000D03*
X38200000Y24400000D03*
X32200000Y26400000D03*
X39400000Y26600000D03*
X31881545Y27347413D03*
X51800000Y4600000D03*
X52549500Y13038494D03*
X25062746Y27097700D03*
X30800000Y17800000D03*
X26746744Y27649001D03*
X32400000Y17600000D03*
X38456359Y17574500D03*
X28380430Y27916012D03*
X29168094Y28531310D03*
X40621084Y17574500D03*
X22000000Y27600000D03*
X22200000Y26600000D03*
X15800000Y27800000D03*
X58400000Y15400000D03*
X52730000Y38690000D03*
X52730000Y41230000D03*
X55270000Y18370000D03*
X55270000Y25990000D03*
X52730000Y23450000D03*
X52730000Y18370000D03*
X55270000Y41230000D03*
X52730000Y25990000D03*
X52730000Y33610000D03*
X52730000Y20910000D03*
X52730000Y31070000D03*
X52730000Y36150000D03*
X55270000Y36150000D03*
X55270000Y28530000D03*
X55270000Y31070000D03*
X55270000Y33610000D03*
X55270000Y23450000D03*
X55270000Y38690000D03*
X55270000Y20910000D03*
X52730000Y28530000D03*
X11500000Y16250000D03*
X11500000Y9750000D03*
X16000000Y16250000D03*
X16000000Y9750000D03*
X41570000Y32000000D03*
X41570000Y34540000D03*
X41570000Y37080000D03*
X41570000Y39620000D03*
X2450000Y9700000D03*
X2450000Y16200000D03*
X6950000Y16200000D03*
X6950000Y9700000D03*
X5075000Y2800000D03*
X7615000Y2800000D03*
X10155000Y2800000D03*
X22900000Y6100000D03*
X27900000Y6100000D03*
X26074175Y36125825D03*
X28725825Y33474175D03*
X27400000Y36675000D03*
X29275000Y34800000D03*
X27400000Y32925000D03*
X28725825Y36125825D03*
X26074175Y33474175D03*
X25525000Y34800000D03*
X27400000Y34800000D03*
X45570000Y39600000D03*
X45570000Y37060000D03*
X45570000Y34520000D03*
X45570000Y31980000D03*
M02*
