%TF.GenerationSoftware,KiCad,Pcbnew,(6.0.11-0)*%
%TF.CreationDate,2025-11-14T21:04:09+00:00*%
%TF.ProjectId,local-zappi-power,6c6f6361-6c2d-47a6-9170-70692d706f77,rev?*%
%TF.SameCoordinates,Original*%
%TF.FileFunction,Soldermask,Top*%
%TF.FilePolarity,Negative*%
%FSLAX46Y46*%
G04 Gerber Fmt 4.6, Leading zero omitted, Abs format (unit mm)*
G04 Created by KiCad (PCBNEW (6.0.11-0)) date 2025-11-14 21:04:09*
%MOMM*%
%LPD*%
G01*
G04 APERTURE LIST*
G04 Aperture macros list*
%AMRoundRect*
0 Rectangle with rounded corners*
0 $1 Rounding radius*
0 $2 $3 $4 $5 $6 $7 $8 $9 X,Y pos of 4 corners*
0 Add a 4 corners polygon primitive as box body*
4,1,4,$2,$3,$4,$5,$6,$7,$8,$9,$2,$3,0*
0 Add four circle primitives for the rounded corners*
1,1,$1+$1,$2,$3*
1,1,$1+$1,$4,$5*
1,1,$1+$1,$6,$7*
1,1,$1+$1,$8,$9*
0 Add four rect primitives between the rounded corners*
20,1,$1+$1,$2,$3,$4,$5,0*
20,1,$1+$1,$4,$5,$6,$7,0*
20,1,$1+$1,$6,$7,$8,$9,0*
20,1,$1+$1,$8,$9,$2,$3,0*%
%AMFreePoly0*
4,1,6,0.500000,-0.750000,-0.650000,-0.750000,-0.150000,0.000000,-0.650000,0.750000,0.500000,0.750000,0.500000,-0.750000,0.500000,-0.750000,$1*%
%AMFreePoly1*
4,1,6,1.000000,0.000000,0.500000,-0.750000,-0.500000,-0.750000,-0.500000,0.750000,0.500000,0.750000,1.000000,0.000000,1.000000,0.000000,$1*%
G04 Aperture macros list end*
%ADD10RoundRect,0.250000X-0.650000X0.412500X-0.650000X-0.412500X0.650000X-0.412500X0.650000X0.412500X0*%
%ADD11RoundRect,0.250000X0.412500X0.650000X-0.412500X0.650000X-0.412500X-0.650000X0.412500X-0.650000X0*%
%ADD12RoundRect,0.250000X0.650000X-0.412500X0.650000X0.412500X-0.650000X0.412500X-0.650000X-0.412500X0*%
%ADD13C,0.970000*%
%ADD14R,1.680000X1.270000*%
%ADD15RoundRect,0.250000X-0.400000X-0.625000X0.400000X-0.625000X0.400000X0.625000X-0.400000X0.625000X0*%
%ADD16RoundRect,0.250000X0.400000X0.625000X-0.400000X0.625000X-0.400000X-0.625000X0.400000X-0.625000X0*%
%ADD17C,2.000000*%
%ADD18R,1.700000X1.700000*%
%ADD19O,1.700000X1.700000*%
%ADD20RoundRect,0.250000X-0.412500X-0.650000X0.412500X-0.650000X0.412500X0.650000X-0.412500X0.650000X0*%
%ADD21R,1.500000X0.900000*%
%ADD22R,0.900000X1.500000*%
%ADD23R,0.900000X0.900000*%
%ADD24FreePoly0,180.000000*%
%ADD25FreePoly1,180.000000*%
%ADD26R,1.500000X1.000000*%
%ADD27R,2.600000X2.600000*%
%ADD28C,2.600000*%
%ADD29R,1.300000X0.800000*%
%ADD30R,2.000000X1.500000*%
%ADD31R,2.000000X3.800000*%
%ADD32C,0.800000*%
%ADD33C,5.000000*%
G04 APERTURE END LIST*
D10*
%TO.C,C6*%
X2400000Y27962500D03*
X2400000Y24837500D03*
%TD*%
D11*
%TO.C,C11*%
X4762500Y36200000D03*
X1637500Y36200000D03*
%TD*%
%TO.C,C10*%
X4762500Y32600000D03*
X1637500Y32600000D03*
%TD*%
D10*
%TO.C,C9*%
X6200000Y27962500D03*
X6200000Y24837500D03*
%TD*%
%TO.C,C8*%
X10000000Y27962500D03*
X10000000Y24837500D03*
%TD*%
%TO.C,C7*%
X13800000Y27962500D03*
X13800000Y24837500D03*
%TD*%
D12*
%TO.C,C4*%
X13600000Y39437500D03*
X13600000Y42562500D03*
%TD*%
D13*
%TO.C,J4*%
X52730000Y38690000D03*
X52730000Y41230000D03*
X55270000Y18370000D03*
X55270000Y25990000D03*
X52730000Y23450000D03*
X52730000Y18370000D03*
X55270000Y41230000D03*
X52730000Y25990000D03*
X52730000Y33610000D03*
X52730000Y20910000D03*
X52730000Y31070000D03*
X52730000Y36150000D03*
X55270000Y36150000D03*
X55270000Y28530000D03*
X55270000Y31070000D03*
X55270000Y33610000D03*
X55270000Y23450000D03*
X55270000Y38690000D03*
X55270000Y20910000D03*
X52730000Y28530000D03*
D14*
X56720000Y41230000D03*
X51280000Y41230000D03*
X56720000Y38690000D03*
X51280000Y38690000D03*
X56720000Y36150000D03*
X51280000Y36150000D03*
X56720000Y33610000D03*
X51280000Y33610000D03*
X56720000Y31070000D03*
X51280000Y31070000D03*
X56720000Y28530000D03*
X51280000Y28530000D03*
X56720000Y25990000D03*
X51280000Y25990000D03*
X56720000Y23450000D03*
X51280000Y23450000D03*
X56720000Y20910000D03*
X51280000Y20910000D03*
X56720000Y18370000D03*
X51280000Y18370000D03*
%TD*%
D15*
%TO.C,R9*%
X54050000Y2000000D03*
X57150000Y2000000D03*
%TD*%
D16*
%TO.C,R4*%
X39550000Y6200000D03*
X36450000Y6200000D03*
%TD*%
%TO.C,R2*%
X36450000Y13400000D03*
X39550000Y13400000D03*
%TD*%
D15*
%TO.C,R8*%
X54000000Y5800000D03*
X57100000Y5800000D03*
%TD*%
D17*
%TO.C,SW1*%
X11500000Y16250000D03*
X11500000Y9750000D03*
X16000000Y16250000D03*
X16000000Y9750000D03*
%TD*%
D18*
%TO.C,J1*%
X41570000Y32000000D03*
D19*
X41570000Y34540000D03*
X41570000Y37080000D03*
X41570000Y39620000D03*
%TD*%
D17*
%TO.C,SW2*%
X2450000Y9700000D03*
X2450000Y16200000D03*
X6950000Y16200000D03*
X6950000Y9700000D03*
%TD*%
D15*
%TO.C,R1*%
X9450000Y21000000D03*
X12550000Y21000000D03*
%TD*%
%TO.C,R7*%
X54050000Y9600000D03*
X57150000Y9600000D03*
%TD*%
D12*
%TO.C,C1*%
X6400000Y39437500D03*
X6400000Y42562500D03*
%TD*%
D16*
%TO.C,R11*%
X24450000Y13000000D03*
X27550000Y13000000D03*
%TD*%
%TO.C,R12*%
X21050000Y16800000D03*
X24150000Y16800000D03*
%TD*%
D18*
%TO.C,J5*%
X5075000Y2800000D03*
D19*
X7615000Y2800000D03*
X10155000Y2800000D03*
%TD*%
D20*
%TO.C,C2*%
X15437500Y21000000D03*
X18562500Y21000000D03*
%TD*%
D12*
%TO.C,C12*%
X2800000Y39437500D03*
X2800000Y42562500D03*
%TD*%
D16*
%TO.C,R3*%
X39550000Y9800000D03*
X36450000Y9800000D03*
%TD*%
%TO.C,R5*%
X39550000Y2600000D03*
X36450000Y2600000D03*
%TD*%
D21*
%TO.C,U2*%
X20250000Y42660000D03*
X20250000Y41390000D03*
X20250000Y40120000D03*
X20250000Y38850000D03*
X20250000Y37580000D03*
X20250000Y36310000D03*
X20250000Y35040000D03*
X20250000Y33770000D03*
X20250000Y32500000D03*
X20250000Y31230000D03*
X20250000Y29960000D03*
X20250000Y28690000D03*
X20250000Y27420000D03*
X20250000Y26150000D03*
D22*
X22015000Y24900000D03*
X23285000Y24900000D03*
X24555000Y24900000D03*
X25825000Y24900000D03*
X27095000Y24900000D03*
X28365000Y24900000D03*
X29635000Y24900000D03*
X30905000Y24900000D03*
X32175000Y24900000D03*
X33445000Y24900000D03*
X34715000Y24900000D03*
X35985000Y24900000D03*
D21*
X37750000Y26150000D03*
X37750000Y27420000D03*
X37750000Y28690000D03*
X37750000Y29960000D03*
X37750000Y31230000D03*
X37750000Y32500000D03*
X37750000Y33770000D03*
X37750000Y35040000D03*
X37750000Y36310000D03*
X37750000Y37580000D03*
X37750000Y38850000D03*
X37750000Y40120000D03*
X37750000Y41390000D03*
X37750000Y42660000D03*
D23*
X27500000Y36340000D03*
X26100000Y33540000D03*
X27500000Y34940000D03*
X28900000Y34940000D03*
X28900000Y36340000D03*
X28900000Y33540000D03*
X27500000Y33540000D03*
X26100000Y34940000D03*
X26100000Y36340000D03*
%TD*%
D24*
%TO.C,JP5*%
X27475000Y16600000D03*
D25*
X28925000Y16600000D03*
%TD*%
D16*
%TO.C,R10*%
X24250000Y20400000D03*
X27350000Y20400000D03*
%TD*%
D26*
%TO.C,JP4*%
X45800000Y19550000D03*
X45800000Y20850000D03*
%TD*%
D27*
%TO.C,J3*%
X22900000Y6100000D03*
D28*
X27900000Y6100000D03*
%TD*%
D12*
%TO.C,C5*%
X17200000Y39437500D03*
X17200000Y42562500D03*
%TD*%
%TO.C,C3*%
X10000000Y39437500D03*
X10000000Y42562500D03*
%TD*%
D26*
%TO.C,JP3*%
X41200000Y19550000D03*
X41200000Y20850000D03*
%TD*%
D29*
%TO.C,U1*%
X43850000Y12250000D03*
X43850000Y10970000D03*
X43850000Y9710000D03*
X43850000Y8440000D03*
X43850000Y7160000D03*
X43850000Y5890000D03*
X43850000Y4630000D03*
X43850000Y3350000D03*
X50150000Y3350000D03*
X50150000Y4630000D03*
X50150000Y5890000D03*
X50150000Y7160000D03*
X50150000Y8440000D03*
X50150000Y9710000D03*
X50150000Y10970000D03*
X50150000Y12250000D03*
%TD*%
D30*
%TO.C,U3*%
X8650000Y31500000D03*
X8650000Y33800000D03*
D31*
X14950000Y33800000D03*
D30*
X8650000Y36100000D03*
%TD*%
D15*
%TO.C,R6*%
X54050000Y13200000D03*
X57150000Y13200000D03*
%TD*%
D32*
%TO.C,H1*%
X26074175Y36125825D03*
X28725825Y33474175D03*
X27400000Y36675000D03*
X29275000Y34800000D03*
X27400000Y32925000D03*
X28725825Y36125825D03*
X26074175Y33474175D03*
X25525000Y34800000D03*
D33*
X27400000Y34800000D03*
%TD*%
D26*
%TO.C,JP1*%
X41200000Y24950000D03*
X41200000Y26250000D03*
%TD*%
D18*
%TO.C,J2*%
X45570000Y39600000D03*
D19*
X45570000Y37060000D03*
X45570000Y34520000D03*
X45570000Y31980000D03*
%TD*%
D26*
%TO.C,JP2*%
X45800000Y24950000D03*
X45800000Y26250000D03*
%TD*%
M02*
