%TF.GenerationSoftware,KiCad,Pcbnew,(6.0.11-0)*%
%TF.CreationDate,2025-11-14T21:04:09+00:00*%
%TF.ProjectId,local-zappi-power,6c6f6361-6c2d-47a6-9170-70692d706f77,rev?*%
%TF.SameCoordinates,Original*%
%TF.FileFunction,Copper,L2,Bot*%
%TF.FilePolarity,Positive*%
%FSLAX46Y46*%
G04 Gerber Fmt 4.6, Leading zero omitted, Abs format (unit mm)*
G04 Created by KiCad (PCBNEW (6.0.11-0)) date 2025-11-14 21:04:09*
%MOMM*%
%LPD*%
G01*
G04 APERTURE LIST*
%TA.AperFunction,ComponentPad*%
%ADD10C,2.000000*%
%TD*%
%TA.AperFunction,ComponentPad*%
%ADD11R,1.700000X1.700000*%
%TD*%
%TA.AperFunction,ComponentPad*%
%ADD12O,1.700000X1.700000*%
%TD*%
%TA.AperFunction,ComponentPad*%
%ADD13R,2.600000X2.600000*%
%TD*%
%TA.AperFunction,ComponentPad*%
%ADD14C,2.600000*%
%TD*%
%TA.AperFunction,ComponentPad*%
%ADD15C,0.800000*%
%TD*%
%TA.AperFunction,ComponentPad*%
%ADD16C,5.000000*%
%TD*%
%TA.AperFunction,ViaPad*%
%ADD17C,0.800000*%
%TD*%
%TA.AperFunction,Conductor*%
%ADD18C,1.000000*%
%TD*%
%TA.AperFunction,Conductor*%
%ADD19C,0.750000*%
%TD*%
%TA.AperFunction,Conductor*%
%ADD20C,0.300000*%
%TD*%
%ADD21C,0.350000*%
G04 APERTURE END LIST*
D10*
%TO.P,SW1,1,1*%
%TO.N,GND*%
X111500000Y-84750000D03*
X111500000Y-91250000D03*
%TO.P,SW1,2,2*%
%TO.N,/EN*%
X116000000Y-84750000D03*
X116000000Y-91250000D03*
%TD*%
D11*
%TO.P,J1,1,Pin_1*%
%TO.N,GND*%
X141570000Y-69000000D03*
D12*
%TO.P,J1,2,Pin_2*%
%TO.N,Net-(J1-Pad2)*%
X141570000Y-66460000D03*
%TO.P,J1,3,Pin_3*%
%TO.N,Net-(J1-Pad3)*%
X141570000Y-63920000D03*
%TO.P,J1,4,Pin_4*%
%TO.N,+5V*%
X141570000Y-61380000D03*
%TD*%
D10*
%TO.P,SW2,1,1*%
%TO.N,GND*%
X102450000Y-91300000D03*
X102450000Y-84800000D03*
%TO.P,SW2,2,2*%
%TO.N,/GPIO0*%
X106950000Y-84800000D03*
X106950000Y-91300000D03*
%TD*%
D11*
%TO.P,J5,1,Pin_1*%
%TO.N,/Relay*%
X105075000Y-98200000D03*
D12*
%TO.P,J5,2,Pin_2*%
%TO.N,+3.3V*%
X107615000Y-98200000D03*
%TO.P,J5,3,Pin_3*%
%TO.N,GND*%
X110155000Y-98200000D03*
%TD*%
D13*
%TO.P,J3,1,Pin_1*%
%TO.N,/CP*%
X122900000Y-94900000D03*
D14*
%TO.P,J3,2,Pin_2*%
X127900000Y-94900000D03*
%TD*%
D15*
%TO.P,H1,1*%
%TO.N,N/C*%
X126074175Y-64874175D03*
X128725825Y-67525825D03*
X127400000Y-64325000D03*
X129275000Y-66200000D03*
X127400000Y-68075000D03*
X128725825Y-64874175D03*
X126074175Y-67525825D03*
X125525000Y-66200000D03*
D16*
%TO.N,GND*%
X127400000Y-66200000D03*
%TD*%
D11*
%TO.P,J2,1,Pin_1*%
%TO.N,GND*%
X145570000Y-61400000D03*
D12*
%TO.P,J2,2,Pin_2*%
%TO.N,/D_N*%
X145570000Y-63940000D03*
%TO.P,J2,3,Pin_3*%
%TO.N,/D_P*%
X145570000Y-66480000D03*
%TO.P,J2,4,Pin_4*%
%TO.N,+5V*%
X145570000Y-69020000D03*
%TD*%
D17*
%TO.N,GND*%
X110600000Y-65400000D03*
X110600000Y-64200000D03*
X147600000Y-82400000D03*
X143600000Y-82000000D03*
X108400000Y-78000000D03*
X115400000Y-77800000D03*
X112000000Y-77800000D03*
X125400000Y-99000000D03*
X125200000Y-92000000D03*
X122400000Y-60600000D03*
X134200000Y-69400000D03*
X101000000Y-58200000D03*
X115400000Y-58400000D03*
X111800000Y-58400000D03*
X104600000Y-58400000D03*
X108200000Y-58600000D03*
X101600000Y-66600000D03*
X101600000Y-70400000D03*
X139400000Y-81200000D03*
X142200000Y-87400000D03*
X138000000Y-95000000D03*
X138000000Y-92200000D03*
X158800000Y-59000000D03*
X143000000Y-72600000D03*
X148800000Y-71800000D03*
X149200000Y-65000000D03*
X146200000Y-58600000D03*
X141200000Y-58800000D03*
X134200000Y-99000000D03*
X132400000Y-96000000D03*
X121600000Y-88200000D03*
X119400000Y-87600000D03*
X121200000Y-80200000D03*
X102200000Y-80200000D03*
X112600000Y-88200000D03*
X103800000Y-88200000D03*
X116000000Y-99400000D03*
X118400000Y-95200000D03*
X114000000Y-95200000D03*
X102600000Y-95200000D03*
X123400000Y-66400000D03*
X124200000Y-60200000D03*
X125200000Y-62800000D03*
X124000000Y-61600000D03*
X127800000Y-58600000D03*
X131600000Y-62400000D03*
X133000000Y-58600000D03*
X130400000Y-59200000D03*
X135000000Y-59600000D03*
X134800000Y-62400000D03*
X135800000Y-66400000D03*
X132400000Y-65200000D03*
X128600000Y-69600000D03*
X135000000Y-70400000D03*
X131400000Y-72000000D03*
X127000000Y-78400000D03*
X125000000Y-78200000D03*
X138400000Y-79200000D03*
X144800000Y-77600000D03*
X135600000Y-82800000D03*
X134200000Y-82000000D03*
X134600000Y-93000000D03*
X134000000Y-88000000D03*
X133200000Y-91800000D03*
X158800000Y-89400000D03*
X159200000Y-93200000D03*
X158600000Y-97200000D03*
X141600000Y-99400000D03*
X151400000Y-99600000D03*
X146400000Y-90000000D03*
X146800000Y-92800000D03*
X147000000Y-97000000D03*
X157200000Y-84200000D03*
X154000000Y-71200000D03*
X154000000Y-73800000D03*
X154000000Y-61000000D03*
X154000000Y-63600000D03*
X154000000Y-66200000D03*
%TO.N,+3.3V*%
X125400000Y-82800000D03*
X112000000Y-82400000D03*
X104400000Y-78400000D03*
X103600000Y-69800000D03*
%TO.N,Net-(J4-Pad18)*%
X130200000Y-84400000D03*
X150800000Y-81395498D03*
%TO.N,+3.3V*%
X107600000Y-94400000D03*
%TO.N,/GPIO0*%
X122600000Y-58600000D03*
%TO.N,/Up*%
X151800000Y-91000000D03*
X149745005Y-80876843D03*
X151400000Y-87200000D03*
X150000000Y-77855985D03*
%TO.N,/Enter*%
X148745996Y-80845447D03*
X149600000Y-75800000D03*
%TO.N,/Select_return*%
X144400000Y-80200000D03*
X136600000Y-78000000D03*
%TO.N,/Up_return*%
X138200000Y-76600000D03*
X132200000Y-74600000D03*
%TO.N,/Enter_return*%
X139400000Y-74400000D03*
X131881545Y-73652587D03*
%TO.N,/Select*%
X151800000Y-96400000D03*
X152549500Y-87961506D03*
%TO.N,/Select_b*%
X125062746Y-73902300D03*
X130800000Y-83200000D03*
%TO.N,/Down_b*%
X126746744Y-73350999D03*
X132400000Y-83400000D03*
%TO.N,/Up_b*%
X138456359Y-83425500D03*
X128380430Y-73083988D03*
%TO.N,/Enter_b*%
X129168094Y-72468690D03*
X140621084Y-83425500D03*
%TO.N,/D_N*%
X122000000Y-73400000D03*
%TO.N,/D_P*%
X122200000Y-74400000D03*
%TO.N,+5V*%
X115800000Y-73200000D03*
X158400000Y-85600000D03*
%TD*%
D18*
%TO.N,+5V*%
X129754928Y-85600000D02*
X117354928Y-73200000D01*
X117354928Y-73200000D02*
X115800000Y-73200000D01*
D19*
%TO.N,+3.3V*%
X125000000Y-82400000D02*
X125400000Y-82800000D01*
D18*
%TO.N,+5V*%
X158400000Y-85600000D02*
X129754928Y-85600000D01*
D19*
%TO.N,+3.3V*%
X112000000Y-82400000D02*
X125000000Y-82400000D01*
X104400000Y-78400000D02*
X104400000Y-70600000D01*
X104400000Y-70600000D02*
X103600000Y-69800000D01*
D20*
%TO.N,/Enter_b*%
X139825500Y-83425500D02*
X140621084Y-83425500D01*
D19*
%TO.N,Net-(J4-Pad18)*%
X147795498Y-84400000D02*
X150800000Y-81395498D01*
D20*
%TO.N,/Up*%
X149800000Y-78055985D02*
X149800000Y-80821848D01*
%TO.N,/Enter*%
X149600000Y-75800000D02*
X148954735Y-76445265D01*
%TO.N,/Enter_b*%
X129168094Y-72468690D02*
X129168094Y-72768094D01*
%TO.N,/Up_b*%
X128380430Y-73083988D02*
X128380430Y-73380430D01*
%TO.N,/Enter*%
X148954735Y-80636708D02*
X148745996Y-80845447D01*
%TO.N,/Up_b*%
X128380430Y-73380430D02*
X138425500Y-83425500D01*
X138425500Y-83425500D02*
X138456359Y-83425500D01*
%TO.N,/Enter_b*%
X129168094Y-72768094D02*
X139825500Y-83425500D01*
D19*
%TO.N,Net-(J4-Pad18)*%
X130200000Y-84400000D02*
X147795498Y-84400000D01*
D20*
%TO.N,/Up*%
X149800000Y-80821848D02*
X149745005Y-80876843D01*
X150000000Y-77855985D02*
X149800000Y-78055985D01*
%TO.N,/Enter*%
X148954735Y-76445265D02*
X148954735Y-80636708D01*
D19*
%TO.N,+3.3V*%
X107600000Y-94400000D02*
X107600000Y-98185000D01*
X107600000Y-98185000D02*
X107615000Y-98200000D01*
D20*
%TO.N,/GPIO0*%
X122600000Y-58600000D02*
X106950000Y-74250000D01*
X106950000Y-74250000D02*
X106950000Y-84800000D01*
%TO.N,/Select*%
X152549500Y-95650500D02*
X152549500Y-87961506D01*
%TO.N,/Up*%
X151800000Y-87600000D02*
X151400000Y-87200000D01*
%TO.N,/Select*%
X151800000Y-96400000D02*
X152549500Y-95650500D01*
%TO.N,/Up*%
X151800000Y-91000000D02*
X151800000Y-87600000D01*
%TO.N,/Select_return*%
X142200000Y-78000000D02*
X136600000Y-78000000D01*
X144400000Y-80200000D02*
X142200000Y-78000000D01*
%TO.N,/Down_b*%
X132400000Y-79200000D02*
X126746744Y-73546744D01*
X132400000Y-83400000D02*
X132400000Y-79200000D01*
%TO.N,/Up_return*%
X136200000Y-74600000D02*
X132200000Y-74600000D01*
%TO.N,/Down_b*%
X126746744Y-73546744D02*
X126746744Y-73350999D01*
%TO.N,/Enter_return*%
X139400000Y-74400000D02*
X138652587Y-73652587D01*
X138652587Y-73652587D02*
X131881545Y-73652587D01*
%TO.N,/Up_return*%
X138200000Y-76600000D02*
X136200000Y-74600000D01*
%TO.N,/Select_b*%
X130800000Y-83200000D02*
X130800000Y-79600000D01*
X125102300Y-73902300D02*
X125062746Y-73902300D01*
X130800000Y-79600000D02*
X125102300Y-73902300D01*
%TO.N,/D_N*%
X129413955Y-71219689D02*
X135513644Y-65120000D01*
X144390000Y-65120000D02*
X145570000Y-63940000D01*
%TO.N,/D_P*%
X124880810Y-71719190D02*
X129620856Y-71719190D01*
%TO.N,/D_N*%
X122000000Y-73400000D02*
X124180311Y-71219689D01*
X135513644Y-65120000D02*
X144390000Y-65120000D01*
%TO.N,/D_P*%
X133540046Y-67800000D02*
X144250000Y-67800000D01*
X122200000Y-74400000D02*
X124880810Y-71719190D01*
X144250000Y-67800000D02*
X145570000Y-66480000D01*
X129620856Y-71719190D02*
X133540046Y-67800000D01*
%TO.N,/D_N*%
X124180311Y-71219689D02*
X129413955Y-71219689D01*
%TD*%
%TA.AperFunction,Conductor*%
%TO.N,GND*%
G36*
X122293254Y-57528502D02*
G01*
X122339747Y-57582158D01*
X122349851Y-57652432D01*
X122320357Y-57717012D01*
X122276382Y-57749607D01*
X122149278Y-57806197D01*
X122149276Y-57806198D01*
X122143248Y-57808882D01*
X121988747Y-57921134D01*
X121860960Y-58063056D01*
X121765473Y-58228444D01*
X121706458Y-58410072D01*
X121705768Y-58416635D01*
X121705768Y-58416637D01*
X121693245Y-58535786D01*
X121666232Y-58601443D01*
X121657030Y-58611711D01*
X106542395Y-73726345D01*
X106533615Y-73734335D01*
X106533613Y-73734337D01*
X106526920Y-73738584D01*
X106521494Y-73744362D01*
X106521493Y-73744363D01*
X106478396Y-73790257D01*
X106475641Y-73793099D01*
X106455073Y-73813667D01*
X106452356Y-73817170D01*
X106444648Y-73826195D01*
X106413028Y-73859867D01*
X106409207Y-73866818D01*
X106409206Y-73866819D01*
X106402697Y-73878658D01*
X106391843Y-73895182D01*
X106384834Y-73904219D01*
X106378696Y-73912132D01*
X106375549Y-73919404D01*
X106375548Y-73919406D01*
X106360346Y-73954535D01*
X106355124Y-73965195D01*
X106340146Y-73992440D01*
X106332876Y-74005663D01*
X106327541Y-74026441D01*
X106321142Y-74045131D01*
X106312620Y-74064824D01*
X106308280Y-74092228D01*
X106305394Y-74110448D01*
X106302987Y-74122071D01*
X106295798Y-74150072D01*
X106291500Y-74166812D01*
X106291500Y-74188259D01*
X106289949Y-74207969D01*
X106286594Y-74229152D01*
X106287340Y-74237043D01*
X106290941Y-74275138D01*
X106291500Y-74286996D01*
X106291500Y-83363754D01*
X106271498Y-83431875D01*
X106231335Y-83471186D01*
X106064807Y-83573235D01*
X106064797Y-83573242D01*
X106060584Y-83575824D01*
X105880031Y-83730031D01*
X105725824Y-83910584D01*
X105723245Y-83914792D01*
X105723241Y-83914798D01*
X105634986Y-84058817D01*
X105601760Y-84113037D01*
X105599867Y-84117607D01*
X105599865Y-84117611D01*
X105529612Y-84287218D01*
X105510895Y-84332406D01*
X105509740Y-84337218D01*
X105466266Y-84518301D01*
X105455465Y-84563289D01*
X105436835Y-84800000D01*
X105455465Y-85036711D01*
X105456619Y-85041518D01*
X105456620Y-85041524D01*
X105474118Y-85114408D01*
X105510895Y-85267594D01*
X105512788Y-85272165D01*
X105512789Y-85272167D01*
X105599772Y-85482163D01*
X105601760Y-85486963D01*
X105604346Y-85491183D01*
X105723241Y-85685202D01*
X105723245Y-85685208D01*
X105725824Y-85689416D01*
X105880031Y-85869969D01*
X106060584Y-86024176D01*
X106064792Y-86026755D01*
X106064798Y-86026759D01*
X106183806Y-86099687D01*
X106263037Y-86148240D01*
X106267607Y-86150133D01*
X106267611Y-86150135D01*
X106477833Y-86237211D01*
X106482406Y-86239105D01*
X106562609Y-86258360D01*
X106708476Y-86293380D01*
X106708482Y-86293381D01*
X106713289Y-86294535D01*
X106950000Y-86313165D01*
X107186711Y-86294535D01*
X107191518Y-86293381D01*
X107191524Y-86293380D01*
X107337391Y-86258360D01*
X107417594Y-86239105D01*
X107422167Y-86237211D01*
X107632389Y-86150135D01*
X107632393Y-86150133D01*
X107636963Y-86148240D01*
X107716194Y-86099687D01*
X107835202Y-86026759D01*
X107835208Y-86026755D01*
X107839416Y-86024176D01*
X107888013Y-85982670D01*
X110632160Y-85982670D01*
X110637887Y-85990320D01*
X110809042Y-86095205D01*
X110817837Y-86099687D01*
X111027988Y-86186734D01*
X111037373Y-86189783D01*
X111258554Y-86242885D01*
X111268301Y-86244428D01*
X111495070Y-86262275D01*
X111504930Y-86262275D01*
X111731699Y-86244428D01*
X111741446Y-86242885D01*
X111962627Y-86189783D01*
X111972012Y-86186734D01*
X112182163Y-86099687D01*
X112190958Y-86095205D01*
X112358445Y-85992568D01*
X112367907Y-85982110D01*
X112364124Y-85973334D01*
X111512812Y-85122022D01*
X111498868Y-85114408D01*
X111497035Y-85114539D01*
X111490420Y-85118790D01*
X110638920Y-85970290D01*
X110632160Y-85982670D01*
X107888013Y-85982670D01*
X108019969Y-85869969D01*
X108174176Y-85689416D01*
X108176755Y-85685208D01*
X108176759Y-85685202D01*
X108295654Y-85491183D01*
X108298240Y-85486963D01*
X108300229Y-85482163D01*
X108387211Y-85272167D01*
X108387212Y-85272165D01*
X108389105Y-85267594D01*
X108425882Y-85114408D01*
X108443380Y-85041524D01*
X108443381Y-85041518D01*
X108444535Y-85036711D01*
X108463165Y-84800000D01*
X108459618Y-84754930D01*
X109987725Y-84754930D01*
X110005572Y-84981699D01*
X110007115Y-84991446D01*
X110060217Y-85212627D01*
X110063266Y-85222012D01*
X110150313Y-85432163D01*
X110154795Y-85440958D01*
X110257432Y-85608445D01*
X110267890Y-85617907D01*
X110276666Y-85614124D01*
X111127978Y-84762812D01*
X111134356Y-84751132D01*
X111864408Y-84751132D01*
X111864539Y-84752965D01*
X111868790Y-84759580D01*
X112720290Y-85611080D01*
X112732670Y-85617840D01*
X112740320Y-85612113D01*
X112845205Y-85440958D01*
X112849687Y-85432163D01*
X112936734Y-85222012D01*
X112939783Y-85212627D01*
X112992885Y-84991446D01*
X112994428Y-84981699D01*
X113012275Y-84754930D01*
X113012275Y-84745070D01*
X112994428Y-84518301D01*
X112992885Y-84508554D01*
X112939783Y-84287373D01*
X112936734Y-84277988D01*
X112849687Y-84067837D01*
X112845205Y-84059042D01*
X112742568Y-83891555D01*
X112732110Y-83882093D01*
X112723334Y-83885876D01*
X111872022Y-84737188D01*
X111864408Y-84751132D01*
X111134356Y-84751132D01*
X111135592Y-84748868D01*
X111135461Y-84747035D01*
X111131210Y-84740420D01*
X110279710Y-83888920D01*
X110267330Y-83882160D01*
X110259680Y-83887887D01*
X110154795Y-84059042D01*
X110150313Y-84067837D01*
X110063266Y-84277988D01*
X110060217Y-84287373D01*
X110007115Y-84508554D01*
X110005572Y-84518301D01*
X109987725Y-84745070D01*
X109987725Y-84754930D01*
X108459618Y-84754930D01*
X108444535Y-84563289D01*
X108433735Y-84518301D01*
X108390260Y-84337218D01*
X108389105Y-84332406D01*
X108370388Y-84287218D01*
X108300135Y-84117611D01*
X108300133Y-84117607D01*
X108298240Y-84113037D01*
X108265014Y-84058817D01*
X108176759Y-83914798D01*
X108176755Y-83914792D01*
X108174176Y-83910584D01*
X108019969Y-83730031D01*
X107839416Y-83575824D01*
X107835203Y-83573242D01*
X107835193Y-83573235D01*
X107668665Y-83471186D01*
X107621034Y-83418539D01*
X107608500Y-83363754D01*
X107608500Y-74574950D01*
X107628502Y-74506829D01*
X107645405Y-74485855D01*
X116022272Y-66108987D01*
X124388484Y-66108987D01*
X124397374Y-66448505D01*
X124397980Y-66455721D01*
X124445835Y-66791963D01*
X124447269Y-66799074D01*
X124533455Y-67127595D01*
X124535692Y-67134478D01*
X124659064Y-67450914D01*
X124662081Y-67457503D01*
X124821002Y-67757652D01*
X124824761Y-67763860D01*
X125017129Y-68043757D01*
X125021574Y-68049486D01*
X125088743Y-68126484D01*
X125101917Y-68134888D01*
X125111769Y-68129020D01*
X125166808Y-68073981D01*
X125229120Y-68039955D01*
X125299935Y-68045020D01*
X125349539Y-68078766D01*
X125452051Y-68192617D01*
X125462922Y-68204691D01*
X125468264Y-68208572D01*
X125468266Y-68208574D01*
X125512462Y-68240684D01*
X125555816Y-68296906D01*
X125561891Y-68367643D01*
X125527496Y-68431715D01*
X125471474Y-68487737D01*
X125463860Y-68501681D01*
X125463878Y-68501934D01*
X125469792Y-68510676D01*
X125501111Y-68539174D01*
X125506748Y-68543738D01*
X125782544Y-68741918D01*
X125788682Y-68745813D01*
X126085435Y-68910984D01*
X126091955Y-68914136D01*
X126405738Y-69044109D01*
X126412589Y-69046495D01*
X126739212Y-69139536D01*
X126746301Y-69141120D01*
X127081465Y-69196006D01*
X127088671Y-69196763D01*
X127427926Y-69212762D01*
X127435176Y-69212686D01*
X127774010Y-69189587D01*
X127781219Y-69188676D01*
X128115160Y-69126784D01*
X128122190Y-69125057D01*
X128446819Y-69025187D01*
X128453597Y-69022667D01*
X128764603Y-68886145D01*
X128771043Y-68882864D01*
X129064293Y-68711502D01*
X129070326Y-68707493D01*
X129328828Y-68513405D01*
X129337282Y-68502078D01*
X129330537Y-68489748D01*
X129272504Y-68431715D01*
X129238478Y-68369403D01*
X129243543Y-68298588D01*
X129287538Y-68240684D01*
X129331734Y-68208574D01*
X129331736Y-68208572D01*
X129337078Y-68204691D01*
X129347950Y-68192617D01*
X129450461Y-68078766D01*
X129510907Y-68041526D01*
X129581890Y-68042878D01*
X129633192Y-68073981D01*
X129686268Y-68127057D01*
X129699622Y-68134349D01*
X129709595Y-68127294D01*
X129816641Y-67999267D01*
X129820957Y-67993456D01*
X130007432Y-67709575D01*
X130011046Y-67703313D01*
X130163658Y-67399882D01*
X130166530Y-67393244D01*
X130283249Y-67074293D01*
X130285345Y-67067351D01*
X130364631Y-66737103D01*
X130365915Y-66729964D01*
X130406816Y-66391973D01*
X130407240Y-66386403D01*
X130413010Y-66202797D01*
X130412937Y-66197204D01*
X130393338Y-65857303D01*
X130392506Y-65850113D01*
X130334113Y-65515529D01*
X130332458Y-65508474D01*
X130235998Y-65182834D01*
X130233540Y-65176006D01*
X130100290Y-64863608D01*
X130097073Y-64857125D01*
X129928788Y-64562089D01*
X129924856Y-64556034D01*
X129723774Y-64282295D01*
X129719166Y-64276726D01*
X129713830Y-64270984D01*
X129700178Y-64262866D01*
X129699570Y-64262887D01*
X129691092Y-64268119D01*
X129633192Y-64326019D01*
X129570880Y-64360045D01*
X129500065Y-64354980D01*
X129450461Y-64321234D01*
X129430326Y-64298871D01*
X129337078Y-64195309D01*
X129287538Y-64159316D01*
X129244185Y-64103095D01*
X129238110Y-64032359D01*
X129272505Y-63968286D01*
X129327076Y-63913715D01*
X129334467Y-63900180D01*
X129327679Y-63890479D01*
X129224476Y-63802335D01*
X129218704Y-63797953D01*
X128936796Y-63608519D01*
X128930575Y-63604839D01*
X128628757Y-63449060D01*
X128622146Y-63446116D01*
X128304439Y-63326065D01*
X128297513Y-63323894D01*
X127968112Y-63241155D01*
X127961005Y-63239799D01*
X127624278Y-63195468D01*
X127617036Y-63194937D01*
X127277467Y-63189602D01*
X127270205Y-63189906D01*
X126932256Y-63223638D01*
X126925108Y-63224770D01*
X126593263Y-63297124D01*
X126586285Y-63299072D01*
X126264960Y-63409086D01*
X126258253Y-63411823D01*
X125951707Y-63558039D01*
X125945349Y-63561534D01*
X125657654Y-63742005D01*
X125651731Y-63746214D01*
X125473601Y-63888923D01*
X125465132Y-63901048D01*
X125471527Y-63912316D01*
X125527496Y-63968285D01*
X125561522Y-64030597D01*
X125556457Y-64101412D01*
X125512462Y-64159316D01*
X125462922Y-64195309D01*
X125369675Y-64298871D01*
X125349539Y-64321234D01*
X125289093Y-64358474D01*
X125218110Y-64357122D01*
X125166808Y-64326019D01*
X125112374Y-64271585D01*
X125099581Y-64264599D01*
X125088828Y-64272463D01*
X124928037Y-64477527D01*
X124923902Y-64483476D01*
X124746440Y-64773068D01*
X124743019Y-64779447D01*
X124600016Y-65087522D01*
X124597356Y-65094241D01*
X124490711Y-65416707D01*
X124488834Y-65423711D01*
X124419961Y-65756288D01*
X124418904Y-65763449D01*
X124388712Y-66101735D01*
X124388484Y-66108987D01*
X116022272Y-66108987D01*
X122312476Y-59818783D01*
X151732568Y-59818783D01*
X151762750Y-60018348D01*
X151832443Y-60207768D01*
X151835809Y-60213196D01*
X151835811Y-60213201D01*
X151885580Y-60293469D01*
X151938801Y-60379306D01*
X151943187Y-60383944D01*
X152057978Y-60505331D01*
X152077479Y-60525953D01*
X152242812Y-60641721D01*
X152428046Y-60721879D01*
X152625615Y-60763153D01*
X152630457Y-60763407D01*
X152630459Y-60763407D01*
X152630482Y-60763408D01*
X152632236Y-60763500D01*
X152780444Y-60763500D01*
X152855352Y-60755891D01*
X152924452Y-60748872D01*
X152924453Y-60748872D01*
X152930801Y-60748227D01*
X153123400Y-60687871D01*
X153299928Y-60590019D01*
X153453175Y-60458671D01*
X153461726Y-60447648D01*
X153572972Y-60304229D01*
X153576881Y-60299190D01*
X153665992Y-60118092D01*
X153682903Y-60053173D01*
X153715259Y-59928956D01*
X153715259Y-59928955D01*
X153716869Y-59922775D01*
X153722319Y-59818783D01*
X154272568Y-59818783D01*
X154302750Y-60018348D01*
X154372443Y-60207768D01*
X154375809Y-60213196D01*
X154375811Y-60213201D01*
X154425580Y-60293469D01*
X154478801Y-60379306D01*
X154483187Y-60383944D01*
X154597978Y-60505331D01*
X154617479Y-60525953D01*
X154782812Y-60641721D01*
X154968046Y-60721879D01*
X155165615Y-60763153D01*
X155170457Y-60763407D01*
X155170459Y-60763407D01*
X155170482Y-60763408D01*
X155172236Y-60763500D01*
X155320444Y-60763500D01*
X155395352Y-60755891D01*
X155464452Y-60748872D01*
X155464453Y-60748872D01*
X155470801Y-60748227D01*
X155663400Y-60687871D01*
X155839928Y-60590019D01*
X155993175Y-60458671D01*
X156001726Y-60447648D01*
X156112972Y-60304229D01*
X156116881Y-60299190D01*
X156205992Y-60118092D01*
X156222903Y-60053173D01*
X156255259Y-59928956D01*
X156255259Y-59928955D01*
X156256869Y-59922775D01*
X156267432Y-59721217D01*
X156237250Y-59521652D01*
X156167557Y-59332232D01*
X156164191Y-59326804D01*
X156164189Y-59326799D01*
X156064563Y-59166120D01*
X156061199Y-59160694D01*
X155986147Y-59081329D01*
X155926910Y-59018688D01*
X155926909Y-59018687D01*
X155922521Y-59014047D01*
X155757188Y-58898279D01*
X155571954Y-58818121D01*
X155374385Y-58776847D01*
X155369543Y-58776593D01*
X155369541Y-58776593D01*
X155369518Y-58776592D01*
X155367764Y-58776500D01*
X155219556Y-58776500D01*
X155151973Y-58783365D01*
X155075548Y-58791128D01*
X155075547Y-58791128D01*
X155069199Y-58791773D01*
X154876600Y-58852129D01*
X154700072Y-58949981D01*
X154546825Y-59081329D01*
X154423119Y-59240810D01*
X154334008Y-59421908D01*
X154332399Y-59428086D01*
X154332398Y-59428088D01*
X154311452Y-59508500D01*
X154283131Y-59617225D01*
X154272568Y-59818783D01*
X153722319Y-59818783D01*
X153727432Y-59721217D01*
X153697250Y-59521652D01*
X153627557Y-59332232D01*
X153624191Y-59326804D01*
X153624189Y-59326799D01*
X153524563Y-59166120D01*
X153521199Y-59160694D01*
X153446147Y-59081329D01*
X153386910Y-59018688D01*
X153386909Y-59018687D01*
X153382521Y-59014047D01*
X153217188Y-58898279D01*
X153031954Y-58818121D01*
X152834385Y-58776847D01*
X152829543Y-58776593D01*
X152829541Y-58776593D01*
X152829518Y-58776592D01*
X152827764Y-58776500D01*
X152679556Y-58776500D01*
X152611973Y-58783365D01*
X152535548Y-58791128D01*
X152535547Y-58791128D01*
X152529199Y-58791773D01*
X152336600Y-58852129D01*
X152160072Y-58949981D01*
X152006825Y-59081329D01*
X151883119Y-59240810D01*
X151794008Y-59421908D01*
X151792399Y-59428086D01*
X151792398Y-59428088D01*
X151771452Y-59508500D01*
X151743131Y-59617225D01*
X151732568Y-59818783D01*
X122312476Y-59818783D01*
X122585854Y-59545405D01*
X122648166Y-59511379D01*
X122674949Y-59508500D01*
X122695487Y-59508500D01*
X122701939Y-59507128D01*
X122701944Y-59507128D01*
X122788888Y-59488647D01*
X122882288Y-59468794D01*
X122973716Y-59428088D01*
X123050722Y-59393803D01*
X123050724Y-59393802D01*
X123056752Y-59391118D01*
X123211253Y-59278866D01*
X123312770Y-59166120D01*
X123334621Y-59141852D01*
X123334622Y-59141851D01*
X123339040Y-59136944D01*
X123434527Y-58971556D01*
X123493542Y-58789928D01*
X123494920Y-58776823D01*
X123512814Y-58606565D01*
X123513504Y-58600000D01*
X123493542Y-58410072D01*
X123434527Y-58228444D01*
X123339040Y-58063056D01*
X123211253Y-57921134D01*
X123056752Y-57808882D01*
X123050724Y-57806198D01*
X123050722Y-57806197D01*
X122923618Y-57749607D01*
X122869522Y-57703627D01*
X122848873Y-57635700D01*
X122868225Y-57567391D01*
X122921436Y-57520390D01*
X122974867Y-57508500D01*
X159369095Y-57508500D01*
X159437216Y-57528502D01*
X159483709Y-57582158D01*
X159495093Y-57633783D01*
X159536335Y-64892402D01*
X159653239Y-85467536D01*
X159633624Y-85535769D01*
X159580234Y-85582566D01*
X159510018Y-85593069D01*
X159445271Y-85563944D01*
X159406549Y-85504437D01*
X159401762Y-85479684D01*
X159395430Y-85410112D01*
X159339590Y-85220381D01*
X159335618Y-85212782D01*
X159250813Y-85050568D01*
X159247960Y-85045110D01*
X159124032Y-84890975D01*
X158972526Y-84763846D01*
X158967128Y-84760879D01*
X158967123Y-84760875D01*
X158804608Y-84671533D01*
X158804609Y-84671533D01*
X158799213Y-84668567D01*
X158793346Y-84666706D01*
X158793344Y-84666705D01*
X158616564Y-84610627D01*
X158616563Y-84610627D01*
X158610694Y-84608765D01*
X158456773Y-84591500D01*
X149157646Y-84591500D01*
X149089525Y-84571498D01*
X149043032Y-84517842D01*
X149032928Y-84447568D01*
X149062422Y-84382988D01*
X149068551Y-84376405D01*
X150766173Y-82678783D01*
X151732568Y-82678783D01*
X151762750Y-82878348D01*
X151832443Y-83067768D01*
X151835809Y-83073196D01*
X151835811Y-83073201D01*
X151885580Y-83153469D01*
X151938801Y-83239306D01*
X151943187Y-83243944D01*
X152053142Y-83360217D01*
X152077479Y-83385953D01*
X152082709Y-83389615D01*
X152082710Y-83389616D01*
X152102783Y-83403671D01*
X152242812Y-83501721D01*
X152428046Y-83581879D01*
X152625615Y-83623153D01*
X152630457Y-83623407D01*
X152630459Y-83623407D01*
X152630482Y-83623408D01*
X152632236Y-83623500D01*
X152780444Y-83623500D01*
X152886146Y-83612763D01*
X152924452Y-83608872D01*
X152924453Y-83608872D01*
X152930801Y-83608227D01*
X153123400Y-83547871D01*
X153299928Y-83450019D01*
X153453175Y-83318671D01*
X153461065Y-83308500D01*
X153540133Y-83206565D01*
X153576881Y-83159190D01*
X153665992Y-82978092D01*
X153676711Y-82936944D01*
X153715259Y-82788956D01*
X153715259Y-82788955D01*
X153716869Y-82782775D01*
X153722319Y-82678783D01*
X154272568Y-82678783D01*
X154302750Y-82878348D01*
X154372443Y-83067768D01*
X154375809Y-83073196D01*
X154375811Y-83073201D01*
X154425580Y-83153469D01*
X154478801Y-83239306D01*
X154483187Y-83243944D01*
X154593142Y-83360217D01*
X154617479Y-83385953D01*
X154622709Y-83389615D01*
X154622710Y-83389616D01*
X154642783Y-83403671D01*
X154782812Y-83501721D01*
X154968046Y-83581879D01*
X155165615Y-83623153D01*
X155170457Y-83623407D01*
X155170459Y-83623407D01*
X155170482Y-83623408D01*
X155172236Y-83623500D01*
X155320444Y-83623500D01*
X155426146Y-83612763D01*
X155464452Y-83608872D01*
X155464453Y-83608872D01*
X155470801Y-83608227D01*
X155663400Y-83547871D01*
X155839928Y-83450019D01*
X155993175Y-83318671D01*
X156001065Y-83308500D01*
X156080133Y-83206565D01*
X156116881Y-83159190D01*
X156205992Y-82978092D01*
X156216711Y-82936944D01*
X156255259Y-82788956D01*
X156255259Y-82788955D01*
X156256869Y-82782775D01*
X156262653Y-82672402D01*
X156267098Y-82587598D01*
X156267098Y-82587594D01*
X156267432Y-82581217D01*
X156237250Y-82381652D01*
X156167557Y-82192232D01*
X156164191Y-82186804D01*
X156164189Y-82186799D01*
X156064563Y-82026120D01*
X156061199Y-82020694D01*
X156037181Y-81995296D01*
X155926910Y-81878688D01*
X155926909Y-81878687D01*
X155922521Y-81874047D01*
X155914991Y-81868774D01*
X155836961Y-81814137D01*
X155757188Y-81758279D01*
X155571954Y-81678121D01*
X155374385Y-81636847D01*
X155369543Y-81636593D01*
X155369541Y-81636593D01*
X155369518Y-81636592D01*
X155367764Y-81636500D01*
X155219556Y-81636500D01*
X155144648Y-81644109D01*
X155075548Y-81651128D01*
X155075547Y-81651128D01*
X155069199Y-81651773D01*
X154876600Y-81712129D01*
X154700072Y-81809981D01*
X154546825Y-81941329D01*
X154423119Y-82100810D01*
X154334008Y-82281908D01*
X154283131Y-82477225D01*
X154282797Y-82483604D01*
X154273093Y-82668774D01*
X154272568Y-82678783D01*
X153722319Y-82678783D01*
X153722653Y-82672402D01*
X153727098Y-82587598D01*
X153727098Y-82587594D01*
X153727432Y-82581217D01*
X153697250Y-82381652D01*
X153627557Y-82192232D01*
X153624191Y-82186804D01*
X153624189Y-82186799D01*
X153524563Y-82026120D01*
X153521199Y-82020694D01*
X153497181Y-81995296D01*
X153386910Y-81878688D01*
X153386909Y-81878687D01*
X153382521Y-81874047D01*
X153374991Y-81868774D01*
X153296961Y-81814137D01*
X153217188Y-81758279D01*
X153031954Y-81678121D01*
X152834385Y-81636847D01*
X152829543Y-81636593D01*
X152829541Y-81636593D01*
X152829518Y-81636592D01*
X152827764Y-81636500D01*
X152679556Y-81636500D01*
X152604648Y-81644109D01*
X152535548Y-81651128D01*
X152535547Y-81651128D01*
X152529199Y-81651773D01*
X152336600Y-81712129D01*
X152160072Y-81809981D01*
X152006825Y-81941329D01*
X151883119Y-82100810D01*
X151794008Y-82281908D01*
X151743131Y-82477225D01*
X151742797Y-82483604D01*
X151733093Y-82668774D01*
X151732568Y-82678783D01*
X150766173Y-82678783D01*
X151255545Y-82189411D01*
X151270579Y-82176570D01*
X151374853Y-82100810D01*
X151411253Y-82074364D01*
X151415675Y-82069453D01*
X151534621Y-81937350D01*
X151534622Y-81937349D01*
X151539040Y-81932442D01*
X151634527Y-81767054D01*
X151693542Y-81585426D01*
X151698959Y-81533891D01*
X151712814Y-81402063D01*
X151713504Y-81395498D01*
X151693542Y-81205570D01*
X151634527Y-81023942D01*
X151625249Y-81007871D01*
X151542341Y-80864272D01*
X151539040Y-80858554D01*
X151527239Y-80845447D01*
X151415675Y-80721543D01*
X151415674Y-80721542D01*
X151411253Y-80716632D01*
X151256752Y-80604380D01*
X151250724Y-80601696D01*
X151250722Y-80601695D01*
X151088319Y-80529389D01*
X151088318Y-80529389D01*
X151082288Y-80526704D01*
X150988888Y-80506851D01*
X150901944Y-80488370D01*
X150901939Y-80488370D01*
X150895487Y-80486998D01*
X150704513Y-80486998D01*
X150698058Y-80488370D01*
X150698049Y-80488371D01*
X150673333Y-80493625D01*
X150602542Y-80488224D01*
X150545909Y-80445408D01*
X150538016Y-80433379D01*
X150487347Y-80345618D01*
X150487346Y-80345617D01*
X150484045Y-80339899D01*
X150482167Y-80337813D01*
X150458500Y-80264974D01*
X150458500Y-80138783D01*
X151732568Y-80138783D01*
X151762750Y-80338348D01*
X151832443Y-80527768D01*
X151835809Y-80533196D01*
X151835811Y-80533201D01*
X151879944Y-80604380D01*
X151938801Y-80699306D01*
X151955185Y-80716632D01*
X152017780Y-80782823D01*
X152077479Y-80845953D01*
X152082709Y-80849615D01*
X152082710Y-80849616D01*
X152095475Y-80858554D01*
X152242812Y-80961721D01*
X152428046Y-81041879D01*
X152625615Y-81083153D01*
X152630457Y-81083407D01*
X152630459Y-81083407D01*
X152630482Y-81083408D01*
X152632236Y-81083500D01*
X152780444Y-81083500D01*
X152855352Y-81075891D01*
X152924452Y-81068872D01*
X152924453Y-81068872D01*
X152930801Y-81068227D01*
X153123400Y-81007871D01*
X153299928Y-80910019D01*
X153453175Y-80778671D01*
X153576881Y-80619190D01*
X153665992Y-80438092D01*
X153676903Y-80396207D01*
X153715259Y-80248956D01*
X153715259Y-80248955D01*
X153716869Y-80242775D01*
X153722319Y-80138783D01*
X154272568Y-80138783D01*
X154302750Y-80338348D01*
X154372443Y-80527768D01*
X154375809Y-80533196D01*
X154375811Y-80533201D01*
X154419944Y-80604380D01*
X154478801Y-80699306D01*
X154495185Y-80716632D01*
X154557780Y-80782823D01*
X154617479Y-80845953D01*
X154622709Y-80849615D01*
X154622710Y-80849616D01*
X154635475Y-80858554D01*
X154782812Y-80961721D01*
X154968046Y-81041879D01*
X155165615Y-81083153D01*
X155170457Y-81083407D01*
X155170459Y-81083407D01*
X155170482Y-81083408D01*
X155172236Y-81083500D01*
X155320444Y-81083500D01*
X155395352Y-81075891D01*
X155464452Y-81068872D01*
X155464453Y-81068872D01*
X155470801Y-81068227D01*
X155663400Y-81007871D01*
X155839928Y-80910019D01*
X155993175Y-80778671D01*
X156116881Y-80619190D01*
X156205992Y-80438092D01*
X156216903Y-80396207D01*
X156255259Y-80248956D01*
X156255259Y-80248955D01*
X156256869Y-80242775D01*
X156262653Y-80132402D01*
X156267098Y-80047598D01*
X156267098Y-80047594D01*
X156267432Y-80041217D01*
X156237250Y-79841652D01*
X156167557Y-79652232D01*
X156164191Y-79646804D01*
X156164189Y-79646799D01*
X156070793Y-79496168D01*
X156061199Y-79480694D01*
X156017928Y-79434936D01*
X155926910Y-79338688D01*
X155926909Y-79338687D01*
X155922521Y-79334047D01*
X155916505Y-79329834D01*
X155861758Y-79291500D01*
X155757188Y-79218279D01*
X155571954Y-79138121D01*
X155374385Y-79096847D01*
X155369543Y-79096593D01*
X155369541Y-79096593D01*
X155369518Y-79096592D01*
X155367764Y-79096500D01*
X155219556Y-79096500D01*
X155144648Y-79104109D01*
X155075548Y-79111128D01*
X155075547Y-79111128D01*
X155069199Y-79111773D01*
X154876600Y-79172129D01*
X154700072Y-79269981D01*
X154546825Y-79401329D01*
X154542918Y-79406366D01*
X154542916Y-79406368D01*
X154516834Y-79439993D01*
X154423119Y-79560810D01*
X154334008Y-79741908D01*
X154332399Y-79748086D01*
X154332398Y-79748088D01*
X154309587Y-79835659D01*
X154283131Y-79937225D01*
X154282797Y-79943604D01*
X154275283Y-80086986D01*
X154272568Y-80138783D01*
X153722319Y-80138783D01*
X153722653Y-80132402D01*
X153727098Y-80047598D01*
X153727098Y-80047594D01*
X153727432Y-80041217D01*
X153697250Y-79841652D01*
X153627557Y-79652232D01*
X153624191Y-79646804D01*
X153624189Y-79646799D01*
X153530793Y-79496168D01*
X153521199Y-79480694D01*
X153477928Y-79434936D01*
X153386910Y-79338688D01*
X153386909Y-79338687D01*
X153382521Y-79334047D01*
X153376505Y-79329834D01*
X153321758Y-79291500D01*
X153217188Y-79218279D01*
X153031954Y-79138121D01*
X152834385Y-79096847D01*
X152829543Y-79096593D01*
X152829541Y-79096593D01*
X152829518Y-79096592D01*
X152827764Y-79096500D01*
X152679556Y-79096500D01*
X152604648Y-79104109D01*
X152535548Y-79111128D01*
X152535547Y-79111128D01*
X152529199Y-79111773D01*
X152336600Y-79172129D01*
X152160072Y-79269981D01*
X152006825Y-79401329D01*
X152002918Y-79406366D01*
X152002916Y-79406368D01*
X151976834Y-79439993D01*
X151883119Y-79560810D01*
X151794008Y-79741908D01*
X151792399Y-79748086D01*
X151792398Y-79748088D01*
X151769587Y-79835659D01*
X151743131Y-79937225D01*
X151742797Y-79943604D01*
X151735283Y-80086986D01*
X151732568Y-80138783D01*
X150458500Y-80138783D01*
X150458500Y-78710033D01*
X150478502Y-78641912D01*
X150510439Y-78608097D01*
X150544479Y-78583365D01*
X150611253Y-78534851D01*
X150671562Y-78467871D01*
X150734621Y-78397837D01*
X150734622Y-78397836D01*
X150739040Y-78392929D01*
X150828101Y-78238671D01*
X150831223Y-78233264D01*
X150831224Y-78233263D01*
X150834527Y-78227541D01*
X150893542Y-78045913D01*
X150897678Y-78006567D01*
X150912814Y-77862550D01*
X150913504Y-77855985D01*
X150907446Y-77798348D01*
X150894232Y-77672620D01*
X150894232Y-77672618D01*
X150893542Y-77666057D01*
X150871683Y-77598783D01*
X151732568Y-77598783D01*
X151762750Y-77798348D01*
X151832443Y-77987768D01*
X151835809Y-77993196D01*
X151835811Y-77993201D01*
X151868494Y-78045913D01*
X151938801Y-78159306D01*
X151943187Y-78163944D01*
X152017780Y-78242823D01*
X152077479Y-78305953D01*
X152242812Y-78421721D01*
X152428046Y-78501879D01*
X152625615Y-78543153D01*
X152630457Y-78543407D01*
X152630459Y-78543407D01*
X152630482Y-78543408D01*
X152632236Y-78543500D01*
X152780444Y-78543500D01*
X152865590Y-78534851D01*
X152924452Y-78528872D01*
X152924453Y-78528872D01*
X152930801Y-78528227D01*
X153123400Y-78467871D01*
X153299928Y-78370019D01*
X153453175Y-78238671D01*
X153461809Y-78227541D01*
X153525554Y-78145360D01*
X153576881Y-78079190D01*
X153665992Y-77898092D01*
X153716869Y-77702775D01*
X153722319Y-77598783D01*
X154272568Y-77598783D01*
X154302750Y-77798348D01*
X154372443Y-77987768D01*
X154375809Y-77993196D01*
X154375811Y-77993201D01*
X154408494Y-78045913D01*
X154478801Y-78159306D01*
X154483187Y-78163944D01*
X154557780Y-78242823D01*
X154617479Y-78305953D01*
X154782812Y-78421721D01*
X154968046Y-78501879D01*
X155165615Y-78543153D01*
X155170457Y-78543407D01*
X155170459Y-78543407D01*
X155170482Y-78543408D01*
X155172236Y-78543500D01*
X155320444Y-78543500D01*
X155405590Y-78534851D01*
X155464452Y-78528872D01*
X155464453Y-78528872D01*
X155470801Y-78528227D01*
X155663400Y-78467871D01*
X155839928Y-78370019D01*
X155993175Y-78238671D01*
X156001809Y-78227541D01*
X156065554Y-78145360D01*
X156116881Y-78079190D01*
X156205992Y-77898092D01*
X156256869Y-77702775D01*
X156267432Y-77501217D01*
X156237250Y-77301652D01*
X156167557Y-77112232D01*
X156164191Y-77106804D01*
X156164189Y-77106799D01*
X156066260Y-76948857D01*
X156061199Y-76940694D01*
X155986147Y-76861329D01*
X155926910Y-76798688D01*
X155926909Y-76798687D01*
X155922521Y-76794047D01*
X155916639Y-76789928D01*
X155836961Y-76734137D01*
X155757188Y-76678279D01*
X155571954Y-76598121D01*
X155374385Y-76556847D01*
X155369543Y-76556593D01*
X155369541Y-76556593D01*
X155369518Y-76556592D01*
X155367764Y-76556500D01*
X155219556Y-76556500D01*
X155144648Y-76564109D01*
X155075548Y-76571128D01*
X155075547Y-76571128D01*
X155069199Y-76571773D01*
X154876600Y-76632129D01*
X154700072Y-76729981D01*
X154546825Y-76861329D01*
X154423119Y-77020810D01*
X154334008Y-77201908D01*
X154332399Y-77208086D01*
X154332398Y-77208088D01*
X154294027Y-77355394D01*
X154283131Y-77397225D01*
X154279681Y-77463056D01*
X154272903Y-77592395D01*
X154272568Y-77598783D01*
X153722319Y-77598783D01*
X153727432Y-77501217D01*
X153697250Y-77301652D01*
X153627557Y-77112232D01*
X153624191Y-77106804D01*
X153624189Y-77106799D01*
X153526260Y-76948857D01*
X153521199Y-76940694D01*
X153446147Y-76861329D01*
X153386910Y-76798688D01*
X153386909Y-76798687D01*
X153382521Y-76794047D01*
X153376639Y-76789928D01*
X153296961Y-76734137D01*
X153217188Y-76678279D01*
X153031954Y-76598121D01*
X152834385Y-76556847D01*
X152829543Y-76556593D01*
X152829541Y-76556593D01*
X152829518Y-76556592D01*
X152827764Y-76556500D01*
X152679556Y-76556500D01*
X152604648Y-76564109D01*
X152535548Y-76571128D01*
X152535547Y-76571128D01*
X152529199Y-76571773D01*
X152336600Y-76632129D01*
X152160072Y-76729981D01*
X152006825Y-76861329D01*
X151883119Y-77020810D01*
X151794008Y-77201908D01*
X151792399Y-77208086D01*
X151792398Y-77208088D01*
X151754027Y-77355394D01*
X151743131Y-77397225D01*
X151739681Y-77463056D01*
X151732903Y-77592395D01*
X151732568Y-77598783D01*
X150871683Y-77598783D01*
X150834527Y-77484429D01*
X150819965Y-77459206D01*
X150760028Y-77355394D01*
X150739040Y-77319041D01*
X150701600Y-77277459D01*
X150615675Y-77182030D01*
X150615674Y-77182029D01*
X150611253Y-77177119D01*
X150512157Y-77105121D01*
X150462094Y-77068748D01*
X150462093Y-77068747D01*
X150456752Y-77064867D01*
X150450724Y-77062183D01*
X150450722Y-77062182D01*
X150288319Y-76989876D01*
X150288318Y-76989876D01*
X150282288Y-76987191D01*
X150179163Y-76965271D01*
X150101944Y-76948857D01*
X150101939Y-76948857D01*
X150095487Y-76947485D01*
X149904513Y-76947485D01*
X149898061Y-76948857D01*
X149898056Y-76948857D01*
X149820837Y-76965271D01*
X149765431Y-76977048D01*
X149694641Y-76971646D01*
X149638009Y-76928829D01*
X149613515Y-76862192D01*
X149613235Y-76853801D01*
X149613235Y-76828016D01*
X149633237Y-76759895D01*
X149686893Y-76713402D01*
X149713035Y-76704770D01*
X149882288Y-76668794D01*
X149892575Y-76664214D01*
X150050722Y-76593803D01*
X150050724Y-76593802D01*
X150056752Y-76591118D01*
X150080751Y-76573682D01*
X150112157Y-76550864D01*
X150211253Y-76478866D01*
X150339040Y-76336944D01*
X150434527Y-76171556D01*
X150493542Y-75989928D01*
X150500065Y-75927871D01*
X150512814Y-75806565D01*
X150513504Y-75800000D01*
X150506129Y-75729834D01*
X150494232Y-75616635D01*
X150494232Y-75616633D01*
X150493542Y-75610072D01*
X150434527Y-75428444D01*
X150339040Y-75263056D01*
X150276685Y-75193803D01*
X150215675Y-75126045D01*
X150215674Y-75126044D01*
X150211253Y-75121134D01*
X150125435Y-75058783D01*
X151732568Y-75058783D01*
X151762750Y-75258348D01*
X151832443Y-75447768D01*
X151835809Y-75453196D01*
X151835811Y-75453201D01*
X151848456Y-75473595D01*
X151938801Y-75619306D01*
X151943187Y-75623944D01*
X152017780Y-75702823D01*
X152077479Y-75765953D01*
X152242812Y-75881721D01*
X152428046Y-75961879D01*
X152625615Y-76003153D01*
X152630457Y-76003407D01*
X152630459Y-76003407D01*
X152630482Y-76003408D01*
X152632236Y-76003500D01*
X152780444Y-76003500D01*
X152855352Y-75995891D01*
X152924452Y-75988872D01*
X152924453Y-75988872D01*
X152930801Y-75988227D01*
X153123400Y-75927871D01*
X153299928Y-75830019D01*
X153453175Y-75698671D01*
X153457674Y-75692872D01*
X153572972Y-75544229D01*
X153576881Y-75539190D01*
X153665992Y-75358092D01*
X153690748Y-75263056D01*
X153715259Y-75168956D01*
X153715259Y-75168955D01*
X153716869Y-75162775D01*
X153722319Y-75058783D01*
X154272568Y-75058783D01*
X154302750Y-75258348D01*
X154372443Y-75447768D01*
X154375809Y-75453196D01*
X154375811Y-75453201D01*
X154388456Y-75473595D01*
X154478801Y-75619306D01*
X154483187Y-75623944D01*
X154557780Y-75702823D01*
X154617479Y-75765953D01*
X154782812Y-75881721D01*
X154968046Y-75961879D01*
X155165615Y-76003153D01*
X155170457Y-76003407D01*
X155170459Y-76003407D01*
X155170482Y-76003408D01*
X155172236Y-76003500D01*
X155320444Y-76003500D01*
X155395352Y-75995891D01*
X155464452Y-75988872D01*
X155464453Y-75988872D01*
X155470801Y-75988227D01*
X155663400Y-75927871D01*
X155839928Y-75830019D01*
X155993175Y-75698671D01*
X155997674Y-75692872D01*
X156112972Y-75544229D01*
X156116881Y-75539190D01*
X156205992Y-75358092D01*
X156230748Y-75263056D01*
X156255259Y-75168956D01*
X156255259Y-75168955D01*
X156256869Y-75162775D01*
X156267432Y-74961217D01*
X156237250Y-74761652D01*
X156167557Y-74572232D01*
X156164191Y-74566804D01*
X156164189Y-74566799D01*
X156081556Y-74433526D01*
X156061199Y-74400694D01*
X156000228Y-74336219D01*
X155926910Y-74258688D01*
X155926909Y-74258687D01*
X155922521Y-74254047D01*
X155757188Y-74138279D01*
X155571954Y-74058121D01*
X155374385Y-74016847D01*
X155369543Y-74016593D01*
X155369541Y-74016593D01*
X155369518Y-74016592D01*
X155367764Y-74016500D01*
X155219556Y-74016500D01*
X155158313Y-74022721D01*
X155075548Y-74031128D01*
X155075547Y-74031128D01*
X155069199Y-74031773D01*
X154876600Y-74092129D01*
X154700072Y-74189981D01*
X154546825Y-74321329D01*
X154423119Y-74480810D01*
X154334008Y-74661908D01*
X154332399Y-74668086D01*
X154332398Y-74668088D01*
X154306381Y-74767967D01*
X154283131Y-74857225D01*
X154272568Y-75058783D01*
X153722319Y-75058783D01*
X153727432Y-74961217D01*
X153697250Y-74761652D01*
X153627557Y-74572232D01*
X153624191Y-74566804D01*
X153624189Y-74566799D01*
X153541556Y-74433526D01*
X153521199Y-74400694D01*
X153460228Y-74336219D01*
X153386910Y-74258688D01*
X153386909Y-74258687D01*
X153382521Y-74254047D01*
X153217188Y-74138279D01*
X153031954Y-74058121D01*
X152834385Y-74016847D01*
X152829543Y-74016593D01*
X152829541Y-74016593D01*
X152829518Y-74016592D01*
X152827764Y-74016500D01*
X152679556Y-74016500D01*
X152618313Y-74022721D01*
X152535548Y-74031128D01*
X152535547Y-74031128D01*
X152529199Y-74031773D01*
X152336600Y-74092129D01*
X152160072Y-74189981D01*
X152006825Y-74321329D01*
X151883119Y-74480810D01*
X151794008Y-74661908D01*
X151792399Y-74668086D01*
X151792398Y-74668088D01*
X151766381Y-74767967D01*
X151743131Y-74857225D01*
X151732568Y-75058783D01*
X150125435Y-75058783D01*
X150056752Y-75008882D01*
X150050724Y-75006198D01*
X150050722Y-75006197D01*
X149888319Y-74933891D01*
X149888318Y-74933891D01*
X149882288Y-74931206D01*
X149788888Y-74911353D01*
X149701944Y-74892872D01*
X149701939Y-74892872D01*
X149695487Y-74891500D01*
X149504513Y-74891500D01*
X149498061Y-74892872D01*
X149498056Y-74892872D01*
X149411112Y-74911353D01*
X149317712Y-74931206D01*
X149311682Y-74933891D01*
X149311681Y-74933891D01*
X149149278Y-75006197D01*
X149149276Y-75006198D01*
X149143248Y-75008882D01*
X148988747Y-75121134D01*
X148984326Y-75126044D01*
X148984325Y-75126045D01*
X148923316Y-75193803D01*
X148860960Y-75263056D01*
X148765473Y-75428444D01*
X148706458Y-75610072D01*
X148693871Y-75729834D01*
X148693245Y-75735786D01*
X148666232Y-75801442D01*
X148657030Y-75811710D01*
X148547130Y-75921610D01*
X148538350Y-75929600D01*
X148538348Y-75929602D01*
X148531655Y-75933849D01*
X148526229Y-75939627D01*
X148526228Y-75939628D01*
X148483131Y-75985522D01*
X148480376Y-75988364D01*
X148459808Y-76008932D01*
X148457091Y-76012435D01*
X148449383Y-76021460D01*
X148417763Y-76055132D01*
X148413942Y-76062083D01*
X148413941Y-76062084D01*
X148407432Y-76073923D01*
X148396578Y-76090447D01*
X148388753Y-76100536D01*
X148383431Y-76107397D01*
X148380284Y-76114669D01*
X148380283Y-76114671D01*
X148365081Y-76149800D01*
X148359859Y-76160460D01*
X148337611Y-76200928D01*
X148332276Y-76221706D01*
X148325877Y-76240396D01*
X148317355Y-76260089D01*
X148316115Y-76267920D01*
X148310129Y-76305713D01*
X148307722Y-76317336D01*
X148296235Y-76362077D01*
X148296235Y-76383524D01*
X148294684Y-76403234D01*
X148291329Y-76424417D01*
X148292075Y-76432308D01*
X148295676Y-76470403D01*
X148296235Y-76482261D01*
X148296235Y-79985050D01*
X148276233Y-80053171D01*
X148244296Y-80086986D01*
X148164308Y-80145101D01*
X148134743Y-80166581D01*
X148130322Y-80171491D01*
X148130321Y-80171492D01*
X148046150Y-80264974D01*
X148006956Y-80308503D01*
X147911469Y-80473891D01*
X147852454Y-80655519D01*
X147832492Y-80845447D01*
X147833182Y-80852012D01*
X147849238Y-81004773D01*
X147852454Y-81035375D01*
X147911469Y-81217003D01*
X148006956Y-81382391D01*
X148011374Y-81387298D01*
X148011375Y-81387299D01*
X148024669Y-81402063D01*
X148134743Y-81524313D01*
X148289244Y-81636565D01*
X148295272Y-81639249D01*
X148295274Y-81639250D01*
X148454672Y-81710218D01*
X148463708Y-81714241D01*
X148557108Y-81734094D01*
X148644052Y-81752575D01*
X148644057Y-81752575D01*
X148650509Y-81753947D01*
X148841483Y-81753947D01*
X148847935Y-81752575D01*
X148847940Y-81752575D01*
X148870661Y-81747745D01*
X148941452Y-81753147D01*
X148998084Y-81795964D01*
X149022578Y-81862601D01*
X149007157Y-81931903D01*
X148985953Y-81960087D01*
X147466445Y-83479595D01*
X147404133Y-83513621D01*
X147377350Y-83516500D01*
X141657604Y-83516500D01*
X141589483Y-83496498D01*
X141542990Y-83442842D01*
X141532294Y-83403671D01*
X141515316Y-83242135D01*
X141515316Y-83242133D01*
X141514626Y-83235572D01*
X141455611Y-83053944D01*
X141450535Y-83045151D01*
X141408250Y-82971912D01*
X141360124Y-82888556D01*
X141264879Y-82782775D01*
X141236759Y-82751545D01*
X141236758Y-82751544D01*
X141232337Y-82746634D01*
X141105854Y-82654738D01*
X141083178Y-82638263D01*
X141083175Y-82638261D01*
X141077836Y-82634382D01*
X141071808Y-82631698D01*
X141071806Y-82631697D01*
X140909403Y-82559391D01*
X140909402Y-82559391D01*
X140903372Y-82556706D01*
X140809971Y-82536853D01*
X140723028Y-82518372D01*
X140723023Y-82518372D01*
X140716571Y-82517000D01*
X140525597Y-82517000D01*
X140519145Y-82518372D01*
X140519140Y-82518372D01*
X140432197Y-82536853D01*
X140338796Y-82556706D01*
X140332766Y-82559391D01*
X140332765Y-82559391D01*
X140170362Y-82631697D01*
X140170360Y-82631698D01*
X140164332Y-82634382D01*
X140136312Y-82654739D01*
X140069448Y-82678597D01*
X140000297Y-82662518D01*
X139973158Y-82641898D01*
X136454855Y-79123595D01*
X136420829Y-79061283D01*
X136425894Y-78990468D01*
X136468441Y-78933632D01*
X136534961Y-78908821D01*
X136543950Y-78908500D01*
X136695487Y-78908500D01*
X136701939Y-78907128D01*
X136701944Y-78907128D01*
X136788888Y-78888647D01*
X136882288Y-78868794D01*
X136888319Y-78866109D01*
X137050722Y-78793803D01*
X137050724Y-78793802D01*
X137056752Y-78791118D01*
X137206163Y-78682564D01*
X137273031Y-78658706D01*
X137280224Y-78658500D01*
X141875050Y-78658500D01*
X141943171Y-78678502D01*
X141964145Y-78695405D01*
X143457030Y-80188290D01*
X143491056Y-80250602D01*
X143493244Y-80264211D01*
X143506458Y-80389928D01*
X143508498Y-80396205D01*
X143508498Y-80396207D01*
X143523968Y-80443819D01*
X143565473Y-80571556D01*
X143568776Y-80577278D01*
X143568777Y-80577279D01*
X143592975Y-80619190D01*
X143660960Y-80736944D01*
X143665378Y-80741851D01*
X143665379Y-80741852D01*
X143784325Y-80873955D01*
X143788747Y-80878866D01*
X143943248Y-80991118D01*
X143949276Y-80993802D01*
X143949278Y-80993803D01*
X144060193Y-81043185D01*
X144117712Y-81068794D01*
X144211113Y-81088647D01*
X144298056Y-81107128D01*
X144298061Y-81107128D01*
X144304513Y-81108500D01*
X144495487Y-81108500D01*
X144501939Y-81107128D01*
X144501944Y-81107128D01*
X144588887Y-81088647D01*
X144682288Y-81068794D01*
X144739807Y-81043185D01*
X144850722Y-80993803D01*
X144850724Y-80993802D01*
X144856752Y-80991118D01*
X145011253Y-80878866D01*
X145015675Y-80873955D01*
X145134621Y-80741852D01*
X145134622Y-80741851D01*
X145139040Y-80736944D01*
X145207025Y-80619190D01*
X145231223Y-80577279D01*
X145231224Y-80577278D01*
X145234527Y-80571556D01*
X145293542Y-80389928D01*
X145313504Y-80200000D01*
X145298072Y-80053171D01*
X145294232Y-80016635D01*
X145294232Y-80016633D01*
X145293542Y-80010072D01*
X145234527Y-79828444D01*
X145139040Y-79663056D01*
X145131370Y-79654537D01*
X145015675Y-79526045D01*
X145015674Y-79526044D01*
X145011253Y-79521134D01*
X144912157Y-79449136D01*
X144862094Y-79412763D01*
X144862093Y-79412762D01*
X144856752Y-79408882D01*
X144850724Y-79406198D01*
X144850722Y-79406197D01*
X144688319Y-79333891D01*
X144688318Y-79333891D01*
X144682288Y-79331206D01*
X144588887Y-79311353D01*
X144501944Y-79292872D01*
X144501939Y-79292872D01*
X144495487Y-79291500D01*
X144474950Y-79291500D01*
X144406829Y-79271498D01*
X144385855Y-79254595D01*
X142723655Y-77592395D01*
X142715665Y-77583615D01*
X142715663Y-77583613D01*
X142711416Y-77576920D01*
X142659742Y-77528395D01*
X142656901Y-77525641D01*
X142636333Y-77505073D01*
X142632826Y-77502353D01*
X142623804Y-77494647D01*
X142612923Y-77484429D01*
X142590133Y-77463028D01*
X142583181Y-77459206D01*
X142571342Y-77452697D01*
X142554818Y-77441843D01*
X142544132Y-77433555D01*
X142537868Y-77428696D01*
X142530596Y-77425549D01*
X142530594Y-77425548D01*
X142495465Y-77410346D01*
X142484805Y-77405124D01*
X142451284Y-77386695D01*
X142451282Y-77386694D01*
X142444337Y-77382876D01*
X142423559Y-77377541D01*
X142404869Y-77371142D01*
X142385176Y-77362620D01*
X142339552Y-77355394D01*
X142327929Y-77352987D01*
X142299928Y-77345798D01*
X142283188Y-77341500D01*
X142261741Y-77341500D01*
X142242031Y-77339949D01*
X142228677Y-77337834D01*
X142220848Y-77336594D01*
X142174859Y-77340941D01*
X142163004Y-77341500D01*
X139036857Y-77341500D01*
X138968736Y-77321498D01*
X138922243Y-77267842D01*
X138912139Y-77197568D01*
X138934862Y-77141584D01*
X138939040Y-77136944D01*
X139006090Y-77020810D01*
X139031223Y-76977279D01*
X139031224Y-76977278D01*
X139034527Y-76971556D01*
X139093542Y-76789928D01*
X139102493Y-76704769D01*
X139112814Y-76606565D01*
X139113504Y-76600000D01*
X139109073Y-76557839D01*
X139094232Y-76416635D01*
X139094232Y-76416633D01*
X139093542Y-76410072D01*
X139034527Y-76228444D01*
X138939040Y-76063056D01*
X138885337Y-76003412D01*
X138815675Y-75926045D01*
X138815674Y-75926044D01*
X138811253Y-75921134D01*
X138690104Y-75833114D01*
X138662094Y-75812763D01*
X138662093Y-75812762D01*
X138656752Y-75808882D01*
X138650724Y-75806198D01*
X138650722Y-75806197D01*
X138488319Y-75733891D01*
X138488318Y-75733891D01*
X138482288Y-75731206D01*
X138388888Y-75711353D01*
X138301944Y-75692872D01*
X138301939Y-75692872D01*
X138295487Y-75691500D01*
X138274950Y-75691500D01*
X138206829Y-75671498D01*
X138185855Y-75654595D01*
X137057442Y-74526182D01*
X137023416Y-74463870D01*
X137028481Y-74393055D01*
X137071028Y-74336219D01*
X137137548Y-74311408D01*
X137146537Y-74311087D01*
X138327637Y-74311087D01*
X138395758Y-74331089D01*
X138416732Y-74347992D01*
X138457030Y-74388290D01*
X138491056Y-74450602D01*
X138493244Y-74464211D01*
X138506458Y-74589928D01*
X138565473Y-74771556D01*
X138660960Y-74936944D01*
X138665378Y-74941851D01*
X138665379Y-74941852D01*
X138725733Y-75008882D01*
X138788747Y-75078866D01*
X138943248Y-75191118D01*
X138949276Y-75193802D01*
X138949278Y-75193803D01*
X139094591Y-75258500D01*
X139117712Y-75268794D01*
X139211112Y-75288647D01*
X139298056Y-75307128D01*
X139298061Y-75307128D01*
X139304513Y-75308500D01*
X139495487Y-75308500D01*
X139501939Y-75307128D01*
X139501944Y-75307128D01*
X139588888Y-75288647D01*
X139682288Y-75268794D01*
X139705409Y-75258500D01*
X139850722Y-75193803D01*
X139850724Y-75193802D01*
X139856752Y-75191118D01*
X140011253Y-75078866D01*
X140074267Y-75008882D01*
X140134621Y-74941852D01*
X140134622Y-74941851D01*
X140139040Y-74936944D01*
X140234527Y-74771556D01*
X140293542Y-74589928D01*
X140308864Y-74444152D01*
X140312814Y-74406565D01*
X140313504Y-74400000D01*
X140305765Y-74326368D01*
X140294232Y-74216635D01*
X140294232Y-74216633D01*
X140293542Y-74210072D01*
X140234527Y-74028444D01*
X140227832Y-74016847D01*
X140165488Y-73908865D01*
X140139040Y-73863056D01*
X140101953Y-73821866D01*
X140015675Y-73726045D01*
X140015674Y-73726044D01*
X140011253Y-73721134D01*
X139856752Y-73608882D01*
X139850724Y-73606198D01*
X139850722Y-73606197D01*
X139688319Y-73533891D01*
X139688318Y-73533891D01*
X139682288Y-73531206D01*
X139588887Y-73511353D01*
X139501944Y-73492872D01*
X139501939Y-73492872D01*
X139495487Y-73491500D01*
X139474950Y-73491500D01*
X139406829Y-73471498D01*
X139385855Y-73454595D01*
X139176242Y-73244982D01*
X139168252Y-73236202D01*
X139168250Y-73236200D01*
X139164003Y-73229507D01*
X139148470Y-73214920D01*
X139112330Y-73180983D01*
X139109488Y-73178228D01*
X139088920Y-73157660D01*
X139085413Y-73154940D01*
X139076391Y-73147234D01*
X139048500Y-73121043D01*
X139042720Y-73115615D01*
X139035768Y-73111793D01*
X139023929Y-73105284D01*
X139007405Y-73094430D01*
X138996719Y-73086142D01*
X138990455Y-73081283D01*
X138983183Y-73078136D01*
X138983181Y-73078135D01*
X138948052Y-73062933D01*
X138937392Y-73057711D01*
X138903871Y-73039282D01*
X138903869Y-73039281D01*
X138896924Y-73035463D01*
X138876146Y-73030128D01*
X138857456Y-73023729D01*
X138837763Y-73015207D01*
X138792139Y-73007981D01*
X138780516Y-73005574D01*
X138744129Y-72996232D01*
X138735775Y-72994087D01*
X138714328Y-72994087D01*
X138694618Y-72992536D01*
X138681264Y-72990421D01*
X138673435Y-72989181D01*
X138627446Y-72993528D01*
X138615591Y-72994087D01*
X132561769Y-72994087D01*
X132493648Y-72974085D01*
X132487708Y-72970023D01*
X132487454Y-72969838D01*
X132393769Y-72901772D01*
X132343639Y-72865350D01*
X132343638Y-72865349D01*
X132338297Y-72861469D01*
X132332269Y-72858785D01*
X132332267Y-72858784D01*
X132169864Y-72786478D01*
X132169863Y-72786478D01*
X132163833Y-72783793D01*
X132070432Y-72763940D01*
X131983489Y-72745459D01*
X131983484Y-72745459D01*
X131977032Y-72744087D01*
X131786058Y-72744087D01*
X131779606Y-72745459D01*
X131779601Y-72745459D01*
X131692658Y-72763940D01*
X131599257Y-72783793D01*
X131593227Y-72786478D01*
X131593226Y-72786478D01*
X131430823Y-72858784D01*
X131430821Y-72858785D01*
X131424793Y-72861469D01*
X131419452Y-72865349D01*
X131419451Y-72865350D01*
X131369388Y-72901723D01*
X131270292Y-72973721D01*
X131265871Y-72978631D01*
X131265870Y-72978632D01*
X131156134Y-73100507D01*
X131142505Y-73115643D01*
X131105555Y-73179642D01*
X131076703Y-73229616D01*
X131047018Y-73281031D01*
X131026475Y-73344256D01*
X131003944Y-73413598D01*
X130963870Y-73472203D01*
X130898473Y-73499840D01*
X130828517Y-73487733D01*
X130795016Y-73463756D01*
X130096850Y-72765590D01*
X130062824Y-72703278D01*
X130062721Y-72658732D01*
X130061636Y-72658618D01*
X130076333Y-72518783D01*
X151732568Y-72518783D01*
X151762750Y-72718348D01*
X151832443Y-72907768D01*
X151835809Y-72913196D01*
X151835811Y-72913201D01*
X151876883Y-72979443D01*
X151938801Y-73079306D01*
X151943187Y-73083944D01*
X152067046Y-73214920D01*
X152077479Y-73225953D01*
X152082709Y-73229615D01*
X152082710Y-73229616D01*
X152095202Y-73238363D01*
X152242812Y-73341721D01*
X152428046Y-73421879D01*
X152625615Y-73463153D01*
X152630457Y-73463407D01*
X152630459Y-73463407D01*
X152630482Y-73463408D01*
X152632236Y-73463500D01*
X152780444Y-73463500D01*
X152855352Y-73455891D01*
X152924452Y-73448872D01*
X152924453Y-73448872D01*
X152930801Y-73448227D01*
X153123400Y-73387871D01*
X153299928Y-73290019D01*
X153453175Y-73158671D01*
X153462047Y-73147234D01*
X153529264Y-73060577D01*
X153576881Y-72999190D01*
X153665992Y-72818092D01*
X153668804Y-72807299D01*
X153715259Y-72628956D01*
X153715259Y-72628955D01*
X153716869Y-72622775D01*
X153721668Y-72531206D01*
X153722319Y-72518783D01*
X154272568Y-72518783D01*
X154302750Y-72718348D01*
X154372443Y-72907768D01*
X154375809Y-72913196D01*
X154375811Y-72913201D01*
X154416883Y-72979443D01*
X154478801Y-73079306D01*
X154483187Y-73083944D01*
X154607046Y-73214920D01*
X154617479Y-73225953D01*
X154622709Y-73229615D01*
X154622710Y-73229616D01*
X154635202Y-73238363D01*
X154782812Y-73341721D01*
X154968046Y-73421879D01*
X155165615Y-73463153D01*
X155170457Y-73463407D01*
X155170459Y-73463407D01*
X155170482Y-73463408D01*
X155172236Y-73463500D01*
X155320444Y-73463500D01*
X155395352Y-73455891D01*
X155464452Y-73448872D01*
X155464453Y-73448872D01*
X155470801Y-73448227D01*
X155663400Y-73387871D01*
X155839928Y-73290019D01*
X155993175Y-73158671D01*
X156002047Y-73147234D01*
X156069264Y-73060577D01*
X156116881Y-72999190D01*
X156205992Y-72818092D01*
X156208804Y-72807299D01*
X156255259Y-72628956D01*
X156255259Y-72628955D01*
X156256869Y-72622775D01*
X156261668Y-72531206D01*
X156267098Y-72427598D01*
X156267098Y-72427594D01*
X156267432Y-72421217D01*
X156237250Y-72221652D01*
X156167557Y-72032232D01*
X156164191Y-72026804D01*
X156164189Y-72026799D01*
X156064563Y-71866120D01*
X156061199Y-71860694D01*
X155986147Y-71781329D01*
X155926910Y-71718688D01*
X155926909Y-71718687D01*
X155922521Y-71714047D01*
X155757188Y-71598279D01*
X155571954Y-71518121D01*
X155374385Y-71476847D01*
X155369543Y-71476593D01*
X155369541Y-71476593D01*
X155369518Y-71476592D01*
X155367764Y-71476500D01*
X155219556Y-71476500D01*
X155144648Y-71484109D01*
X155075548Y-71491128D01*
X155075547Y-71491128D01*
X155069199Y-71491773D01*
X154876600Y-71552129D01*
X154700072Y-71649981D01*
X154546825Y-71781329D01*
X154423119Y-71940810D01*
X154334008Y-72121908D01*
X154332399Y-72128086D01*
X154332398Y-72128088D01*
X154296130Y-72267320D01*
X154283131Y-72317225D01*
X154281006Y-72357774D01*
X154273998Y-72491500D01*
X154272568Y-72518783D01*
X153722319Y-72518783D01*
X153727098Y-72427598D01*
X153727098Y-72427594D01*
X153727432Y-72421217D01*
X153697250Y-72221652D01*
X153627557Y-72032232D01*
X153624191Y-72026804D01*
X153624189Y-72026799D01*
X153524563Y-71866120D01*
X153521199Y-71860694D01*
X153446147Y-71781329D01*
X153386910Y-71718688D01*
X153386909Y-71718687D01*
X153382521Y-71714047D01*
X153217188Y-71598279D01*
X153031954Y-71518121D01*
X152834385Y-71476847D01*
X152829543Y-71476593D01*
X152829541Y-71476593D01*
X152829518Y-71476592D01*
X152827764Y-71476500D01*
X152679556Y-71476500D01*
X152604648Y-71484109D01*
X152535548Y-71491128D01*
X152535547Y-71491128D01*
X152529199Y-71491773D01*
X152336600Y-71552129D01*
X152160072Y-71649981D01*
X152006825Y-71781329D01*
X151883119Y-71940810D01*
X151794008Y-72121908D01*
X151792399Y-72128086D01*
X151792398Y-72128088D01*
X151756130Y-72267320D01*
X151743131Y-72317225D01*
X151741006Y-72357774D01*
X151733998Y-72491500D01*
X151732568Y-72518783D01*
X130076333Y-72518783D01*
X130080908Y-72475255D01*
X130081598Y-72468690D01*
X130061640Y-72278803D01*
X130074412Y-72208966D01*
X130089867Y-72185317D01*
X130104660Y-72167436D01*
X130112648Y-72158658D01*
X132376637Y-69894669D01*
X140212001Y-69894669D01*
X140212371Y-69901490D01*
X140217895Y-69952352D01*
X140221521Y-69967604D01*
X140266676Y-70088054D01*
X140275214Y-70103649D01*
X140351715Y-70205724D01*
X140364276Y-70218285D01*
X140466351Y-70294786D01*
X140481946Y-70303324D01*
X140602394Y-70348478D01*
X140617649Y-70352105D01*
X140668514Y-70357631D01*
X140675328Y-70358000D01*
X141297885Y-70358000D01*
X141313124Y-70353525D01*
X141314329Y-70352135D01*
X141316000Y-70344452D01*
X141316000Y-70339884D01*
X141824000Y-70339884D01*
X141828475Y-70355123D01*
X141829865Y-70356328D01*
X141837548Y-70357999D01*
X142464669Y-70357999D01*
X142471490Y-70357629D01*
X142522352Y-70352105D01*
X142537604Y-70348479D01*
X142658054Y-70303324D01*
X142673649Y-70294786D01*
X142775724Y-70218285D01*
X142788285Y-70205724D01*
X142864786Y-70103649D01*
X142873324Y-70088054D01*
X142918478Y-69967606D01*
X142922105Y-69952351D01*
X142927631Y-69901486D01*
X142928000Y-69894672D01*
X142928000Y-69272115D01*
X142923525Y-69256876D01*
X142922135Y-69255671D01*
X142914452Y-69254000D01*
X141842115Y-69254000D01*
X141826876Y-69258475D01*
X141825671Y-69259865D01*
X141824000Y-69267548D01*
X141824000Y-70339884D01*
X141316000Y-70339884D01*
X141316000Y-69272115D01*
X141311525Y-69256876D01*
X141310135Y-69255671D01*
X141302452Y-69254000D01*
X140230116Y-69254000D01*
X140214877Y-69258475D01*
X140213672Y-69259865D01*
X140212001Y-69267548D01*
X140212001Y-69894669D01*
X132376637Y-69894669D01*
X133775901Y-68495405D01*
X133838213Y-68461379D01*
X133864996Y-68458500D01*
X140086000Y-68458500D01*
X140154121Y-68478502D01*
X140200614Y-68532158D01*
X140212000Y-68584500D01*
X140212000Y-68727885D01*
X140216475Y-68743124D01*
X140217865Y-68744329D01*
X140225548Y-68746000D01*
X142909884Y-68746000D01*
X142925123Y-68741525D01*
X142926328Y-68740135D01*
X142927999Y-68732452D01*
X142927999Y-68584500D01*
X142948001Y-68516379D01*
X143001657Y-68469886D01*
X143053999Y-68458500D01*
X144150172Y-68458500D01*
X144218293Y-68478502D01*
X144264786Y-68532158D01*
X144274890Y-68602432D01*
X144271589Y-68618172D01*
X144230989Y-68764570D01*
X144207251Y-68986695D01*
X144207548Y-68991848D01*
X144207548Y-68991851D01*
X144216155Y-69141120D01*
X144220110Y-69209715D01*
X144221247Y-69214761D01*
X144221248Y-69214767D01*
X144241119Y-69302939D01*
X144269222Y-69427639D01*
X144307461Y-69521811D01*
X144340751Y-69603794D01*
X144353266Y-69634616D01*
X144404019Y-69717438D01*
X144444566Y-69783604D01*
X144469987Y-69825088D01*
X144616250Y-69993938D01*
X144788126Y-70136632D01*
X144981000Y-70249338D01*
X144985825Y-70251180D01*
X144985826Y-70251181D01*
X145034278Y-70269683D01*
X145189692Y-70329030D01*
X145194760Y-70330061D01*
X145194763Y-70330062D01*
X145265493Y-70344452D01*
X145408597Y-70373567D01*
X145413772Y-70373757D01*
X145413774Y-70373757D01*
X145626673Y-70381564D01*
X145626677Y-70381564D01*
X145631837Y-70381753D01*
X145636957Y-70381097D01*
X145636959Y-70381097D01*
X145848288Y-70354025D01*
X145848289Y-70354025D01*
X145853416Y-70353368D01*
X145858366Y-70351883D01*
X146062429Y-70290661D01*
X146062434Y-70290659D01*
X146067384Y-70289174D01*
X146267994Y-70190896D01*
X146449860Y-70061173D01*
X146532538Y-69978783D01*
X151732568Y-69978783D01*
X151762750Y-70178348D01*
X151832443Y-70367768D01*
X151835809Y-70373196D01*
X151835811Y-70373201D01*
X151885580Y-70453469D01*
X151938801Y-70539306D01*
X151943187Y-70543944D01*
X152017780Y-70622823D01*
X152077479Y-70685953D01*
X152242812Y-70801721D01*
X152428046Y-70881879D01*
X152625615Y-70923153D01*
X152630457Y-70923407D01*
X152630459Y-70923407D01*
X152630482Y-70923408D01*
X152632236Y-70923500D01*
X152780444Y-70923500D01*
X152855352Y-70915891D01*
X152924452Y-70908872D01*
X152924453Y-70908872D01*
X152930801Y-70908227D01*
X153123400Y-70847871D01*
X153299928Y-70750019D01*
X153453175Y-70618671D01*
X153461193Y-70608335D01*
X153558607Y-70482749D01*
X153576881Y-70459190D01*
X153665992Y-70278092D01*
X153668183Y-70269683D01*
X153715259Y-70088956D01*
X153715259Y-70088955D01*
X153716869Y-70082775D01*
X153722319Y-69978783D01*
X154272568Y-69978783D01*
X154302750Y-70178348D01*
X154372443Y-70367768D01*
X154375809Y-70373196D01*
X154375811Y-70373201D01*
X154425580Y-70453469D01*
X154478801Y-70539306D01*
X154483187Y-70543944D01*
X154557780Y-70622823D01*
X154617479Y-70685953D01*
X154782812Y-70801721D01*
X154968046Y-70881879D01*
X155165615Y-70923153D01*
X155170457Y-70923407D01*
X155170459Y-70923407D01*
X155170482Y-70923408D01*
X155172236Y-70923500D01*
X155320444Y-70923500D01*
X155395352Y-70915891D01*
X155464452Y-70908872D01*
X155464453Y-70908872D01*
X155470801Y-70908227D01*
X155663400Y-70847871D01*
X155839928Y-70750019D01*
X155993175Y-70618671D01*
X156001193Y-70608335D01*
X156098607Y-70482749D01*
X156116881Y-70459190D01*
X156205992Y-70278092D01*
X156208183Y-70269683D01*
X156255259Y-70088956D01*
X156255259Y-70088955D01*
X156256869Y-70082775D01*
X156264361Y-69939815D01*
X156267098Y-69887598D01*
X156267098Y-69887594D01*
X156267432Y-69881217D01*
X156237250Y-69681652D01*
X156167557Y-69492232D01*
X156164191Y-69486804D01*
X156164189Y-69486799D01*
X156094696Y-69374720D01*
X156061199Y-69320694D01*
X156000849Y-69256876D01*
X155926910Y-69178688D01*
X155926909Y-69178687D01*
X155922521Y-69174047D01*
X155757188Y-69058279D01*
X155571954Y-68978121D01*
X155374385Y-68936847D01*
X155369543Y-68936593D01*
X155369541Y-68936593D01*
X155369518Y-68936592D01*
X155367764Y-68936500D01*
X155219556Y-68936500D01*
X155147749Y-68943794D01*
X155075548Y-68951128D01*
X155075547Y-68951128D01*
X155069199Y-68951773D01*
X154876600Y-69012129D01*
X154700072Y-69109981D01*
X154695223Y-69114137D01*
X154682482Y-69125057D01*
X154546825Y-69241329D01*
X154542918Y-69246366D01*
X154542916Y-69246368D01*
X154522945Y-69272115D01*
X154423119Y-69400810D01*
X154334008Y-69581908D01*
X154332399Y-69588086D01*
X154332398Y-69588088D01*
X154297496Y-69722077D01*
X154283131Y-69777225D01*
X154280853Y-69820689D01*
X154273154Y-69967606D01*
X154272568Y-69978783D01*
X153722319Y-69978783D01*
X153724361Y-69939815D01*
X153727098Y-69887598D01*
X153727098Y-69887594D01*
X153727432Y-69881217D01*
X153697250Y-69681652D01*
X153627557Y-69492232D01*
X153624191Y-69486804D01*
X153624189Y-69486799D01*
X153554696Y-69374720D01*
X153521199Y-69320694D01*
X153460849Y-69256876D01*
X153386910Y-69178688D01*
X153386909Y-69178687D01*
X153382521Y-69174047D01*
X153217188Y-69058279D01*
X153031954Y-68978121D01*
X152834385Y-68936847D01*
X152829543Y-68936593D01*
X152829541Y-68936593D01*
X152829518Y-68936592D01*
X152827764Y-68936500D01*
X152679556Y-68936500D01*
X152607749Y-68943794D01*
X152535548Y-68951128D01*
X152535547Y-68951128D01*
X152529199Y-68951773D01*
X152336600Y-69012129D01*
X152160072Y-69109981D01*
X152155223Y-69114137D01*
X152142482Y-69125057D01*
X152006825Y-69241329D01*
X152002918Y-69246366D01*
X152002916Y-69246368D01*
X151982945Y-69272115D01*
X151883119Y-69400810D01*
X151794008Y-69581908D01*
X151792399Y-69588086D01*
X151792398Y-69588088D01*
X151757496Y-69722077D01*
X151743131Y-69777225D01*
X151740853Y-69820689D01*
X151733154Y-69967606D01*
X151732568Y-69978783D01*
X146532538Y-69978783D01*
X146608096Y-69903489D01*
X146667594Y-69820689D01*
X146735435Y-69726277D01*
X146738453Y-69722077D01*
X146790566Y-69616635D01*
X146835136Y-69526453D01*
X146835137Y-69526451D01*
X146837430Y-69521811D01*
X146896886Y-69326120D01*
X146900865Y-69313023D01*
X146900865Y-69313021D01*
X146902370Y-69308069D01*
X146931529Y-69086590D01*
X146933156Y-69020000D01*
X146914852Y-68797361D01*
X146860431Y-68580702D01*
X146771354Y-68375840D01*
X146650014Y-68188277D01*
X146499670Y-68023051D01*
X146495619Y-68019852D01*
X146495615Y-68019848D01*
X146328414Y-67887800D01*
X146328410Y-67887798D01*
X146324359Y-67884598D01*
X146283053Y-67861796D01*
X146233084Y-67811364D01*
X146218312Y-67741921D01*
X146243428Y-67675516D01*
X146270780Y-67648909D01*
X146410909Y-67548956D01*
X146449860Y-67521173D01*
X146532538Y-67438783D01*
X151732568Y-67438783D01*
X151762750Y-67638348D01*
X151832443Y-67827768D01*
X151835809Y-67833196D01*
X151835811Y-67833201D01*
X151867679Y-67884598D01*
X151938801Y-67999306D01*
X151943187Y-68003944D01*
X152066506Y-68134349D01*
X152077479Y-68145953D01*
X152242812Y-68261721D01*
X152428046Y-68341879D01*
X152625615Y-68383153D01*
X152630457Y-68383407D01*
X152630459Y-68383407D01*
X152630482Y-68383408D01*
X152632236Y-68383500D01*
X152780444Y-68383500D01*
X152855854Y-68375840D01*
X152924452Y-68368872D01*
X152924453Y-68368872D01*
X152930801Y-68368227D01*
X153123400Y-68307871D01*
X153299928Y-68210019D01*
X153453175Y-68078671D01*
X153479278Y-68045020D01*
X153572972Y-67924229D01*
X153576881Y-67919190D01*
X153665992Y-67738092D01*
X153675052Y-67703313D01*
X153715259Y-67548956D01*
X153715259Y-67548955D01*
X153716869Y-67542775D01*
X153722319Y-67438783D01*
X154272568Y-67438783D01*
X154302750Y-67638348D01*
X154372443Y-67827768D01*
X154375809Y-67833196D01*
X154375811Y-67833201D01*
X154407679Y-67884598D01*
X154478801Y-67999306D01*
X154483187Y-68003944D01*
X154606506Y-68134349D01*
X154617479Y-68145953D01*
X154782812Y-68261721D01*
X154968046Y-68341879D01*
X155165615Y-68383153D01*
X155170457Y-68383407D01*
X155170459Y-68383407D01*
X155170482Y-68383408D01*
X155172236Y-68383500D01*
X155320444Y-68383500D01*
X155395854Y-68375840D01*
X155464452Y-68368872D01*
X155464453Y-68368872D01*
X155470801Y-68368227D01*
X155663400Y-68307871D01*
X155839928Y-68210019D01*
X155993175Y-68078671D01*
X156019278Y-68045020D01*
X156112972Y-67924229D01*
X156116881Y-67919190D01*
X156205992Y-67738092D01*
X156215052Y-67703313D01*
X156255259Y-67548956D01*
X156255259Y-67548955D01*
X156256869Y-67542775D01*
X156264358Y-67399882D01*
X156267098Y-67347598D01*
X156267098Y-67347594D01*
X156267432Y-67341217D01*
X156237250Y-67141652D01*
X156167557Y-66952232D01*
X156164191Y-66946804D01*
X156164189Y-66946799D01*
X156064563Y-66786120D01*
X156061199Y-66780694D01*
X155986147Y-66701329D01*
X155926910Y-66638688D01*
X155926909Y-66638687D01*
X155922521Y-66634047D01*
X155757188Y-66518279D01*
X155571954Y-66438121D01*
X155374385Y-66396847D01*
X155369543Y-66396593D01*
X155369541Y-66396593D01*
X155369518Y-66396592D01*
X155367764Y-66396500D01*
X155219556Y-66396500D01*
X155144648Y-66404109D01*
X155075548Y-66411128D01*
X155075547Y-66411128D01*
X155069199Y-66411773D01*
X154876600Y-66472129D01*
X154700072Y-66569981D01*
X154546825Y-66701329D01*
X154423119Y-66860810D01*
X154334008Y-67041908D01*
X154332399Y-67048086D01*
X154332398Y-67048088D01*
X154297496Y-67182077D01*
X154283131Y-67237225D01*
X154282797Y-67243604D01*
X154274607Y-67399882D01*
X154272568Y-67438783D01*
X153722319Y-67438783D01*
X153724358Y-67399882D01*
X153727098Y-67347598D01*
X153727098Y-67347594D01*
X153727432Y-67341217D01*
X153697250Y-67141652D01*
X153627557Y-66952232D01*
X153624191Y-66946804D01*
X153624189Y-66946799D01*
X153524563Y-66786120D01*
X153521199Y-66780694D01*
X153446147Y-66701329D01*
X153386910Y-66638688D01*
X153386909Y-66638687D01*
X153382521Y-66634047D01*
X153217188Y-66518279D01*
X153031954Y-66438121D01*
X152834385Y-66396847D01*
X152829543Y-66396593D01*
X152829541Y-66396593D01*
X152829518Y-66396592D01*
X152827764Y-66396500D01*
X152679556Y-66396500D01*
X152604648Y-66404109D01*
X152535548Y-66411128D01*
X152535547Y-66411128D01*
X152529199Y-66411773D01*
X152336600Y-66472129D01*
X152160072Y-66569981D01*
X152006825Y-66701329D01*
X151883119Y-66860810D01*
X151794008Y-67041908D01*
X151792399Y-67048086D01*
X151792398Y-67048088D01*
X151757496Y-67182077D01*
X151743131Y-67237225D01*
X151742797Y-67243604D01*
X151734607Y-67399882D01*
X151732568Y-67438783D01*
X146532538Y-67438783D01*
X146608096Y-67363489D01*
X146738453Y-67182077D01*
X146752197Y-67154269D01*
X146835136Y-66986453D01*
X146835137Y-66986451D01*
X146837430Y-66981811D01*
X146892950Y-66799074D01*
X146900865Y-66773023D01*
X146900865Y-66773021D01*
X146902370Y-66768069D01*
X146931529Y-66546590D01*
X146933156Y-66480000D01*
X146914852Y-66257361D01*
X146860431Y-66040702D01*
X146771354Y-65835840D01*
X146724522Y-65763449D01*
X146652822Y-65652617D01*
X146652820Y-65652614D01*
X146650014Y-65648277D01*
X146499670Y-65483051D01*
X146495619Y-65479852D01*
X146495615Y-65479848D01*
X146328414Y-65347800D01*
X146328410Y-65347798D01*
X146324359Y-65344598D01*
X146283053Y-65321796D01*
X146233084Y-65271364D01*
X146218312Y-65201921D01*
X146243428Y-65135516D01*
X146270780Y-65108909D01*
X146410909Y-65008956D01*
X146449860Y-64981173D01*
X146532538Y-64898783D01*
X151732568Y-64898783D01*
X151762750Y-65098348D01*
X151832443Y-65287768D01*
X151835809Y-65293196D01*
X151835811Y-65293201D01*
X151867679Y-65344598D01*
X151938801Y-65459306D01*
X151943187Y-65463944D01*
X152017780Y-65542823D01*
X152077479Y-65605953D01*
X152242812Y-65721721D01*
X152428046Y-65801879D01*
X152625615Y-65843153D01*
X152630457Y-65843407D01*
X152630459Y-65843407D01*
X152630482Y-65843408D01*
X152632236Y-65843500D01*
X152780444Y-65843500D01*
X152859585Y-65835461D01*
X152924452Y-65828872D01*
X152924453Y-65828872D01*
X152930801Y-65828227D01*
X153123400Y-65767871D01*
X153131378Y-65763449D01*
X153213814Y-65717753D01*
X153299928Y-65670019D01*
X153453175Y-65538671D01*
X153576881Y-65379190D01*
X153665992Y-65198092D01*
X153669967Y-65182834D01*
X153715259Y-65008956D01*
X153715259Y-65008955D01*
X153716869Y-65002775D01*
X153722319Y-64898783D01*
X154272568Y-64898783D01*
X154302750Y-65098348D01*
X154372443Y-65287768D01*
X154375809Y-65293196D01*
X154375811Y-65293201D01*
X154407679Y-65344598D01*
X154478801Y-65459306D01*
X154483187Y-65463944D01*
X154557780Y-65542823D01*
X154617479Y-65605953D01*
X154782812Y-65721721D01*
X154968046Y-65801879D01*
X155165615Y-65843153D01*
X155170457Y-65843407D01*
X155170459Y-65843407D01*
X155170482Y-65843408D01*
X155172236Y-65843500D01*
X155320444Y-65843500D01*
X155399585Y-65835461D01*
X155464452Y-65828872D01*
X155464453Y-65828872D01*
X155470801Y-65828227D01*
X155663400Y-65767871D01*
X155671378Y-65763449D01*
X155753814Y-65717753D01*
X155839928Y-65670019D01*
X155993175Y-65538671D01*
X156116881Y-65379190D01*
X156205992Y-65198092D01*
X156209967Y-65182834D01*
X156255259Y-65008956D01*
X156255259Y-65008955D01*
X156256869Y-65002775D01*
X156267432Y-64801217D01*
X156237250Y-64601652D01*
X156167557Y-64412232D01*
X156164191Y-64406804D01*
X156164189Y-64406799D01*
X156083540Y-64276726D01*
X156061199Y-64240694D01*
X155984243Y-64159316D01*
X155926910Y-64098688D01*
X155926909Y-64098687D01*
X155922521Y-64094047D01*
X155757188Y-63978279D01*
X155571954Y-63898121D01*
X155374385Y-63856847D01*
X155369543Y-63856593D01*
X155369541Y-63856593D01*
X155369518Y-63856592D01*
X155367764Y-63856500D01*
X155219556Y-63856500D01*
X155144648Y-63864109D01*
X155075548Y-63871128D01*
X155075547Y-63871128D01*
X155069199Y-63871773D01*
X154876600Y-63932129D01*
X154700072Y-64029981D01*
X154546825Y-64161329D01*
X154423119Y-64320810D01*
X154334008Y-64501908D01*
X154332399Y-64508086D01*
X154332398Y-64508088D01*
X154297496Y-64642077D01*
X154283131Y-64697225D01*
X154282797Y-64703604D01*
X154273858Y-64874175D01*
X154272568Y-64898783D01*
X153722319Y-64898783D01*
X153727432Y-64801217D01*
X153697250Y-64601652D01*
X153627557Y-64412232D01*
X153624191Y-64406804D01*
X153624189Y-64406799D01*
X153543540Y-64276726D01*
X153521199Y-64240694D01*
X153444243Y-64159316D01*
X153386910Y-64098688D01*
X153386909Y-64098687D01*
X153382521Y-64094047D01*
X153217188Y-63978279D01*
X153031954Y-63898121D01*
X152834385Y-63856847D01*
X152829543Y-63856593D01*
X152829541Y-63856593D01*
X152829518Y-63856592D01*
X152827764Y-63856500D01*
X152679556Y-63856500D01*
X152604648Y-63864109D01*
X152535548Y-63871128D01*
X152535547Y-63871128D01*
X152529199Y-63871773D01*
X152336600Y-63932129D01*
X152160072Y-64029981D01*
X152006825Y-64161329D01*
X151883119Y-64320810D01*
X151794008Y-64501908D01*
X151792399Y-64508086D01*
X151792398Y-64508088D01*
X151757496Y-64642077D01*
X151743131Y-64697225D01*
X151742797Y-64703604D01*
X151733858Y-64874175D01*
X151732568Y-64898783D01*
X146532538Y-64898783D01*
X146608096Y-64823489D01*
X146738453Y-64642077D01*
X146750489Y-64617725D01*
X146835136Y-64446453D01*
X146835137Y-64446451D01*
X146837430Y-64441811D01*
X146891271Y-64264599D01*
X146900865Y-64233023D01*
X146900865Y-64233021D01*
X146902370Y-64228069D01*
X146931529Y-64006590D01*
X146933156Y-63940000D01*
X146914852Y-63717361D01*
X146860431Y-63500702D01*
X146771354Y-63295840D01*
X146724644Y-63223638D01*
X146652822Y-63112617D01*
X146652820Y-63112614D01*
X146650014Y-63108277D01*
X146646540Y-63104459D01*
X146646533Y-63104450D01*
X146502435Y-62946088D01*
X146471383Y-62882242D01*
X146479779Y-62811744D01*
X146524956Y-62756976D01*
X146551400Y-62743307D01*
X146658052Y-62703325D01*
X146673649Y-62694786D01*
X146775724Y-62618285D01*
X146788285Y-62605724D01*
X146864786Y-62503649D01*
X146873324Y-62488054D01*
X146918478Y-62367606D01*
X146920576Y-62358783D01*
X151732568Y-62358783D01*
X151762750Y-62558348D01*
X151832443Y-62747768D01*
X151835809Y-62753196D01*
X151835811Y-62753201D01*
X151885580Y-62833469D01*
X151938801Y-62919306D01*
X151943187Y-62923944D01*
X152017780Y-63002823D01*
X152077479Y-63065953D01*
X152242812Y-63181721D01*
X152428046Y-63261879D01*
X152625615Y-63303153D01*
X152630457Y-63303407D01*
X152630459Y-63303407D01*
X152630482Y-63303408D01*
X152632236Y-63303500D01*
X152780444Y-63303500D01*
X152855854Y-63295840D01*
X152924452Y-63288872D01*
X152924453Y-63288872D01*
X152930801Y-63288227D01*
X153123400Y-63227871D01*
X153131037Y-63223638D01*
X153213262Y-63178059D01*
X153299928Y-63130019D01*
X153453175Y-62998671D01*
X153508870Y-62926870D01*
X153572972Y-62844229D01*
X153576881Y-62839190D01*
X153665992Y-62658092D01*
X153675376Y-62622069D01*
X153715259Y-62468956D01*
X153715259Y-62468955D01*
X153716869Y-62462775D01*
X153721420Y-62375930D01*
X153722319Y-62358783D01*
X154272568Y-62358783D01*
X154302750Y-62558348D01*
X154372443Y-62747768D01*
X154375809Y-62753196D01*
X154375811Y-62753201D01*
X154425580Y-62833469D01*
X154478801Y-62919306D01*
X154483187Y-62923944D01*
X154557780Y-63002823D01*
X154617479Y-63065953D01*
X154782812Y-63181721D01*
X154968046Y-63261879D01*
X155165615Y-63303153D01*
X155170457Y-63303407D01*
X155170459Y-63303407D01*
X155170482Y-63303408D01*
X155172236Y-63303500D01*
X155320444Y-63303500D01*
X155395854Y-63295840D01*
X155464452Y-63288872D01*
X155464453Y-63288872D01*
X155470801Y-63288227D01*
X155663400Y-63227871D01*
X155671037Y-63223638D01*
X155753262Y-63178059D01*
X155839928Y-63130019D01*
X155993175Y-62998671D01*
X156048870Y-62926870D01*
X156112972Y-62844229D01*
X156116881Y-62839190D01*
X156205992Y-62658092D01*
X156215376Y-62622069D01*
X156255259Y-62468956D01*
X156255259Y-62468955D01*
X156256869Y-62462775D01*
X156261420Y-62375930D01*
X156267098Y-62267598D01*
X156267098Y-62267594D01*
X156267432Y-62261217D01*
X156237250Y-62061652D01*
X156167557Y-61872232D01*
X156164191Y-61866804D01*
X156164189Y-61866799D01*
X156064563Y-61706120D01*
X156061199Y-61700694D01*
X155986147Y-61621329D01*
X155926910Y-61558688D01*
X155926909Y-61558687D01*
X155922521Y-61554047D01*
X155757188Y-61438279D01*
X155571954Y-61358121D01*
X155374385Y-61316847D01*
X155369543Y-61316593D01*
X155369541Y-61316593D01*
X155369518Y-61316592D01*
X155367764Y-61316500D01*
X155219556Y-61316500D01*
X155144648Y-61324109D01*
X155075548Y-61331128D01*
X155075547Y-61331128D01*
X155069199Y-61331773D01*
X154876600Y-61392129D01*
X154700072Y-61489981D01*
X154546825Y-61621329D01*
X154542918Y-61626366D01*
X154542916Y-61626368D01*
X154516933Y-61659865D01*
X154423119Y-61780810D01*
X154334008Y-61961908D01*
X154283131Y-62157225D01*
X154278580Y-62244070D01*
X154273027Y-62350031D01*
X154272568Y-62358783D01*
X153722319Y-62358783D01*
X153727098Y-62267598D01*
X153727098Y-62267594D01*
X153727432Y-62261217D01*
X153697250Y-62061652D01*
X153627557Y-61872232D01*
X153624191Y-61866804D01*
X153624189Y-61866799D01*
X153524563Y-61706120D01*
X153521199Y-61700694D01*
X153446147Y-61621329D01*
X153386910Y-61558688D01*
X153386909Y-61558687D01*
X153382521Y-61554047D01*
X153217188Y-61438279D01*
X153031954Y-61358121D01*
X152834385Y-61316847D01*
X152829543Y-61316593D01*
X152829541Y-61316593D01*
X152829518Y-61316592D01*
X152827764Y-61316500D01*
X152679556Y-61316500D01*
X152604648Y-61324109D01*
X152535548Y-61331128D01*
X152535547Y-61331128D01*
X152529199Y-61331773D01*
X152336600Y-61392129D01*
X152160072Y-61489981D01*
X152006825Y-61621329D01*
X152002918Y-61626366D01*
X152002916Y-61626368D01*
X151976933Y-61659865D01*
X151883119Y-61780810D01*
X151794008Y-61961908D01*
X151743131Y-62157225D01*
X151738580Y-62244070D01*
X151733027Y-62350031D01*
X151732568Y-62358783D01*
X146920576Y-62358783D01*
X146922105Y-62352351D01*
X146927631Y-62301486D01*
X146928000Y-62294672D01*
X146928000Y-61672115D01*
X146923525Y-61656876D01*
X146922135Y-61655671D01*
X146914452Y-61654000D01*
X144230116Y-61654000D01*
X144214877Y-61658475D01*
X144213672Y-61659865D01*
X144212001Y-61667548D01*
X144212001Y-62294669D01*
X144212371Y-62301490D01*
X144217895Y-62352352D01*
X144221521Y-62367604D01*
X144266676Y-62488054D01*
X144275214Y-62503649D01*
X144351715Y-62605724D01*
X144364276Y-62618285D01*
X144466351Y-62694786D01*
X144481946Y-62703324D01*
X144590827Y-62744142D01*
X144647591Y-62786784D01*
X144672291Y-62853345D01*
X144657083Y-62922694D01*
X144637691Y-62949175D01*
X144530531Y-63061312D01*
X144510629Y-63082138D01*
X144507715Y-63086410D01*
X144507714Y-63086411D01*
X144445196Y-63178059D01*
X144384743Y-63266680D01*
X144367813Y-63303153D01*
X144299972Y-63449305D01*
X144290688Y-63469305D01*
X144230989Y-63684570D01*
X144207251Y-63906695D01*
X144207548Y-63911848D01*
X144207548Y-63911851D01*
X144214599Y-64034137D01*
X144220110Y-64129715D01*
X144221247Y-64134762D01*
X144221248Y-64134766D01*
X144228370Y-64166368D01*
X144246344Y-64246120D01*
X144246951Y-64248815D01*
X144242415Y-64319666D01*
X144213129Y-64365611D01*
X144154145Y-64424595D01*
X144091833Y-64458621D01*
X144065050Y-64461500D01*
X142995340Y-64461500D01*
X142927219Y-64441498D01*
X142880726Y-64387842D01*
X142870622Y-64317568D01*
X142874782Y-64298871D01*
X142881510Y-64276726D01*
X142902370Y-64208069D01*
X142931529Y-63986590D01*
X142932585Y-63943365D01*
X142933074Y-63923365D01*
X142933074Y-63923361D01*
X142933156Y-63920000D01*
X142914852Y-63697361D01*
X142860431Y-63480702D01*
X142771354Y-63275840D01*
X142719359Y-63195468D01*
X142652822Y-63092617D01*
X142652820Y-63092614D01*
X142650014Y-63088277D01*
X142499670Y-62923051D01*
X142495619Y-62919852D01*
X142495615Y-62919848D01*
X142328414Y-62787800D01*
X142328410Y-62787798D01*
X142324359Y-62784598D01*
X142283053Y-62761796D01*
X142233084Y-62711364D01*
X142218312Y-62641921D01*
X142243428Y-62575516D01*
X142270780Y-62548909D01*
X142334232Y-62503649D01*
X142449860Y-62421173D01*
X142608096Y-62263489D01*
X142667594Y-62180689D01*
X142735435Y-62086277D01*
X142738453Y-62082077D01*
X142800675Y-61956181D01*
X142835136Y-61886453D01*
X142835137Y-61886451D01*
X142837430Y-61881811D01*
X142902370Y-61668069D01*
X142931529Y-61446590D01*
X142932860Y-61392129D01*
X142933074Y-61383365D01*
X142933074Y-61383361D01*
X142933156Y-61380000D01*
X142914852Y-61157361D01*
X142907448Y-61127885D01*
X144212000Y-61127885D01*
X144216475Y-61143124D01*
X144217865Y-61144329D01*
X144225548Y-61146000D01*
X145297885Y-61146000D01*
X145313124Y-61141525D01*
X145314329Y-61140135D01*
X145316000Y-61132452D01*
X145316000Y-61127885D01*
X145824000Y-61127885D01*
X145828475Y-61143124D01*
X145829865Y-61144329D01*
X145837548Y-61146000D01*
X146909884Y-61146000D01*
X146925123Y-61141525D01*
X146926328Y-61140135D01*
X146927999Y-61132452D01*
X146927999Y-60505331D01*
X146927629Y-60498510D01*
X146922105Y-60447648D01*
X146918479Y-60432396D01*
X146873324Y-60311946D01*
X146864786Y-60296351D01*
X146788285Y-60194276D01*
X146775724Y-60181715D01*
X146673649Y-60105214D01*
X146658054Y-60096676D01*
X146537606Y-60051522D01*
X146522351Y-60047895D01*
X146471486Y-60042369D01*
X146464672Y-60042000D01*
X145842115Y-60042000D01*
X145826876Y-60046475D01*
X145825671Y-60047865D01*
X145824000Y-60055548D01*
X145824000Y-61127885D01*
X145316000Y-61127885D01*
X145316000Y-60060116D01*
X145311525Y-60044877D01*
X145310135Y-60043672D01*
X145302452Y-60042001D01*
X144675331Y-60042001D01*
X144668510Y-60042371D01*
X144617648Y-60047895D01*
X144602396Y-60051521D01*
X144481946Y-60096676D01*
X144466351Y-60105214D01*
X144364276Y-60181715D01*
X144351715Y-60194276D01*
X144275214Y-60296351D01*
X144266676Y-60311946D01*
X144221522Y-60432394D01*
X144217895Y-60447649D01*
X144212369Y-60498514D01*
X144212000Y-60505328D01*
X144212000Y-61127885D01*
X142907448Y-61127885D01*
X142860431Y-60940702D01*
X142771354Y-60735840D01*
X142708097Y-60638059D01*
X142652822Y-60552617D01*
X142652820Y-60552614D01*
X142650014Y-60548277D01*
X142499670Y-60383051D01*
X142495619Y-60379852D01*
X142495615Y-60379848D01*
X142328414Y-60247800D01*
X142328410Y-60247798D01*
X142324359Y-60244598D01*
X142128789Y-60136638D01*
X142123920Y-60134914D01*
X142123916Y-60134912D01*
X141923087Y-60063795D01*
X141923083Y-60063794D01*
X141918212Y-60062069D01*
X141913119Y-60061162D01*
X141913116Y-60061161D01*
X141703373Y-60023800D01*
X141703367Y-60023799D01*
X141698284Y-60022894D01*
X141624452Y-60021992D01*
X141480081Y-60020228D01*
X141480079Y-60020228D01*
X141474911Y-60020165D01*
X141254091Y-60053955D01*
X141041756Y-60123357D01*
X141011443Y-60139137D01*
X140869168Y-60213201D01*
X140843607Y-60226507D01*
X140839474Y-60229610D01*
X140839471Y-60229612D01*
X140669100Y-60357530D01*
X140664965Y-60360635D01*
X140661393Y-60364373D01*
X140571280Y-60458671D01*
X140510629Y-60522138D01*
X140384743Y-60706680D01*
X140290688Y-60909305D01*
X140230989Y-61124570D01*
X140207251Y-61346695D01*
X140207548Y-61351848D01*
X140207548Y-61351851D01*
X140213011Y-61446590D01*
X140220110Y-61569715D01*
X140221247Y-61574761D01*
X140221248Y-61574767D01*
X140230806Y-61617177D01*
X140269222Y-61787639D01*
X140353266Y-61994616D01*
X140355965Y-61999020D01*
X140456822Y-62163604D01*
X140469987Y-62185088D01*
X140616250Y-62353938D01*
X140788126Y-62496632D01*
X140858595Y-62537811D01*
X140861445Y-62539476D01*
X140910169Y-62591114D01*
X140923240Y-62660897D01*
X140896509Y-62726669D01*
X140856055Y-62760027D01*
X140843607Y-62766507D01*
X140839474Y-62769610D01*
X140839471Y-62769612D01*
X140727949Y-62853345D01*
X140664965Y-62900635D01*
X140661393Y-62904373D01*
X140571280Y-62998671D01*
X140510629Y-63062138D01*
X140507715Y-63066410D01*
X140507714Y-63066411D01*
X140467159Y-63125863D01*
X140384743Y-63246680D01*
X140369003Y-63280590D01*
X140305916Y-63416500D01*
X140290688Y-63449305D01*
X140230989Y-63664570D01*
X140207251Y-63886695D01*
X140207548Y-63891848D01*
X140207548Y-63891851D01*
X140213011Y-63986590D01*
X140220110Y-64109715D01*
X140221247Y-64114761D01*
X140221248Y-64114767D01*
X140264751Y-64307799D01*
X140260215Y-64378650D01*
X140218093Y-64435802D01*
X140151760Y-64461108D01*
X140141834Y-64461500D01*
X135595703Y-64461500D01*
X135583847Y-64460941D01*
X135576107Y-64459211D01*
X135568181Y-64459460D01*
X135568180Y-64459460D01*
X135505255Y-64461438D01*
X135501297Y-64461500D01*
X135472212Y-64461500D01*
X135468281Y-64461997D01*
X135468274Y-64461997D01*
X135467823Y-64462054D01*
X135455987Y-64462986D01*
X135409813Y-64464438D01*
X135389223Y-64470420D01*
X135369862Y-64474430D01*
X135362874Y-64475312D01*
X135356440Y-64476125D01*
X135356439Y-64476125D01*
X135348580Y-64477118D01*
X135341215Y-64480034D01*
X135341211Y-64480035D01*
X135305623Y-64494126D01*
X135294413Y-64497965D01*
X135250044Y-64510855D01*
X135231579Y-64521775D01*
X135213839Y-64530466D01*
X135193888Y-64538365D01*
X135169569Y-64556034D01*
X135156518Y-64565516D01*
X135146596Y-64572033D01*
X135113667Y-64591507D01*
X135113663Y-64591510D01*
X135106837Y-64595547D01*
X135091673Y-64610711D01*
X135076640Y-64623551D01*
X135059287Y-64636159D01*
X135050917Y-64646277D01*
X135029842Y-64671752D01*
X135021852Y-64680532D01*
X129178100Y-70524284D01*
X129115788Y-70558310D01*
X129089005Y-70561189D01*
X124262367Y-70561189D01*
X124250511Y-70560630D01*
X124250508Y-70560630D01*
X124242774Y-70558901D01*
X124187757Y-70560630D01*
X124171942Y-70561127D01*
X124167984Y-70561189D01*
X124138879Y-70561189D01*
X124134479Y-70561745D01*
X124122647Y-70562677D01*
X124076480Y-70564127D01*
X124055890Y-70570109D01*
X124036529Y-70574119D01*
X124029541Y-70575001D01*
X124023107Y-70575814D01*
X124023106Y-70575814D01*
X124015247Y-70576807D01*
X124007882Y-70579723D01*
X124007878Y-70579724D01*
X123972290Y-70593815D01*
X123961080Y-70597654D01*
X123916711Y-70610544D01*
X123898254Y-70621460D01*
X123880504Y-70630155D01*
X123860555Y-70638054D01*
X123854144Y-70642712D01*
X123854142Y-70642713D01*
X123823175Y-70665212D01*
X123813257Y-70671727D01*
X123773504Y-70695237D01*
X123758343Y-70710398D01*
X123743311Y-70723237D01*
X123725954Y-70735848D01*
X123696504Y-70771447D01*
X123688514Y-70780227D01*
X122014145Y-72454595D01*
X121951833Y-72488621D01*
X121925050Y-72491500D01*
X121904513Y-72491500D01*
X121898061Y-72492872D01*
X121898056Y-72492872D01*
X121811113Y-72511353D01*
X121717712Y-72531206D01*
X121711682Y-72533891D01*
X121711681Y-72533891D01*
X121549278Y-72606197D01*
X121549276Y-72606198D01*
X121543248Y-72608882D01*
X121537907Y-72612762D01*
X121537906Y-72612763D01*
X121509605Y-72633325D01*
X121388747Y-72721134D01*
X121384326Y-72726044D01*
X121384325Y-72726045D01*
X121305081Y-72814055D01*
X121260960Y-72863056D01*
X121232009Y-72913201D01*
X121169553Y-73021378D01*
X121165473Y-73028444D01*
X121106458Y-73210072D01*
X121105768Y-73216633D01*
X121105768Y-73216635D01*
X121099000Y-73281031D01*
X121086496Y-73400000D01*
X121087186Y-73406565D01*
X121100238Y-73530744D01*
X121106458Y-73589928D01*
X121165473Y-73771556D01*
X121168776Y-73777278D01*
X121168777Y-73777279D01*
X121197019Y-73826196D01*
X121260960Y-73936944D01*
X121265378Y-73941851D01*
X121265379Y-73941852D01*
X121310929Y-73992440D01*
X121341646Y-74056448D01*
X121337126Y-74115686D01*
X121328538Y-74142117D01*
X121311636Y-74194137D01*
X121306458Y-74210072D01*
X121305768Y-74216635D01*
X121305767Y-74216642D01*
X121291962Y-74347992D01*
X121286496Y-74400000D01*
X121287186Y-74406565D01*
X121291137Y-74444152D01*
X121306458Y-74589928D01*
X121365473Y-74771556D01*
X121460960Y-74936944D01*
X121465378Y-74941851D01*
X121465379Y-74941852D01*
X121525733Y-75008882D01*
X121588747Y-75078866D01*
X121743248Y-75191118D01*
X121749276Y-75193802D01*
X121749278Y-75193803D01*
X121894591Y-75258500D01*
X121917712Y-75268794D01*
X122011112Y-75288647D01*
X122098056Y-75307128D01*
X122098061Y-75307128D01*
X122104513Y-75308500D01*
X122295487Y-75308500D01*
X122301939Y-75307128D01*
X122301944Y-75307128D01*
X122388888Y-75288647D01*
X122482288Y-75268794D01*
X122505409Y-75258500D01*
X122650722Y-75193803D01*
X122650724Y-75193802D01*
X122656752Y-75191118D01*
X122811253Y-75078866D01*
X122874267Y-75008882D01*
X122934621Y-74941852D01*
X122934622Y-74941851D01*
X122939040Y-74936944D01*
X123034527Y-74771556D01*
X123093542Y-74589928D01*
X123106755Y-74464213D01*
X123133768Y-74398558D01*
X123142970Y-74388290D01*
X123966705Y-73564555D01*
X124029017Y-73530529D01*
X124099832Y-73535594D01*
X124156668Y-73578141D01*
X124181479Y-73644661D01*
X124175633Y-73692585D01*
X124169204Y-73712372D01*
X124168514Y-73718933D01*
X124168514Y-73718935D01*
X124153367Y-73863056D01*
X124149242Y-73902300D01*
X124149932Y-73908865D01*
X124163051Y-74033682D01*
X124169204Y-74092228D01*
X124228219Y-74273856D01*
X124323706Y-74439244D01*
X124451493Y-74581166D01*
X124605994Y-74693418D01*
X124612022Y-74696102D01*
X124612024Y-74696103D01*
X124774427Y-74768409D01*
X124780458Y-74771094D01*
X124873859Y-74790947D01*
X124960802Y-74809428D01*
X124960807Y-74809428D01*
X124967259Y-74810800D01*
X125027350Y-74810800D01*
X125095471Y-74830802D01*
X125116445Y-74847705D01*
X130104595Y-79835855D01*
X130138621Y-79898167D01*
X130141500Y-79924950D01*
X130141500Y-82525241D01*
X130121498Y-82593362D01*
X130109136Y-82609551D01*
X130068450Y-82654738D01*
X130060960Y-82663056D01*
X129965473Y-82828444D01*
X129906458Y-83010072D01*
X129905768Y-83016633D01*
X129905768Y-83016635D01*
X129890785Y-83159190D01*
X129886496Y-83200000D01*
X129887186Y-83206565D01*
X129898401Y-83313266D01*
X129906458Y-83389928D01*
X129911289Y-83404795D01*
X129912924Y-83409827D01*
X129914953Y-83480795D01*
X129878292Y-83541594D01*
X129844340Y-83563873D01*
X129749281Y-83606195D01*
X129749274Y-83606199D01*
X129743248Y-83608882D01*
X129737907Y-83612762D01*
X129737906Y-83612763D01*
X129723256Y-83623407D01*
X129588747Y-83721134D01*
X129584325Y-83726045D01*
X129584324Y-83726046D01*
X129541871Y-83773194D01*
X129481425Y-83810433D01*
X129410441Y-83809081D01*
X129359141Y-83777978D01*
X118111783Y-72530621D01*
X118102681Y-72520478D01*
X118082825Y-72495782D01*
X118078960Y-72490975D01*
X118040506Y-72458708D01*
X118036859Y-72455528D01*
X118035047Y-72453885D01*
X118032853Y-72451691D01*
X117999579Y-72424358D01*
X117998781Y-72423696D01*
X117927454Y-72363846D01*
X117922784Y-72361278D01*
X117918667Y-72357897D01*
X117854710Y-72323604D01*
X117836842Y-72314023D01*
X117835683Y-72313394D01*
X117759547Y-72271538D01*
X117759539Y-72271535D01*
X117754141Y-72268567D01*
X117749059Y-72266955D01*
X117744365Y-72264438D01*
X117655397Y-72237238D01*
X117654369Y-72236918D01*
X117565622Y-72208765D01*
X117560326Y-72208171D01*
X117555230Y-72206613D01*
X117462671Y-72197210D01*
X117461535Y-72197089D01*
X117427920Y-72193319D01*
X117415198Y-72191892D01*
X117415194Y-72191892D01*
X117411701Y-72191500D01*
X117408174Y-72191500D01*
X117407189Y-72191445D01*
X117401509Y-72190998D01*
X117372103Y-72188011D01*
X117364591Y-72187248D01*
X117364589Y-72187248D01*
X117358466Y-72186626D01*
X117316187Y-72190623D01*
X117312819Y-72190941D01*
X117300961Y-72191500D01*
X115750231Y-72191500D01*
X115747175Y-72191800D01*
X115747168Y-72191800D01*
X115691915Y-72197218D01*
X115603167Y-72205920D01*
X115597266Y-72207702D01*
X115597264Y-72207702D01*
X115551060Y-72221652D01*
X115413831Y-72263084D01*
X115239204Y-72355934D01*
X115188004Y-72397692D01*
X115090713Y-72477040D01*
X115090710Y-72477043D01*
X115085938Y-72480935D01*
X115082011Y-72485682D01*
X115082009Y-72485684D01*
X114963799Y-72628575D01*
X114963797Y-72628579D01*
X114959870Y-72633325D01*
X114865802Y-72807299D01*
X114807318Y-72996232D01*
X114806674Y-73002357D01*
X114806674Y-73002358D01*
X114790955Y-73151921D01*
X114786645Y-73192925D01*
X114804570Y-73389888D01*
X114806308Y-73395794D01*
X114806309Y-73395798D01*
X114823614Y-73454595D01*
X114860410Y-73579619D01*
X114863263Y-73585077D01*
X114863265Y-73585081D01*
X114894413Y-73644661D01*
X114952040Y-73754890D01*
X115075968Y-73909025D01*
X115227474Y-74036154D01*
X115232872Y-74039121D01*
X115232877Y-74039125D01*
X115362615Y-74110448D01*
X115400787Y-74131433D01*
X115406654Y-74133294D01*
X115406656Y-74133295D01*
X115575596Y-74186886D01*
X115589306Y-74191235D01*
X115743227Y-74208500D01*
X116885003Y-74208500D01*
X116953124Y-74228502D01*
X116974098Y-74245405D01*
X120584679Y-77855985D01*
X124030099Y-81301405D01*
X124064125Y-81363717D01*
X124059060Y-81434532D01*
X124016513Y-81491368D01*
X123949993Y-81516179D01*
X123941004Y-81516500D01*
X112226347Y-81516500D01*
X112200150Y-81513747D01*
X112101944Y-81492872D01*
X112101939Y-81492872D01*
X112095487Y-81491500D01*
X111904513Y-81491500D01*
X111898061Y-81492872D01*
X111898056Y-81492872D01*
X111811113Y-81511353D01*
X111717712Y-81531206D01*
X111711682Y-81533891D01*
X111711681Y-81533891D01*
X111549278Y-81606197D01*
X111549276Y-81606198D01*
X111543248Y-81608882D01*
X111388747Y-81721134D01*
X111384326Y-81726044D01*
X111384325Y-81726045D01*
X111311536Y-81806886D01*
X111260960Y-81863056D01*
X111165473Y-82028444D01*
X111106458Y-82210072D01*
X111086496Y-82400000D01*
X111087186Y-82406565D01*
X111104743Y-82573607D01*
X111106458Y-82589928D01*
X111165473Y-82771556D01*
X111260960Y-82936944D01*
X111265378Y-82941851D01*
X111265379Y-82941852D01*
X111358390Y-83045151D01*
X111389108Y-83109158D01*
X111380343Y-83179612D01*
X111334880Y-83234143D01*
X111274638Y-83255073D01*
X111268302Y-83255572D01*
X111258554Y-83257115D01*
X111037373Y-83310217D01*
X111027988Y-83313266D01*
X110817837Y-83400313D01*
X110809042Y-83404795D01*
X110641555Y-83507432D01*
X110632093Y-83517890D01*
X110635876Y-83526666D01*
X111487188Y-84377978D01*
X111501132Y-84385592D01*
X111502965Y-84385461D01*
X111509580Y-84381210D01*
X112361080Y-83529710D01*
X112367840Y-83517330D01*
X112348533Y-83491539D01*
X112349888Y-83490524D01*
X112323893Y-83458966D01*
X112315546Y-83388461D01*
X112346641Y-83324637D01*
X112407307Y-83287756D01*
X112439777Y-83283500D01*
X115059258Y-83283500D01*
X115127379Y-83303502D01*
X115173872Y-83357158D01*
X115183976Y-83427432D01*
X115154482Y-83492012D01*
X115125092Y-83516933D01*
X115114803Y-83523238D01*
X115114798Y-83523242D01*
X115110584Y-83525824D01*
X114930031Y-83680031D01*
X114775824Y-83860584D01*
X114773245Y-83864792D01*
X114773241Y-83864798D01*
X114654346Y-84058817D01*
X114651760Y-84063037D01*
X114649867Y-84067607D01*
X114649865Y-84067611D01*
X114632797Y-84108817D01*
X114560895Y-84282406D01*
X114505465Y-84513289D01*
X114486835Y-84750000D01*
X114505465Y-84986711D01*
X114506619Y-84991518D01*
X114506620Y-84991524D01*
X114536122Y-85114408D01*
X114560895Y-85217594D01*
X114562788Y-85222165D01*
X114562789Y-85222167D01*
X114649772Y-85432163D01*
X114651760Y-85436963D01*
X114654346Y-85441183D01*
X114773241Y-85635202D01*
X114773245Y-85635208D01*
X114775824Y-85639416D01*
X114930031Y-85819969D01*
X115110584Y-85974176D01*
X115114792Y-85976755D01*
X115114798Y-85976759D01*
X115222189Y-86042568D01*
X115313037Y-86098240D01*
X115317607Y-86100133D01*
X115317611Y-86100135D01*
X115527833Y-86187211D01*
X115532406Y-86189105D01*
X115612609Y-86208360D01*
X115758476Y-86243380D01*
X115758482Y-86243381D01*
X115763289Y-86244535D01*
X116000000Y-86263165D01*
X116236711Y-86244535D01*
X116241518Y-86243381D01*
X116241524Y-86243380D01*
X116387391Y-86208360D01*
X116467594Y-86189105D01*
X116472167Y-86187211D01*
X116682389Y-86100135D01*
X116682393Y-86100133D01*
X116686963Y-86098240D01*
X116777811Y-86042568D01*
X116885202Y-85976759D01*
X116885208Y-85976755D01*
X116889416Y-85974176D01*
X117069969Y-85819969D01*
X117224176Y-85639416D01*
X117226755Y-85635208D01*
X117226759Y-85635202D01*
X117345654Y-85441183D01*
X117348240Y-85436963D01*
X117350229Y-85432163D01*
X117437211Y-85222167D01*
X117437212Y-85222165D01*
X117439105Y-85217594D01*
X117463878Y-85114408D01*
X117493380Y-84991524D01*
X117493381Y-84991518D01*
X117494535Y-84986711D01*
X117513165Y-84750000D01*
X117494535Y-84513289D01*
X117439105Y-84282406D01*
X117367203Y-84108817D01*
X117350135Y-84067611D01*
X117350133Y-84067607D01*
X117348240Y-84063037D01*
X117345654Y-84058817D01*
X117226759Y-83864798D01*
X117226755Y-83864792D01*
X117224176Y-83860584D01*
X117069969Y-83680031D01*
X116889416Y-83525824D01*
X116885202Y-83523242D01*
X116885197Y-83523238D01*
X116874908Y-83516933D01*
X116827276Y-83464286D01*
X116815669Y-83394244D01*
X116843772Y-83329047D01*
X116902662Y-83289392D01*
X116940742Y-83283500D01*
X124558784Y-83283500D01*
X124626905Y-83303502D01*
X124659337Y-83334133D01*
X124660960Y-83336944D01*
X124665378Y-83341851D01*
X124665379Y-83341852D01*
X124781832Y-83471186D01*
X124788747Y-83478866D01*
X124860787Y-83531206D01*
X124930532Y-83581879D01*
X124943248Y-83591118D01*
X124949276Y-83593802D01*
X124949278Y-83593803D01*
X125111681Y-83666109D01*
X125117712Y-83668794D01*
X125211112Y-83688647D01*
X125298056Y-83707128D01*
X125298061Y-83707128D01*
X125304513Y-83708500D01*
X125495487Y-83708500D01*
X125501939Y-83707128D01*
X125501944Y-83707128D01*
X125588888Y-83688647D01*
X125682288Y-83668794D01*
X125688319Y-83666109D01*
X125850722Y-83593803D01*
X125850724Y-83593802D01*
X125856752Y-83591118D01*
X125869469Y-83581879D01*
X125939213Y-83531206D01*
X126011253Y-83478866D01*
X126015675Y-83473954D01*
X126020577Y-83469541D01*
X126021456Y-83470517D01*
X126075873Y-83436998D01*
X126146857Y-83438355D01*
X126198149Y-83469456D01*
X128998073Y-86269379D01*
X129007175Y-86279522D01*
X129030896Y-86309025D01*
X129035624Y-86312992D01*
X129069349Y-86341291D01*
X129072997Y-86344472D01*
X129074809Y-86346115D01*
X129077003Y-86348309D01*
X129110277Y-86375642D01*
X129111075Y-86376304D01*
X129182402Y-86436154D01*
X129187072Y-86438722D01*
X129191189Y-86442103D01*
X129249073Y-86473140D01*
X129273014Y-86485977D01*
X129274173Y-86486606D01*
X129350309Y-86528462D01*
X129350317Y-86528465D01*
X129355715Y-86531433D01*
X129360797Y-86533045D01*
X129365491Y-86535562D01*
X129454459Y-86562762D01*
X129455487Y-86563082D01*
X129544234Y-86591235D01*
X129549530Y-86591829D01*
X129554626Y-86593387D01*
X129647185Y-86602790D01*
X129648321Y-86602911D01*
X129681936Y-86606681D01*
X129694658Y-86608108D01*
X129694662Y-86608108D01*
X129698155Y-86608500D01*
X129701682Y-86608500D01*
X129702667Y-86608555D01*
X129708347Y-86609002D01*
X129737753Y-86611989D01*
X129745265Y-86612752D01*
X129745267Y-86612752D01*
X129751390Y-86613374D01*
X129797036Y-86609059D01*
X129808895Y-86608500D01*
X150474220Y-86608500D01*
X150542341Y-86628502D01*
X150588834Y-86682158D01*
X150598938Y-86752432D01*
X150583338Y-86797501D01*
X150565473Y-86828444D01*
X150506458Y-87010072D01*
X150505768Y-87016633D01*
X150505768Y-87016635D01*
X150489608Y-87170388D01*
X150486496Y-87200000D01*
X150506458Y-87389928D01*
X150565473Y-87571556D01*
X150568776Y-87577278D01*
X150568777Y-87577279D01*
X150576093Y-87589950D01*
X150660960Y-87736944D01*
X150665378Y-87741851D01*
X150665379Y-87741852D01*
X150698054Y-87778141D01*
X150788747Y-87878866D01*
X150943248Y-87991118D01*
X150949276Y-87993802D01*
X150949278Y-87993803D01*
X151066749Y-88046104D01*
X151120845Y-88092084D01*
X151141500Y-88161211D01*
X151141500Y-90325241D01*
X151121498Y-90393362D01*
X151109136Y-90409551D01*
X151080320Y-90441555D01*
X151060960Y-90463056D01*
X150965473Y-90628444D01*
X150906458Y-90810072D01*
X150905768Y-90816633D01*
X150905768Y-90816635D01*
X150894066Y-90927978D01*
X150886496Y-91000000D01*
X150906458Y-91189928D01*
X150965473Y-91371556D01*
X151060960Y-91536944D01*
X151065378Y-91541851D01*
X151065379Y-91541852D01*
X151182585Y-91672022D01*
X151188747Y-91678866D01*
X151343248Y-91791118D01*
X151349276Y-91793802D01*
X151349278Y-91793803D01*
X151511681Y-91866109D01*
X151517712Y-91868794D01*
X151611113Y-91888647D01*
X151698056Y-91907128D01*
X151698061Y-91907128D01*
X151704513Y-91908500D01*
X151765000Y-91908500D01*
X151833121Y-91928502D01*
X151879614Y-91982158D01*
X151891000Y-92034500D01*
X151891000Y-95325550D01*
X151870998Y-95393671D01*
X151854095Y-95414645D01*
X151814145Y-95454595D01*
X151751833Y-95488621D01*
X151725050Y-95491500D01*
X151704513Y-95491500D01*
X151698061Y-95492872D01*
X151698056Y-95492872D01*
X151611113Y-95511353D01*
X151517712Y-95531206D01*
X151511682Y-95533891D01*
X151511681Y-95533891D01*
X151349278Y-95606197D01*
X151349276Y-95606198D01*
X151343248Y-95608882D01*
X151337907Y-95612762D01*
X151337906Y-95612763D01*
X151320565Y-95625362D01*
X151188747Y-95721134D01*
X151184326Y-95726044D01*
X151184325Y-95726045D01*
X151067889Y-95855361D01*
X151060960Y-95863056D01*
X151019247Y-95935305D01*
X150969285Y-96021842D01*
X150965473Y-96028444D01*
X150906458Y-96210072D01*
X150905768Y-96216633D01*
X150905768Y-96216635D01*
X150889942Y-96367210D01*
X150886496Y-96400000D01*
X150887186Y-96406565D01*
X150902901Y-96556081D01*
X150906458Y-96589928D01*
X150965473Y-96771556D01*
X151060960Y-96936944D01*
X151065378Y-96941851D01*
X151065379Y-96941852D01*
X151162788Y-97050036D01*
X151188747Y-97078866D01*
X151265538Y-97134658D01*
X151322066Y-97175728D01*
X151343248Y-97191118D01*
X151349276Y-97193802D01*
X151349278Y-97193803D01*
X151509334Y-97265064D01*
X151517712Y-97268794D01*
X151611113Y-97288647D01*
X151698056Y-97307128D01*
X151698061Y-97307128D01*
X151704513Y-97308500D01*
X151895487Y-97308500D01*
X151901939Y-97307128D01*
X151901944Y-97307128D01*
X151988888Y-97288647D01*
X152082288Y-97268794D01*
X152090666Y-97265064D01*
X152250722Y-97193803D01*
X152250724Y-97193802D01*
X152256752Y-97191118D01*
X152277935Y-97175728D01*
X152334462Y-97134658D01*
X152411253Y-97078866D01*
X152437212Y-97050036D01*
X152534621Y-96941852D01*
X152534622Y-96941851D01*
X152539040Y-96936944D01*
X152634527Y-96771556D01*
X152673447Y-96651775D01*
X152691502Y-96596207D01*
X152691502Y-96596205D01*
X152693542Y-96589928D01*
X152697100Y-96556081D01*
X152706755Y-96464214D01*
X152733768Y-96398558D01*
X152742970Y-96388290D01*
X152957105Y-96174155D01*
X152965885Y-96166165D01*
X152965887Y-96166163D01*
X152972580Y-96161916D01*
X153021105Y-96110242D01*
X153023859Y-96107401D01*
X153044427Y-96086833D01*
X153047147Y-96083326D01*
X153054853Y-96074304D01*
X153081044Y-96046413D01*
X153086472Y-96040633D01*
X153093173Y-96028444D01*
X153096803Y-96021842D01*
X153107657Y-96005318D01*
X153115945Y-95994632D01*
X153120804Y-95988368D01*
X153123952Y-95981094D01*
X153139154Y-95945965D01*
X153144376Y-95935305D01*
X153162805Y-95901784D01*
X153162806Y-95901782D01*
X153166624Y-95894837D01*
X153171959Y-95874059D01*
X153178358Y-95855369D01*
X153186880Y-95835676D01*
X153194106Y-95790052D01*
X153196513Y-95778429D01*
X153206028Y-95741368D01*
X153208000Y-95733688D01*
X153208000Y-95712241D01*
X153209551Y-95692531D01*
X153211666Y-95679177D01*
X153212906Y-95671348D01*
X153208559Y-95625359D01*
X153208000Y-95613504D01*
X153208000Y-88636265D01*
X153228002Y-88568144D01*
X153240364Y-88551955D01*
X153284121Y-88503358D01*
X153284122Y-88503357D01*
X153288540Y-88498450D01*
X153384027Y-88333062D01*
X153443042Y-88151434D01*
X153454113Y-88046104D01*
X153462314Y-87968071D01*
X153463004Y-87961506D01*
X153443042Y-87771578D01*
X153384027Y-87589950D01*
X153376712Y-87577279D01*
X153291841Y-87430280D01*
X153288540Y-87424562D01*
X153257356Y-87389928D01*
X153165175Y-87287551D01*
X153165174Y-87287550D01*
X153160753Y-87282640D01*
X153006252Y-87170388D01*
X153000224Y-87167704D01*
X153000222Y-87167703D01*
X152837819Y-87095397D01*
X152837818Y-87095397D01*
X152831788Y-87092712D01*
X152738387Y-87072859D01*
X152651444Y-87054378D01*
X152651439Y-87054378D01*
X152644987Y-87053006D01*
X152454013Y-87053006D01*
X152447556Y-87054378D01*
X152447551Y-87054379D01*
X152427927Y-87058550D01*
X152357137Y-87053147D01*
X152300505Y-87010330D01*
X152281899Y-86974239D01*
X152236569Y-86834729D01*
X152234527Y-86828444D01*
X152216662Y-86797501D01*
X152199923Y-86728506D01*
X152223143Y-86661414D01*
X152278949Y-86617526D01*
X152325780Y-86608500D01*
X158449769Y-86608500D01*
X158452825Y-86608200D01*
X158452832Y-86608200D01*
X158511340Y-86602463D01*
X158596833Y-86594080D01*
X158602734Y-86592298D01*
X158602736Y-86592298D01*
X158700036Y-86562921D01*
X158786169Y-86536916D01*
X158960796Y-86444066D01*
X159075807Y-86350265D01*
X159109287Y-86322960D01*
X159109290Y-86322957D01*
X159114062Y-86319065D01*
X159134444Y-86294428D01*
X159236201Y-86171425D01*
X159236203Y-86171421D01*
X159240130Y-86166675D01*
X159334198Y-85992701D01*
X159392682Y-85803768D01*
X159403337Y-85702394D01*
X159430350Y-85636737D01*
X159488572Y-85596108D01*
X159559517Y-85593405D01*
X159620661Y-85629487D01*
X159652591Y-85692899D01*
X159654645Y-85714845D01*
X159729544Y-98897183D01*
X159737883Y-100364784D01*
X159718268Y-100433017D01*
X159664878Y-100479814D01*
X159611885Y-100491500D01*
X100634500Y-100491500D01*
X100566379Y-100471498D01*
X100519886Y-100417842D01*
X100508500Y-100365500D01*
X100508500Y-99098134D01*
X103716500Y-99098134D01*
X103723255Y-99160316D01*
X103774385Y-99296705D01*
X103861739Y-99413261D01*
X103978295Y-99500615D01*
X104114684Y-99551745D01*
X104176866Y-99558500D01*
X105973134Y-99558500D01*
X106035316Y-99551745D01*
X106171705Y-99500615D01*
X106288261Y-99413261D01*
X106375615Y-99296705D01*
X106397799Y-99237529D01*
X106419598Y-99179382D01*
X106462240Y-99122618D01*
X106528802Y-99097918D01*
X106598150Y-99113126D01*
X106632817Y-99141114D01*
X106661250Y-99173938D01*
X106833126Y-99316632D01*
X107026000Y-99429338D01*
X107234692Y-99509030D01*
X107239760Y-99510061D01*
X107239763Y-99510062D01*
X107334862Y-99529410D01*
X107453597Y-99553567D01*
X107458772Y-99553757D01*
X107458774Y-99553757D01*
X107671673Y-99561564D01*
X107671677Y-99561564D01*
X107676837Y-99561753D01*
X107681957Y-99561097D01*
X107681959Y-99561097D01*
X107893288Y-99534025D01*
X107893289Y-99534025D01*
X107898416Y-99533368D01*
X107903366Y-99531883D01*
X108107429Y-99470661D01*
X108107434Y-99470659D01*
X108112384Y-99469174D01*
X108312994Y-99370896D01*
X108494860Y-99241173D01*
X108653096Y-99083489D01*
X108783453Y-98902077D01*
X108784640Y-98902930D01*
X108831960Y-98859362D01*
X108901897Y-98847145D01*
X108967338Y-98874678D01*
X108995166Y-98906511D01*
X109052694Y-99000388D01*
X109058777Y-99008699D01*
X109198213Y-99169667D01*
X109205580Y-99176883D01*
X109369434Y-99312916D01*
X109377881Y-99318831D01*
X109561756Y-99426279D01*
X109571042Y-99430729D01*
X109770001Y-99506703D01*
X109779899Y-99509579D01*
X109883250Y-99530606D01*
X109897299Y-99529410D01*
X109901000Y-99519065D01*
X109901000Y-99518517D01*
X110409000Y-99518517D01*
X110413064Y-99532359D01*
X110426478Y-99534393D01*
X110433184Y-99533534D01*
X110443262Y-99531392D01*
X110647255Y-99470191D01*
X110656842Y-99466433D01*
X110848095Y-99372739D01*
X110856945Y-99367464D01*
X111030328Y-99243792D01*
X111038200Y-99237139D01*
X111189052Y-99086812D01*
X111195730Y-99078965D01*
X111320003Y-98906020D01*
X111325313Y-98897183D01*
X111419670Y-98706267D01*
X111423469Y-98696672D01*
X111485377Y-98492910D01*
X111487555Y-98482837D01*
X111488986Y-98471962D01*
X111486775Y-98457778D01*
X111473617Y-98454000D01*
X110427115Y-98454000D01*
X110411876Y-98458475D01*
X110410671Y-98459865D01*
X110409000Y-98467548D01*
X110409000Y-99518517D01*
X109901000Y-99518517D01*
X109901000Y-97927885D01*
X110409000Y-97927885D01*
X110413475Y-97943124D01*
X110414865Y-97944329D01*
X110422548Y-97946000D01*
X111473344Y-97946000D01*
X111486875Y-97942027D01*
X111488180Y-97932947D01*
X111446214Y-97765875D01*
X111442894Y-97756124D01*
X111357972Y-97560814D01*
X111353105Y-97551739D01*
X111237426Y-97372926D01*
X111231136Y-97364757D01*
X111087806Y-97207240D01*
X111080273Y-97200215D01*
X110913139Y-97068222D01*
X110904552Y-97062517D01*
X110718117Y-96959599D01*
X110708705Y-96955369D01*
X110507959Y-96884280D01*
X110497988Y-96881646D01*
X110426837Y-96868972D01*
X110413540Y-96870432D01*
X110409000Y-96884989D01*
X110409000Y-97927885D01*
X109901000Y-97927885D01*
X109901000Y-96883102D01*
X109897082Y-96869758D01*
X109882806Y-96867771D01*
X109844324Y-96873660D01*
X109834288Y-96876051D01*
X109631868Y-96942212D01*
X109622359Y-96946209D01*
X109433463Y-97044542D01*
X109424738Y-97050036D01*
X109254433Y-97177905D01*
X109246726Y-97184748D01*
X109099590Y-97338717D01*
X109093109Y-97346722D01*
X108988498Y-97500074D01*
X108933587Y-97545076D01*
X108863062Y-97553247D01*
X108799315Y-97521993D01*
X108778618Y-97497509D01*
X108697822Y-97372617D01*
X108697820Y-97372614D01*
X108695014Y-97368277D01*
X108544670Y-97203051D01*
X108531406Y-97192575D01*
X108490345Y-97134658D01*
X108483500Y-97093695D01*
X108483500Y-96248134D01*
X121091500Y-96248134D01*
X121098255Y-96310316D01*
X121149385Y-96446705D01*
X121236739Y-96563261D01*
X121353295Y-96650615D01*
X121489684Y-96701745D01*
X121551866Y-96708500D01*
X124248134Y-96708500D01*
X124310316Y-96701745D01*
X124446705Y-96650615D01*
X124563261Y-96563261D01*
X124650615Y-96446705D01*
X124701745Y-96310316D01*
X124708500Y-96248134D01*
X124708500Y-94852526D01*
X126087050Y-94852526D01*
X126099947Y-95121019D01*
X126152388Y-95384656D01*
X126243220Y-95637646D01*
X126245432Y-95641762D01*
X126245433Y-95641765D01*
X126298952Y-95741368D01*
X126370450Y-95874431D01*
X126373241Y-95878168D01*
X126373245Y-95878175D01*
X126419799Y-95940518D01*
X126531281Y-96089810D01*
X126534590Y-96093090D01*
X126534595Y-96093096D01*
X126718863Y-96275762D01*
X126722180Y-96279050D01*
X126725942Y-96281808D01*
X126725945Y-96281811D01*
X126887135Y-96400000D01*
X126938954Y-96437995D01*
X126943089Y-96440171D01*
X126943093Y-96440173D01*
X127172698Y-96560975D01*
X127176840Y-96563154D01*
X127430613Y-96651775D01*
X127435206Y-96652647D01*
X127690109Y-96701042D01*
X127690112Y-96701042D01*
X127694698Y-96701913D01*
X127822370Y-96706929D01*
X127958625Y-96712283D01*
X127958630Y-96712283D01*
X127963293Y-96712466D01*
X128067607Y-96701042D01*
X128225844Y-96683713D01*
X128225850Y-96683712D01*
X128230497Y-96683203D01*
X128342302Y-96653767D01*
X128485918Y-96615956D01*
X128485920Y-96615955D01*
X128490441Y-96614765D01*
X128533636Y-96596207D01*
X128733120Y-96510502D01*
X128733122Y-96510501D01*
X128737414Y-96508657D01*
X128913002Y-96400000D01*
X128962017Y-96369669D01*
X128962021Y-96369666D01*
X128965990Y-96367210D01*
X129171149Y-96193530D01*
X129348382Y-95991434D01*
X129381133Y-95940518D01*
X129491269Y-95769291D01*
X129493797Y-95765361D01*
X129604199Y-95520278D01*
X129641209Y-95389051D01*
X129675893Y-95266072D01*
X129675894Y-95266069D01*
X129677163Y-95261568D01*
X129695043Y-95121019D01*
X129710688Y-94998045D01*
X129710688Y-94998041D01*
X129711086Y-94994915D01*
X129713571Y-94900000D01*
X129693650Y-94631937D01*
X129685565Y-94596206D01*
X129635361Y-94374331D01*
X129635360Y-94374326D01*
X129634327Y-94369763D01*
X129536902Y-94119238D01*
X129403518Y-93885864D01*
X129390046Y-93868774D01*
X129337416Y-93802014D01*
X129237105Y-93674769D01*
X129041317Y-93490591D01*
X128843407Y-93353295D01*
X128824299Y-93340039D01*
X128824296Y-93340037D01*
X128820457Y-93337374D01*
X128816264Y-93335306D01*
X128583564Y-93220551D01*
X128583561Y-93220550D01*
X128579376Y-93218486D01*
X128531745Y-93203239D01*
X128353657Y-93146233D01*
X128323370Y-93136538D01*
X128318763Y-93135788D01*
X128318760Y-93135787D01*
X128105337Y-93101029D01*
X128058063Y-93093330D01*
X127927719Y-93091624D01*
X127793961Y-93089873D01*
X127793958Y-93089873D01*
X127789284Y-93089812D01*
X127522937Y-93126060D01*
X127264874Y-93201278D01*
X127020763Y-93313815D01*
X127016854Y-93316378D01*
X126799881Y-93458631D01*
X126799876Y-93458635D01*
X126795968Y-93461197D01*
X126698188Y-93548469D01*
X126633510Y-93606197D01*
X126595426Y-93640188D01*
X126423544Y-93846854D01*
X126284096Y-94076656D01*
X126180148Y-94324545D01*
X126113981Y-94585077D01*
X126087050Y-94852526D01*
X124708500Y-94852526D01*
X124708500Y-93551866D01*
X124701745Y-93489684D01*
X124650615Y-93353295D01*
X124563261Y-93236739D01*
X124446705Y-93149385D01*
X124310316Y-93098255D01*
X124248134Y-93091500D01*
X121551866Y-93091500D01*
X121489684Y-93098255D01*
X121353295Y-93149385D01*
X121236739Y-93236739D01*
X121149385Y-93353295D01*
X121098255Y-93489684D01*
X121091500Y-93551866D01*
X121091500Y-96248134D01*
X108483500Y-96248134D01*
X108483500Y-94640790D01*
X108489667Y-94601854D01*
X108491502Y-94596206D01*
X108493542Y-94589928D01*
X108513504Y-94400000D01*
X108506050Y-94329077D01*
X108494232Y-94216635D01*
X108494232Y-94216633D01*
X108493542Y-94210072D01*
X108434527Y-94028444D01*
X108339040Y-93863056D01*
X108211253Y-93721134D01*
X108056752Y-93608882D01*
X108050724Y-93606198D01*
X108050722Y-93606197D01*
X107888319Y-93533891D01*
X107888318Y-93533891D01*
X107882288Y-93531206D01*
X107788887Y-93511353D01*
X107701944Y-93492872D01*
X107701939Y-93492872D01*
X107695487Y-93491500D01*
X107504513Y-93491500D01*
X107498061Y-93492872D01*
X107498056Y-93492872D01*
X107411113Y-93511353D01*
X107317712Y-93531206D01*
X107311682Y-93533891D01*
X107311681Y-93533891D01*
X107149278Y-93606197D01*
X107149276Y-93606198D01*
X107143248Y-93608882D01*
X106988747Y-93721134D01*
X106860960Y-93863056D01*
X106765473Y-94028444D01*
X106706458Y-94210072D01*
X106705768Y-94216633D01*
X106705768Y-94216635D01*
X106693950Y-94329077D01*
X106686496Y-94400000D01*
X106706458Y-94589928D01*
X106708498Y-94596206D01*
X106710333Y-94601854D01*
X106716500Y-94640790D01*
X106716500Y-97123272D01*
X106696498Y-97191393D01*
X106681594Y-97210323D01*
X106629283Y-97265064D01*
X106567759Y-97300494D01*
X106496847Y-97297038D01*
X106439060Y-97255792D01*
X106420207Y-97222243D01*
X106378767Y-97111703D01*
X106375615Y-97103295D01*
X106288261Y-96986739D01*
X106171705Y-96899385D01*
X106035316Y-96848255D01*
X105973134Y-96841500D01*
X104176866Y-96841500D01*
X104114684Y-96848255D01*
X103978295Y-96899385D01*
X103861739Y-96986739D01*
X103774385Y-97103295D01*
X103723255Y-97239684D01*
X103716500Y-97301866D01*
X103716500Y-99098134D01*
X100508500Y-99098134D01*
X100508500Y-92532670D01*
X101582160Y-92532670D01*
X101587887Y-92540320D01*
X101759042Y-92645205D01*
X101767837Y-92649687D01*
X101977988Y-92736734D01*
X101987373Y-92739783D01*
X102208554Y-92792885D01*
X102218301Y-92794428D01*
X102445070Y-92812275D01*
X102454930Y-92812275D01*
X102681699Y-92794428D01*
X102691446Y-92792885D01*
X102912627Y-92739783D01*
X102922012Y-92736734D01*
X103132163Y-92649687D01*
X103140958Y-92645205D01*
X103308445Y-92542568D01*
X103317907Y-92532110D01*
X103314124Y-92523334D01*
X102462812Y-91672022D01*
X102448868Y-91664408D01*
X102447035Y-91664539D01*
X102440420Y-91668790D01*
X101588920Y-92520290D01*
X101582160Y-92532670D01*
X100508500Y-92532670D01*
X100508500Y-91304930D01*
X100937725Y-91304930D01*
X100955572Y-91531699D01*
X100957115Y-91541446D01*
X101010217Y-91762627D01*
X101013266Y-91772012D01*
X101100311Y-91982158D01*
X101104795Y-91990958D01*
X101207432Y-92158445D01*
X101217890Y-92167907D01*
X101226666Y-92164124D01*
X102077978Y-91312812D01*
X102084356Y-91301132D01*
X102814408Y-91301132D01*
X102814539Y-91302965D01*
X102818790Y-91309580D01*
X103670290Y-92161080D01*
X103682670Y-92167840D01*
X103690320Y-92162113D01*
X103795205Y-91990958D01*
X103799689Y-91982158D01*
X103886734Y-91772012D01*
X103889783Y-91762627D01*
X103942885Y-91541446D01*
X103944428Y-91531699D01*
X103962275Y-91304930D01*
X103962275Y-91300000D01*
X105436835Y-91300000D01*
X105455465Y-91536711D01*
X105510895Y-91767594D01*
X105512788Y-91772165D01*
X105512789Y-91772167D01*
X105599770Y-91982158D01*
X105601760Y-91986963D01*
X105604346Y-91991183D01*
X105723241Y-92185202D01*
X105723245Y-92185208D01*
X105725824Y-92189416D01*
X105880031Y-92369969D01*
X106060584Y-92524176D01*
X106064792Y-92526755D01*
X106064798Y-92526759D01*
X106183806Y-92599687D01*
X106263037Y-92648240D01*
X106267607Y-92650133D01*
X106267611Y-92650135D01*
X106477833Y-92737211D01*
X106482406Y-92739105D01*
X106562609Y-92758360D01*
X106708476Y-92793380D01*
X106708482Y-92793381D01*
X106713289Y-92794535D01*
X106950000Y-92813165D01*
X107186711Y-92794535D01*
X107191518Y-92793381D01*
X107191524Y-92793380D01*
X107337391Y-92758360D01*
X107417594Y-92739105D01*
X107422167Y-92737211D01*
X107632389Y-92650135D01*
X107632393Y-92650133D01*
X107636963Y-92648240D01*
X107716194Y-92599687D01*
X107835202Y-92526759D01*
X107835208Y-92526755D01*
X107839416Y-92524176D01*
X107888013Y-92482670D01*
X110632160Y-92482670D01*
X110637887Y-92490320D01*
X110809042Y-92595205D01*
X110817837Y-92599687D01*
X111027988Y-92686734D01*
X111037373Y-92689783D01*
X111258554Y-92742885D01*
X111268301Y-92744428D01*
X111495070Y-92762275D01*
X111504930Y-92762275D01*
X111731699Y-92744428D01*
X111741446Y-92742885D01*
X111962627Y-92689783D01*
X111972012Y-92686734D01*
X112182163Y-92599687D01*
X112190958Y-92595205D01*
X112358445Y-92492568D01*
X112367907Y-92482110D01*
X112364124Y-92473334D01*
X111512812Y-91622022D01*
X111498868Y-91614408D01*
X111497035Y-91614539D01*
X111490420Y-91618790D01*
X110638920Y-92470290D01*
X110632160Y-92482670D01*
X107888013Y-92482670D01*
X108019969Y-92369969D01*
X108174176Y-92189416D01*
X108176755Y-92185208D01*
X108176759Y-92185202D01*
X108295654Y-91991183D01*
X108298240Y-91986963D01*
X108300231Y-91982158D01*
X108387211Y-91772167D01*
X108387212Y-91772165D01*
X108389105Y-91767594D01*
X108444535Y-91536711D01*
X108463165Y-91300000D01*
X108459618Y-91254930D01*
X109987725Y-91254930D01*
X110005572Y-91481699D01*
X110007115Y-91491446D01*
X110060217Y-91712627D01*
X110063266Y-91722012D01*
X110150313Y-91932163D01*
X110154795Y-91940958D01*
X110257432Y-92108445D01*
X110267890Y-92117907D01*
X110276666Y-92114124D01*
X111127978Y-91262812D01*
X111134356Y-91251132D01*
X111864408Y-91251132D01*
X111864539Y-91252965D01*
X111868790Y-91259580D01*
X112720290Y-92111080D01*
X112732670Y-92117840D01*
X112740320Y-92112113D01*
X112845205Y-91940958D01*
X112849687Y-91932163D01*
X112936734Y-91722012D01*
X112939783Y-91712627D01*
X112992885Y-91491446D01*
X112994428Y-91481699D01*
X113012275Y-91254930D01*
X113012275Y-91250000D01*
X114486835Y-91250000D01*
X114505465Y-91486711D01*
X114506619Y-91491518D01*
X114506620Y-91491524D01*
X114518624Y-91541524D01*
X114560895Y-91717594D01*
X114562788Y-91722165D01*
X114562789Y-91722167D01*
X114649772Y-91932163D01*
X114651760Y-91936963D01*
X114654346Y-91941183D01*
X114773241Y-92135202D01*
X114773245Y-92135208D01*
X114775824Y-92139416D01*
X114930031Y-92319969D01*
X115110584Y-92474176D01*
X115114792Y-92476755D01*
X115114798Y-92476759D01*
X115222189Y-92542568D01*
X115313037Y-92598240D01*
X115317607Y-92600133D01*
X115317611Y-92600135D01*
X115527833Y-92687211D01*
X115532406Y-92689105D01*
X115612609Y-92708360D01*
X115758476Y-92743380D01*
X115758482Y-92743381D01*
X115763289Y-92744535D01*
X116000000Y-92763165D01*
X116236711Y-92744535D01*
X116241518Y-92743381D01*
X116241524Y-92743380D01*
X116387391Y-92708360D01*
X116467594Y-92689105D01*
X116472167Y-92687211D01*
X116682389Y-92600135D01*
X116682393Y-92600133D01*
X116686963Y-92598240D01*
X116777811Y-92542568D01*
X116885202Y-92476759D01*
X116885208Y-92476755D01*
X116889416Y-92474176D01*
X117069969Y-92319969D01*
X117224176Y-92139416D01*
X117226755Y-92135208D01*
X117226759Y-92135202D01*
X117345654Y-91941183D01*
X117348240Y-91936963D01*
X117350229Y-91932163D01*
X117437211Y-91722167D01*
X117437212Y-91722165D01*
X117439105Y-91717594D01*
X117481376Y-91541524D01*
X117493380Y-91491524D01*
X117493381Y-91491518D01*
X117494535Y-91486711D01*
X117513165Y-91250000D01*
X117494535Y-91013289D01*
X117489769Y-90993435D01*
X117450011Y-90827833D01*
X117439105Y-90782406D01*
X117377936Y-90634729D01*
X117350135Y-90567611D01*
X117350133Y-90567607D01*
X117348240Y-90563037D01*
X117345654Y-90558817D01*
X117226759Y-90364798D01*
X117226755Y-90364792D01*
X117224176Y-90360584D01*
X117069969Y-90180031D01*
X116889416Y-90025824D01*
X116885208Y-90023245D01*
X116885202Y-90023241D01*
X116691183Y-89904346D01*
X116686963Y-89901760D01*
X116682393Y-89899867D01*
X116682389Y-89899865D01*
X116472167Y-89812789D01*
X116472165Y-89812788D01*
X116467594Y-89810895D01*
X116367377Y-89786835D01*
X116241524Y-89756620D01*
X116241518Y-89756619D01*
X116236711Y-89755465D01*
X116000000Y-89736835D01*
X115763289Y-89755465D01*
X115758482Y-89756619D01*
X115758476Y-89756620D01*
X115632623Y-89786835D01*
X115532406Y-89810895D01*
X115527835Y-89812788D01*
X115527833Y-89812789D01*
X115317611Y-89899865D01*
X115317607Y-89899867D01*
X115313037Y-89901760D01*
X115308817Y-89904346D01*
X115114798Y-90023241D01*
X115114792Y-90023245D01*
X115110584Y-90025824D01*
X114930031Y-90180031D01*
X114775824Y-90360584D01*
X114773245Y-90364792D01*
X114773241Y-90364798D01*
X114654346Y-90558817D01*
X114651760Y-90563037D01*
X114649867Y-90567607D01*
X114649865Y-90567611D01*
X114622064Y-90634729D01*
X114560895Y-90782406D01*
X114549989Y-90827833D01*
X114510232Y-90993435D01*
X114505465Y-91013289D01*
X114486835Y-91250000D01*
X113012275Y-91250000D01*
X113012275Y-91245070D01*
X112994428Y-91018301D01*
X112992885Y-91008554D01*
X112939783Y-90787373D01*
X112936734Y-90777988D01*
X112849687Y-90567837D01*
X112845205Y-90559042D01*
X112742568Y-90391555D01*
X112732110Y-90382093D01*
X112723334Y-90385876D01*
X111872022Y-91237188D01*
X111864408Y-91251132D01*
X111134356Y-91251132D01*
X111135592Y-91248868D01*
X111135461Y-91247035D01*
X111131210Y-91240420D01*
X110279710Y-90388920D01*
X110267330Y-90382160D01*
X110259680Y-90387887D01*
X110154795Y-90559042D01*
X110150313Y-90567837D01*
X110063266Y-90777988D01*
X110060217Y-90787373D01*
X110007115Y-91008554D01*
X110005572Y-91018301D01*
X109987725Y-91245070D01*
X109987725Y-91254930D01*
X108459618Y-91254930D01*
X108444535Y-91063289D01*
X108433735Y-91018301D01*
X108390260Y-90837218D01*
X108389105Y-90832406D01*
X108387211Y-90827833D01*
X108300135Y-90617611D01*
X108300133Y-90617607D01*
X108298240Y-90613037D01*
X108265014Y-90558817D01*
X108176759Y-90414798D01*
X108176755Y-90414792D01*
X108174176Y-90410584D01*
X108019969Y-90230031D01*
X107839416Y-90075824D01*
X107835208Y-90073245D01*
X107835202Y-90073241D01*
X107744877Y-90017890D01*
X110632093Y-90017890D01*
X110635876Y-90026666D01*
X111487188Y-90877978D01*
X111501132Y-90885592D01*
X111502965Y-90885461D01*
X111509580Y-90881210D01*
X112361080Y-90029710D01*
X112367840Y-90017330D01*
X112362113Y-90009680D01*
X112190958Y-89904795D01*
X112182163Y-89900313D01*
X111972012Y-89813266D01*
X111962627Y-89810217D01*
X111741446Y-89757115D01*
X111731699Y-89755572D01*
X111504930Y-89737725D01*
X111495070Y-89737725D01*
X111268301Y-89755572D01*
X111258554Y-89757115D01*
X111037373Y-89810217D01*
X111027988Y-89813266D01*
X110817837Y-89900313D01*
X110809042Y-89904795D01*
X110641555Y-90007432D01*
X110632093Y-90017890D01*
X107744877Y-90017890D01*
X107641183Y-89954346D01*
X107636963Y-89951760D01*
X107632393Y-89949867D01*
X107632389Y-89949865D01*
X107422167Y-89862789D01*
X107422165Y-89862788D01*
X107417594Y-89860895D01*
X107337391Y-89841640D01*
X107191524Y-89806620D01*
X107191518Y-89806619D01*
X107186711Y-89805465D01*
X106950000Y-89786835D01*
X106713289Y-89805465D01*
X106708482Y-89806619D01*
X106708476Y-89806620D01*
X106562609Y-89841640D01*
X106482406Y-89860895D01*
X106477835Y-89862788D01*
X106477833Y-89862789D01*
X106267611Y-89949865D01*
X106267607Y-89949867D01*
X106263037Y-89951760D01*
X106258817Y-89954346D01*
X106064798Y-90073241D01*
X106064792Y-90073245D01*
X106060584Y-90075824D01*
X105880031Y-90230031D01*
X105725824Y-90410584D01*
X105723245Y-90414792D01*
X105723241Y-90414798D01*
X105634986Y-90558817D01*
X105601760Y-90613037D01*
X105599867Y-90617607D01*
X105599865Y-90617611D01*
X105512789Y-90827833D01*
X105510895Y-90832406D01*
X105509740Y-90837218D01*
X105466266Y-91018301D01*
X105455465Y-91063289D01*
X105436835Y-91300000D01*
X103962275Y-91300000D01*
X103962275Y-91295070D01*
X103944428Y-91068301D01*
X103942885Y-91058554D01*
X103889783Y-90837373D01*
X103886734Y-90827988D01*
X103799687Y-90617837D01*
X103795205Y-90609042D01*
X103692568Y-90441555D01*
X103682110Y-90432093D01*
X103673334Y-90435876D01*
X102822022Y-91287188D01*
X102814408Y-91301132D01*
X102084356Y-91301132D01*
X102085592Y-91298868D01*
X102085461Y-91297035D01*
X102081210Y-91290420D01*
X101229710Y-90438920D01*
X101217330Y-90432160D01*
X101209680Y-90437887D01*
X101104795Y-90609042D01*
X101100313Y-90617837D01*
X101013266Y-90827988D01*
X101010217Y-90837373D01*
X100957115Y-91058554D01*
X100955572Y-91068301D01*
X100937725Y-91295070D01*
X100937725Y-91304930D01*
X100508500Y-91304930D01*
X100508500Y-90067890D01*
X101582093Y-90067890D01*
X101585876Y-90076666D01*
X102437188Y-90927978D01*
X102451132Y-90935592D01*
X102452965Y-90935461D01*
X102459580Y-90931210D01*
X103311080Y-90079710D01*
X103317840Y-90067330D01*
X103312113Y-90059680D01*
X103140958Y-89954795D01*
X103132163Y-89950313D01*
X102922012Y-89863266D01*
X102912627Y-89860217D01*
X102691446Y-89807115D01*
X102681699Y-89805572D01*
X102454930Y-89787725D01*
X102445070Y-89787725D01*
X102218301Y-89805572D01*
X102208554Y-89807115D01*
X101987373Y-89860217D01*
X101977988Y-89863266D01*
X101767837Y-89950313D01*
X101759042Y-89954795D01*
X101591555Y-90057432D01*
X101582093Y-90067890D01*
X100508500Y-90067890D01*
X100508500Y-86032670D01*
X101582160Y-86032670D01*
X101587887Y-86040320D01*
X101759042Y-86145205D01*
X101767837Y-86149687D01*
X101977988Y-86236734D01*
X101987373Y-86239783D01*
X102208554Y-86292885D01*
X102218301Y-86294428D01*
X102445070Y-86312275D01*
X102454930Y-86312275D01*
X102681699Y-86294428D01*
X102691446Y-86292885D01*
X102912627Y-86239783D01*
X102922012Y-86236734D01*
X103132163Y-86149687D01*
X103140958Y-86145205D01*
X103308445Y-86042568D01*
X103317907Y-86032110D01*
X103314124Y-86023334D01*
X102462812Y-85172022D01*
X102448868Y-85164408D01*
X102447035Y-85164539D01*
X102440420Y-85168790D01*
X101588920Y-86020290D01*
X101582160Y-86032670D01*
X100508500Y-86032670D01*
X100508500Y-84804930D01*
X100937725Y-84804930D01*
X100955572Y-85031699D01*
X100957115Y-85041446D01*
X101010217Y-85262627D01*
X101013266Y-85272012D01*
X101100313Y-85482163D01*
X101104795Y-85490958D01*
X101207432Y-85658445D01*
X101217890Y-85667907D01*
X101226666Y-85664124D01*
X102077978Y-84812812D01*
X102084356Y-84801132D01*
X102814408Y-84801132D01*
X102814539Y-84802965D01*
X102818790Y-84809580D01*
X103670290Y-85661080D01*
X103682670Y-85667840D01*
X103690320Y-85662113D01*
X103795205Y-85490958D01*
X103799687Y-85482163D01*
X103886734Y-85272012D01*
X103889783Y-85262627D01*
X103942885Y-85041446D01*
X103944428Y-85031699D01*
X103962275Y-84804930D01*
X103962275Y-84795070D01*
X103944428Y-84568301D01*
X103942885Y-84558554D01*
X103889783Y-84337373D01*
X103886734Y-84327988D01*
X103799687Y-84117837D01*
X103795205Y-84109042D01*
X103692568Y-83941555D01*
X103682110Y-83932093D01*
X103673334Y-83935876D01*
X102822022Y-84787188D01*
X102814408Y-84801132D01*
X102084356Y-84801132D01*
X102085592Y-84798868D01*
X102085461Y-84797035D01*
X102081210Y-84790420D01*
X101229710Y-83938920D01*
X101217330Y-83932160D01*
X101209680Y-83937887D01*
X101104795Y-84109042D01*
X101100313Y-84117837D01*
X101013266Y-84327988D01*
X101010217Y-84337373D01*
X100957115Y-84558554D01*
X100955572Y-84568301D01*
X100937725Y-84795070D01*
X100937725Y-84804930D01*
X100508500Y-84804930D01*
X100508500Y-83567890D01*
X101582093Y-83567890D01*
X101585876Y-83576666D01*
X102437188Y-84427978D01*
X102451132Y-84435592D01*
X102452965Y-84435461D01*
X102459580Y-84431210D01*
X103311080Y-83579710D01*
X103317840Y-83567330D01*
X103312113Y-83559680D01*
X103140958Y-83454795D01*
X103132163Y-83450313D01*
X102922012Y-83363266D01*
X102912627Y-83360217D01*
X102691446Y-83307115D01*
X102681699Y-83305572D01*
X102454930Y-83287725D01*
X102445070Y-83287725D01*
X102218301Y-83305572D01*
X102208554Y-83307115D01*
X101987373Y-83360217D01*
X101977988Y-83363266D01*
X101767837Y-83450313D01*
X101759042Y-83454795D01*
X101591555Y-83557432D01*
X101582093Y-83567890D01*
X100508500Y-83567890D01*
X100508500Y-69800000D01*
X102686496Y-69800000D01*
X102687186Y-69806565D01*
X102705287Y-69978783D01*
X102706458Y-69989928D01*
X102765473Y-70171556D01*
X102768776Y-70177278D01*
X102768777Y-70177279D01*
X102785200Y-70205724D01*
X102860960Y-70336944D01*
X102865378Y-70341851D01*
X102865379Y-70341852D01*
X102975568Y-70464229D01*
X102988747Y-70478866D01*
X102994089Y-70482747D01*
X102994091Y-70482749D01*
X103129423Y-70581073D01*
X103144457Y-70593914D01*
X103479595Y-70929052D01*
X103513621Y-70991364D01*
X103516500Y-71018147D01*
X103516500Y-78159210D01*
X103510333Y-78198146D01*
X103506458Y-78210072D01*
X103505768Y-78216633D01*
X103505768Y-78216635D01*
X103504622Y-78227541D01*
X103486496Y-78400000D01*
X103487186Y-78406565D01*
X103501569Y-78543407D01*
X103506458Y-78589928D01*
X103565473Y-78771556D01*
X103660960Y-78936944D01*
X103665378Y-78941851D01*
X103665379Y-78941852D01*
X103709153Y-78990468D01*
X103788747Y-79078866D01*
X103834922Y-79112414D01*
X103927032Y-79179336D01*
X103943248Y-79191118D01*
X103949276Y-79193802D01*
X103949278Y-79193803D01*
X104048695Y-79238066D01*
X104117712Y-79268794D01*
X104211112Y-79288647D01*
X104298056Y-79307128D01*
X104298061Y-79307128D01*
X104304513Y-79308500D01*
X104495487Y-79308500D01*
X104501939Y-79307128D01*
X104501944Y-79307128D01*
X104588888Y-79288647D01*
X104682288Y-79268794D01*
X104751305Y-79238066D01*
X104850722Y-79193803D01*
X104850724Y-79193802D01*
X104856752Y-79191118D01*
X104872969Y-79179336D01*
X104965078Y-79112414D01*
X105011253Y-79078866D01*
X105090847Y-78990468D01*
X105134621Y-78941852D01*
X105134622Y-78941851D01*
X105139040Y-78936944D01*
X105234527Y-78771556D01*
X105293542Y-78589928D01*
X105298432Y-78543407D01*
X105312814Y-78406565D01*
X105313504Y-78400000D01*
X105295378Y-78227541D01*
X105294232Y-78216635D01*
X105294232Y-78216633D01*
X105293542Y-78210072D01*
X105289667Y-78198146D01*
X105283500Y-78159210D01*
X105283500Y-70679457D01*
X105285051Y-70659745D01*
X105286118Y-70653008D01*
X105287150Y-70646493D01*
X105285910Y-70622823D01*
X105283673Y-70580150D01*
X105283500Y-70573555D01*
X105283500Y-70553694D01*
X105281423Y-70533931D01*
X105280907Y-70527367D01*
X105280746Y-70524284D01*
X105280079Y-70511573D01*
X105277776Y-70467623D01*
X105277775Y-70467619D01*
X105277430Y-70461029D01*
X105273958Y-70448071D01*
X105270355Y-70428628D01*
X105269644Y-70421866D01*
X105268954Y-70415298D01*
X105248422Y-70352105D01*
X105246556Y-70345804D01*
X105231071Y-70288015D01*
X105229362Y-70281637D01*
X105226366Y-70275758D01*
X105226363Y-70275749D01*
X105223272Y-70269683D01*
X105215708Y-70251421D01*
X105213608Y-70244957D01*
X105213605Y-70244949D01*
X105211564Y-70238669D01*
X105208262Y-70232950D01*
X105208260Y-70232945D01*
X105178346Y-70181133D01*
X105175213Y-70175363D01*
X105145047Y-70116161D01*
X105136610Y-70105742D01*
X105125410Y-70089446D01*
X105122004Y-70083546D01*
X105122002Y-70083543D01*
X105118704Y-70077831D01*
X105114288Y-70072926D01*
X105114284Y-70072921D01*
X105074246Y-70028453D01*
X105069966Y-70023443D01*
X105059546Y-70010576D01*
X105059545Y-70010575D01*
X105057472Y-70008015D01*
X105043436Y-69993979D01*
X105038895Y-69989194D01*
X104998854Y-69944724D01*
X104994434Y-69939815D01*
X104983575Y-69931925D01*
X104968544Y-69919086D01*
X104387007Y-69337549D01*
X104366983Y-69311455D01*
X104339040Y-69263056D01*
X104315739Y-69237177D01*
X104215675Y-69126045D01*
X104215674Y-69126044D01*
X104211253Y-69121134D01*
X104076686Y-69023365D01*
X104062094Y-69012763D01*
X104062093Y-69012762D01*
X104056752Y-69008882D01*
X104050724Y-69006198D01*
X104050722Y-69006197D01*
X103888319Y-68933891D01*
X103888318Y-68933891D01*
X103882288Y-68931206D01*
X103787152Y-68910984D01*
X103701944Y-68892872D01*
X103701939Y-68892872D01*
X103695487Y-68891500D01*
X103504513Y-68891500D01*
X103498061Y-68892872D01*
X103498056Y-68892872D01*
X103412848Y-68910984D01*
X103317712Y-68931206D01*
X103311682Y-68933891D01*
X103311681Y-68933891D01*
X103149278Y-69006197D01*
X103149276Y-69006198D01*
X103143248Y-69008882D01*
X103137907Y-69012762D01*
X103137906Y-69012763D01*
X103123314Y-69023365D01*
X102988747Y-69121134D01*
X102984326Y-69126044D01*
X102984325Y-69126045D01*
X102884262Y-69237177D01*
X102860960Y-69263056D01*
X102827683Y-69320694D01*
X102778125Y-69406531D01*
X102765473Y-69428444D01*
X102706458Y-69610072D01*
X102705768Y-69616633D01*
X102705768Y-69616635D01*
X102689539Y-69771044D01*
X102686496Y-69800000D01*
X100508500Y-69800000D01*
X100508500Y-57634500D01*
X100528502Y-57566379D01*
X100582158Y-57519886D01*
X100634500Y-57508500D01*
X122225133Y-57508500D01*
X122293254Y-57528502D01*
G37*
%TD.AperFunction*%
%TA.AperFunction,Conductor*%
G36*
X127951585Y-65393371D02*
G01*
X128001188Y-65427116D01*
X128114572Y-65553041D01*
X128119918Y-65556925D01*
X128119919Y-65556926D01*
X128164112Y-65589035D01*
X128207465Y-65645257D01*
X128213540Y-65715994D01*
X128179145Y-65780066D01*
X127772021Y-66187189D01*
X127764408Y-66201132D01*
X127764539Y-66202966D01*
X127768790Y-66209580D01*
X128179145Y-66619934D01*
X128213170Y-66682247D01*
X128208106Y-66753062D01*
X128164112Y-66810965D01*
X128119919Y-66843074D01*
X128114572Y-66846959D01*
X128001189Y-66972884D01*
X127940743Y-67010123D01*
X127869759Y-67008771D01*
X127818458Y-66977668D01*
X127412812Y-66572022D01*
X127398868Y-66564408D01*
X127397035Y-66564539D01*
X127390420Y-66568790D01*
X126981542Y-66977668D01*
X126919230Y-67011694D01*
X126848415Y-67006629D01*
X126798811Y-66972884D01*
X126685428Y-66846959D01*
X126680081Y-66843074D01*
X126635888Y-66810965D01*
X126592535Y-66754743D01*
X126586460Y-66684006D01*
X126620855Y-66619934D01*
X127027979Y-66212811D01*
X127035592Y-66198868D01*
X127035461Y-66197034D01*
X127031210Y-66190420D01*
X126620855Y-65780066D01*
X126586830Y-65717753D01*
X126591894Y-65646938D01*
X126635888Y-65589035D01*
X126680081Y-65556926D01*
X126680082Y-65556925D01*
X126685428Y-65553041D01*
X126798812Y-65427116D01*
X126859257Y-65389877D01*
X126930241Y-65391229D01*
X126981542Y-65422332D01*
X127387188Y-65827978D01*
X127401132Y-65835592D01*
X127402965Y-65835461D01*
X127409580Y-65831210D01*
X127818458Y-65422332D01*
X127880770Y-65388306D01*
X127951585Y-65393371D01*
G37*
%TD.AperFunction*%
%TA.AperFunction,Conductor*%
G36*
X133267012Y-79198726D02*
G01*
X133273595Y-79204855D01*
X137370145Y-83301405D01*
X137404171Y-83363717D01*
X137399106Y-83434532D01*
X137356559Y-83491368D01*
X137290039Y-83516179D01*
X137281050Y-83516500D01*
X133438814Y-83516500D01*
X133370693Y-83496498D01*
X133324200Y-83442842D01*
X133314850Y-83399859D01*
X133313504Y-83400000D01*
X133294232Y-83216635D01*
X133294232Y-83216633D01*
X133293542Y-83210072D01*
X133234527Y-83028444D01*
X133139040Y-82863056D01*
X133090864Y-82809551D01*
X133060146Y-82745544D01*
X133058500Y-82725241D01*
X133058500Y-79293950D01*
X133078502Y-79225829D01*
X133132158Y-79179336D01*
X133202432Y-79169232D01*
X133267012Y-79198726D01*
G37*
%TD.AperFunction*%
%TA.AperFunction,Conductor*%
G36*
X140259261Y-65798502D02*
G01*
X140305754Y-65852158D01*
X140315858Y-65922432D01*
X140305428Y-65957550D01*
X140290688Y-65989305D01*
X140230989Y-66204570D01*
X140207251Y-66426695D01*
X140207548Y-66431848D01*
X140207548Y-66431851D01*
X140213011Y-66526590D01*
X140220110Y-66649715D01*
X140221247Y-66654761D01*
X140221248Y-66654767D01*
X140227838Y-66684006D01*
X140269222Y-66867639D01*
X140273781Y-66878866D01*
X140310013Y-66968096D01*
X140317109Y-67038737D01*
X140284887Y-67102001D01*
X140223577Y-67137801D01*
X140193270Y-67141500D01*
X134727594Y-67141500D01*
X134659473Y-67121498D01*
X134612980Y-67067842D01*
X134602876Y-66997568D01*
X134632370Y-66932988D01*
X134638499Y-66926405D01*
X135749499Y-65815405D01*
X135811811Y-65781379D01*
X135838594Y-65778500D01*
X140191140Y-65778500D01*
X140259261Y-65798502D01*
G37*
%TD.AperFunction*%
%TD*%
D21*
X110600000Y-65400000D03*
X110600000Y-64200000D03*
X147600000Y-82400000D03*
X143600000Y-82000000D03*
X108400000Y-78000000D03*
X115400000Y-77800000D03*
X112000000Y-77800000D03*
X125400000Y-99000000D03*
X125200000Y-92000000D03*
X122400000Y-60600000D03*
X134200000Y-69400000D03*
X101000000Y-58200000D03*
X115400000Y-58400000D03*
X111800000Y-58400000D03*
X104600000Y-58400000D03*
X108200000Y-58600000D03*
X101600000Y-66600000D03*
X101600000Y-70400000D03*
X139400000Y-81200000D03*
X142200000Y-87400000D03*
X138000000Y-95000000D03*
X138000000Y-92200000D03*
X158800000Y-59000000D03*
X143000000Y-72600000D03*
X148800000Y-71800000D03*
X149200000Y-65000000D03*
X146200000Y-58600000D03*
X141200000Y-58800000D03*
X134200000Y-99000000D03*
X132400000Y-96000000D03*
X121600000Y-88200000D03*
X119400000Y-87600000D03*
X121200000Y-80200000D03*
X102200000Y-80200000D03*
X112600000Y-88200000D03*
X103800000Y-88200000D03*
X116000000Y-99400000D03*
X118400000Y-95200000D03*
X114000000Y-95200000D03*
X102600000Y-95200000D03*
X123400000Y-66400000D03*
X124200000Y-60200000D03*
X125200000Y-62800000D03*
X124000000Y-61600000D03*
X127800000Y-58600000D03*
X131600000Y-62400000D03*
X133000000Y-58600000D03*
X130400000Y-59200000D03*
X135000000Y-59600000D03*
X134800000Y-62400000D03*
X135800000Y-66400000D03*
X132400000Y-65200000D03*
X128600000Y-69600000D03*
X135000000Y-70400000D03*
X131400000Y-72000000D03*
X127000000Y-78400000D03*
X125000000Y-78200000D03*
X138400000Y-79200000D03*
X144800000Y-77600000D03*
X135600000Y-82800000D03*
X134200000Y-82000000D03*
X134600000Y-93000000D03*
X134000000Y-88000000D03*
X133200000Y-91800000D03*
X158800000Y-89400000D03*
X159200000Y-93200000D03*
X158600000Y-97200000D03*
X141600000Y-99400000D03*
X151400000Y-99600000D03*
X146400000Y-90000000D03*
X146800000Y-92800000D03*
X147000000Y-97000000D03*
X157200000Y-84200000D03*
X154000000Y-71200000D03*
X154000000Y-73800000D03*
X154000000Y-61000000D03*
X154000000Y-63600000D03*
X154000000Y-66200000D03*
X125400000Y-82800000D03*
X112000000Y-82400000D03*
X104400000Y-78400000D03*
X103600000Y-69800000D03*
X130200000Y-84400000D03*
X150800000Y-81395498D03*
X107600000Y-94400000D03*
X122600000Y-58600000D03*
X151800000Y-91000000D03*
X149745005Y-80876843D03*
X151400000Y-87200000D03*
X150000000Y-77855985D03*
X148745996Y-80845447D03*
X149600000Y-75800000D03*
X144400000Y-80200000D03*
X136600000Y-78000000D03*
X138200000Y-76600000D03*
X132200000Y-74600000D03*
X139400000Y-74400000D03*
X131881545Y-73652587D03*
X151800000Y-96400000D03*
X152549500Y-87961506D03*
X125062746Y-73902300D03*
X130800000Y-83200000D03*
X126746744Y-73350999D03*
X132400000Y-83400000D03*
X138456359Y-83425500D03*
X128380430Y-73083988D03*
X129168094Y-72468690D03*
X140621084Y-83425500D03*
X122000000Y-73400000D03*
X122200000Y-74400000D03*
X115800000Y-73200000D03*
X158400000Y-85600000D03*
X152730000Y-62310000D03*
X152730000Y-59770000D03*
X155270000Y-82630000D03*
X155270000Y-75010000D03*
X152730000Y-77550000D03*
X152730000Y-82630000D03*
X155270000Y-59770000D03*
X152730000Y-75010000D03*
X152730000Y-67390000D03*
X152730000Y-80090000D03*
X152730000Y-69930000D03*
X152730000Y-64850000D03*
X155270000Y-64850000D03*
X155270000Y-72470000D03*
X155270000Y-69930000D03*
X155270000Y-67390000D03*
X155270000Y-77550000D03*
X155270000Y-62310000D03*
X155270000Y-80090000D03*
X152730000Y-72470000D03*
X111500000Y-84750000D03*
X111500000Y-91250000D03*
X116000000Y-84750000D03*
X116000000Y-91250000D03*
X141570000Y-69000000D03*
X141570000Y-66460000D03*
X141570000Y-63920000D03*
X141570000Y-61380000D03*
X102450000Y-91300000D03*
X102450000Y-84800000D03*
X106950000Y-84800000D03*
X106950000Y-91300000D03*
X105075000Y-98200000D03*
X107615000Y-98200000D03*
X110155000Y-98200000D03*
X122900000Y-94900000D03*
X127900000Y-94900000D03*
X126074175Y-64874175D03*
X128725825Y-67525825D03*
X127400000Y-64325000D03*
X129275000Y-66200000D03*
X127400000Y-68075000D03*
X128725825Y-64874175D03*
X126074175Y-67525825D03*
X125525000Y-66200000D03*
X127400000Y-66200000D03*
X145570000Y-61400000D03*
X145570000Y-63940000D03*
X145570000Y-66480000D03*
X145570000Y-69020000D03*
M02*
