%TF.GenerationSoftware,KiCad,Pcbnew,(6.0.11-0)*%
%TF.CreationDate,2025-11-14T21:04:09+00:00*%
%TF.ProjectId,local-zappi-power,6c6f6361-6c2d-47a6-9170-70692d706f77,rev?*%
%TF.SameCoordinates,Original*%
%TF.FileFunction,Soldermask,Bot*%
%TF.FilePolarity,Negative*%
%FSLAX46Y46*%
G04 Gerber Fmt 4.6, Leading zero omitted, Abs format (unit mm)*
G04 Created by KiCad (PCBNEW (6.0.11-0)) date 2025-11-14 21:04:09*
%MOMM*%
%LPD*%
G01*
G04 APERTURE LIST*
%ADD10C,0.970000*%
%ADD11C,2.000000*%
%ADD12R,1.700000X1.700000*%
%ADD13O,1.700000X1.700000*%
%ADD14R,2.600000X2.600000*%
%ADD15C,2.600000*%
%ADD16C,0.800000*%
%ADD17C,5.000000*%
G04 APERTURE END LIST*
D10*
%TO.C,J4*%
X152730000Y-62310000D03*
X152730000Y-59770000D03*
X155270000Y-82630000D03*
X155270000Y-75010000D03*
X152730000Y-77550000D03*
X152730000Y-82630000D03*
X155270000Y-59770000D03*
X152730000Y-75010000D03*
X152730000Y-67390000D03*
X152730000Y-80090000D03*
X152730000Y-69930000D03*
X152730000Y-64850000D03*
X155270000Y-64850000D03*
X155270000Y-72470000D03*
X155270000Y-69930000D03*
X155270000Y-67390000D03*
X155270000Y-77550000D03*
X155270000Y-62310000D03*
X155270000Y-80090000D03*
X152730000Y-72470000D03*
%TD*%
D11*
%TO.C,SW1*%
X111500000Y-84750000D03*
X111500000Y-91250000D03*
X116000000Y-84750000D03*
X116000000Y-91250000D03*
%TD*%
D12*
%TO.C,J1*%
X141570000Y-69000000D03*
D13*
X141570000Y-66460000D03*
X141570000Y-63920000D03*
X141570000Y-61380000D03*
%TD*%
D11*
%TO.C,SW2*%
X102450000Y-91300000D03*
X102450000Y-84800000D03*
X106950000Y-84800000D03*
X106950000Y-91300000D03*
%TD*%
D12*
%TO.C,J5*%
X105075000Y-98200000D03*
D13*
X107615000Y-98200000D03*
X110155000Y-98200000D03*
%TD*%
D14*
%TO.C,J3*%
X122900000Y-94900000D03*
D15*
X127900000Y-94900000D03*
%TD*%
D16*
%TO.C,H1*%
X126074175Y-64874175D03*
X128725825Y-67525825D03*
X127400000Y-64325000D03*
X129275000Y-66200000D03*
X127400000Y-68075000D03*
X128725825Y-64874175D03*
X126074175Y-67525825D03*
X125525000Y-66200000D03*
D17*
X127400000Y-66200000D03*
%TD*%
D12*
%TO.C,J2*%
X145570000Y-61400000D03*
D13*
X145570000Y-63940000D03*
X145570000Y-66480000D03*
X145570000Y-69020000D03*
%TD*%
M02*
