%TF.GenerationSoftware,KiCad,Pcbnew,(6.0.11-0)*%
%TF.CreationDate,2025-11-14T21:04:09+00:00*%
%TF.ProjectId,local-zappi-power,6c6f6361-6c2d-47a6-9170-70692d706f77,rev?*%
%TF.SameCoordinates,Original*%
%TF.FileFunction,Legend,Top*%
%TF.FilePolarity,Positive*%
%FSLAX46Y46*%
G04 Gerber Fmt 4.6, Leading zero omitted, Abs format (unit mm)*
G04 Created by KiCad (PCBNEW (6.0.11-0)) date 2025-11-14 21:04:09*
%MOMM*%
%LPD*%
G01*
G04 APERTURE LIST*
%ADD10C,0.200000*%
%ADD11C,0.100000*%
%ADD12C,0.150000*%
%ADD13C,0.120000*%
%ADD14C,0.350000*%
G04 APERTURE END LIST*
D10*
X108409523Y-70852380D02*
X107933333Y-70852380D01*
X107885714Y-71328571D01*
X107933333Y-71280952D01*
X108028571Y-71233333D01*
X108266666Y-71233333D01*
X108361904Y-71280952D01*
X108409523Y-71328571D01*
X108457142Y-71423809D01*
X108457142Y-71661904D01*
X108409523Y-71757142D01*
X108361904Y-71804761D01*
X108266666Y-71852380D01*
X108028571Y-71852380D01*
X107933333Y-71804761D01*
X107885714Y-71757142D01*
X108742857Y-70852380D02*
X109076190Y-71852380D01*
X109409523Y-70852380D01*
X116652380Y-68476190D02*
X116652380Y-67857142D01*
X117033333Y-68190476D01*
X117033333Y-68047619D01*
X117080952Y-67952380D01*
X117128571Y-67904761D01*
X117223809Y-67857142D01*
X117461904Y-67857142D01*
X117557142Y-67904761D01*
X117604761Y-67952380D01*
X117652380Y-68047619D01*
X117652380Y-68333333D01*
X117604761Y-68428571D01*
X117557142Y-68476190D01*
X117557142Y-67428571D02*
X117604761Y-67380952D01*
X117652380Y-67428571D01*
X117604761Y-67476190D01*
X117557142Y-67428571D01*
X117652380Y-67428571D01*
X116652380Y-67047619D02*
X116652380Y-66428571D01*
X117033333Y-66761904D01*
X117033333Y-66619047D01*
X117080952Y-66523809D01*
X117128571Y-66476190D01*
X117223809Y-66428571D01*
X117461904Y-66428571D01*
X117557142Y-66476190D01*
X117604761Y-66523809D01*
X117652380Y-66619047D01*
X117652380Y-66904761D01*
X117604761Y-67000000D01*
X117557142Y-67047619D01*
X116652380Y-66142857D02*
X117652380Y-65809523D01*
X116652380Y-65476190D01*
D11*
X158338095Y-75452380D02*
X158338095Y-74452380D01*
X158576190Y-74452380D01*
X158719047Y-74500000D01*
X158814285Y-74595238D01*
X158861904Y-74690476D01*
X158909523Y-74880952D01*
X158909523Y-75023809D01*
X158861904Y-75214285D01*
X158814285Y-75309523D01*
X158719047Y-75404761D01*
X158576190Y-75452380D01*
X158338095Y-75452380D01*
X158314285Y-78004761D02*
X158457142Y-78052380D01*
X158695238Y-78052380D01*
X158790476Y-78004761D01*
X158838095Y-77957142D01*
X158885714Y-77861904D01*
X158885714Y-77766666D01*
X158838095Y-77671428D01*
X158790476Y-77623809D01*
X158695238Y-77576190D01*
X158504761Y-77528571D01*
X158409523Y-77480952D01*
X158361904Y-77433333D01*
X158314285Y-77338095D01*
X158314285Y-77242857D01*
X158361904Y-77147619D01*
X158409523Y-77100000D01*
X158504761Y-77052380D01*
X158742857Y-77052380D01*
X158885714Y-77100000D01*
X158838095Y-79652380D02*
X158361904Y-79652380D01*
X158314285Y-80128571D01*
X158361904Y-80080952D01*
X158457142Y-80033333D01*
X158695238Y-80033333D01*
X158790476Y-80080952D01*
X158838095Y-80128571D01*
X158885714Y-80223809D01*
X158885714Y-80461904D01*
X158838095Y-80557142D01*
X158790476Y-80604761D01*
X158695238Y-80652380D01*
X158457142Y-80652380D01*
X158361904Y-80604761D01*
X158314285Y-80557142D01*
X149066666Y-79652380D02*
X149685714Y-79652380D01*
X149352380Y-80033333D01*
X149495238Y-80033333D01*
X149590476Y-80080952D01*
X149638095Y-80128571D01*
X149685714Y-80223809D01*
X149685714Y-80461904D01*
X149638095Y-80557142D01*
X149590476Y-80604761D01*
X149495238Y-80652380D01*
X149209523Y-80652380D01*
X149114285Y-80604761D01*
X149066666Y-80557142D01*
X149185714Y-75128571D02*
X149519047Y-75128571D01*
X149661904Y-75652380D02*
X149185714Y-75652380D01*
X149185714Y-74652380D01*
X149661904Y-74652380D01*
X149114285Y-77052380D02*
X149114285Y-77861904D01*
X149161904Y-77957142D01*
X149209523Y-78004761D01*
X149304761Y-78052380D01*
X149495238Y-78052380D01*
X149590476Y-78004761D01*
X149638095Y-77957142D01*
X149685714Y-77861904D01*
X149685714Y-77052380D01*
D10*
X131809523Y-98757142D02*
X131761904Y-98804761D01*
X131619047Y-98852380D01*
X131523809Y-98852380D01*
X131380952Y-98804761D01*
X131285714Y-98709523D01*
X131238095Y-98614285D01*
X131190476Y-98423809D01*
X131190476Y-98280952D01*
X131238095Y-98090476D01*
X131285714Y-97995238D01*
X131380952Y-97900000D01*
X131523809Y-97852380D01*
X131619047Y-97852380D01*
X131761904Y-97900000D01*
X131809523Y-97947619D01*
X132238095Y-98852380D02*
X132238095Y-97852380D01*
X132619047Y-97852380D01*
X132714285Y-97900000D01*
X132761904Y-97947619D01*
X132809523Y-98042857D01*
X132809523Y-98185714D01*
X132761904Y-98280952D01*
X132714285Y-98328571D01*
X132619047Y-98376190D01*
X132238095Y-98376190D01*
D11*
X139052380Y-64561904D02*
X139052380Y-63990476D01*
X140052380Y-64276190D02*
X139052380Y-64276190D01*
X139052380Y-63752380D02*
X140052380Y-63085714D01*
X139052380Y-63085714D02*
X140052380Y-63752380D01*
X102252380Y-99414285D02*
X101776190Y-99747619D01*
X102252380Y-99985714D02*
X101252380Y-99985714D01*
X101252380Y-99604761D01*
X101300000Y-99509523D01*
X101347619Y-99461904D01*
X101442857Y-99414285D01*
X101585714Y-99414285D01*
X101680952Y-99461904D01*
X101728571Y-99509523D01*
X101776190Y-99604761D01*
X101776190Y-99985714D01*
X102204761Y-98604761D02*
X102252380Y-98700000D01*
X102252380Y-98890476D01*
X102204761Y-98985714D01*
X102109523Y-99033333D01*
X101728571Y-99033333D01*
X101633333Y-98985714D01*
X101585714Y-98890476D01*
X101585714Y-98700000D01*
X101633333Y-98604761D01*
X101728571Y-98557142D01*
X101823809Y-98557142D01*
X101919047Y-99033333D01*
X102252380Y-97985714D02*
X102204761Y-98080952D01*
X102109523Y-98128571D01*
X101252380Y-98128571D01*
X102252380Y-97176190D02*
X101728571Y-97176190D01*
X101633333Y-97223809D01*
X101585714Y-97319047D01*
X101585714Y-97509523D01*
X101633333Y-97604761D01*
X102204761Y-97176190D02*
X102252380Y-97271428D01*
X102252380Y-97509523D01*
X102204761Y-97604761D01*
X102109523Y-97652380D01*
X102014285Y-97652380D01*
X101919047Y-97604761D01*
X101871428Y-97509523D01*
X101871428Y-97271428D01*
X101823809Y-97176190D01*
X101585714Y-96795238D02*
X102252380Y-96557142D01*
X101585714Y-96319047D02*
X102252380Y-96557142D01*
X102490476Y-96652380D01*
X102538095Y-96700000D01*
X102585714Y-96795238D01*
X147938095Y-66952380D02*
X147938095Y-65952380D01*
X148319047Y-65952380D01*
X148414285Y-66000000D01*
X148461904Y-66047619D01*
X148509523Y-66142857D01*
X148509523Y-66285714D01*
X148461904Y-66380952D01*
X148414285Y-66428571D01*
X148319047Y-66476190D01*
X147938095Y-66476190D01*
D10*
X118609523Y-98757142D02*
X118561904Y-98804761D01*
X118419047Y-98852380D01*
X118323809Y-98852380D01*
X118180952Y-98804761D01*
X118085714Y-98709523D01*
X118038095Y-98614285D01*
X117990476Y-98423809D01*
X117990476Y-98280952D01*
X118038095Y-98090476D01*
X118085714Y-97995238D01*
X118180952Y-97900000D01*
X118323809Y-97852380D01*
X118419047Y-97852380D01*
X118561904Y-97900000D01*
X118609523Y-97947619D01*
X119038095Y-98852380D02*
X119038095Y-97852380D01*
X119419047Y-97852380D01*
X119514285Y-97900000D01*
X119561904Y-97947619D01*
X119609523Y-98042857D01*
X119609523Y-98185714D01*
X119561904Y-98280952D01*
X119514285Y-98328571D01*
X119419047Y-98376190D01*
X119038095Y-98376190D01*
D11*
X148209523Y-68702380D02*
X147733333Y-68702380D01*
X147685714Y-69178571D01*
X147733333Y-69130952D01*
X147828571Y-69083333D01*
X148066666Y-69083333D01*
X148161904Y-69130952D01*
X148209523Y-69178571D01*
X148257142Y-69273809D01*
X148257142Y-69511904D01*
X148209523Y-69607142D01*
X148161904Y-69654761D01*
X148066666Y-69702380D01*
X147828571Y-69702380D01*
X147733333Y-69654761D01*
X147685714Y-69607142D01*
X148542857Y-68702380D02*
X148876190Y-69702380D01*
X149209523Y-68702380D01*
X147700000Y-61761904D02*
X147652380Y-61857142D01*
X147652380Y-62000000D01*
X147700000Y-62142857D01*
X147795238Y-62238095D01*
X147890476Y-62285714D01*
X148080952Y-62333333D01*
X148223809Y-62333333D01*
X148414285Y-62285714D01*
X148509523Y-62238095D01*
X148604761Y-62142857D01*
X148652380Y-62000000D01*
X148652380Y-61904761D01*
X148604761Y-61761904D01*
X148557142Y-61714285D01*
X148223809Y-61714285D01*
X148223809Y-61904761D01*
X148652380Y-61285714D02*
X147652380Y-61285714D01*
X148652380Y-60714285D01*
X147652380Y-60714285D01*
X148652380Y-60238095D02*
X147652380Y-60238095D01*
X147652380Y-60000000D01*
X147700000Y-59857142D01*
X147795238Y-59761904D01*
X147890476Y-59714285D01*
X148080952Y-59666666D01*
X148223809Y-59666666D01*
X148414285Y-59714285D01*
X148509523Y-59761904D01*
X148604761Y-59857142D01*
X148652380Y-60000000D01*
X148652380Y-60238095D01*
X139052380Y-61190476D02*
X139052380Y-61666666D01*
X139528571Y-61714285D01*
X139480952Y-61666666D01*
X139433333Y-61571428D01*
X139433333Y-61333333D01*
X139480952Y-61238095D01*
X139528571Y-61190476D01*
X139623809Y-61142857D01*
X139861904Y-61142857D01*
X139957142Y-61190476D01*
X140004761Y-61238095D01*
X140052380Y-61333333D01*
X140052380Y-61571428D01*
X140004761Y-61666666D01*
X139957142Y-61714285D01*
X139052380Y-60857142D02*
X140052380Y-60523809D01*
X139052380Y-60190476D01*
X106273809Y-93952380D02*
X106892857Y-93952380D01*
X106559523Y-94333333D01*
X106702380Y-94333333D01*
X106797619Y-94380952D01*
X106845238Y-94428571D01*
X106892857Y-94523809D01*
X106892857Y-94761904D01*
X106845238Y-94857142D01*
X106797619Y-94904761D01*
X106702380Y-94952380D01*
X106416666Y-94952380D01*
X106321428Y-94904761D01*
X106273809Y-94857142D01*
X107321428Y-94857142D02*
X107369047Y-94904761D01*
X107321428Y-94952380D01*
X107273809Y-94904761D01*
X107321428Y-94857142D01*
X107321428Y-94952380D01*
X107702380Y-93952380D02*
X108321428Y-93952380D01*
X107988095Y-94333333D01*
X108130952Y-94333333D01*
X108226190Y-94380952D01*
X108273809Y-94428571D01*
X108321428Y-94523809D01*
X108321428Y-94761904D01*
X108273809Y-94857142D01*
X108226190Y-94904761D01*
X108130952Y-94952380D01*
X107845238Y-94952380D01*
X107750000Y-94904761D01*
X107702380Y-94857142D01*
X108607142Y-93952380D02*
X108940476Y-94952380D01*
X109273809Y-93952380D01*
X139100000Y-69961904D02*
X139052380Y-70057142D01*
X139052380Y-70200000D01*
X139100000Y-70342857D01*
X139195238Y-70438095D01*
X139290476Y-70485714D01*
X139480952Y-70533333D01*
X139623809Y-70533333D01*
X139814285Y-70485714D01*
X139909523Y-70438095D01*
X140004761Y-70342857D01*
X140052380Y-70200000D01*
X140052380Y-70104761D01*
X140004761Y-69961904D01*
X139957142Y-69914285D01*
X139623809Y-69914285D01*
X139623809Y-70104761D01*
X140052380Y-69485714D02*
X139052380Y-69485714D01*
X140052380Y-68914285D01*
X139052380Y-68914285D01*
X140052380Y-68438095D02*
X139052380Y-68438095D01*
X139052380Y-68200000D01*
X139100000Y-68057142D01*
X139195238Y-67961904D01*
X139290476Y-67914285D01*
X139480952Y-67866666D01*
X139623809Y-67866666D01*
X139814285Y-67914285D01*
X139909523Y-67961904D01*
X140004761Y-68057142D01*
X140052380Y-68200000D01*
X140052380Y-68438095D01*
X147914285Y-64452380D02*
X147914285Y-63452380D01*
X148485714Y-64452380D01*
X148485714Y-63452380D01*
X140052380Y-66566666D02*
X139576190Y-66900000D01*
X140052380Y-67138095D02*
X139052380Y-67138095D01*
X139052380Y-66757142D01*
X139100000Y-66661904D01*
X139147619Y-66614285D01*
X139242857Y-66566666D01*
X139385714Y-66566666D01*
X139480952Y-66614285D01*
X139528571Y-66661904D01*
X139576190Y-66757142D01*
X139576190Y-67138095D01*
X139052380Y-66233333D02*
X140052380Y-65566666D01*
X139052380Y-65566666D02*
X140052380Y-66233333D01*
D12*
%TO.C,C6*%
X104607142Y-74766666D02*
X104654761Y-74814285D01*
X104702380Y-74957142D01*
X104702380Y-75052380D01*
X104654761Y-75195238D01*
X104559523Y-75290476D01*
X104464285Y-75338095D01*
X104273809Y-75385714D01*
X104130952Y-75385714D01*
X103940476Y-75338095D01*
X103845238Y-75290476D01*
X103750000Y-75195238D01*
X103702380Y-75052380D01*
X103702380Y-74957142D01*
X103750000Y-74814285D01*
X103797619Y-74766666D01*
X103702380Y-73909523D02*
X103702380Y-74100000D01*
X103750000Y-74195238D01*
X103797619Y-74242857D01*
X103940476Y-74338095D01*
X104130952Y-74385714D01*
X104511904Y-74385714D01*
X104607142Y-74338095D01*
X104654761Y-74290476D01*
X104702380Y-74195238D01*
X104702380Y-74004761D01*
X104654761Y-73909523D01*
X104607142Y-73861904D01*
X104511904Y-73814285D01*
X104273809Y-73814285D01*
X104178571Y-73861904D01*
X104130952Y-73909523D01*
X104083333Y-74004761D01*
X104083333Y-74195238D01*
X104130952Y-74290476D01*
X104178571Y-74338095D01*
X104273809Y-74385714D01*
%TO.C,C11*%
X102557142Y-67007142D02*
X102509523Y-67054761D01*
X102366666Y-67102380D01*
X102271428Y-67102380D01*
X102128571Y-67054761D01*
X102033333Y-66959523D01*
X101985714Y-66864285D01*
X101938095Y-66673809D01*
X101938095Y-66530952D01*
X101985714Y-66340476D01*
X102033333Y-66245238D01*
X102128571Y-66150000D01*
X102271428Y-66102380D01*
X102366666Y-66102380D01*
X102509523Y-66150000D01*
X102557142Y-66197619D01*
X103509523Y-67102380D02*
X102938095Y-67102380D01*
X103223809Y-67102380D02*
X103223809Y-66102380D01*
X103128571Y-66245238D01*
X103033333Y-66340476D01*
X102938095Y-66388095D01*
X104461904Y-67102380D02*
X103890476Y-67102380D01*
X104176190Y-67102380D02*
X104176190Y-66102380D01*
X104080952Y-66245238D01*
X103985714Y-66340476D01*
X103890476Y-66388095D01*
%TO.C,C10*%
X102557142Y-70607142D02*
X102509523Y-70654761D01*
X102366666Y-70702380D01*
X102271428Y-70702380D01*
X102128571Y-70654761D01*
X102033333Y-70559523D01*
X101985714Y-70464285D01*
X101938095Y-70273809D01*
X101938095Y-70130952D01*
X101985714Y-69940476D01*
X102033333Y-69845238D01*
X102128571Y-69750000D01*
X102271428Y-69702380D01*
X102366666Y-69702380D01*
X102509523Y-69750000D01*
X102557142Y-69797619D01*
X103509523Y-70702380D02*
X102938095Y-70702380D01*
X103223809Y-70702380D02*
X103223809Y-69702380D01*
X103128571Y-69845238D01*
X103033333Y-69940476D01*
X102938095Y-69988095D01*
X104128571Y-69702380D02*
X104223809Y-69702380D01*
X104319047Y-69750000D01*
X104366666Y-69797619D01*
X104414285Y-69892857D01*
X104461904Y-70083333D01*
X104461904Y-70321428D01*
X104414285Y-70511904D01*
X104366666Y-70607142D01*
X104319047Y-70654761D01*
X104223809Y-70702380D01*
X104128571Y-70702380D01*
X104033333Y-70654761D01*
X103985714Y-70607142D01*
X103938095Y-70511904D01*
X103890476Y-70321428D01*
X103890476Y-70083333D01*
X103938095Y-69892857D01*
X103985714Y-69797619D01*
X104033333Y-69750000D01*
X104128571Y-69702380D01*
%TO.C,C9*%
X108407142Y-74766666D02*
X108454761Y-74814285D01*
X108502380Y-74957142D01*
X108502380Y-75052380D01*
X108454761Y-75195238D01*
X108359523Y-75290476D01*
X108264285Y-75338095D01*
X108073809Y-75385714D01*
X107930952Y-75385714D01*
X107740476Y-75338095D01*
X107645238Y-75290476D01*
X107550000Y-75195238D01*
X107502380Y-75052380D01*
X107502380Y-74957142D01*
X107550000Y-74814285D01*
X107597619Y-74766666D01*
X108502380Y-74290476D02*
X108502380Y-74100000D01*
X108454761Y-74004761D01*
X108407142Y-73957142D01*
X108264285Y-73861904D01*
X108073809Y-73814285D01*
X107692857Y-73814285D01*
X107597619Y-73861904D01*
X107550000Y-73909523D01*
X107502380Y-74004761D01*
X107502380Y-74195238D01*
X107550000Y-74290476D01*
X107597619Y-74338095D01*
X107692857Y-74385714D01*
X107930952Y-74385714D01*
X108026190Y-74338095D01*
X108073809Y-74290476D01*
X108121428Y-74195238D01*
X108121428Y-74004761D01*
X108073809Y-73909523D01*
X108026190Y-73861904D01*
X107930952Y-73814285D01*
%TO.C,C8*%
X112207142Y-74766666D02*
X112254761Y-74814285D01*
X112302380Y-74957142D01*
X112302380Y-75052380D01*
X112254761Y-75195238D01*
X112159523Y-75290476D01*
X112064285Y-75338095D01*
X111873809Y-75385714D01*
X111730952Y-75385714D01*
X111540476Y-75338095D01*
X111445238Y-75290476D01*
X111350000Y-75195238D01*
X111302380Y-75052380D01*
X111302380Y-74957142D01*
X111350000Y-74814285D01*
X111397619Y-74766666D01*
X111730952Y-74195238D02*
X111683333Y-74290476D01*
X111635714Y-74338095D01*
X111540476Y-74385714D01*
X111492857Y-74385714D01*
X111397619Y-74338095D01*
X111350000Y-74290476D01*
X111302380Y-74195238D01*
X111302380Y-74004761D01*
X111350000Y-73909523D01*
X111397619Y-73861904D01*
X111492857Y-73814285D01*
X111540476Y-73814285D01*
X111635714Y-73861904D01*
X111683333Y-73909523D01*
X111730952Y-74004761D01*
X111730952Y-74195238D01*
X111778571Y-74290476D01*
X111826190Y-74338095D01*
X111921428Y-74385714D01*
X112111904Y-74385714D01*
X112207142Y-74338095D01*
X112254761Y-74290476D01*
X112302380Y-74195238D01*
X112302380Y-74004761D01*
X112254761Y-73909523D01*
X112207142Y-73861904D01*
X112111904Y-73814285D01*
X111921428Y-73814285D01*
X111826190Y-73861904D01*
X111778571Y-73909523D01*
X111730952Y-74004761D01*
%TO.C,C7*%
X116007142Y-74766666D02*
X116054761Y-74814285D01*
X116102380Y-74957142D01*
X116102380Y-75052380D01*
X116054761Y-75195238D01*
X115959523Y-75290476D01*
X115864285Y-75338095D01*
X115673809Y-75385714D01*
X115530952Y-75385714D01*
X115340476Y-75338095D01*
X115245238Y-75290476D01*
X115150000Y-75195238D01*
X115102380Y-75052380D01*
X115102380Y-74957142D01*
X115150000Y-74814285D01*
X115197619Y-74766666D01*
X115102380Y-74433333D02*
X115102380Y-73766666D01*
X116102380Y-74195238D01*
%TO.C,C4*%
X112107142Y-60166666D02*
X112154761Y-60214285D01*
X112202380Y-60357142D01*
X112202380Y-60452380D01*
X112154761Y-60595238D01*
X112059523Y-60690476D01*
X111964285Y-60738095D01*
X111773809Y-60785714D01*
X111630952Y-60785714D01*
X111440476Y-60738095D01*
X111345238Y-60690476D01*
X111250000Y-60595238D01*
X111202380Y-60452380D01*
X111202380Y-60357142D01*
X111250000Y-60214285D01*
X111297619Y-60166666D01*
X111535714Y-59309523D02*
X112202380Y-59309523D01*
X111154761Y-59547619D02*
X111869047Y-59785714D01*
X111869047Y-59166666D01*
%TO.C,R9*%
X155433333Y-97632380D02*
X155100000Y-97156190D01*
X154861904Y-97632380D02*
X154861904Y-96632380D01*
X155242857Y-96632380D01*
X155338095Y-96680000D01*
X155385714Y-96727619D01*
X155433333Y-96822857D01*
X155433333Y-96965714D01*
X155385714Y-97060952D01*
X155338095Y-97108571D01*
X155242857Y-97156190D01*
X154861904Y-97156190D01*
X155909523Y-97632380D02*
X156100000Y-97632380D01*
X156195238Y-97584761D01*
X156242857Y-97537142D01*
X156338095Y-97394285D01*
X156385714Y-97203809D01*
X156385714Y-96822857D01*
X156338095Y-96727619D01*
X156290476Y-96680000D01*
X156195238Y-96632380D01*
X156004761Y-96632380D01*
X155909523Y-96680000D01*
X155861904Y-96727619D01*
X155814285Y-96822857D01*
X155814285Y-97060952D01*
X155861904Y-97156190D01*
X155909523Y-97203809D01*
X156004761Y-97251428D01*
X156195238Y-97251428D01*
X156290476Y-97203809D01*
X156338095Y-97156190D01*
X156385714Y-97060952D01*
%TO.C,R4*%
X137833333Y-97072380D02*
X137500000Y-96596190D01*
X137261904Y-97072380D02*
X137261904Y-96072380D01*
X137642857Y-96072380D01*
X137738095Y-96120000D01*
X137785714Y-96167619D01*
X137833333Y-96262857D01*
X137833333Y-96405714D01*
X137785714Y-96500952D01*
X137738095Y-96548571D01*
X137642857Y-96596190D01*
X137261904Y-96596190D01*
X138690476Y-96405714D02*
X138690476Y-97072380D01*
X138452380Y-96024761D02*
X138214285Y-96739047D01*
X138833333Y-96739047D01*
%TO.C,R2*%
X137833333Y-89872380D02*
X137500000Y-89396190D01*
X137261904Y-89872380D02*
X137261904Y-88872380D01*
X137642857Y-88872380D01*
X137738095Y-88920000D01*
X137785714Y-88967619D01*
X137833333Y-89062857D01*
X137833333Y-89205714D01*
X137785714Y-89300952D01*
X137738095Y-89348571D01*
X137642857Y-89396190D01*
X137261904Y-89396190D01*
X138214285Y-88967619D02*
X138261904Y-88920000D01*
X138357142Y-88872380D01*
X138595238Y-88872380D01*
X138690476Y-88920000D01*
X138738095Y-88967619D01*
X138785714Y-89062857D01*
X138785714Y-89158095D01*
X138738095Y-89300952D01*
X138166666Y-89872380D01*
X138785714Y-89872380D01*
%TO.C,R8*%
X155383333Y-93832380D02*
X155050000Y-93356190D01*
X154811904Y-93832380D02*
X154811904Y-92832380D01*
X155192857Y-92832380D01*
X155288095Y-92880000D01*
X155335714Y-92927619D01*
X155383333Y-93022857D01*
X155383333Y-93165714D01*
X155335714Y-93260952D01*
X155288095Y-93308571D01*
X155192857Y-93356190D01*
X154811904Y-93356190D01*
X155954761Y-93260952D02*
X155859523Y-93213333D01*
X155811904Y-93165714D01*
X155764285Y-93070476D01*
X155764285Y-93022857D01*
X155811904Y-92927619D01*
X155859523Y-92880000D01*
X155954761Y-92832380D01*
X156145238Y-92832380D01*
X156240476Y-92880000D01*
X156288095Y-92927619D01*
X156335714Y-93022857D01*
X156335714Y-93070476D01*
X156288095Y-93165714D01*
X156240476Y-93213333D01*
X156145238Y-93260952D01*
X155954761Y-93260952D01*
X155859523Y-93308571D01*
X155811904Y-93356190D01*
X155764285Y-93451428D01*
X155764285Y-93641904D01*
X155811904Y-93737142D01*
X155859523Y-93784761D01*
X155954761Y-93832380D01*
X156145238Y-93832380D01*
X156240476Y-93784761D01*
X156288095Y-93737142D01*
X156335714Y-93641904D01*
X156335714Y-93451428D01*
X156288095Y-93356190D01*
X156240476Y-93308571D01*
X156145238Y-93260952D01*
%TO.C,SW1*%
X113202380Y-82952380D02*
X112869047Y-82476190D01*
X112630952Y-82952380D02*
X112630952Y-81952380D01*
X113011904Y-81952380D01*
X113107142Y-82000000D01*
X113154761Y-82047619D01*
X113202380Y-82142857D01*
X113202380Y-82285714D01*
X113154761Y-82380952D01*
X113107142Y-82428571D01*
X113011904Y-82476190D01*
X112630952Y-82476190D01*
X113583333Y-82904761D02*
X113726190Y-82952380D01*
X113964285Y-82952380D01*
X114059523Y-82904761D01*
X114107142Y-82857142D01*
X114154761Y-82761904D01*
X114154761Y-82666666D01*
X114107142Y-82571428D01*
X114059523Y-82523809D01*
X113964285Y-82476190D01*
X113773809Y-82428571D01*
X113678571Y-82380952D01*
X113630952Y-82333333D01*
X113583333Y-82238095D01*
X113583333Y-82142857D01*
X113630952Y-82047619D01*
X113678571Y-82000000D01*
X113773809Y-81952380D01*
X114011904Y-81952380D01*
X114154761Y-82000000D01*
X114440476Y-81952380D02*
X115011904Y-81952380D01*
X114726190Y-82952380D02*
X114726190Y-81952380D01*
%TO.C,J1*%
X140546190Y-71852380D02*
X140212857Y-71376190D01*
X139974761Y-71852380D02*
X139974761Y-70852380D01*
X140355714Y-70852380D01*
X140450952Y-70900000D01*
X140498571Y-70947619D01*
X140546190Y-71042857D01*
X140546190Y-71185714D01*
X140498571Y-71280952D01*
X140450952Y-71328571D01*
X140355714Y-71376190D01*
X139974761Y-71376190D01*
X140879523Y-70852380D02*
X141546190Y-71852380D01*
X141546190Y-70852380D02*
X140879523Y-71852380D01*
X141784285Y-70852380D02*
X142355714Y-70852380D01*
X142070000Y-71852380D02*
X142070000Y-70852380D01*
X142593809Y-70852380D02*
X143260476Y-71852380D01*
X143260476Y-70852380D02*
X142593809Y-71852380D01*
%TO.C,SW2*%
X103023809Y-82000000D02*
X102928571Y-81952380D01*
X102785714Y-81952380D01*
X102642857Y-82000000D01*
X102547619Y-82095238D01*
X102500000Y-82190476D01*
X102452380Y-82380952D01*
X102452380Y-82523809D01*
X102500000Y-82714285D01*
X102547619Y-82809523D01*
X102642857Y-82904761D01*
X102785714Y-82952380D01*
X102880952Y-82952380D01*
X103023809Y-82904761D01*
X103071428Y-82857142D01*
X103071428Y-82523809D01*
X102880952Y-82523809D01*
X103500000Y-82952380D02*
X103500000Y-81952380D01*
X103880952Y-81952380D01*
X103976190Y-82000000D01*
X104023809Y-82047619D01*
X104071428Y-82142857D01*
X104071428Y-82285714D01*
X104023809Y-82380952D01*
X103976190Y-82428571D01*
X103880952Y-82476190D01*
X103500000Y-82476190D01*
X104500000Y-82952380D02*
X104500000Y-81952380D01*
X105166666Y-81952380D02*
X105357142Y-81952380D01*
X105452380Y-82000000D01*
X105547619Y-82095238D01*
X105595238Y-82285714D01*
X105595238Y-82619047D01*
X105547619Y-82809523D01*
X105452380Y-82904761D01*
X105357142Y-82952380D01*
X105166666Y-82952380D01*
X105071428Y-82904761D01*
X104976190Y-82809523D01*
X104928571Y-82619047D01*
X104928571Y-82285714D01*
X104976190Y-82095238D01*
X105071428Y-82000000D01*
X105166666Y-81952380D01*
X106214285Y-81952380D02*
X106309523Y-81952380D01*
X106404761Y-82000000D01*
X106452380Y-82047619D01*
X106500000Y-82142857D01*
X106547619Y-82333333D01*
X106547619Y-82571428D01*
X106500000Y-82761904D01*
X106452380Y-82857142D01*
X106404761Y-82904761D01*
X106309523Y-82952380D01*
X106214285Y-82952380D01*
X106119047Y-82904761D01*
X106071428Y-82857142D01*
X106023809Y-82761904D01*
X105976190Y-82571428D01*
X105976190Y-82333333D01*
X106023809Y-82142857D01*
X106071428Y-82047619D01*
X106119047Y-82000000D01*
X106214285Y-81952380D01*
%TO.C,R1*%
X110833333Y-78632380D02*
X110500000Y-78156190D01*
X110261904Y-78632380D02*
X110261904Y-77632380D01*
X110642857Y-77632380D01*
X110738095Y-77680000D01*
X110785714Y-77727619D01*
X110833333Y-77822857D01*
X110833333Y-77965714D01*
X110785714Y-78060952D01*
X110738095Y-78108571D01*
X110642857Y-78156190D01*
X110261904Y-78156190D01*
X111785714Y-78632380D02*
X111214285Y-78632380D01*
X111500000Y-78632380D02*
X111500000Y-77632380D01*
X111404761Y-77775238D01*
X111309523Y-77870476D01*
X111214285Y-77918095D01*
%TO.C,R7*%
X155433333Y-90032380D02*
X155100000Y-89556190D01*
X154861904Y-90032380D02*
X154861904Y-89032380D01*
X155242857Y-89032380D01*
X155338095Y-89080000D01*
X155385714Y-89127619D01*
X155433333Y-89222857D01*
X155433333Y-89365714D01*
X155385714Y-89460952D01*
X155338095Y-89508571D01*
X155242857Y-89556190D01*
X154861904Y-89556190D01*
X155766666Y-89032380D02*
X156433333Y-89032380D01*
X156004761Y-90032380D01*
%TO.C,C1*%
X104907142Y-60166666D02*
X104954761Y-60214285D01*
X105002380Y-60357142D01*
X105002380Y-60452380D01*
X104954761Y-60595238D01*
X104859523Y-60690476D01*
X104764285Y-60738095D01*
X104573809Y-60785714D01*
X104430952Y-60785714D01*
X104240476Y-60738095D01*
X104145238Y-60690476D01*
X104050000Y-60595238D01*
X104002380Y-60452380D01*
X104002380Y-60357142D01*
X104050000Y-60214285D01*
X104097619Y-60166666D01*
X105002380Y-59214285D02*
X105002380Y-59785714D01*
X105002380Y-59500000D02*
X104002380Y-59500000D01*
X104145238Y-59595238D01*
X104240476Y-59690476D01*
X104288095Y-59785714D01*
%TO.C,R11*%
X125357142Y-90272380D02*
X125023809Y-89796190D01*
X124785714Y-90272380D02*
X124785714Y-89272380D01*
X125166666Y-89272380D01*
X125261904Y-89320000D01*
X125309523Y-89367619D01*
X125357142Y-89462857D01*
X125357142Y-89605714D01*
X125309523Y-89700952D01*
X125261904Y-89748571D01*
X125166666Y-89796190D01*
X124785714Y-89796190D01*
X126309523Y-90272380D02*
X125738095Y-90272380D01*
X126023809Y-90272380D02*
X126023809Y-89272380D01*
X125928571Y-89415238D01*
X125833333Y-89510476D01*
X125738095Y-89558095D01*
X127261904Y-90272380D02*
X126690476Y-90272380D01*
X126976190Y-90272380D02*
X126976190Y-89272380D01*
X126880952Y-89415238D01*
X126785714Y-89510476D01*
X126690476Y-89558095D01*
%TO.C,R12*%
X121957142Y-86472380D02*
X121623809Y-85996190D01*
X121385714Y-86472380D02*
X121385714Y-85472380D01*
X121766666Y-85472380D01*
X121861904Y-85520000D01*
X121909523Y-85567619D01*
X121957142Y-85662857D01*
X121957142Y-85805714D01*
X121909523Y-85900952D01*
X121861904Y-85948571D01*
X121766666Y-85996190D01*
X121385714Y-85996190D01*
X122909523Y-86472380D02*
X122338095Y-86472380D01*
X122623809Y-86472380D02*
X122623809Y-85472380D01*
X122528571Y-85615238D01*
X122433333Y-85710476D01*
X122338095Y-85758095D01*
X123290476Y-85567619D02*
X123338095Y-85520000D01*
X123433333Y-85472380D01*
X123671428Y-85472380D01*
X123766666Y-85520000D01*
X123814285Y-85567619D01*
X123861904Y-85662857D01*
X123861904Y-85758095D01*
X123814285Y-85900952D01*
X123242857Y-86472380D01*
X123861904Y-86472380D01*
%TO.C,J5*%
X112750000Y-99161904D02*
X112702380Y-99257142D01*
X112702380Y-99400000D01*
X112750000Y-99542857D01*
X112845238Y-99638095D01*
X112940476Y-99685714D01*
X113130952Y-99733333D01*
X113273809Y-99733333D01*
X113464285Y-99685714D01*
X113559523Y-99638095D01*
X113654761Y-99542857D01*
X113702380Y-99400000D01*
X113702380Y-99304761D01*
X113654761Y-99161904D01*
X113607142Y-99114285D01*
X113273809Y-99114285D01*
X113273809Y-99304761D01*
X113702380Y-98685714D02*
X112702380Y-98685714D01*
X113702380Y-98114285D01*
X112702380Y-98114285D01*
X113702380Y-97638095D02*
X112702380Y-97638095D01*
X112702380Y-97400000D01*
X112750000Y-97257142D01*
X112845238Y-97161904D01*
X112940476Y-97114285D01*
X113130952Y-97066666D01*
X113273809Y-97066666D01*
X113464285Y-97114285D01*
X113559523Y-97161904D01*
X113654761Y-97257142D01*
X113702380Y-97400000D01*
X113702380Y-97638095D01*
%TO.C,C2*%
X116833333Y-78507142D02*
X116785714Y-78554761D01*
X116642857Y-78602380D01*
X116547619Y-78602380D01*
X116404761Y-78554761D01*
X116309523Y-78459523D01*
X116261904Y-78364285D01*
X116214285Y-78173809D01*
X116214285Y-78030952D01*
X116261904Y-77840476D01*
X116309523Y-77745238D01*
X116404761Y-77650000D01*
X116547619Y-77602380D01*
X116642857Y-77602380D01*
X116785714Y-77650000D01*
X116833333Y-77697619D01*
X117214285Y-77697619D02*
X117261904Y-77650000D01*
X117357142Y-77602380D01*
X117595238Y-77602380D01*
X117690476Y-77650000D01*
X117738095Y-77697619D01*
X117785714Y-77792857D01*
X117785714Y-77888095D01*
X117738095Y-78030952D01*
X117166666Y-78602380D01*
X117785714Y-78602380D01*
%TO.C,C12*%
X101357142Y-60642857D02*
X101404761Y-60690476D01*
X101452380Y-60833333D01*
X101452380Y-60928571D01*
X101404761Y-61071428D01*
X101309523Y-61166666D01*
X101214285Y-61214285D01*
X101023809Y-61261904D01*
X100880952Y-61261904D01*
X100690476Y-61214285D01*
X100595238Y-61166666D01*
X100500000Y-61071428D01*
X100452380Y-60928571D01*
X100452380Y-60833333D01*
X100500000Y-60690476D01*
X100547619Y-60642857D01*
X101452380Y-59690476D02*
X101452380Y-60261904D01*
X101452380Y-59976190D02*
X100452380Y-59976190D01*
X100595238Y-60071428D01*
X100690476Y-60166666D01*
X100738095Y-60261904D01*
X100547619Y-59309523D02*
X100500000Y-59261904D01*
X100452380Y-59166666D01*
X100452380Y-58928571D01*
X100500000Y-58833333D01*
X100547619Y-58785714D01*
X100642857Y-58738095D01*
X100738095Y-58738095D01*
X100880952Y-58785714D01*
X101452380Y-59357142D01*
X101452380Y-58738095D01*
%TO.C,R3*%
X137833333Y-93472380D02*
X137500000Y-92996190D01*
X137261904Y-93472380D02*
X137261904Y-92472380D01*
X137642857Y-92472380D01*
X137738095Y-92520000D01*
X137785714Y-92567619D01*
X137833333Y-92662857D01*
X137833333Y-92805714D01*
X137785714Y-92900952D01*
X137738095Y-92948571D01*
X137642857Y-92996190D01*
X137261904Y-92996190D01*
X138166666Y-92472380D02*
X138785714Y-92472380D01*
X138452380Y-92853333D01*
X138595238Y-92853333D01*
X138690476Y-92900952D01*
X138738095Y-92948571D01*
X138785714Y-93043809D01*
X138785714Y-93281904D01*
X138738095Y-93377142D01*
X138690476Y-93424761D01*
X138595238Y-93472380D01*
X138309523Y-93472380D01*
X138214285Y-93424761D01*
X138166666Y-93377142D01*
%TO.C,R5*%
X137833333Y-100672380D02*
X137500000Y-100196190D01*
X137261904Y-100672380D02*
X137261904Y-99672380D01*
X137642857Y-99672380D01*
X137738095Y-99720000D01*
X137785714Y-99767619D01*
X137833333Y-99862857D01*
X137833333Y-100005714D01*
X137785714Y-100100952D01*
X137738095Y-100148571D01*
X137642857Y-100196190D01*
X137261904Y-100196190D01*
X138738095Y-99672380D02*
X138261904Y-99672380D01*
X138214285Y-100148571D01*
X138261904Y-100100952D01*
X138357142Y-100053333D01*
X138595238Y-100053333D01*
X138690476Y-100100952D01*
X138738095Y-100148571D01*
X138785714Y-100243809D01*
X138785714Y-100481904D01*
X138738095Y-100577142D01*
X138690476Y-100624761D01*
X138595238Y-100672380D01*
X138357142Y-100672380D01*
X138261904Y-100624761D01*
X138214285Y-100577142D01*
%TO.C,U2*%
X128238095Y-49002380D02*
X128238095Y-49811904D01*
X128285714Y-49907142D01*
X128333333Y-49954761D01*
X128428571Y-50002380D01*
X128619047Y-50002380D01*
X128714285Y-49954761D01*
X128761904Y-49907142D01*
X128809523Y-49811904D01*
X128809523Y-49002380D01*
X129238095Y-49097619D02*
X129285714Y-49050000D01*
X129380952Y-49002380D01*
X129619047Y-49002380D01*
X129714285Y-49050000D01*
X129761904Y-49097619D01*
X129809523Y-49192857D01*
X129809523Y-49288095D01*
X129761904Y-49430952D01*
X129190476Y-50002380D01*
X129809523Y-50002380D01*
X124238095Y-54016666D02*
X124714285Y-54016666D01*
X124142857Y-54302380D02*
X124476190Y-53302380D01*
X124809523Y-54302380D01*
X125142857Y-53635714D02*
X125142857Y-54302380D01*
X125142857Y-53730952D02*
X125190476Y-53683333D01*
X125285714Y-53635714D01*
X125428571Y-53635714D01*
X125523809Y-53683333D01*
X125571428Y-53778571D01*
X125571428Y-54302380D01*
X125904761Y-53635714D02*
X126285714Y-53635714D01*
X126047619Y-53302380D02*
X126047619Y-54159523D01*
X126095238Y-54254761D01*
X126190476Y-54302380D01*
X126285714Y-54302380D01*
X127000000Y-54254761D02*
X126904761Y-54302380D01*
X126714285Y-54302380D01*
X126619047Y-54254761D01*
X126571428Y-54159523D01*
X126571428Y-53778571D01*
X126619047Y-53683333D01*
X126714285Y-53635714D01*
X126904761Y-53635714D01*
X127000000Y-53683333D01*
X127047619Y-53778571D01*
X127047619Y-53873809D01*
X126571428Y-53969047D01*
X127476190Y-53635714D02*
X127476190Y-54302380D01*
X127476190Y-53730952D02*
X127523809Y-53683333D01*
X127619047Y-53635714D01*
X127761904Y-53635714D01*
X127857142Y-53683333D01*
X127904761Y-53778571D01*
X127904761Y-54302380D01*
X128380952Y-53635714D02*
X128380952Y-54302380D01*
X128380952Y-53730952D02*
X128428571Y-53683333D01*
X128523809Y-53635714D01*
X128666666Y-53635714D01*
X128761904Y-53683333D01*
X128809523Y-53778571D01*
X128809523Y-54302380D01*
X129714285Y-54302380D02*
X129714285Y-53778571D01*
X129666666Y-53683333D01*
X129571428Y-53635714D01*
X129380952Y-53635714D01*
X129285714Y-53683333D01*
X129714285Y-54254761D02*
X129619047Y-54302380D01*
X129380952Y-54302380D01*
X129285714Y-54254761D01*
X129238095Y-54159523D01*
X129238095Y-54064285D01*
X129285714Y-53969047D01*
X129380952Y-53921428D01*
X129619047Y-53921428D01*
X129714285Y-53873809D01*
X130904761Y-54016666D02*
X131380952Y-54016666D01*
X130809523Y-54302380D02*
X131142857Y-53302380D01*
X131476190Y-54302380D01*
X131809523Y-54302380D02*
X131809523Y-53635714D01*
X131809523Y-53826190D02*
X131857142Y-53730952D01*
X131904761Y-53683333D01*
X132000000Y-53635714D01*
X132095238Y-53635714D01*
X132809523Y-54254761D02*
X132714285Y-54302380D01*
X132523809Y-54302380D01*
X132428571Y-54254761D01*
X132380952Y-54159523D01*
X132380952Y-53778571D01*
X132428571Y-53683333D01*
X132523809Y-53635714D01*
X132714285Y-53635714D01*
X132809523Y-53683333D01*
X132857142Y-53778571D01*
X132857142Y-53873809D01*
X132380952Y-53969047D01*
X133714285Y-54302380D02*
X133714285Y-53778571D01*
X133666666Y-53683333D01*
X133571428Y-53635714D01*
X133380952Y-53635714D01*
X133285714Y-53683333D01*
X133714285Y-54254761D02*
X133619047Y-54302380D01*
X133380952Y-54302380D01*
X133285714Y-54254761D01*
X133238095Y-54159523D01*
X133238095Y-54064285D01*
X133285714Y-53969047D01*
X133380952Y-53921428D01*
X133619047Y-53921428D01*
X133714285Y-53873809D01*
%TO.C,JP5*%
X126723809Y-85652380D02*
X127342857Y-85652380D01*
X127009523Y-86033333D01*
X127152380Y-86033333D01*
X127247619Y-86080952D01*
X127295238Y-86128571D01*
X127342857Y-86223809D01*
X127342857Y-86461904D01*
X127295238Y-86557142D01*
X127247619Y-86604761D01*
X127152380Y-86652380D01*
X126866666Y-86652380D01*
X126771428Y-86604761D01*
X126723809Y-86557142D01*
X127771428Y-86557142D02*
X127819047Y-86604761D01*
X127771428Y-86652380D01*
X127723809Y-86604761D01*
X127771428Y-86557142D01*
X127771428Y-86652380D01*
X128152380Y-85652380D02*
X128771428Y-85652380D01*
X128438095Y-86033333D01*
X128580952Y-86033333D01*
X128676190Y-86080952D01*
X128723809Y-86128571D01*
X128771428Y-86223809D01*
X128771428Y-86461904D01*
X128723809Y-86557142D01*
X128676190Y-86604761D01*
X128580952Y-86652380D01*
X128295238Y-86652380D01*
X128200000Y-86604761D01*
X128152380Y-86557142D01*
X129057142Y-85652380D02*
X129390476Y-86652380D01*
X129723809Y-85652380D01*
%TO.C,R10*%
X125157142Y-82872380D02*
X124823809Y-82396190D01*
X124585714Y-82872380D02*
X124585714Y-81872380D01*
X124966666Y-81872380D01*
X125061904Y-81920000D01*
X125109523Y-81967619D01*
X125157142Y-82062857D01*
X125157142Y-82205714D01*
X125109523Y-82300952D01*
X125061904Y-82348571D01*
X124966666Y-82396190D01*
X124585714Y-82396190D01*
X126109523Y-82872380D02*
X125538095Y-82872380D01*
X125823809Y-82872380D02*
X125823809Y-81872380D01*
X125728571Y-82015238D01*
X125633333Y-82110476D01*
X125538095Y-82158095D01*
X126728571Y-81872380D02*
X126823809Y-81872380D01*
X126919047Y-81920000D01*
X126966666Y-81967619D01*
X127014285Y-82062857D01*
X127061904Y-82253333D01*
X127061904Y-82491428D01*
X127014285Y-82681904D01*
X126966666Y-82777142D01*
X126919047Y-82824761D01*
X126823809Y-82872380D01*
X126728571Y-82872380D01*
X126633333Y-82824761D01*
X126585714Y-82777142D01*
X126538095Y-82681904D01*
X126490476Y-82491428D01*
X126490476Y-82253333D01*
X126538095Y-82062857D01*
X126585714Y-81967619D01*
X126633333Y-81920000D01*
X126728571Y-81872380D01*
%TO.C,JP4*%
X148104761Y-82919047D02*
X148152380Y-82776190D01*
X148152380Y-82538095D01*
X148104761Y-82442857D01*
X148057142Y-82395238D01*
X147961904Y-82347619D01*
X147866666Y-82347619D01*
X147771428Y-82395238D01*
X147723809Y-82442857D01*
X147676190Y-82538095D01*
X147628571Y-82728571D01*
X147580952Y-82823809D01*
X147533333Y-82871428D01*
X147438095Y-82919047D01*
X147342857Y-82919047D01*
X147247619Y-82871428D01*
X147200000Y-82823809D01*
X147152380Y-82728571D01*
X147152380Y-82490476D01*
X147200000Y-82347619D01*
X148104761Y-81538095D02*
X148152380Y-81633333D01*
X148152380Y-81823809D01*
X148104761Y-81919047D01*
X148009523Y-81966666D01*
X147628571Y-81966666D01*
X147533333Y-81919047D01*
X147485714Y-81823809D01*
X147485714Y-81633333D01*
X147533333Y-81538095D01*
X147628571Y-81490476D01*
X147723809Y-81490476D01*
X147819047Y-81966666D01*
X148152380Y-80919047D02*
X148104761Y-81014285D01*
X148009523Y-81061904D01*
X147152380Y-81061904D01*
X148104761Y-80157142D02*
X148152380Y-80252380D01*
X148152380Y-80442857D01*
X148104761Y-80538095D01*
X148009523Y-80585714D01*
X147628571Y-80585714D01*
X147533333Y-80538095D01*
X147485714Y-80442857D01*
X147485714Y-80252380D01*
X147533333Y-80157142D01*
X147628571Y-80109523D01*
X147723809Y-80109523D01*
X147819047Y-80585714D01*
X148104761Y-79252380D02*
X148152380Y-79347619D01*
X148152380Y-79538095D01*
X148104761Y-79633333D01*
X148057142Y-79680952D01*
X147961904Y-79728571D01*
X147676190Y-79728571D01*
X147580952Y-79680952D01*
X147533333Y-79633333D01*
X147485714Y-79538095D01*
X147485714Y-79347619D01*
X147533333Y-79252380D01*
X147485714Y-78966666D02*
X147485714Y-78585714D01*
X147152380Y-78823809D02*
X148009523Y-78823809D01*
X148104761Y-78776190D01*
X148152380Y-78680952D01*
X148152380Y-78585714D01*
%TO.C,C5*%
X115707142Y-60166666D02*
X115754761Y-60214285D01*
X115802380Y-60357142D01*
X115802380Y-60452380D01*
X115754761Y-60595238D01*
X115659523Y-60690476D01*
X115564285Y-60738095D01*
X115373809Y-60785714D01*
X115230952Y-60785714D01*
X115040476Y-60738095D01*
X114945238Y-60690476D01*
X114850000Y-60595238D01*
X114802380Y-60452380D01*
X114802380Y-60357142D01*
X114850000Y-60214285D01*
X114897619Y-60166666D01*
X114802380Y-59261904D02*
X114802380Y-59738095D01*
X115278571Y-59785714D01*
X115230952Y-59738095D01*
X115183333Y-59642857D01*
X115183333Y-59404761D01*
X115230952Y-59309523D01*
X115278571Y-59261904D01*
X115373809Y-59214285D01*
X115611904Y-59214285D01*
X115707142Y-59261904D01*
X115754761Y-59309523D01*
X115802380Y-59404761D01*
X115802380Y-59642857D01*
X115754761Y-59738095D01*
X115707142Y-59785714D01*
%TO.C,C3*%
X108507142Y-60166666D02*
X108554761Y-60214285D01*
X108602380Y-60357142D01*
X108602380Y-60452380D01*
X108554761Y-60595238D01*
X108459523Y-60690476D01*
X108364285Y-60738095D01*
X108173809Y-60785714D01*
X108030952Y-60785714D01*
X107840476Y-60738095D01*
X107745238Y-60690476D01*
X107650000Y-60595238D01*
X107602380Y-60452380D01*
X107602380Y-60357142D01*
X107650000Y-60214285D01*
X107697619Y-60166666D01*
X107602380Y-59833333D02*
X107602380Y-59214285D01*
X107983333Y-59547619D01*
X107983333Y-59404761D01*
X108030952Y-59309523D01*
X108078571Y-59261904D01*
X108173809Y-59214285D01*
X108411904Y-59214285D01*
X108507142Y-59261904D01*
X108554761Y-59309523D01*
X108602380Y-59404761D01*
X108602380Y-59690476D01*
X108554761Y-59785714D01*
X108507142Y-59833333D01*
%TO.C,JP3*%
X143552380Y-82490476D02*
X142552380Y-82490476D01*
X142552380Y-82252380D01*
X142600000Y-82109523D01*
X142695238Y-82014285D01*
X142790476Y-81966666D01*
X142980952Y-81919047D01*
X143123809Y-81919047D01*
X143314285Y-81966666D01*
X143409523Y-82014285D01*
X143504761Y-82109523D01*
X143552380Y-82252380D01*
X143552380Y-82490476D01*
X143552380Y-81347619D02*
X143504761Y-81442857D01*
X143457142Y-81490476D01*
X143361904Y-81538095D01*
X143076190Y-81538095D01*
X142980952Y-81490476D01*
X142933333Y-81442857D01*
X142885714Y-81347619D01*
X142885714Y-81204761D01*
X142933333Y-81109523D01*
X142980952Y-81061904D01*
X143076190Y-81014285D01*
X143361904Y-81014285D01*
X143457142Y-81061904D01*
X143504761Y-81109523D01*
X143552380Y-81204761D01*
X143552380Y-81347619D01*
X142885714Y-80680952D02*
X143552380Y-80490476D01*
X143076190Y-80300000D01*
X143552380Y-80109523D01*
X142885714Y-79919047D01*
X142885714Y-79538095D02*
X143552380Y-79538095D01*
X142980952Y-79538095D02*
X142933333Y-79490476D01*
X142885714Y-79395238D01*
X142885714Y-79252380D01*
X142933333Y-79157142D01*
X143028571Y-79109523D01*
X143552380Y-79109523D01*
%TO.C,U3*%
X111038095Y-64652380D02*
X111038095Y-65461904D01*
X111085714Y-65557142D01*
X111133333Y-65604761D01*
X111228571Y-65652380D01*
X111419047Y-65652380D01*
X111514285Y-65604761D01*
X111561904Y-65557142D01*
X111609523Y-65461904D01*
X111609523Y-64652380D01*
X111990476Y-64652380D02*
X112609523Y-64652380D01*
X112276190Y-65033333D01*
X112419047Y-65033333D01*
X112514285Y-65080952D01*
X112561904Y-65128571D01*
X112609523Y-65223809D01*
X112609523Y-65461904D01*
X112561904Y-65557142D01*
X112514285Y-65604761D01*
X112419047Y-65652380D01*
X112133333Y-65652380D01*
X112038095Y-65604761D01*
X111990476Y-65557142D01*
%TO.C,R6*%
X155433333Y-86432380D02*
X155100000Y-85956190D01*
X154861904Y-86432380D02*
X154861904Y-85432380D01*
X155242857Y-85432380D01*
X155338095Y-85480000D01*
X155385714Y-85527619D01*
X155433333Y-85622857D01*
X155433333Y-85765714D01*
X155385714Y-85860952D01*
X155338095Y-85908571D01*
X155242857Y-85956190D01*
X154861904Y-85956190D01*
X156290476Y-85432380D02*
X156100000Y-85432380D01*
X156004761Y-85480000D01*
X155957142Y-85527619D01*
X155861904Y-85670476D01*
X155814285Y-85860952D01*
X155814285Y-86241904D01*
X155861904Y-86337142D01*
X155909523Y-86384761D01*
X156004761Y-86432380D01*
X156195238Y-86432380D01*
X156290476Y-86384761D01*
X156338095Y-86337142D01*
X156385714Y-86241904D01*
X156385714Y-86003809D01*
X156338095Y-85908571D01*
X156290476Y-85860952D01*
X156195238Y-85813333D01*
X156004761Y-85813333D01*
X155909523Y-85860952D01*
X155861904Y-85908571D01*
X155814285Y-86003809D01*
%TO.C,H1*%
X126638095Y-63152380D02*
X126638095Y-62152380D01*
X126638095Y-62628571D02*
X127209523Y-62628571D01*
X127209523Y-63152380D02*
X127209523Y-62152380D01*
X128209523Y-63152380D02*
X127638095Y-63152380D01*
X127923809Y-63152380D02*
X127923809Y-62152380D01*
X127828571Y-62295238D01*
X127733333Y-62390476D01*
X127638095Y-62438095D01*
%TO.C,JP1*%
X143028571Y-77090476D02*
X143028571Y-76757142D01*
X143552380Y-76614285D02*
X143552380Y-77090476D01*
X142552380Y-77090476D01*
X142552380Y-76614285D01*
X142885714Y-76185714D02*
X143552380Y-76185714D01*
X142980952Y-76185714D02*
X142933333Y-76138095D01*
X142885714Y-76042857D01*
X142885714Y-75900000D01*
X142933333Y-75804761D01*
X143028571Y-75757142D01*
X143552380Y-75757142D01*
X142885714Y-75423809D02*
X142885714Y-75042857D01*
X142552380Y-75280952D02*
X143409523Y-75280952D01*
X143504761Y-75233333D01*
X143552380Y-75138095D01*
X143552380Y-75042857D01*
X143504761Y-74328571D02*
X143552380Y-74423809D01*
X143552380Y-74614285D01*
X143504761Y-74709523D01*
X143409523Y-74757142D01*
X143028571Y-74757142D01*
X142933333Y-74709523D01*
X142885714Y-74614285D01*
X142885714Y-74423809D01*
X142933333Y-74328571D01*
X143028571Y-74280952D01*
X143123809Y-74280952D01*
X143219047Y-74757142D01*
X143552380Y-73852380D02*
X142885714Y-73852380D01*
X143076190Y-73852380D02*
X142980952Y-73804761D01*
X142933333Y-73757142D01*
X142885714Y-73661904D01*
X142885714Y-73566666D01*
%TO.C,J2*%
X144308095Y-70802380D02*
X144308095Y-71611904D01*
X144355714Y-71707142D01*
X144403333Y-71754761D01*
X144498571Y-71802380D01*
X144689047Y-71802380D01*
X144784285Y-71754761D01*
X144831904Y-71707142D01*
X144879523Y-71611904D01*
X144879523Y-70802380D01*
X145308095Y-71754761D02*
X145450952Y-71802380D01*
X145689047Y-71802380D01*
X145784285Y-71754761D01*
X145831904Y-71707142D01*
X145879523Y-71611904D01*
X145879523Y-71516666D01*
X145831904Y-71421428D01*
X145784285Y-71373809D01*
X145689047Y-71326190D01*
X145498571Y-71278571D01*
X145403333Y-71230952D01*
X145355714Y-71183333D01*
X145308095Y-71088095D01*
X145308095Y-70992857D01*
X145355714Y-70897619D01*
X145403333Y-70850000D01*
X145498571Y-70802380D01*
X145736666Y-70802380D01*
X145879523Y-70850000D01*
X146641428Y-71278571D02*
X146784285Y-71326190D01*
X146831904Y-71373809D01*
X146879523Y-71469047D01*
X146879523Y-71611904D01*
X146831904Y-71707142D01*
X146784285Y-71754761D01*
X146689047Y-71802380D01*
X146308095Y-71802380D01*
X146308095Y-70802380D01*
X146641428Y-70802380D01*
X146736666Y-70850000D01*
X146784285Y-70897619D01*
X146831904Y-70992857D01*
X146831904Y-71088095D01*
X146784285Y-71183333D01*
X146736666Y-71230952D01*
X146641428Y-71278571D01*
X146308095Y-71278571D01*
%TO.C,JP2*%
X147152380Y-76138095D02*
X147961904Y-76138095D01*
X148057142Y-76090476D01*
X148104761Y-76042857D01*
X148152380Y-75947619D01*
X148152380Y-75757142D01*
X148104761Y-75661904D01*
X148057142Y-75614285D01*
X147961904Y-75566666D01*
X147152380Y-75566666D01*
X147485714Y-75090476D02*
X148485714Y-75090476D01*
X147533333Y-75090476D02*
X147485714Y-74995238D01*
X147485714Y-74804761D01*
X147533333Y-74709523D01*
X147580952Y-74661904D01*
X147676190Y-74614285D01*
X147961904Y-74614285D01*
X148057142Y-74661904D01*
X148104761Y-74709523D01*
X148152380Y-74804761D01*
X148152380Y-74995238D01*
X148104761Y-75090476D01*
D13*
%TO.C,C6*%
X101490000Y-73888748D02*
X101490000Y-75311252D01*
X103310000Y-73888748D02*
X103310000Y-75311252D01*
%TO.C,C11*%
X103911252Y-63890000D02*
X102488748Y-63890000D01*
X103911252Y-65710000D02*
X102488748Y-65710000D01*
%TO.C,C10*%
X103911252Y-67490000D02*
X102488748Y-67490000D01*
X103911252Y-69310000D02*
X102488748Y-69310000D01*
%TO.C,C9*%
X105290000Y-73888748D02*
X105290000Y-75311252D01*
X107110000Y-73888748D02*
X107110000Y-75311252D01*
%TO.C,C8*%
X109090000Y-73888748D02*
X109090000Y-75311252D01*
X110910000Y-73888748D02*
X110910000Y-75311252D01*
%TO.C,C7*%
X112890000Y-73888748D02*
X112890000Y-75311252D01*
X114710000Y-73888748D02*
X114710000Y-75311252D01*
%TO.C,C4*%
X114510000Y-60711252D02*
X114510000Y-59288748D01*
X112690000Y-60711252D02*
X112690000Y-59288748D01*
%TO.C,J4*%
X156650000Y-75905000D02*
X156650000Y-76655000D01*
X151350000Y-65745000D02*
X151350000Y-66495000D01*
X156650000Y-78445000D02*
X156650000Y-79195000D01*
X156650000Y-68285000D02*
X156650000Y-69035000D01*
X156650000Y-83525000D02*
X156650000Y-84010000D01*
X156650000Y-65745000D02*
X156650000Y-66495000D01*
X156650000Y-58390000D02*
X151350000Y-58390000D01*
X156650000Y-73365000D02*
X156650000Y-74115000D01*
X156650000Y-84010000D02*
X151350000Y-84010000D01*
X156650000Y-70825000D02*
X156650000Y-71575000D01*
X151350000Y-63205000D02*
X151350000Y-63955000D01*
X151350000Y-73365000D02*
X151350000Y-74115000D01*
X156650000Y-60665000D02*
X156650000Y-61415000D01*
X156650000Y-58875000D02*
X156650000Y-58390000D01*
X151350000Y-58390000D02*
X151350000Y-58875000D01*
X151350000Y-70825000D02*
X151350000Y-71575000D01*
X156650000Y-80985000D02*
X156650000Y-81735000D01*
X151350000Y-75905000D02*
X151350000Y-76655000D01*
X156650000Y-63205000D02*
X156650000Y-63955000D01*
X157560000Y-58875000D02*
X156650000Y-58875000D01*
X151350000Y-80985000D02*
X151350000Y-81735000D01*
X151350000Y-68285000D02*
X151350000Y-69035000D01*
X151350000Y-60665000D02*
X151350000Y-61415000D01*
X151350000Y-84010000D02*
X151350000Y-83525000D01*
X151350000Y-78445000D02*
X151350000Y-79195000D01*
%TO.C,R9*%
X154872936Y-99910000D02*
X156327064Y-99910000D01*
X154872936Y-98090000D02*
X156327064Y-98090000D01*
%TO.C,R4*%
X138727064Y-95710000D02*
X137272936Y-95710000D01*
X138727064Y-93890000D02*
X137272936Y-93890000D01*
%TO.C,R2*%
X138727064Y-88510000D02*
X137272936Y-88510000D01*
X138727064Y-86690000D02*
X137272936Y-86690000D01*
%TO.C,R8*%
X154822936Y-94290000D02*
X156277064Y-94290000D01*
X154822936Y-96110000D02*
X156277064Y-96110000D01*
%TO.C,SW1*%
X114500000Y-84500000D02*
X113000000Y-84500000D01*
X113000000Y-91500000D02*
X114500000Y-91500000D01*
X110500000Y-85750000D02*
X110500000Y-90250000D01*
X117000000Y-90250000D02*
X117000000Y-85750000D01*
%TO.C,J1*%
X142900000Y-60050000D02*
X140240000Y-60050000D01*
X142900000Y-69000000D02*
X142900000Y-70330000D01*
X140240000Y-67730000D02*
X140240000Y-60050000D01*
X142900000Y-67730000D02*
X142900000Y-60050000D01*
X142900000Y-70330000D02*
X141570000Y-70330000D01*
X142900000Y-67730000D02*
X140240000Y-67730000D01*
%TO.C,SW2*%
X101450000Y-85800000D02*
X101450000Y-90300000D01*
X103950000Y-91550000D02*
X105450000Y-91550000D01*
X105450000Y-84550000D02*
X103950000Y-84550000D01*
X107950000Y-90300000D02*
X107950000Y-85800000D01*
%TO.C,R1*%
X110272936Y-80910000D02*
X111727064Y-80910000D01*
X110272936Y-79090000D02*
X111727064Y-79090000D01*
%TO.C,R7*%
X154872936Y-90490000D02*
X156327064Y-90490000D01*
X154872936Y-92310000D02*
X156327064Y-92310000D01*
%TO.C,C1*%
X105490000Y-60711252D02*
X105490000Y-59288748D01*
X107310000Y-60711252D02*
X107310000Y-59288748D01*
%TO.C,R11*%
X126727064Y-87090000D02*
X125272936Y-87090000D01*
X126727064Y-88910000D02*
X125272936Y-88910000D01*
%TO.C,R12*%
X123327064Y-83290000D02*
X121872936Y-83290000D01*
X123327064Y-85110000D02*
X121872936Y-85110000D01*
%TO.C,J5*%
X106345000Y-96870000D02*
X111485000Y-96870000D01*
X103745000Y-99530000D02*
X103745000Y-98200000D01*
X106345000Y-99530000D02*
X106345000Y-96870000D01*
X111485000Y-99530000D02*
X111485000Y-96870000D01*
X105075000Y-99530000D02*
X103745000Y-99530000D01*
X106345000Y-99530000D02*
X111485000Y-99530000D01*
%TO.C,C2*%
X116288748Y-79090000D02*
X117711252Y-79090000D01*
X116288748Y-80910000D02*
X117711252Y-80910000D01*
%TO.C,C12*%
X103710000Y-60711252D02*
X103710000Y-59288748D01*
X101890000Y-60711252D02*
X101890000Y-59288748D01*
%TO.C,R3*%
X138727064Y-90290000D02*
X137272936Y-90290000D01*
X138727064Y-92110000D02*
X137272936Y-92110000D01*
%TO.C,R5*%
X138727064Y-97490000D02*
X137272936Y-97490000D01*
X138727064Y-99310000D02*
X137272936Y-99310000D01*
%TO.C,U2*%
X120000000Y-75600000D02*
X120000000Y-76350000D01*
X120000000Y-50850000D02*
X138000000Y-50850000D01*
X138000000Y-75600000D02*
X138000000Y-76350000D01*
X138000000Y-76350000D02*
X137000000Y-76350000D01*
X138000000Y-56790000D02*
X120000000Y-56790000D01*
X120000000Y-76350000D02*
X121000000Y-76350000D01*
X120000000Y-50850000D02*
X120000000Y-57600000D01*
X138000000Y-50850000D02*
X138000000Y-57600000D01*
%TO.C,JP5*%
X126800000Y-85400000D02*
X126800000Y-83400000D01*
X129600000Y-85400000D02*
X126800000Y-85400000D01*
X129600000Y-83400000D02*
X129600000Y-85400000D01*
X126800000Y-83400000D02*
X129600000Y-83400000D01*
%TO.C,R10*%
X126527064Y-79690000D02*
X125072936Y-79690000D01*
X126527064Y-81510000D02*
X125072936Y-81510000D01*
%TO.C,JP4*%
X144800000Y-79400000D02*
X146800000Y-79400000D01*
X146800000Y-79400000D02*
X146800000Y-82200000D01*
X144800000Y-82200000D02*
X144800000Y-79400000D01*
X146800000Y-82200000D02*
X144800000Y-82200000D01*
%TO.C,J3*%
X120340000Y-99960000D02*
X130460000Y-99960000D01*
X120340000Y-98400000D02*
X130460000Y-98400000D01*
X126893000Y-96174000D02*
X126513000Y-96554000D01*
X120100000Y-99560000D02*
X120100000Y-100200000D01*
X130460000Y-90840000D02*
X130460000Y-99960000D01*
X120340000Y-90840000D02*
X120340000Y-99960000D01*
X126642000Y-95892000D02*
X126247000Y-96288000D01*
X121352000Y-96181000D02*
X121246000Y-96288000D01*
X120340000Y-90840000D02*
X130460000Y-90840000D01*
X129288000Y-93246000D02*
X128908000Y-93626000D01*
X129554000Y-93512000D02*
X129159000Y-93908000D01*
X120100000Y-100200000D02*
X120500000Y-100200000D01*
X124288000Y-93246000D02*
X124181000Y-93353000D01*
X124554000Y-93512000D02*
X124447000Y-93619000D01*
X121618000Y-96447000D02*
X121512000Y-96554000D01*
X120340000Y-99500000D02*
X130460000Y-99500000D01*
X130080000Y-94900000D02*
G75*
G03*
X130080000Y-94900000I-2180000J0D01*
G01*
X125080000Y-94900000D02*
G75*
G03*
X125080000Y-94900000I-2180000J0D01*
G01*
%TO.C,C5*%
X118110000Y-60711252D02*
X118110000Y-59288748D01*
X116290000Y-60711252D02*
X116290000Y-59288748D01*
%TO.C,C3*%
X109090000Y-60711252D02*
X109090000Y-59288748D01*
X110910000Y-60711252D02*
X110910000Y-59288748D01*
%TO.C,JP3*%
X142200000Y-82200000D02*
X140200000Y-82200000D01*
X142200000Y-79400000D02*
X142200000Y-82200000D01*
X140200000Y-79400000D02*
X142200000Y-79400000D01*
X140200000Y-82200000D02*
X140200000Y-79400000D01*
%TO.C,U1*%
X144600000Y-87800000D02*
X149400000Y-87800000D01*
X144600000Y-87800000D02*
X144600000Y-88200000D01*
X144600000Y-98600000D02*
X149400000Y-98600000D01*
X144600000Y-88200000D02*
X143200000Y-88200000D01*
%TO.C,U3*%
X113710000Y-70610000D02*
X113710000Y-69350000D01*
X107700000Y-63790000D02*
X113710000Y-63790000D01*
X109950000Y-70610000D02*
X113710000Y-70610000D01*
X113710000Y-63790000D02*
X113710000Y-65050000D01*
%TO.C,R6*%
X154872936Y-88710000D02*
X156327064Y-88710000D01*
X154872936Y-86890000D02*
X156327064Y-86890000D01*
%TO.C,JP1*%
X140200000Y-76800000D02*
X140200000Y-74000000D01*
X142200000Y-74000000D02*
X142200000Y-76800000D01*
X140200000Y-74000000D02*
X142200000Y-74000000D01*
X142200000Y-76800000D02*
X140200000Y-76800000D01*
%TO.C,J2*%
X146900000Y-62670000D02*
X146900000Y-70350000D01*
X144240000Y-62670000D02*
X144240000Y-70350000D01*
X144240000Y-61400000D02*
X144240000Y-60070000D01*
X144240000Y-60070000D02*
X145570000Y-60070000D01*
X144240000Y-70350000D02*
X146900000Y-70350000D01*
X144240000Y-62670000D02*
X146900000Y-62670000D01*
%TO.C,JP2*%
X144800000Y-76800000D02*
X144800000Y-74000000D01*
X146800000Y-74000000D02*
X146800000Y-76800000D01*
X146800000Y-76800000D02*
X144800000Y-76800000D01*
X144800000Y-74000000D02*
X146800000Y-74000000D01*
%TD*%
D14*
X110600000Y-65400000D03*
X110600000Y-64200000D03*
X147600000Y-82400000D03*
X143600000Y-82000000D03*
X108400000Y-78000000D03*
X115400000Y-77800000D03*
X112000000Y-77800000D03*
X125400000Y-99000000D03*
X125200000Y-92000000D03*
X122400000Y-60600000D03*
X134200000Y-69400000D03*
X101000000Y-58200000D03*
X115400000Y-58400000D03*
X111800000Y-58400000D03*
X104600000Y-58400000D03*
X108200000Y-58600000D03*
X101600000Y-66600000D03*
X101600000Y-70400000D03*
X139400000Y-81200000D03*
X142200000Y-87400000D03*
X138000000Y-95000000D03*
X138000000Y-92200000D03*
X158800000Y-59000000D03*
X143000000Y-72600000D03*
X148800000Y-71800000D03*
X149200000Y-65000000D03*
X146200000Y-58600000D03*
X141200000Y-58800000D03*
X134200000Y-99000000D03*
X132400000Y-96000000D03*
X121600000Y-88200000D03*
X119400000Y-87600000D03*
X121200000Y-80200000D03*
X102200000Y-80200000D03*
X112600000Y-88200000D03*
X103800000Y-88200000D03*
X116000000Y-99400000D03*
X118400000Y-95200000D03*
X114000000Y-95200000D03*
X102600000Y-95200000D03*
X123400000Y-66400000D03*
X124200000Y-60200000D03*
X125200000Y-62800000D03*
X124000000Y-61600000D03*
X127800000Y-58600000D03*
X131600000Y-62400000D03*
X133000000Y-58600000D03*
X130400000Y-59200000D03*
X135000000Y-59600000D03*
X134800000Y-62400000D03*
X135800000Y-66400000D03*
X132400000Y-65200000D03*
X128600000Y-69600000D03*
X135000000Y-70400000D03*
X131400000Y-72000000D03*
X127000000Y-78400000D03*
X125000000Y-78200000D03*
X138400000Y-79200000D03*
X144800000Y-77600000D03*
X135600000Y-82800000D03*
X134200000Y-82000000D03*
X134600000Y-93000000D03*
X134000000Y-88000000D03*
X133200000Y-91800000D03*
X158800000Y-89400000D03*
X159200000Y-93200000D03*
X158600000Y-97200000D03*
X141600000Y-99400000D03*
X151400000Y-99600000D03*
X146400000Y-90000000D03*
X146800000Y-92800000D03*
X147000000Y-97000000D03*
X157200000Y-84200000D03*
X154000000Y-71200000D03*
X154000000Y-73800000D03*
X154000000Y-61000000D03*
X154000000Y-63600000D03*
X154000000Y-66200000D03*
X125400000Y-82800000D03*
X112000000Y-82400000D03*
X104400000Y-78400000D03*
X103600000Y-69800000D03*
X130200000Y-84400000D03*
X150800000Y-81395498D03*
X107600000Y-94400000D03*
X122600000Y-58600000D03*
X151800000Y-91000000D03*
X149745005Y-80876843D03*
X151400000Y-87200000D03*
X150000000Y-77855985D03*
X148745996Y-80845447D03*
X149600000Y-75800000D03*
X144400000Y-80200000D03*
X136600000Y-78000000D03*
X138200000Y-76600000D03*
X132200000Y-74600000D03*
X139400000Y-74400000D03*
X131881545Y-73652587D03*
X151800000Y-96400000D03*
X152549500Y-87961506D03*
X125062746Y-73902300D03*
X130800000Y-83200000D03*
X126746744Y-73350999D03*
X132400000Y-83400000D03*
X138456359Y-83425500D03*
X128380430Y-73083988D03*
X129168094Y-72468690D03*
X140621084Y-83425500D03*
X122000000Y-73400000D03*
X122200000Y-74400000D03*
X115800000Y-73200000D03*
X158400000Y-85600000D03*
X152730000Y-62310000D03*
X152730000Y-59770000D03*
X155270000Y-82630000D03*
X155270000Y-75010000D03*
X152730000Y-77550000D03*
X152730000Y-82630000D03*
X155270000Y-59770000D03*
X152730000Y-75010000D03*
X152730000Y-67390000D03*
X152730000Y-80090000D03*
X152730000Y-69930000D03*
X152730000Y-64850000D03*
X155270000Y-64850000D03*
X155270000Y-72470000D03*
X155270000Y-69930000D03*
X155270000Y-67390000D03*
X155270000Y-77550000D03*
X155270000Y-62310000D03*
X155270000Y-80090000D03*
X152730000Y-72470000D03*
X111500000Y-84750000D03*
X111500000Y-91250000D03*
X116000000Y-84750000D03*
X116000000Y-91250000D03*
X141570000Y-69000000D03*
X141570000Y-66460000D03*
X141570000Y-63920000D03*
X141570000Y-61380000D03*
X102450000Y-91300000D03*
X102450000Y-84800000D03*
X106950000Y-84800000D03*
X106950000Y-91300000D03*
X105075000Y-98200000D03*
X107615000Y-98200000D03*
X110155000Y-98200000D03*
X122900000Y-94900000D03*
X127900000Y-94900000D03*
X126074175Y-64874175D03*
X128725825Y-67525825D03*
X127400000Y-64325000D03*
X129275000Y-66200000D03*
X127400000Y-68075000D03*
X128725825Y-64874175D03*
X126074175Y-67525825D03*
X125525000Y-66200000D03*
X127400000Y-66200000D03*
X145570000Y-61400000D03*
X145570000Y-63940000D03*
X145570000Y-66480000D03*
X145570000Y-69020000D03*
M02*
