%TF.GenerationSoftware,KiCad,Pcbnew,(6.0.11-0)*%
%TF.CreationDate,2025-11-14T21:04:10+00:00*%
%TF.ProjectId,local-zappi-power,6c6f6361-6c2d-47a6-9170-70692d706f77,rev?*%
%TF.SameCoordinates,Original*%
%TF.FileFunction,Legend,Bot*%
%TF.FilePolarity,Positive*%
%FSLAX46Y46*%
G04 Gerber Fmt 4.6, Leading zero omitted, Abs format (unit mm)*
G04 Created by KiCad (PCBNEW (6.0.11-0)) date 2025-11-14 21:04:10*
%MOMM*%
%LPD*%
G01*
G04 APERTURE LIST*
%ADD10C,0.350000*%
G04 APERTURE END LIST*
D10*
X110600000Y-65400000D03*
X110600000Y-64200000D03*
X147600000Y-82400000D03*
X143600000Y-82000000D03*
X108400000Y-78000000D03*
X115400000Y-77800000D03*
X112000000Y-77800000D03*
X125400000Y-99000000D03*
X125200000Y-92000000D03*
X122400000Y-60600000D03*
X134200000Y-69400000D03*
X101000000Y-58200000D03*
X115400000Y-58400000D03*
X111800000Y-58400000D03*
X104600000Y-58400000D03*
X108200000Y-58600000D03*
X101600000Y-66600000D03*
X101600000Y-70400000D03*
X139400000Y-81200000D03*
X142200000Y-87400000D03*
X138000000Y-95000000D03*
X138000000Y-92200000D03*
X158800000Y-59000000D03*
X143000000Y-72600000D03*
X148800000Y-71800000D03*
X149200000Y-65000000D03*
X146200000Y-58600000D03*
X141200000Y-58800000D03*
X134200000Y-99000000D03*
X132400000Y-96000000D03*
X121600000Y-88200000D03*
X119400000Y-87600000D03*
X121200000Y-80200000D03*
X102200000Y-80200000D03*
X112600000Y-88200000D03*
X103800000Y-88200000D03*
X116000000Y-99400000D03*
X118400000Y-95200000D03*
X114000000Y-95200000D03*
X102600000Y-95200000D03*
X123400000Y-66400000D03*
X124200000Y-60200000D03*
X125200000Y-62800000D03*
X124000000Y-61600000D03*
X127800000Y-58600000D03*
X131600000Y-62400000D03*
X133000000Y-58600000D03*
X130400000Y-59200000D03*
X135000000Y-59600000D03*
X134800000Y-62400000D03*
X135800000Y-66400000D03*
X132400000Y-65200000D03*
X128600000Y-69600000D03*
X135000000Y-70400000D03*
X131400000Y-72000000D03*
X127000000Y-78400000D03*
X125000000Y-78200000D03*
X138400000Y-79200000D03*
X144800000Y-77600000D03*
X135600000Y-82800000D03*
X134200000Y-82000000D03*
X134600000Y-93000000D03*
X134000000Y-88000000D03*
X133200000Y-91800000D03*
X158800000Y-89400000D03*
X159200000Y-93200000D03*
X158600000Y-97200000D03*
X141600000Y-99400000D03*
X151400000Y-99600000D03*
X146400000Y-90000000D03*
X146800000Y-92800000D03*
X147000000Y-97000000D03*
X157200000Y-84200000D03*
X154000000Y-71200000D03*
X154000000Y-73800000D03*
X154000000Y-61000000D03*
X154000000Y-63600000D03*
X154000000Y-66200000D03*
X125400000Y-82800000D03*
X112000000Y-82400000D03*
X104400000Y-78400000D03*
X103600000Y-69800000D03*
X130200000Y-84400000D03*
X150800000Y-81395498D03*
X107600000Y-94400000D03*
X122600000Y-58600000D03*
X151800000Y-91000000D03*
X149745005Y-80876843D03*
X151400000Y-87200000D03*
X150000000Y-77855985D03*
X148745996Y-80845447D03*
X149600000Y-75800000D03*
X144400000Y-80200000D03*
X136600000Y-78000000D03*
X138200000Y-76600000D03*
X132200000Y-74600000D03*
X139400000Y-74400000D03*
X131881545Y-73652587D03*
X151800000Y-96400000D03*
X152549500Y-87961506D03*
X125062746Y-73902300D03*
X130800000Y-83200000D03*
X126746744Y-73350999D03*
X132400000Y-83400000D03*
X138456359Y-83425500D03*
X128380430Y-73083988D03*
X129168094Y-72468690D03*
X140621084Y-83425500D03*
X122000000Y-73400000D03*
X122200000Y-74400000D03*
X115800000Y-73200000D03*
X158400000Y-85600000D03*
X152730000Y-62310000D03*
X152730000Y-59770000D03*
X155270000Y-82630000D03*
X155270000Y-75010000D03*
X152730000Y-77550000D03*
X152730000Y-82630000D03*
X155270000Y-59770000D03*
X152730000Y-75010000D03*
X152730000Y-67390000D03*
X152730000Y-80090000D03*
X152730000Y-69930000D03*
X152730000Y-64850000D03*
X155270000Y-64850000D03*
X155270000Y-72470000D03*
X155270000Y-69930000D03*
X155270000Y-67390000D03*
X155270000Y-77550000D03*
X155270000Y-62310000D03*
X155270000Y-80090000D03*
X152730000Y-72470000D03*
X111500000Y-84750000D03*
X111500000Y-91250000D03*
X116000000Y-84750000D03*
X116000000Y-91250000D03*
X141570000Y-69000000D03*
X141570000Y-66460000D03*
X141570000Y-63920000D03*
X141570000Y-61380000D03*
X102450000Y-91300000D03*
X102450000Y-84800000D03*
X106950000Y-84800000D03*
X106950000Y-91300000D03*
X105075000Y-98200000D03*
X107615000Y-98200000D03*
X110155000Y-98200000D03*
X122900000Y-94900000D03*
X127900000Y-94900000D03*
X126074175Y-64874175D03*
X128725825Y-67525825D03*
X127400000Y-64325000D03*
X129275000Y-66200000D03*
X127400000Y-68075000D03*
X128725825Y-64874175D03*
X126074175Y-67525825D03*
X125525000Y-66200000D03*
X127400000Y-66200000D03*
X145570000Y-61400000D03*
X145570000Y-63940000D03*
X145570000Y-66480000D03*
X145570000Y-69020000D03*
M02*
