M48
; DRILL file {KiCad (6.0.11-0)} date Friday 14 November 2025 at 21:04:10
; FORMAT={-:-/ absolute / metric / decimal}
; #@! TF.CreationDate,2025-11-14T21:04:10+00:00
; #@! TF.GenerationSoftware,Kicad,Pcbnew,(6.0.11-0)
; #@! TF.FileFunction,Plated,1,2,PTH
FMAT,2
METRIC
; #@! TA.AperFunction,Plated,PTH,ViaDrill
T1C0.400
; #@! TA.AperFunction,Plated,PTH,ComponentDrill
T2C0.500
; #@! TA.AperFunction,Plated,PTH,ComponentDrill
T3C1.000
; #@! TA.AperFunction,Plated,PTH,ComponentDrill
T4C1.100
; #@! TA.AperFunction,Plated,PTH,ComponentDrill
T5C1.300
; #@! TA.AperFunction,Plated,PTH,ComponentDrill
T6C2.500
%
G90
G05
T1
X101.0Y-58.2
X101.6Y-66.6
X101.6Y-70.4
X102.2Y-80.2
X102.6Y-95.2
X103.6Y-69.8
X103.8Y-88.2
X104.4Y-78.4
X104.6Y-58.4
X107.6Y-94.4
X108.2Y-58.6
X108.4Y-78.0
X110.6Y-64.2
X110.6Y-65.4
X111.8Y-58.4
X112.0Y-77.8
X112.0Y-82.4
X112.6Y-88.2
X114.0Y-95.2
X115.4Y-58.4
X115.4Y-77.8
X115.8Y-73.2
X116.0Y-99.4
X118.4Y-95.2
X119.4Y-87.6
X121.2Y-80.2
X121.6Y-88.2
X122.0Y-73.4
X122.2Y-74.4
X122.4Y-60.6
X122.6Y-58.6
X123.4Y-66.4
X124.0Y-61.6
X124.2Y-60.2
X125.0Y-78.2
X125.063Y-73.902
X125.2Y-62.8
X125.2Y-92.0
X125.4Y-82.8
X125.4Y-99.0
X126.747Y-73.351
X127.0Y-78.4
X127.8Y-58.6
X128.38Y-73.084
X128.6Y-69.6
X129.168Y-72.469
X130.2Y-84.4
X130.4Y-59.2
X130.8Y-83.2
X131.4Y-72.0
X131.6Y-62.4
X131.882Y-73.653
X132.2Y-74.6
X132.4Y-65.2
X132.4Y-83.4
X132.4Y-96.0
X133.0Y-58.6
X133.2Y-91.8
X134.0Y-88.0
X134.2Y-69.4
X134.2Y-82.0
X134.2Y-99.0
X134.6Y-93.0
X134.8Y-62.4
X135.0Y-59.6
X135.0Y-70.4
X135.6Y-82.8
X135.8Y-66.4
X136.6Y-78.0
X138.0Y-92.2
X138.0Y-95.0
X138.2Y-76.6
X138.4Y-79.2
X138.456Y-83.425
X139.4Y-74.4
X139.4Y-81.2
X140.621Y-83.425
X141.2Y-58.8
X141.6Y-99.4
X142.2Y-87.4
X143.0Y-72.6
X143.6Y-82.0
X144.4Y-80.2
X144.8Y-77.6
X146.2Y-58.6
X146.4Y-90.0
X146.8Y-92.8
X147.0Y-97.0
X147.6Y-82.4
X148.746Y-80.845
X148.8Y-71.8
X149.2Y-65.0
X149.6Y-75.8
X149.745Y-80.877
X150.0Y-77.856
X150.8Y-81.395
X151.4Y-87.2
X151.4Y-99.6
X151.8Y-91.0
X151.8Y-96.4
X152.549Y-87.962
X154.0Y-61.0
X154.0Y-63.6
X154.0Y-66.2
X154.0Y-71.2
X154.0Y-73.8
X157.2Y-84.2
X158.4Y-85.6
X158.6Y-97.2
X158.8Y-59.0
X158.8Y-89.4
X159.2Y-93.2
T2
X125.525Y-66.2
X126.074Y-64.874
X126.074Y-67.526
X127.4Y-64.325
X127.4Y-68.075
X128.726Y-64.874
X128.726Y-67.526
X129.275Y-66.2
T3
X105.075Y-98.2
X107.615Y-98.2
X110.155Y-98.2
X141.57Y-61.38
X141.57Y-63.92
X141.57Y-66.46
X141.57Y-69.0
X145.57Y-61.4
X145.57Y-63.94
X145.57Y-66.48
X145.57Y-69.02
T4
X102.45Y-84.8
X102.45Y-91.3
X106.95Y-84.8
X106.95Y-91.3
X111.5Y-84.75
X111.5Y-91.25
X116.0Y-84.75
X116.0Y-91.25
T5
X122.9Y-94.9
X127.9Y-94.9
T6
X127.4Y-66.2
T0
M30
