%TF.GenerationSoftware,KiCad,Pcbnew,(6.0.11-0)*%
%TF.CreationDate,2025-11-14T21:04:10+00:00*%
%TF.ProjectId,local-zappi-power,6c6f6361-6c2d-47a6-9170-70692d706f77,rev?*%
%TF.SameCoordinates,Original*%
%TF.FileFunction,Soldermask,Top*%
%TF.FilePolarity,Negative*%
%FSLAX46Y46*%
G04 Gerber Fmt 4.6, Leading zero omitted, Abs format (unit mm)*
G04 Created by KiCad (PCBNEW (6.0.11-0)) date 2025-11-14 21:04:10*
%MOMM*%
%LPD*%
G01*
G04 APERTURE LIST*
G04 Aperture macros list*
%AMRoundRect*
0 Rectangle with rounded corners*
0 $1 Rounding radius*
0 $2 $3 $4 $5 $6 $7 $8 $9 X,Y pos of 4 corners*
0 Add a 4 corners polygon primitive as box body*
4,1,4,$2,$3,$4,$5,$6,$7,$8,$9,$2,$3,0*
0 Add four circle primitives for the rounded corners*
1,1,$1+$1,$2,$3*
1,1,$1+$1,$4,$5*
1,1,$1+$1,$6,$7*
1,1,$1+$1,$8,$9*
0 Add four rect primitives between the rounded corners*
20,1,$1+$1,$2,$3,$4,$5,0*
20,1,$1+$1,$4,$5,$6,$7,0*
20,1,$1+$1,$6,$7,$8,$9,0*
20,1,$1+$1,$8,$9,$2,$3,0*%
%AMFreePoly0*
4,1,6,0.500000,-0.750000,-0.650000,-0.750000,-0.150000,0.000000,-0.650000,0.750000,0.500000,0.750000,0.500000,-0.750000,0.500000,-0.750000,$1*%
%AMFreePoly1*
4,1,6,1.000000,0.000000,0.500000,-0.750000,-0.500000,-0.750000,-0.500000,0.750000,0.500000,0.750000,1.000000,0.000000,1.000000,0.000000,$1*%
G04 Aperture macros list end*
%ADD10RoundRect,0.250000X-0.650000X0.412500X-0.650000X-0.412500X0.650000X-0.412500X0.650000X0.412500X0*%
%ADD11RoundRect,0.250000X0.412500X0.650000X-0.412500X0.650000X-0.412500X-0.650000X0.412500X-0.650000X0*%
%ADD12RoundRect,0.250000X0.650000X-0.412500X0.650000X0.412500X-0.650000X0.412500X-0.650000X-0.412500X0*%
%ADD13C,0.970000*%
%ADD14R,1.680000X1.270000*%
%ADD15RoundRect,0.250000X-0.400000X-0.625000X0.400000X-0.625000X0.400000X0.625000X-0.400000X0.625000X0*%
%ADD16RoundRect,0.250000X0.400000X0.625000X-0.400000X0.625000X-0.400000X-0.625000X0.400000X-0.625000X0*%
%ADD17C,2.000000*%
%ADD18R,1.700000X1.700000*%
%ADD19O,1.700000X1.700000*%
%ADD20RoundRect,0.250000X-0.412500X-0.650000X0.412500X-0.650000X0.412500X0.650000X-0.412500X0.650000X0*%
%ADD21R,1.500000X0.900000*%
%ADD22R,0.900000X1.500000*%
%ADD23R,0.900000X0.900000*%
%ADD24FreePoly0,180.000000*%
%ADD25FreePoly1,180.000000*%
%ADD26R,1.500000X1.000000*%
%ADD27R,2.600000X2.600000*%
%ADD28C,2.600000*%
%ADD29R,1.300000X0.800000*%
%ADD30R,2.000000X1.500000*%
%ADD31R,2.000000X3.800000*%
%ADD32C,0.800000*%
%ADD33C,5.000000*%
G04 APERTURE END LIST*
D10*
%TO.C,C6*%
X102400000Y-73037500D03*
X102400000Y-76162500D03*
%TD*%
D11*
%TO.C,C11*%
X104762500Y-64800000D03*
X101637500Y-64800000D03*
%TD*%
%TO.C,C10*%
X104762500Y-68400000D03*
X101637500Y-68400000D03*
%TD*%
D10*
%TO.C,C9*%
X106200000Y-73037500D03*
X106200000Y-76162500D03*
%TD*%
%TO.C,C8*%
X110000000Y-73037500D03*
X110000000Y-76162500D03*
%TD*%
%TO.C,C7*%
X113800000Y-73037500D03*
X113800000Y-76162500D03*
%TD*%
D12*
%TO.C,C4*%
X113600000Y-61562500D03*
X113600000Y-58437500D03*
%TD*%
D13*
%TO.C,J4*%
X152730000Y-62310000D03*
X152730000Y-59770000D03*
X155270000Y-82630000D03*
X155270000Y-75010000D03*
X152730000Y-77550000D03*
X152730000Y-82630000D03*
X155270000Y-59770000D03*
X152730000Y-75010000D03*
X152730000Y-67390000D03*
X152730000Y-80090000D03*
X152730000Y-69930000D03*
X152730000Y-64850000D03*
X155270000Y-64850000D03*
X155270000Y-72470000D03*
X155270000Y-69930000D03*
X155270000Y-67390000D03*
X155270000Y-77550000D03*
X155270000Y-62310000D03*
X155270000Y-80090000D03*
X152730000Y-72470000D03*
D14*
X156720000Y-59770000D03*
X151280000Y-59770000D03*
X156720000Y-62310000D03*
X151280000Y-62310000D03*
X156720000Y-64850000D03*
X151280000Y-64850000D03*
X156720000Y-67390000D03*
X151280000Y-67390000D03*
X156720000Y-69930000D03*
X151280000Y-69930000D03*
X156720000Y-72470000D03*
X151280000Y-72470000D03*
X156720000Y-75010000D03*
X151280000Y-75010000D03*
X156720000Y-77550000D03*
X151280000Y-77550000D03*
X156720000Y-80090000D03*
X151280000Y-80090000D03*
X156720000Y-82630000D03*
X151280000Y-82630000D03*
%TD*%
D15*
%TO.C,R9*%
X154050000Y-99000000D03*
X157150000Y-99000000D03*
%TD*%
D16*
%TO.C,R4*%
X139550000Y-94800000D03*
X136450000Y-94800000D03*
%TD*%
%TO.C,R2*%
X136450000Y-87600000D03*
X139550000Y-87600000D03*
%TD*%
D15*
%TO.C,R8*%
X154000000Y-95200000D03*
X157100000Y-95200000D03*
%TD*%
D17*
%TO.C,SW1*%
X111500000Y-84750000D03*
X111500000Y-91250000D03*
X116000000Y-84750000D03*
X116000000Y-91250000D03*
%TD*%
D18*
%TO.C,J1*%
X141570000Y-69000000D03*
D19*
X141570000Y-66460000D03*
X141570000Y-63920000D03*
X141570000Y-61380000D03*
%TD*%
D17*
%TO.C,SW2*%
X102450000Y-91300000D03*
X102450000Y-84800000D03*
X106950000Y-84800000D03*
X106950000Y-91300000D03*
%TD*%
D15*
%TO.C,R1*%
X109450000Y-80000000D03*
X112550000Y-80000000D03*
%TD*%
%TO.C,R7*%
X154050000Y-91400000D03*
X157150000Y-91400000D03*
%TD*%
D12*
%TO.C,C1*%
X106400000Y-61562500D03*
X106400000Y-58437500D03*
%TD*%
D16*
%TO.C,R11*%
X124450000Y-88000000D03*
X127550000Y-88000000D03*
%TD*%
%TO.C,R12*%
X121050000Y-84200000D03*
X124150000Y-84200000D03*
%TD*%
D18*
%TO.C,J5*%
X105075000Y-98200000D03*
D19*
X107615000Y-98200000D03*
X110155000Y-98200000D03*
%TD*%
D20*
%TO.C,C2*%
X115437500Y-80000000D03*
X118562500Y-80000000D03*
%TD*%
D12*
%TO.C,C12*%
X102800000Y-61562500D03*
X102800000Y-58437500D03*
%TD*%
D16*
%TO.C,R3*%
X139550000Y-91200000D03*
X136450000Y-91200000D03*
%TD*%
%TO.C,R5*%
X139550000Y-98400000D03*
X136450000Y-98400000D03*
%TD*%
D21*
%TO.C,U2*%
X120250000Y-58340000D03*
X120250000Y-59610000D03*
X120250000Y-60880000D03*
X120250000Y-62150000D03*
X120250000Y-63420000D03*
X120250000Y-64690000D03*
X120250000Y-65960000D03*
X120250000Y-67230000D03*
X120250000Y-68500000D03*
X120250000Y-69770000D03*
X120250000Y-71040000D03*
X120250000Y-72310000D03*
X120250000Y-73580000D03*
X120250000Y-74850000D03*
D22*
X122015000Y-76100000D03*
X123285000Y-76100000D03*
X124555000Y-76100000D03*
X125825000Y-76100000D03*
X127095000Y-76100000D03*
X128365000Y-76100000D03*
X129635000Y-76100000D03*
X130905000Y-76100000D03*
X132175000Y-76100000D03*
X133445000Y-76100000D03*
X134715000Y-76100000D03*
X135985000Y-76100000D03*
D21*
X137750000Y-74850000D03*
X137750000Y-73580000D03*
X137750000Y-72310000D03*
X137750000Y-71040000D03*
X137750000Y-69770000D03*
X137750000Y-68500000D03*
X137750000Y-67230000D03*
X137750000Y-65960000D03*
X137750000Y-64690000D03*
X137750000Y-63420000D03*
X137750000Y-62150000D03*
X137750000Y-60880000D03*
X137750000Y-59610000D03*
X137750000Y-58340000D03*
D23*
X127500000Y-64660000D03*
X126100000Y-67460000D03*
X127500000Y-66060000D03*
X128900000Y-66060000D03*
X128900000Y-64660000D03*
X128900000Y-67460000D03*
X127500000Y-67460000D03*
X126100000Y-66060000D03*
X126100000Y-64660000D03*
%TD*%
D24*
%TO.C,JP5*%
X127475000Y-84400000D03*
D25*
X128925000Y-84400000D03*
%TD*%
D16*
%TO.C,R10*%
X124250000Y-80600000D03*
X127350000Y-80600000D03*
%TD*%
D26*
%TO.C,JP4*%
X145800000Y-81450000D03*
X145800000Y-80150000D03*
%TD*%
D27*
%TO.C,J3*%
X122900000Y-94900000D03*
D28*
X127900000Y-94900000D03*
%TD*%
D12*
%TO.C,C5*%
X117200000Y-61562500D03*
X117200000Y-58437500D03*
%TD*%
%TO.C,C3*%
X110000000Y-61562500D03*
X110000000Y-58437500D03*
%TD*%
D26*
%TO.C,JP3*%
X141200000Y-81450000D03*
X141200000Y-80150000D03*
%TD*%
D29*
%TO.C,U1*%
X143850000Y-88750000D03*
X143850000Y-90030000D03*
X143850000Y-91290000D03*
X143850000Y-92560000D03*
X143850000Y-93840000D03*
X143850000Y-95110000D03*
X143850000Y-96370000D03*
X143850000Y-97650000D03*
X150150000Y-97650000D03*
X150150000Y-96370000D03*
X150150000Y-95110000D03*
X150150000Y-93840000D03*
X150150000Y-92560000D03*
X150150000Y-91290000D03*
X150150000Y-90030000D03*
X150150000Y-88750000D03*
%TD*%
D30*
%TO.C,U3*%
X108650000Y-69500000D03*
X108650000Y-67200000D03*
D31*
X114950000Y-67200000D03*
D30*
X108650000Y-64900000D03*
%TD*%
D15*
%TO.C,R6*%
X154050000Y-87800000D03*
X157150000Y-87800000D03*
%TD*%
D32*
%TO.C,H1*%
X126074175Y-64874175D03*
X128725825Y-67525825D03*
X127400000Y-64325000D03*
X129275000Y-66200000D03*
X127400000Y-68075000D03*
X128725825Y-64874175D03*
X126074175Y-67525825D03*
X125525000Y-66200000D03*
D33*
X127400000Y-66200000D03*
%TD*%
D26*
%TO.C,JP1*%
X141200000Y-76050000D03*
X141200000Y-74750000D03*
%TD*%
D18*
%TO.C,J2*%
X145570000Y-61400000D03*
D19*
X145570000Y-63940000D03*
X145570000Y-66480000D03*
X145570000Y-69020000D03*
%TD*%
D26*
%TO.C,JP2*%
X145800000Y-76050000D03*
X145800000Y-74750000D03*
%TD*%
M02*
