M48
; DRILL file {KiCad (6.0.11-0)} date Friday 14 November 2025 at 21:04:09
; FORMAT={-:-/ absolute / metric / decimal}
; #@! TF.CreationDate,2025-11-14T21:04:09+00:00
; #@! TF.GenerationSoftware,Kicad,Pcbnew,(6.0.11-0)
; #@! TF.FileFunction,Plated,1,2,PTH
FMAT,2
METRIC
; #@! TA.AperFunction,Plated,PTH,ViaDrill
T1C0.400
; #@! TA.AperFunction,Plated,PTH,ComponentDrill
T2C0.500
; #@! TA.AperFunction,Plated,PTH,ComponentDrill
T3C1.000
; #@! TA.AperFunction,Plated,PTH,ComponentDrill
T4C1.100
; #@! TA.AperFunction,Plated,PTH,ComponentDrill
T5C1.300
; #@! TA.AperFunction,Plated,PTH,ComponentDrill
T6C2.500
%
G90
G05
T1
X1.0Y42.8
X1.6Y34.4
X1.6Y30.6
X2.2Y20.8
X2.6Y5.8
X3.6Y31.2
X3.8Y12.8
X4.4Y22.6
X4.6Y42.6
X7.6Y6.6
X8.2Y42.4
X8.4Y23.0
X10.6Y36.8
X10.6Y35.6
X11.8Y42.6
X12.0Y23.2
X12.0Y18.6
X12.6Y12.8
X14.0Y5.8
X15.4Y42.6
X15.4Y23.2
X15.8Y27.8
X16.0Y1.6
X18.4Y5.8
X19.4Y13.4
X21.2Y20.8
X21.6Y12.8
X22.0Y27.6
X22.2Y26.6
X22.4Y40.4
X22.6Y42.4
X23.4Y34.6
X24.0Y39.4
X24.2Y40.8
X25.0Y22.8
X25.063Y27.098
X25.2Y38.2
X25.2Y9.0
X25.4Y18.2
X25.4Y2.0
X26.747Y27.649
X27.0Y22.6
X27.8Y42.4
X28.38Y27.916
X28.6Y31.4
X29.168Y28.531
X30.2Y16.6
X30.4Y41.8
X30.8Y17.8
X31.4Y29.0
X31.6Y38.6
X31.882Y27.347
X32.2Y26.4
X32.4Y35.8
X32.4Y17.6
X32.4Y5.0
X33.0Y42.4
X33.2Y9.2
X34.0Y13.0
X34.2Y31.6
X34.2Y19.0
X34.2Y2.0
X34.6Y8.0
X34.8Y38.6
X35.0Y41.4
X35.0Y30.6
X35.6Y18.2
X35.8Y34.6
X36.6Y23.0
X38.0Y8.8
X38.0Y6.0
X38.2Y24.4
X38.4Y21.8
X38.456Y17.575
X39.4Y26.6
X39.4Y19.8
X40.621Y17.575
X41.2Y42.2
X41.6Y1.6
X42.2Y13.6
X43.0Y28.4
X43.6Y19.0
X44.4Y20.8
X44.8Y23.4
X46.2Y42.4
X46.4Y11.0
X46.8Y8.2
X47.0Y4.0
X47.6Y18.6
X48.746Y20.155
X48.8Y29.2
X49.2Y36.0
X49.6Y25.2
X49.745Y20.123
X50.0Y23.144
X50.8Y19.605
X51.4Y13.8
X51.4Y1.4
X51.8Y10.0
X51.8Y4.6
X52.549Y13.038
X54.0Y40.0
X54.0Y37.4
X54.0Y34.8
X54.0Y29.8
X54.0Y27.2
X57.2Y16.8
X58.4Y15.4
X58.6Y3.8
X58.8Y42.0
X58.8Y11.6
X59.2Y7.8
T2
X25.525Y34.8
X26.074Y36.126
X26.074Y33.474
X27.4Y36.675
X27.4Y32.925
X28.726Y36.126
X28.726Y33.474
X29.275Y34.8
T3
X5.075Y2.8
X7.615Y2.8
X10.155Y2.8
X41.57Y39.62
X41.57Y37.08
X41.57Y34.54
X41.57Y32.0
X45.57Y39.6
X45.57Y37.06
X45.57Y34.52
X45.57Y31.98
T4
X2.45Y16.2
X2.45Y9.7
X6.95Y16.2
X6.95Y9.7
X11.5Y16.25
X11.5Y9.75
X16.0Y16.25
X16.0Y9.75
T5
X22.9Y6.1
X27.9Y6.1
T6
X27.4Y34.8
T0
M30
