%TF.GenerationSoftware,KiCad,Pcbnew,(6.0.11-0)*%
%TF.CreationDate,2025-11-14T21:04:09+00:00*%
%TF.ProjectId,local-zappi-power,6c6f6361-6c2d-47a6-9170-70692d706f77,rev?*%
%TF.SameCoordinates,Original*%
%TF.FileFunction,Soldermask,Bot*%
%TF.FilePolarity,Negative*%
%FSLAX46Y46*%
G04 Gerber Fmt 4.6, Leading zero omitted, Abs format (unit mm)*
G04 Created by KiCad (PCBNEW (6.0.11-0)) date 2025-11-14 21:04:09*
%MOMM*%
%LPD*%
G01*
G04 APERTURE LIST*
%ADD10C,0.970000*%
%ADD11C,2.000000*%
%ADD12R,1.700000X1.700000*%
%ADD13O,1.700000X1.700000*%
%ADD14R,2.600000X2.600000*%
%ADD15C,2.600000*%
%ADD16C,0.800000*%
%ADD17C,5.000000*%
G04 APERTURE END LIST*
D10*
%TO.C,J4*%
X52730000Y38690000D03*
X52730000Y41230000D03*
X55270000Y18370000D03*
X55270000Y25990000D03*
X52730000Y23450000D03*
X52730000Y18370000D03*
X55270000Y41230000D03*
X52730000Y25990000D03*
X52730000Y33610000D03*
X52730000Y20910000D03*
X52730000Y31070000D03*
X52730000Y36150000D03*
X55270000Y36150000D03*
X55270000Y28530000D03*
X55270000Y31070000D03*
X55270000Y33610000D03*
X55270000Y23450000D03*
X55270000Y38690000D03*
X55270000Y20910000D03*
X52730000Y28530000D03*
%TD*%
D11*
%TO.C,SW1*%
X11500000Y16250000D03*
X11500000Y9750000D03*
X16000000Y16250000D03*
X16000000Y9750000D03*
%TD*%
D12*
%TO.C,J1*%
X41570000Y32000000D03*
D13*
X41570000Y34540000D03*
X41570000Y37080000D03*
X41570000Y39620000D03*
%TD*%
D11*
%TO.C,SW2*%
X2450000Y9700000D03*
X2450000Y16200000D03*
X6950000Y16200000D03*
X6950000Y9700000D03*
%TD*%
D12*
%TO.C,J5*%
X5075000Y2800000D03*
D13*
X7615000Y2800000D03*
X10155000Y2800000D03*
%TD*%
D14*
%TO.C,J3*%
X22900000Y6100000D03*
D15*
X27900000Y6100000D03*
%TD*%
D16*
%TO.C,H1*%
X26074175Y36125825D03*
X28725825Y33474175D03*
X27400000Y36675000D03*
X29275000Y34800000D03*
X27400000Y32925000D03*
X28725825Y36125825D03*
X26074175Y33474175D03*
X25525000Y34800000D03*
D17*
X27400000Y34800000D03*
%TD*%
D12*
%TO.C,J2*%
X45570000Y39600000D03*
D13*
X45570000Y37060000D03*
X45570000Y34520000D03*
X45570000Y31980000D03*
%TD*%
M02*
