%TF.GenerationSoftware,KiCad,Pcbnew,(6.0.11-0)*%
%TF.CreationDate,2025-11-14T21:04:09+00:00*%
%TF.ProjectId,local-zappi-power,6c6f6361-6c2d-47a6-9170-70692d706f77,rev?*%
%TF.SameCoordinates,Original*%
%TF.FileFunction,Legend,Top*%
%TF.FilePolarity,Positive*%
%FSLAX46Y46*%
G04 Gerber Fmt 4.6, Leading zero omitted, Abs format (unit mm)*
G04 Created by KiCad (PCBNEW (6.0.11-0)) date 2025-11-14 21:04:09*
%MOMM*%
%LPD*%
G01*
G04 APERTURE LIST*
%ADD10C,0.200000*%
%ADD11C,0.100000*%
%ADD12C,0.150000*%
%ADD13C,0.120000*%
%ADD14C,0.350000*%
G04 APERTURE END LIST*
D10*
X8409523Y30147620D02*
X7933333Y30147620D01*
X7885714Y29671429D01*
X7933333Y29719048D01*
X8028571Y29766667D01*
X8266666Y29766667D01*
X8361904Y29719048D01*
X8409523Y29671429D01*
X8457142Y29576191D01*
X8457142Y29338096D01*
X8409523Y29242858D01*
X8361904Y29195239D01*
X8266666Y29147620D01*
X8028571Y29147620D01*
X7933333Y29195239D01*
X7885714Y29242858D01*
X8742857Y30147620D02*
X9076190Y29147620D01*
X9409523Y30147620D01*
X16652380Y32523810D02*
X16652380Y33142858D01*
X17033333Y32809524D01*
X17033333Y32952381D01*
X17080952Y33047620D01*
X17128571Y33095239D01*
X17223809Y33142858D01*
X17461904Y33142858D01*
X17557142Y33095239D01*
X17604761Y33047620D01*
X17652380Y32952381D01*
X17652380Y32666667D01*
X17604761Y32571429D01*
X17557142Y32523810D01*
X17557142Y33571429D02*
X17604761Y33619048D01*
X17652380Y33571429D01*
X17604761Y33523810D01*
X17557142Y33571429D01*
X17652380Y33571429D01*
X16652380Y33952381D02*
X16652380Y34571429D01*
X17033333Y34238096D01*
X17033333Y34380953D01*
X17080952Y34476191D01*
X17128571Y34523810D01*
X17223809Y34571429D01*
X17461904Y34571429D01*
X17557142Y34523810D01*
X17604761Y34476191D01*
X17652380Y34380953D01*
X17652380Y34095239D01*
X17604761Y34000000D01*
X17557142Y33952381D01*
X16652380Y34857143D02*
X17652380Y35190477D01*
X16652380Y35523810D01*
D11*
X58338095Y25547620D02*
X58338095Y26547620D01*
X58576190Y26547620D01*
X58719047Y26500000D01*
X58814285Y26404762D01*
X58861904Y26309524D01*
X58909523Y26119048D01*
X58909523Y25976191D01*
X58861904Y25785715D01*
X58814285Y25690477D01*
X58719047Y25595239D01*
X58576190Y25547620D01*
X58338095Y25547620D01*
X58314285Y22995239D02*
X58457142Y22947620D01*
X58695238Y22947620D01*
X58790476Y22995239D01*
X58838095Y23042858D01*
X58885714Y23138096D01*
X58885714Y23233334D01*
X58838095Y23328572D01*
X58790476Y23376191D01*
X58695238Y23423810D01*
X58504761Y23471429D01*
X58409523Y23519048D01*
X58361904Y23566667D01*
X58314285Y23661905D01*
X58314285Y23757143D01*
X58361904Y23852381D01*
X58409523Y23900000D01*
X58504761Y23947620D01*
X58742857Y23947620D01*
X58885714Y23900000D01*
X58838095Y21347620D02*
X58361904Y21347620D01*
X58314285Y20871429D01*
X58361904Y20919048D01*
X58457142Y20966667D01*
X58695238Y20966667D01*
X58790476Y20919048D01*
X58838095Y20871429D01*
X58885714Y20776191D01*
X58885714Y20538096D01*
X58838095Y20442858D01*
X58790476Y20395239D01*
X58695238Y20347620D01*
X58457142Y20347620D01*
X58361904Y20395239D01*
X58314285Y20442858D01*
X49066666Y21347620D02*
X49685714Y21347620D01*
X49352380Y20966667D01*
X49495238Y20966667D01*
X49590476Y20919048D01*
X49638095Y20871429D01*
X49685714Y20776191D01*
X49685714Y20538096D01*
X49638095Y20442858D01*
X49590476Y20395239D01*
X49495238Y20347620D01*
X49209523Y20347620D01*
X49114285Y20395239D01*
X49066666Y20442858D01*
X49185714Y25871429D02*
X49519047Y25871429D01*
X49661904Y25347620D02*
X49185714Y25347620D01*
X49185714Y26347620D01*
X49661904Y26347620D01*
X49114285Y23947620D02*
X49114285Y23138096D01*
X49161904Y23042858D01*
X49209523Y22995239D01*
X49304761Y22947620D01*
X49495238Y22947620D01*
X49590476Y22995239D01*
X49638095Y23042858D01*
X49685714Y23138096D01*
X49685714Y23947620D01*
D10*
X31809523Y2242858D02*
X31761904Y2195239D01*
X31619047Y2147620D01*
X31523809Y2147620D01*
X31380952Y2195239D01*
X31285714Y2290477D01*
X31238095Y2385715D01*
X31190476Y2576191D01*
X31190476Y2719048D01*
X31238095Y2909524D01*
X31285714Y3004762D01*
X31380952Y3100000D01*
X31523809Y3147620D01*
X31619047Y3147620D01*
X31761904Y3100000D01*
X31809523Y3052381D01*
X32238095Y2147620D02*
X32238095Y3147620D01*
X32619047Y3147620D01*
X32714285Y3100000D01*
X32761904Y3052381D01*
X32809523Y2957143D01*
X32809523Y2814286D01*
X32761904Y2719048D01*
X32714285Y2671429D01*
X32619047Y2623810D01*
X32238095Y2623810D01*
D11*
X39052380Y36438096D02*
X39052380Y37009524D01*
X40052380Y36723810D02*
X39052380Y36723810D01*
X39052380Y37247620D02*
X40052380Y37914286D01*
X39052380Y37914286D02*
X40052380Y37247620D01*
X2252380Y1585715D02*
X1776190Y1252381D01*
X2252380Y1014286D02*
X1252380Y1014286D01*
X1252380Y1395239D01*
X1300000Y1490477D01*
X1347619Y1538096D01*
X1442857Y1585715D01*
X1585714Y1585715D01*
X1680952Y1538096D01*
X1728571Y1490477D01*
X1776190Y1395239D01*
X1776190Y1014286D01*
X2204761Y2395239D02*
X2252380Y2300000D01*
X2252380Y2109524D01*
X2204761Y2014286D01*
X2109523Y1966667D01*
X1728571Y1966667D01*
X1633333Y2014286D01*
X1585714Y2109524D01*
X1585714Y2300000D01*
X1633333Y2395239D01*
X1728571Y2442858D01*
X1823809Y2442858D01*
X1919047Y1966667D01*
X2252380Y3014286D02*
X2204761Y2919048D01*
X2109523Y2871429D01*
X1252380Y2871429D01*
X2252380Y3823810D02*
X1728571Y3823810D01*
X1633333Y3776191D01*
X1585714Y3680953D01*
X1585714Y3490477D01*
X1633333Y3395239D01*
X2204761Y3823810D02*
X2252380Y3728572D01*
X2252380Y3490477D01*
X2204761Y3395239D01*
X2109523Y3347620D01*
X2014285Y3347620D01*
X1919047Y3395239D01*
X1871428Y3490477D01*
X1871428Y3728572D01*
X1823809Y3823810D01*
X1585714Y4204762D02*
X2252380Y4442858D01*
X1585714Y4680953D02*
X2252380Y4442858D01*
X2490476Y4347620D01*
X2538095Y4300000D01*
X2585714Y4204762D01*
X47938095Y34047620D02*
X47938095Y35047620D01*
X48319047Y35047620D01*
X48414285Y35000000D01*
X48461904Y34952381D01*
X48509523Y34857143D01*
X48509523Y34714286D01*
X48461904Y34619048D01*
X48414285Y34571429D01*
X48319047Y34523810D01*
X47938095Y34523810D01*
D10*
X18609523Y2242858D02*
X18561904Y2195239D01*
X18419047Y2147620D01*
X18323809Y2147620D01*
X18180952Y2195239D01*
X18085714Y2290477D01*
X18038095Y2385715D01*
X17990476Y2576191D01*
X17990476Y2719048D01*
X18038095Y2909524D01*
X18085714Y3004762D01*
X18180952Y3100000D01*
X18323809Y3147620D01*
X18419047Y3147620D01*
X18561904Y3100000D01*
X18609523Y3052381D01*
X19038095Y2147620D02*
X19038095Y3147620D01*
X19419047Y3147620D01*
X19514285Y3100000D01*
X19561904Y3052381D01*
X19609523Y2957143D01*
X19609523Y2814286D01*
X19561904Y2719048D01*
X19514285Y2671429D01*
X19419047Y2623810D01*
X19038095Y2623810D01*
D11*
X48209523Y32297620D02*
X47733333Y32297620D01*
X47685714Y31821429D01*
X47733333Y31869048D01*
X47828571Y31916667D01*
X48066666Y31916667D01*
X48161904Y31869048D01*
X48209523Y31821429D01*
X48257142Y31726191D01*
X48257142Y31488096D01*
X48209523Y31392858D01*
X48161904Y31345239D01*
X48066666Y31297620D01*
X47828571Y31297620D01*
X47733333Y31345239D01*
X47685714Y31392858D01*
X48542857Y32297620D02*
X48876190Y31297620D01*
X49209523Y32297620D01*
X47700000Y39238096D02*
X47652380Y39142858D01*
X47652380Y39000000D01*
X47700000Y38857143D01*
X47795238Y38761905D01*
X47890476Y38714286D01*
X48080952Y38666667D01*
X48223809Y38666667D01*
X48414285Y38714286D01*
X48509523Y38761905D01*
X48604761Y38857143D01*
X48652380Y39000000D01*
X48652380Y39095239D01*
X48604761Y39238096D01*
X48557142Y39285715D01*
X48223809Y39285715D01*
X48223809Y39095239D01*
X48652380Y39714286D02*
X47652380Y39714286D01*
X48652380Y40285715D01*
X47652380Y40285715D01*
X48652380Y40761905D02*
X47652380Y40761905D01*
X47652380Y41000000D01*
X47700000Y41142858D01*
X47795238Y41238096D01*
X47890476Y41285715D01*
X48080952Y41333334D01*
X48223809Y41333334D01*
X48414285Y41285715D01*
X48509523Y41238096D01*
X48604761Y41142858D01*
X48652380Y41000000D01*
X48652380Y40761905D01*
X39052380Y39809524D02*
X39052380Y39333334D01*
X39528571Y39285715D01*
X39480952Y39333334D01*
X39433333Y39428572D01*
X39433333Y39666667D01*
X39480952Y39761905D01*
X39528571Y39809524D01*
X39623809Y39857143D01*
X39861904Y39857143D01*
X39957142Y39809524D01*
X40004761Y39761905D01*
X40052380Y39666667D01*
X40052380Y39428572D01*
X40004761Y39333334D01*
X39957142Y39285715D01*
X39052380Y40142858D02*
X40052380Y40476191D01*
X39052380Y40809524D01*
X6273809Y7047620D02*
X6892857Y7047620D01*
X6559523Y6666667D01*
X6702380Y6666667D01*
X6797619Y6619048D01*
X6845238Y6571429D01*
X6892857Y6476191D01*
X6892857Y6238096D01*
X6845238Y6142858D01*
X6797619Y6095239D01*
X6702380Y6047620D01*
X6416666Y6047620D01*
X6321428Y6095239D01*
X6273809Y6142858D01*
X7321428Y6142858D02*
X7369047Y6095239D01*
X7321428Y6047620D01*
X7273809Y6095239D01*
X7321428Y6142858D01*
X7321428Y6047620D01*
X7702380Y7047620D02*
X8321428Y7047620D01*
X7988095Y6666667D01*
X8130952Y6666667D01*
X8226190Y6619048D01*
X8273809Y6571429D01*
X8321428Y6476191D01*
X8321428Y6238096D01*
X8273809Y6142858D01*
X8226190Y6095239D01*
X8130952Y6047620D01*
X7845238Y6047620D01*
X7750000Y6095239D01*
X7702380Y6142858D01*
X8607142Y7047620D02*
X8940476Y6047620D01*
X9273809Y7047620D01*
X39100000Y31038096D02*
X39052380Y30942858D01*
X39052380Y30800000D01*
X39100000Y30657143D01*
X39195238Y30561905D01*
X39290476Y30514286D01*
X39480952Y30466667D01*
X39623809Y30466667D01*
X39814285Y30514286D01*
X39909523Y30561905D01*
X40004761Y30657143D01*
X40052380Y30800000D01*
X40052380Y30895239D01*
X40004761Y31038096D01*
X39957142Y31085715D01*
X39623809Y31085715D01*
X39623809Y30895239D01*
X40052380Y31514286D02*
X39052380Y31514286D01*
X40052380Y32085715D01*
X39052380Y32085715D01*
X40052380Y32561905D02*
X39052380Y32561905D01*
X39052380Y32800000D01*
X39100000Y32942858D01*
X39195238Y33038096D01*
X39290476Y33085715D01*
X39480952Y33133334D01*
X39623809Y33133334D01*
X39814285Y33085715D01*
X39909523Y33038096D01*
X40004761Y32942858D01*
X40052380Y32800000D01*
X40052380Y32561905D01*
X47914285Y36547620D02*
X47914285Y37547620D01*
X48485714Y36547620D01*
X48485714Y37547620D01*
X40052380Y34433334D02*
X39576190Y34100000D01*
X40052380Y33861905D02*
X39052380Y33861905D01*
X39052380Y34242858D01*
X39100000Y34338096D01*
X39147619Y34385715D01*
X39242857Y34433334D01*
X39385714Y34433334D01*
X39480952Y34385715D01*
X39528571Y34338096D01*
X39576190Y34242858D01*
X39576190Y33861905D01*
X39052380Y34766667D02*
X40052380Y35433334D01*
X39052380Y35433334D02*
X40052380Y34766667D01*
D12*
%TO.C,C6*%
X4607142Y26233334D02*
X4654761Y26185715D01*
X4702380Y26042858D01*
X4702380Y25947620D01*
X4654761Y25804762D01*
X4559523Y25709524D01*
X4464285Y25661905D01*
X4273809Y25614286D01*
X4130952Y25614286D01*
X3940476Y25661905D01*
X3845238Y25709524D01*
X3750000Y25804762D01*
X3702380Y25947620D01*
X3702380Y26042858D01*
X3750000Y26185715D01*
X3797619Y26233334D01*
X3702380Y27090477D02*
X3702380Y26900000D01*
X3750000Y26804762D01*
X3797619Y26757143D01*
X3940476Y26661905D01*
X4130952Y26614286D01*
X4511904Y26614286D01*
X4607142Y26661905D01*
X4654761Y26709524D01*
X4702380Y26804762D01*
X4702380Y26995239D01*
X4654761Y27090477D01*
X4607142Y27138096D01*
X4511904Y27185715D01*
X4273809Y27185715D01*
X4178571Y27138096D01*
X4130952Y27090477D01*
X4083333Y26995239D01*
X4083333Y26804762D01*
X4130952Y26709524D01*
X4178571Y26661905D01*
X4273809Y26614286D01*
%TO.C,C11*%
X2557142Y33992858D02*
X2509523Y33945239D01*
X2366666Y33897620D01*
X2271428Y33897620D01*
X2128571Y33945239D01*
X2033333Y34040477D01*
X1985714Y34135715D01*
X1938095Y34326191D01*
X1938095Y34469048D01*
X1985714Y34659524D01*
X2033333Y34754762D01*
X2128571Y34850000D01*
X2271428Y34897620D01*
X2366666Y34897620D01*
X2509523Y34850000D01*
X2557142Y34802381D01*
X3509523Y33897620D02*
X2938095Y33897620D01*
X3223809Y33897620D02*
X3223809Y34897620D01*
X3128571Y34754762D01*
X3033333Y34659524D01*
X2938095Y34611905D01*
X4461904Y33897620D02*
X3890476Y33897620D01*
X4176190Y33897620D02*
X4176190Y34897620D01*
X4080952Y34754762D01*
X3985714Y34659524D01*
X3890476Y34611905D01*
%TO.C,C10*%
X2557142Y30392858D02*
X2509523Y30345239D01*
X2366666Y30297620D01*
X2271428Y30297620D01*
X2128571Y30345239D01*
X2033333Y30440477D01*
X1985714Y30535715D01*
X1938095Y30726191D01*
X1938095Y30869048D01*
X1985714Y31059524D01*
X2033333Y31154762D01*
X2128571Y31250000D01*
X2271428Y31297620D01*
X2366666Y31297620D01*
X2509523Y31250000D01*
X2557142Y31202381D01*
X3509523Y30297620D02*
X2938095Y30297620D01*
X3223809Y30297620D02*
X3223809Y31297620D01*
X3128571Y31154762D01*
X3033333Y31059524D01*
X2938095Y31011905D01*
X4128571Y31297620D02*
X4223809Y31297620D01*
X4319047Y31250000D01*
X4366666Y31202381D01*
X4414285Y31107143D01*
X4461904Y30916667D01*
X4461904Y30678572D01*
X4414285Y30488096D01*
X4366666Y30392858D01*
X4319047Y30345239D01*
X4223809Y30297620D01*
X4128571Y30297620D01*
X4033333Y30345239D01*
X3985714Y30392858D01*
X3938095Y30488096D01*
X3890476Y30678572D01*
X3890476Y30916667D01*
X3938095Y31107143D01*
X3985714Y31202381D01*
X4033333Y31250000D01*
X4128571Y31297620D01*
%TO.C,C9*%
X8407142Y26233334D02*
X8454761Y26185715D01*
X8502380Y26042858D01*
X8502380Y25947620D01*
X8454761Y25804762D01*
X8359523Y25709524D01*
X8264285Y25661905D01*
X8073809Y25614286D01*
X7930952Y25614286D01*
X7740476Y25661905D01*
X7645238Y25709524D01*
X7550000Y25804762D01*
X7502380Y25947620D01*
X7502380Y26042858D01*
X7550000Y26185715D01*
X7597619Y26233334D01*
X8502380Y26709524D02*
X8502380Y26900000D01*
X8454761Y26995239D01*
X8407142Y27042858D01*
X8264285Y27138096D01*
X8073809Y27185715D01*
X7692857Y27185715D01*
X7597619Y27138096D01*
X7550000Y27090477D01*
X7502380Y26995239D01*
X7502380Y26804762D01*
X7550000Y26709524D01*
X7597619Y26661905D01*
X7692857Y26614286D01*
X7930952Y26614286D01*
X8026190Y26661905D01*
X8073809Y26709524D01*
X8121428Y26804762D01*
X8121428Y26995239D01*
X8073809Y27090477D01*
X8026190Y27138096D01*
X7930952Y27185715D01*
%TO.C,C8*%
X12207142Y26233334D02*
X12254761Y26185715D01*
X12302380Y26042858D01*
X12302380Y25947620D01*
X12254761Y25804762D01*
X12159523Y25709524D01*
X12064285Y25661905D01*
X11873809Y25614286D01*
X11730952Y25614286D01*
X11540476Y25661905D01*
X11445238Y25709524D01*
X11350000Y25804762D01*
X11302380Y25947620D01*
X11302380Y26042858D01*
X11350000Y26185715D01*
X11397619Y26233334D01*
X11730952Y26804762D02*
X11683333Y26709524D01*
X11635714Y26661905D01*
X11540476Y26614286D01*
X11492857Y26614286D01*
X11397619Y26661905D01*
X11350000Y26709524D01*
X11302380Y26804762D01*
X11302380Y26995239D01*
X11350000Y27090477D01*
X11397619Y27138096D01*
X11492857Y27185715D01*
X11540476Y27185715D01*
X11635714Y27138096D01*
X11683333Y27090477D01*
X11730952Y26995239D01*
X11730952Y26804762D01*
X11778571Y26709524D01*
X11826190Y26661905D01*
X11921428Y26614286D01*
X12111904Y26614286D01*
X12207142Y26661905D01*
X12254761Y26709524D01*
X12302380Y26804762D01*
X12302380Y26995239D01*
X12254761Y27090477D01*
X12207142Y27138096D01*
X12111904Y27185715D01*
X11921428Y27185715D01*
X11826190Y27138096D01*
X11778571Y27090477D01*
X11730952Y26995239D01*
%TO.C,C7*%
X16007142Y26233334D02*
X16054761Y26185715D01*
X16102380Y26042858D01*
X16102380Y25947620D01*
X16054761Y25804762D01*
X15959523Y25709524D01*
X15864285Y25661905D01*
X15673809Y25614286D01*
X15530952Y25614286D01*
X15340476Y25661905D01*
X15245238Y25709524D01*
X15150000Y25804762D01*
X15102380Y25947620D01*
X15102380Y26042858D01*
X15150000Y26185715D01*
X15197619Y26233334D01*
X15102380Y26566667D02*
X15102380Y27233334D01*
X16102380Y26804762D01*
%TO.C,C4*%
X12107142Y40833334D02*
X12154761Y40785715D01*
X12202380Y40642858D01*
X12202380Y40547620D01*
X12154761Y40404762D01*
X12059523Y40309524D01*
X11964285Y40261905D01*
X11773809Y40214286D01*
X11630952Y40214286D01*
X11440476Y40261905D01*
X11345238Y40309524D01*
X11250000Y40404762D01*
X11202380Y40547620D01*
X11202380Y40642858D01*
X11250000Y40785715D01*
X11297619Y40833334D01*
X11535714Y41690477D02*
X12202380Y41690477D01*
X11154761Y41452381D02*
X11869047Y41214286D01*
X11869047Y41833334D01*
%TO.C,R9*%
X55433333Y3367620D02*
X55100000Y3843810D01*
X54861904Y3367620D02*
X54861904Y4367620D01*
X55242857Y4367620D01*
X55338095Y4320000D01*
X55385714Y4272381D01*
X55433333Y4177143D01*
X55433333Y4034286D01*
X55385714Y3939048D01*
X55338095Y3891429D01*
X55242857Y3843810D01*
X54861904Y3843810D01*
X55909523Y3367620D02*
X56100000Y3367620D01*
X56195238Y3415239D01*
X56242857Y3462858D01*
X56338095Y3605715D01*
X56385714Y3796191D01*
X56385714Y4177143D01*
X56338095Y4272381D01*
X56290476Y4320000D01*
X56195238Y4367620D01*
X56004761Y4367620D01*
X55909523Y4320000D01*
X55861904Y4272381D01*
X55814285Y4177143D01*
X55814285Y3939048D01*
X55861904Y3843810D01*
X55909523Y3796191D01*
X56004761Y3748572D01*
X56195238Y3748572D01*
X56290476Y3796191D01*
X56338095Y3843810D01*
X56385714Y3939048D01*
%TO.C,R4*%
X37833333Y3927620D02*
X37500000Y4403810D01*
X37261904Y3927620D02*
X37261904Y4927620D01*
X37642857Y4927620D01*
X37738095Y4880000D01*
X37785714Y4832381D01*
X37833333Y4737143D01*
X37833333Y4594286D01*
X37785714Y4499048D01*
X37738095Y4451429D01*
X37642857Y4403810D01*
X37261904Y4403810D01*
X38690476Y4594286D02*
X38690476Y3927620D01*
X38452380Y4975239D02*
X38214285Y4260953D01*
X38833333Y4260953D01*
%TO.C,R2*%
X37833333Y11127620D02*
X37500000Y11603810D01*
X37261904Y11127620D02*
X37261904Y12127620D01*
X37642857Y12127620D01*
X37738095Y12080000D01*
X37785714Y12032381D01*
X37833333Y11937143D01*
X37833333Y11794286D01*
X37785714Y11699048D01*
X37738095Y11651429D01*
X37642857Y11603810D01*
X37261904Y11603810D01*
X38214285Y12032381D02*
X38261904Y12080000D01*
X38357142Y12127620D01*
X38595238Y12127620D01*
X38690476Y12080000D01*
X38738095Y12032381D01*
X38785714Y11937143D01*
X38785714Y11841905D01*
X38738095Y11699048D01*
X38166666Y11127620D01*
X38785714Y11127620D01*
%TO.C,R8*%
X55383333Y7167620D02*
X55050000Y7643810D01*
X54811904Y7167620D02*
X54811904Y8167620D01*
X55192857Y8167620D01*
X55288095Y8120000D01*
X55335714Y8072381D01*
X55383333Y7977143D01*
X55383333Y7834286D01*
X55335714Y7739048D01*
X55288095Y7691429D01*
X55192857Y7643810D01*
X54811904Y7643810D01*
X55954761Y7739048D02*
X55859523Y7786667D01*
X55811904Y7834286D01*
X55764285Y7929524D01*
X55764285Y7977143D01*
X55811904Y8072381D01*
X55859523Y8120000D01*
X55954761Y8167620D01*
X56145238Y8167620D01*
X56240476Y8120000D01*
X56288095Y8072381D01*
X56335714Y7977143D01*
X56335714Y7929524D01*
X56288095Y7834286D01*
X56240476Y7786667D01*
X56145238Y7739048D01*
X55954761Y7739048D01*
X55859523Y7691429D01*
X55811904Y7643810D01*
X55764285Y7548572D01*
X55764285Y7358096D01*
X55811904Y7262858D01*
X55859523Y7215239D01*
X55954761Y7167620D01*
X56145238Y7167620D01*
X56240476Y7215239D01*
X56288095Y7262858D01*
X56335714Y7358096D01*
X56335714Y7548572D01*
X56288095Y7643810D01*
X56240476Y7691429D01*
X56145238Y7739048D01*
%TO.C,SW1*%
X13202380Y18047620D02*
X12869047Y18523810D01*
X12630952Y18047620D02*
X12630952Y19047620D01*
X13011904Y19047620D01*
X13107142Y19000000D01*
X13154761Y18952381D01*
X13202380Y18857143D01*
X13202380Y18714286D01*
X13154761Y18619048D01*
X13107142Y18571429D01*
X13011904Y18523810D01*
X12630952Y18523810D01*
X13583333Y18095239D02*
X13726190Y18047620D01*
X13964285Y18047620D01*
X14059523Y18095239D01*
X14107142Y18142858D01*
X14154761Y18238096D01*
X14154761Y18333334D01*
X14107142Y18428572D01*
X14059523Y18476191D01*
X13964285Y18523810D01*
X13773809Y18571429D01*
X13678571Y18619048D01*
X13630952Y18666667D01*
X13583333Y18761905D01*
X13583333Y18857143D01*
X13630952Y18952381D01*
X13678571Y19000000D01*
X13773809Y19047620D01*
X14011904Y19047620D01*
X14154761Y19000000D01*
X14440476Y19047620D02*
X15011904Y19047620D01*
X14726190Y18047620D02*
X14726190Y19047620D01*
%TO.C,J1*%
X40546190Y29147620D02*
X40212857Y29623810D01*
X39974761Y29147620D02*
X39974761Y30147620D01*
X40355714Y30147620D01*
X40450952Y30100000D01*
X40498571Y30052381D01*
X40546190Y29957143D01*
X40546190Y29814286D01*
X40498571Y29719048D01*
X40450952Y29671429D01*
X40355714Y29623810D01*
X39974761Y29623810D01*
X40879523Y30147620D02*
X41546190Y29147620D01*
X41546190Y30147620D02*
X40879523Y29147620D01*
X41784285Y30147620D02*
X42355714Y30147620D01*
X42070000Y29147620D02*
X42070000Y30147620D01*
X42593809Y30147620D02*
X43260476Y29147620D01*
X43260476Y30147620D02*
X42593809Y29147620D01*
%TO.C,SW2*%
X3023809Y19000000D02*
X2928571Y19047620D01*
X2785714Y19047620D01*
X2642857Y19000000D01*
X2547619Y18904762D01*
X2500000Y18809524D01*
X2452380Y18619048D01*
X2452380Y18476191D01*
X2500000Y18285715D01*
X2547619Y18190477D01*
X2642857Y18095239D01*
X2785714Y18047620D01*
X2880952Y18047620D01*
X3023809Y18095239D01*
X3071428Y18142858D01*
X3071428Y18476191D01*
X2880952Y18476191D01*
X3500000Y18047620D02*
X3500000Y19047620D01*
X3880952Y19047620D01*
X3976190Y19000000D01*
X4023809Y18952381D01*
X4071428Y18857143D01*
X4071428Y18714286D01*
X4023809Y18619048D01*
X3976190Y18571429D01*
X3880952Y18523810D01*
X3500000Y18523810D01*
X4500000Y18047620D02*
X4500000Y19047620D01*
X5166666Y19047620D02*
X5357142Y19047620D01*
X5452380Y19000000D01*
X5547619Y18904762D01*
X5595238Y18714286D01*
X5595238Y18380953D01*
X5547619Y18190477D01*
X5452380Y18095239D01*
X5357142Y18047620D01*
X5166666Y18047620D01*
X5071428Y18095239D01*
X4976190Y18190477D01*
X4928571Y18380953D01*
X4928571Y18714286D01*
X4976190Y18904762D01*
X5071428Y19000000D01*
X5166666Y19047620D01*
X6214285Y19047620D02*
X6309523Y19047620D01*
X6404761Y19000000D01*
X6452380Y18952381D01*
X6500000Y18857143D01*
X6547619Y18666667D01*
X6547619Y18428572D01*
X6500000Y18238096D01*
X6452380Y18142858D01*
X6404761Y18095239D01*
X6309523Y18047620D01*
X6214285Y18047620D01*
X6119047Y18095239D01*
X6071428Y18142858D01*
X6023809Y18238096D01*
X5976190Y18428572D01*
X5976190Y18666667D01*
X6023809Y18857143D01*
X6071428Y18952381D01*
X6119047Y19000000D01*
X6214285Y19047620D01*
%TO.C,R1*%
X10833333Y22367620D02*
X10500000Y22843810D01*
X10261904Y22367620D02*
X10261904Y23367620D01*
X10642857Y23367620D01*
X10738095Y23320000D01*
X10785714Y23272381D01*
X10833333Y23177143D01*
X10833333Y23034286D01*
X10785714Y22939048D01*
X10738095Y22891429D01*
X10642857Y22843810D01*
X10261904Y22843810D01*
X11785714Y22367620D02*
X11214285Y22367620D01*
X11500000Y22367620D02*
X11500000Y23367620D01*
X11404761Y23224762D01*
X11309523Y23129524D01*
X11214285Y23081905D01*
%TO.C,R7*%
X55433333Y10967620D02*
X55100000Y11443810D01*
X54861904Y10967620D02*
X54861904Y11967620D01*
X55242857Y11967620D01*
X55338095Y11920000D01*
X55385714Y11872381D01*
X55433333Y11777143D01*
X55433333Y11634286D01*
X55385714Y11539048D01*
X55338095Y11491429D01*
X55242857Y11443810D01*
X54861904Y11443810D01*
X55766666Y11967620D02*
X56433333Y11967620D01*
X56004761Y10967620D01*
%TO.C,C1*%
X4907142Y40833334D02*
X4954761Y40785715D01*
X5002380Y40642858D01*
X5002380Y40547620D01*
X4954761Y40404762D01*
X4859523Y40309524D01*
X4764285Y40261905D01*
X4573809Y40214286D01*
X4430952Y40214286D01*
X4240476Y40261905D01*
X4145238Y40309524D01*
X4050000Y40404762D01*
X4002380Y40547620D01*
X4002380Y40642858D01*
X4050000Y40785715D01*
X4097619Y40833334D01*
X5002380Y41785715D02*
X5002380Y41214286D01*
X5002380Y41500000D02*
X4002380Y41500000D01*
X4145238Y41404762D01*
X4240476Y41309524D01*
X4288095Y41214286D01*
%TO.C,R11*%
X25357142Y10727620D02*
X25023809Y11203810D01*
X24785714Y10727620D02*
X24785714Y11727620D01*
X25166666Y11727620D01*
X25261904Y11680000D01*
X25309523Y11632381D01*
X25357142Y11537143D01*
X25357142Y11394286D01*
X25309523Y11299048D01*
X25261904Y11251429D01*
X25166666Y11203810D01*
X24785714Y11203810D01*
X26309523Y10727620D02*
X25738095Y10727620D01*
X26023809Y10727620D02*
X26023809Y11727620D01*
X25928571Y11584762D01*
X25833333Y11489524D01*
X25738095Y11441905D01*
X27261904Y10727620D02*
X26690476Y10727620D01*
X26976190Y10727620D02*
X26976190Y11727620D01*
X26880952Y11584762D01*
X26785714Y11489524D01*
X26690476Y11441905D01*
%TO.C,R12*%
X21957142Y14527620D02*
X21623809Y15003810D01*
X21385714Y14527620D02*
X21385714Y15527620D01*
X21766666Y15527620D01*
X21861904Y15480000D01*
X21909523Y15432381D01*
X21957142Y15337143D01*
X21957142Y15194286D01*
X21909523Y15099048D01*
X21861904Y15051429D01*
X21766666Y15003810D01*
X21385714Y15003810D01*
X22909523Y14527620D02*
X22338095Y14527620D01*
X22623809Y14527620D02*
X22623809Y15527620D01*
X22528571Y15384762D01*
X22433333Y15289524D01*
X22338095Y15241905D01*
X23290476Y15432381D02*
X23338095Y15480000D01*
X23433333Y15527620D01*
X23671428Y15527620D01*
X23766666Y15480000D01*
X23814285Y15432381D01*
X23861904Y15337143D01*
X23861904Y15241905D01*
X23814285Y15099048D01*
X23242857Y14527620D01*
X23861904Y14527620D01*
%TO.C,J5*%
X12750000Y1838096D02*
X12702380Y1742858D01*
X12702380Y1600000D01*
X12750000Y1457143D01*
X12845238Y1361905D01*
X12940476Y1314286D01*
X13130952Y1266667D01*
X13273809Y1266667D01*
X13464285Y1314286D01*
X13559523Y1361905D01*
X13654761Y1457143D01*
X13702380Y1600000D01*
X13702380Y1695239D01*
X13654761Y1838096D01*
X13607142Y1885715D01*
X13273809Y1885715D01*
X13273809Y1695239D01*
X13702380Y2314286D02*
X12702380Y2314286D01*
X13702380Y2885715D01*
X12702380Y2885715D01*
X13702380Y3361905D02*
X12702380Y3361905D01*
X12702380Y3600000D01*
X12750000Y3742858D01*
X12845238Y3838096D01*
X12940476Y3885715D01*
X13130952Y3933334D01*
X13273809Y3933334D01*
X13464285Y3885715D01*
X13559523Y3838096D01*
X13654761Y3742858D01*
X13702380Y3600000D01*
X13702380Y3361905D01*
%TO.C,C2*%
X16833333Y22492858D02*
X16785714Y22445239D01*
X16642857Y22397620D01*
X16547619Y22397620D01*
X16404761Y22445239D01*
X16309523Y22540477D01*
X16261904Y22635715D01*
X16214285Y22826191D01*
X16214285Y22969048D01*
X16261904Y23159524D01*
X16309523Y23254762D01*
X16404761Y23350000D01*
X16547619Y23397620D01*
X16642857Y23397620D01*
X16785714Y23350000D01*
X16833333Y23302381D01*
X17214285Y23302381D02*
X17261904Y23350000D01*
X17357142Y23397620D01*
X17595238Y23397620D01*
X17690476Y23350000D01*
X17738095Y23302381D01*
X17785714Y23207143D01*
X17785714Y23111905D01*
X17738095Y22969048D01*
X17166666Y22397620D01*
X17785714Y22397620D01*
%TO.C,C12*%
X1357142Y40357143D02*
X1404761Y40309524D01*
X1452380Y40166667D01*
X1452380Y40071429D01*
X1404761Y39928572D01*
X1309523Y39833334D01*
X1214285Y39785715D01*
X1023809Y39738096D01*
X880952Y39738096D01*
X690476Y39785715D01*
X595238Y39833334D01*
X500000Y39928572D01*
X452380Y40071429D01*
X452380Y40166667D01*
X500000Y40309524D01*
X547619Y40357143D01*
X1452380Y41309524D02*
X1452380Y40738096D01*
X1452380Y41023810D02*
X452380Y41023810D01*
X595238Y40928572D01*
X690476Y40833334D01*
X738095Y40738096D01*
X547619Y41690477D02*
X500000Y41738096D01*
X452380Y41833334D01*
X452380Y42071429D01*
X500000Y42166667D01*
X547619Y42214286D01*
X642857Y42261905D01*
X738095Y42261905D01*
X880952Y42214286D01*
X1452380Y41642858D01*
X1452380Y42261905D01*
%TO.C,R3*%
X37833333Y7527620D02*
X37500000Y8003810D01*
X37261904Y7527620D02*
X37261904Y8527620D01*
X37642857Y8527620D01*
X37738095Y8480000D01*
X37785714Y8432381D01*
X37833333Y8337143D01*
X37833333Y8194286D01*
X37785714Y8099048D01*
X37738095Y8051429D01*
X37642857Y8003810D01*
X37261904Y8003810D01*
X38166666Y8527620D02*
X38785714Y8527620D01*
X38452380Y8146667D01*
X38595238Y8146667D01*
X38690476Y8099048D01*
X38738095Y8051429D01*
X38785714Y7956191D01*
X38785714Y7718096D01*
X38738095Y7622858D01*
X38690476Y7575239D01*
X38595238Y7527620D01*
X38309523Y7527620D01*
X38214285Y7575239D01*
X38166666Y7622858D01*
%TO.C,R5*%
X37833333Y327620D02*
X37500000Y803810D01*
X37261904Y327620D02*
X37261904Y1327620D01*
X37642857Y1327620D01*
X37738095Y1280000D01*
X37785714Y1232381D01*
X37833333Y1137143D01*
X37833333Y994286D01*
X37785714Y899048D01*
X37738095Y851429D01*
X37642857Y803810D01*
X37261904Y803810D01*
X38738095Y1327620D02*
X38261904Y1327620D01*
X38214285Y851429D01*
X38261904Y899048D01*
X38357142Y946667D01*
X38595238Y946667D01*
X38690476Y899048D01*
X38738095Y851429D01*
X38785714Y756191D01*
X38785714Y518096D01*
X38738095Y422858D01*
X38690476Y375239D01*
X38595238Y327620D01*
X38357142Y327620D01*
X38261904Y375239D01*
X38214285Y422858D01*
%TO.C,U2*%
X28238095Y51997620D02*
X28238095Y51188096D01*
X28285714Y51092858D01*
X28333333Y51045239D01*
X28428571Y50997620D01*
X28619047Y50997620D01*
X28714285Y51045239D01*
X28761904Y51092858D01*
X28809523Y51188096D01*
X28809523Y51997620D01*
X29238095Y51902381D02*
X29285714Y51950000D01*
X29380952Y51997620D01*
X29619047Y51997620D01*
X29714285Y51950000D01*
X29761904Y51902381D01*
X29809523Y51807143D01*
X29809523Y51711905D01*
X29761904Y51569048D01*
X29190476Y50997620D01*
X29809523Y50997620D01*
X24238095Y46983334D02*
X24714285Y46983334D01*
X24142857Y46697620D02*
X24476190Y47697620D01*
X24809523Y46697620D01*
X25142857Y47364286D02*
X25142857Y46697620D01*
X25142857Y47269048D02*
X25190476Y47316667D01*
X25285714Y47364286D01*
X25428571Y47364286D01*
X25523809Y47316667D01*
X25571428Y47221429D01*
X25571428Y46697620D01*
X25904761Y47364286D02*
X26285714Y47364286D01*
X26047619Y47697620D02*
X26047619Y46840477D01*
X26095238Y46745239D01*
X26190476Y46697620D01*
X26285714Y46697620D01*
X27000000Y46745239D02*
X26904761Y46697620D01*
X26714285Y46697620D01*
X26619047Y46745239D01*
X26571428Y46840477D01*
X26571428Y47221429D01*
X26619047Y47316667D01*
X26714285Y47364286D01*
X26904761Y47364286D01*
X27000000Y47316667D01*
X27047619Y47221429D01*
X27047619Y47126191D01*
X26571428Y47030953D01*
X27476190Y47364286D02*
X27476190Y46697620D01*
X27476190Y47269048D02*
X27523809Y47316667D01*
X27619047Y47364286D01*
X27761904Y47364286D01*
X27857142Y47316667D01*
X27904761Y47221429D01*
X27904761Y46697620D01*
X28380952Y47364286D02*
X28380952Y46697620D01*
X28380952Y47269048D02*
X28428571Y47316667D01*
X28523809Y47364286D01*
X28666666Y47364286D01*
X28761904Y47316667D01*
X28809523Y47221429D01*
X28809523Y46697620D01*
X29714285Y46697620D02*
X29714285Y47221429D01*
X29666666Y47316667D01*
X29571428Y47364286D01*
X29380952Y47364286D01*
X29285714Y47316667D01*
X29714285Y46745239D02*
X29619047Y46697620D01*
X29380952Y46697620D01*
X29285714Y46745239D01*
X29238095Y46840477D01*
X29238095Y46935715D01*
X29285714Y47030953D01*
X29380952Y47078572D01*
X29619047Y47078572D01*
X29714285Y47126191D01*
X30904761Y46983334D02*
X31380952Y46983334D01*
X30809523Y46697620D02*
X31142857Y47697620D01*
X31476190Y46697620D01*
X31809523Y46697620D02*
X31809523Y47364286D01*
X31809523Y47173810D02*
X31857142Y47269048D01*
X31904761Y47316667D01*
X32000000Y47364286D01*
X32095238Y47364286D01*
X32809523Y46745239D02*
X32714285Y46697620D01*
X32523809Y46697620D01*
X32428571Y46745239D01*
X32380952Y46840477D01*
X32380952Y47221429D01*
X32428571Y47316667D01*
X32523809Y47364286D01*
X32714285Y47364286D01*
X32809523Y47316667D01*
X32857142Y47221429D01*
X32857142Y47126191D01*
X32380952Y47030953D01*
X33714285Y46697620D02*
X33714285Y47221429D01*
X33666666Y47316667D01*
X33571428Y47364286D01*
X33380952Y47364286D01*
X33285714Y47316667D01*
X33714285Y46745239D02*
X33619047Y46697620D01*
X33380952Y46697620D01*
X33285714Y46745239D01*
X33238095Y46840477D01*
X33238095Y46935715D01*
X33285714Y47030953D01*
X33380952Y47078572D01*
X33619047Y47078572D01*
X33714285Y47126191D01*
%TO.C,JP5*%
X26723809Y15347620D02*
X27342857Y15347620D01*
X27009523Y14966667D01*
X27152380Y14966667D01*
X27247619Y14919048D01*
X27295238Y14871429D01*
X27342857Y14776191D01*
X27342857Y14538096D01*
X27295238Y14442858D01*
X27247619Y14395239D01*
X27152380Y14347620D01*
X26866666Y14347620D01*
X26771428Y14395239D01*
X26723809Y14442858D01*
X27771428Y14442858D02*
X27819047Y14395239D01*
X27771428Y14347620D01*
X27723809Y14395239D01*
X27771428Y14442858D01*
X27771428Y14347620D01*
X28152380Y15347620D02*
X28771428Y15347620D01*
X28438095Y14966667D01*
X28580952Y14966667D01*
X28676190Y14919048D01*
X28723809Y14871429D01*
X28771428Y14776191D01*
X28771428Y14538096D01*
X28723809Y14442858D01*
X28676190Y14395239D01*
X28580952Y14347620D01*
X28295238Y14347620D01*
X28200000Y14395239D01*
X28152380Y14442858D01*
X29057142Y15347620D02*
X29390476Y14347620D01*
X29723809Y15347620D01*
%TO.C,R10*%
X25157142Y18127620D02*
X24823809Y18603810D01*
X24585714Y18127620D02*
X24585714Y19127620D01*
X24966666Y19127620D01*
X25061904Y19080000D01*
X25109523Y19032381D01*
X25157142Y18937143D01*
X25157142Y18794286D01*
X25109523Y18699048D01*
X25061904Y18651429D01*
X24966666Y18603810D01*
X24585714Y18603810D01*
X26109523Y18127620D02*
X25538095Y18127620D01*
X25823809Y18127620D02*
X25823809Y19127620D01*
X25728571Y18984762D01*
X25633333Y18889524D01*
X25538095Y18841905D01*
X26728571Y19127620D02*
X26823809Y19127620D01*
X26919047Y19080000D01*
X26966666Y19032381D01*
X27014285Y18937143D01*
X27061904Y18746667D01*
X27061904Y18508572D01*
X27014285Y18318096D01*
X26966666Y18222858D01*
X26919047Y18175239D01*
X26823809Y18127620D01*
X26728571Y18127620D01*
X26633333Y18175239D01*
X26585714Y18222858D01*
X26538095Y18318096D01*
X26490476Y18508572D01*
X26490476Y18746667D01*
X26538095Y18937143D01*
X26585714Y19032381D01*
X26633333Y19080000D01*
X26728571Y19127620D01*
%TO.C,JP4*%
X48104761Y18080953D02*
X48152380Y18223810D01*
X48152380Y18461905D01*
X48104761Y18557143D01*
X48057142Y18604762D01*
X47961904Y18652381D01*
X47866666Y18652381D01*
X47771428Y18604762D01*
X47723809Y18557143D01*
X47676190Y18461905D01*
X47628571Y18271429D01*
X47580952Y18176191D01*
X47533333Y18128572D01*
X47438095Y18080953D01*
X47342857Y18080953D01*
X47247619Y18128572D01*
X47200000Y18176191D01*
X47152380Y18271429D01*
X47152380Y18509524D01*
X47200000Y18652381D01*
X48104761Y19461905D02*
X48152380Y19366667D01*
X48152380Y19176191D01*
X48104761Y19080953D01*
X48009523Y19033334D01*
X47628571Y19033334D01*
X47533333Y19080953D01*
X47485714Y19176191D01*
X47485714Y19366667D01*
X47533333Y19461905D01*
X47628571Y19509524D01*
X47723809Y19509524D01*
X47819047Y19033334D01*
X48152380Y20080953D02*
X48104761Y19985715D01*
X48009523Y19938096D01*
X47152380Y19938096D01*
X48104761Y20842858D02*
X48152380Y20747620D01*
X48152380Y20557143D01*
X48104761Y20461905D01*
X48009523Y20414286D01*
X47628571Y20414286D01*
X47533333Y20461905D01*
X47485714Y20557143D01*
X47485714Y20747620D01*
X47533333Y20842858D01*
X47628571Y20890477D01*
X47723809Y20890477D01*
X47819047Y20414286D01*
X48104761Y21747620D02*
X48152380Y21652381D01*
X48152380Y21461905D01*
X48104761Y21366667D01*
X48057142Y21319048D01*
X47961904Y21271429D01*
X47676190Y21271429D01*
X47580952Y21319048D01*
X47533333Y21366667D01*
X47485714Y21461905D01*
X47485714Y21652381D01*
X47533333Y21747620D01*
X47485714Y22033334D02*
X47485714Y22414286D01*
X47152380Y22176191D02*
X48009523Y22176191D01*
X48104761Y22223810D01*
X48152380Y22319048D01*
X48152380Y22414286D01*
%TO.C,C5*%
X15707142Y40833334D02*
X15754761Y40785715D01*
X15802380Y40642858D01*
X15802380Y40547620D01*
X15754761Y40404762D01*
X15659523Y40309524D01*
X15564285Y40261905D01*
X15373809Y40214286D01*
X15230952Y40214286D01*
X15040476Y40261905D01*
X14945238Y40309524D01*
X14850000Y40404762D01*
X14802380Y40547620D01*
X14802380Y40642858D01*
X14850000Y40785715D01*
X14897619Y40833334D01*
X14802380Y41738096D02*
X14802380Y41261905D01*
X15278571Y41214286D01*
X15230952Y41261905D01*
X15183333Y41357143D01*
X15183333Y41595239D01*
X15230952Y41690477D01*
X15278571Y41738096D01*
X15373809Y41785715D01*
X15611904Y41785715D01*
X15707142Y41738096D01*
X15754761Y41690477D01*
X15802380Y41595239D01*
X15802380Y41357143D01*
X15754761Y41261905D01*
X15707142Y41214286D01*
%TO.C,C3*%
X8507142Y40833334D02*
X8554761Y40785715D01*
X8602380Y40642858D01*
X8602380Y40547620D01*
X8554761Y40404762D01*
X8459523Y40309524D01*
X8364285Y40261905D01*
X8173809Y40214286D01*
X8030952Y40214286D01*
X7840476Y40261905D01*
X7745238Y40309524D01*
X7650000Y40404762D01*
X7602380Y40547620D01*
X7602380Y40642858D01*
X7650000Y40785715D01*
X7697619Y40833334D01*
X7602380Y41166667D02*
X7602380Y41785715D01*
X7983333Y41452381D01*
X7983333Y41595239D01*
X8030952Y41690477D01*
X8078571Y41738096D01*
X8173809Y41785715D01*
X8411904Y41785715D01*
X8507142Y41738096D01*
X8554761Y41690477D01*
X8602380Y41595239D01*
X8602380Y41309524D01*
X8554761Y41214286D01*
X8507142Y41166667D01*
%TO.C,JP3*%
X43552380Y18509524D02*
X42552380Y18509524D01*
X42552380Y18747620D01*
X42600000Y18890477D01*
X42695238Y18985715D01*
X42790476Y19033334D01*
X42980952Y19080953D01*
X43123809Y19080953D01*
X43314285Y19033334D01*
X43409523Y18985715D01*
X43504761Y18890477D01*
X43552380Y18747620D01*
X43552380Y18509524D01*
X43552380Y19652381D02*
X43504761Y19557143D01*
X43457142Y19509524D01*
X43361904Y19461905D01*
X43076190Y19461905D01*
X42980952Y19509524D01*
X42933333Y19557143D01*
X42885714Y19652381D01*
X42885714Y19795239D01*
X42933333Y19890477D01*
X42980952Y19938096D01*
X43076190Y19985715D01*
X43361904Y19985715D01*
X43457142Y19938096D01*
X43504761Y19890477D01*
X43552380Y19795239D01*
X43552380Y19652381D01*
X42885714Y20319048D02*
X43552380Y20509524D01*
X43076190Y20700000D01*
X43552380Y20890477D01*
X42885714Y21080953D01*
X42885714Y21461905D02*
X43552380Y21461905D01*
X42980952Y21461905D02*
X42933333Y21509524D01*
X42885714Y21604762D01*
X42885714Y21747620D01*
X42933333Y21842858D01*
X43028571Y21890477D01*
X43552380Y21890477D01*
%TO.C,U3*%
X11038095Y36347620D02*
X11038095Y35538096D01*
X11085714Y35442858D01*
X11133333Y35395239D01*
X11228571Y35347620D01*
X11419047Y35347620D01*
X11514285Y35395239D01*
X11561904Y35442858D01*
X11609523Y35538096D01*
X11609523Y36347620D01*
X11990476Y36347620D02*
X12609523Y36347620D01*
X12276190Y35966667D01*
X12419047Y35966667D01*
X12514285Y35919048D01*
X12561904Y35871429D01*
X12609523Y35776191D01*
X12609523Y35538096D01*
X12561904Y35442858D01*
X12514285Y35395239D01*
X12419047Y35347620D01*
X12133333Y35347620D01*
X12038095Y35395239D01*
X11990476Y35442858D01*
%TO.C,R6*%
X55433333Y14567620D02*
X55100000Y15043810D01*
X54861904Y14567620D02*
X54861904Y15567620D01*
X55242857Y15567620D01*
X55338095Y15520000D01*
X55385714Y15472381D01*
X55433333Y15377143D01*
X55433333Y15234286D01*
X55385714Y15139048D01*
X55338095Y15091429D01*
X55242857Y15043810D01*
X54861904Y15043810D01*
X56290476Y15567620D02*
X56100000Y15567620D01*
X56004761Y15520000D01*
X55957142Y15472381D01*
X55861904Y15329524D01*
X55814285Y15139048D01*
X55814285Y14758096D01*
X55861904Y14662858D01*
X55909523Y14615239D01*
X56004761Y14567620D01*
X56195238Y14567620D01*
X56290476Y14615239D01*
X56338095Y14662858D01*
X56385714Y14758096D01*
X56385714Y14996191D01*
X56338095Y15091429D01*
X56290476Y15139048D01*
X56195238Y15186667D01*
X56004761Y15186667D01*
X55909523Y15139048D01*
X55861904Y15091429D01*
X55814285Y14996191D01*
%TO.C,H1*%
X26638095Y37847620D02*
X26638095Y38847620D01*
X26638095Y38371429D02*
X27209523Y38371429D01*
X27209523Y37847620D02*
X27209523Y38847620D01*
X28209523Y37847620D02*
X27638095Y37847620D01*
X27923809Y37847620D02*
X27923809Y38847620D01*
X27828571Y38704762D01*
X27733333Y38609524D01*
X27638095Y38561905D01*
%TO.C,JP1*%
X43028571Y23909524D02*
X43028571Y24242858D01*
X43552380Y24385715D02*
X43552380Y23909524D01*
X42552380Y23909524D01*
X42552380Y24385715D01*
X42885714Y24814286D02*
X43552380Y24814286D01*
X42980952Y24814286D02*
X42933333Y24861905D01*
X42885714Y24957143D01*
X42885714Y25100000D01*
X42933333Y25195239D01*
X43028571Y25242858D01*
X43552380Y25242858D01*
X42885714Y25576191D02*
X42885714Y25957143D01*
X42552380Y25719048D02*
X43409523Y25719048D01*
X43504761Y25766667D01*
X43552380Y25861905D01*
X43552380Y25957143D01*
X43504761Y26671429D02*
X43552380Y26576191D01*
X43552380Y26385715D01*
X43504761Y26290477D01*
X43409523Y26242858D01*
X43028571Y26242858D01*
X42933333Y26290477D01*
X42885714Y26385715D01*
X42885714Y26576191D01*
X42933333Y26671429D01*
X43028571Y26719048D01*
X43123809Y26719048D01*
X43219047Y26242858D01*
X43552380Y27147620D02*
X42885714Y27147620D01*
X43076190Y27147620D02*
X42980952Y27195239D01*
X42933333Y27242858D01*
X42885714Y27338096D01*
X42885714Y27433334D01*
%TO.C,J2*%
X44308095Y30197620D02*
X44308095Y29388096D01*
X44355714Y29292858D01*
X44403333Y29245239D01*
X44498571Y29197620D01*
X44689047Y29197620D01*
X44784285Y29245239D01*
X44831904Y29292858D01*
X44879523Y29388096D01*
X44879523Y30197620D01*
X45308095Y29245239D02*
X45450952Y29197620D01*
X45689047Y29197620D01*
X45784285Y29245239D01*
X45831904Y29292858D01*
X45879523Y29388096D01*
X45879523Y29483334D01*
X45831904Y29578572D01*
X45784285Y29626191D01*
X45689047Y29673810D01*
X45498571Y29721429D01*
X45403333Y29769048D01*
X45355714Y29816667D01*
X45308095Y29911905D01*
X45308095Y30007143D01*
X45355714Y30102381D01*
X45403333Y30150000D01*
X45498571Y30197620D01*
X45736666Y30197620D01*
X45879523Y30150000D01*
X46641428Y29721429D02*
X46784285Y29673810D01*
X46831904Y29626191D01*
X46879523Y29530953D01*
X46879523Y29388096D01*
X46831904Y29292858D01*
X46784285Y29245239D01*
X46689047Y29197620D01*
X46308095Y29197620D01*
X46308095Y30197620D01*
X46641428Y30197620D01*
X46736666Y30150000D01*
X46784285Y30102381D01*
X46831904Y30007143D01*
X46831904Y29911905D01*
X46784285Y29816667D01*
X46736666Y29769048D01*
X46641428Y29721429D01*
X46308095Y29721429D01*
%TO.C,JP2*%
X47152380Y24861905D02*
X47961904Y24861905D01*
X48057142Y24909524D01*
X48104761Y24957143D01*
X48152380Y25052381D01*
X48152380Y25242858D01*
X48104761Y25338096D01*
X48057142Y25385715D01*
X47961904Y25433334D01*
X47152380Y25433334D01*
X47485714Y25909524D02*
X48485714Y25909524D01*
X47533333Y25909524D02*
X47485714Y26004762D01*
X47485714Y26195239D01*
X47533333Y26290477D01*
X47580952Y26338096D01*
X47676190Y26385715D01*
X47961904Y26385715D01*
X48057142Y26338096D01*
X48104761Y26290477D01*
X48152380Y26195239D01*
X48152380Y26004762D01*
X48104761Y25909524D01*
D13*
%TO.C,C6*%
X1490000Y27111252D02*
X1490000Y25688748D01*
X3310000Y27111252D02*
X3310000Y25688748D01*
%TO.C,C11*%
X3911252Y37110000D02*
X2488748Y37110000D01*
X3911252Y35290000D02*
X2488748Y35290000D01*
%TO.C,C10*%
X3911252Y33510000D02*
X2488748Y33510000D01*
X3911252Y31690000D02*
X2488748Y31690000D01*
%TO.C,C9*%
X5290000Y27111252D02*
X5290000Y25688748D01*
X7110000Y27111252D02*
X7110000Y25688748D01*
%TO.C,C8*%
X9090000Y27111252D02*
X9090000Y25688748D01*
X10910000Y27111252D02*
X10910000Y25688748D01*
%TO.C,C7*%
X12890000Y27111252D02*
X12890000Y25688748D01*
X14710000Y27111252D02*
X14710000Y25688748D01*
%TO.C,C4*%
X14510000Y40288748D02*
X14510000Y41711252D01*
X12690000Y40288748D02*
X12690000Y41711252D01*
%TO.C,J4*%
X56650000Y25095000D02*
X56650000Y24345000D01*
X51350000Y35255000D02*
X51350000Y34505000D01*
X56650000Y22555000D02*
X56650000Y21805000D01*
X56650000Y32715000D02*
X56650000Y31965000D01*
X56650000Y17475000D02*
X56650000Y16990000D01*
X56650000Y35255000D02*
X56650000Y34505000D01*
X56650000Y42610000D02*
X51350000Y42610000D01*
X56650000Y27635000D02*
X56650000Y26885000D01*
X56650000Y16990000D02*
X51350000Y16990000D01*
X56650000Y30175000D02*
X56650000Y29425000D01*
X51350000Y37795000D02*
X51350000Y37045000D01*
X51350000Y27635000D02*
X51350000Y26885000D01*
X56650000Y40335000D02*
X56650000Y39585000D01*
X56650000Y42125000D02*
X56650000Y42610000D01*
X51350000Y42610000D02*
X51350000Y42125000D01*
X51350000Y30175000D02*
X51350000Y29425000D01*
X56650000Y20015000D02*
X56650000Y19265000D01*
X51350000Y25095000D02*
X51350000Y24345000D01*
X56650000Y37795000D02*
X56650000Y37045000D01*
X57560000Y42125000D02*
X56650000Y42125000D01*
X51350000Y20015000D02*
X51350000Y19265000D01*
X51350000Y32715000D02*
X51350000Y31965000D01*
X51350000Y40335000D02*
X51350000Y39585000D01*
X51350000Y16990000D02*
X51350000Y17475000D01*
X51350000Y22555000D02*
X51350000Y21805000D01*
%TO.C,R9*%
X54872936Y1090000D02*
X56327064Y1090000D01*
X54872936Y2910000D02*
X56327064Y2910000D01*
%TO.C,R4*%
X38727064Y5290000D02*
X37272936Y5290000D01*
X38727064Y7110000D02*
X37272936Y7110000D01*
%TO.C,R2*%
X38727064Y12490000D02*
X37272936Y12490000D01*
X38727064Y14310000D02*
X37272936Y14310000D01*
%TO.C,R8*%
X54822936Y6710000D02*
X56277064Y6710000D01*
X54822936Y4890000D02*
X56277064Y4890000D01*
%TO.C,SW1*%
X14500000Y16500000D02*
X13000000Y16500000D01*
X13000000Y9500000D02*
X14500000Y9500000D01*
X10500000Y15250000D02*
X10500000Y10750000D01*
X17000000Y10750000D02*
X17000000Y15250000D01*
%TO.C,J1*%
X42900000Y40950000D02*
X40240000Y40950000D01*
X42900000Y32000000D02*
X42900000Y30670000D01*
X40240000Y33270000D02*
X40240000Y40950000D01*
X42900000Y33270000D02*
X42900000Y40950000D01*
X42900000Y30670000D02*
X41570000Y30670000D01*
X42900000Y33270000D02*
X40240000Y33270000D01*
%TO.C,SW2*%
X1450000Y15200000D02*
X1450000Y10700000D01*
X3950000Y9450000D02*
X5450000Y9450000D01*
X5450000Y16450000D02*
X3950000Y16450000D01*
X7950000Y10700000D02*
X7950000Y15200000D01*
%TO.C,R1*%
X10272936Y20090000D02*
X11727064Y20090000D01*
X10272936Y21910000D02*
X11727064Y21910000D01*
%TO.C,R7*%
X54872936Y10510000D02*
X56327064Y10510000D01*
X54872936Y8690000D02*
X56327064Y8690000D01*
%TO.C,C1*%
X5490000Y40288748D02*
X5490000Y41711252D01*
X7310000Y40288748D02*
X7310000Y41711252D01*
%TO.C,R11*%
X26727064Y13910000D02*
X25272936Y13910000D01*
X26727064Y12090000D02*
X25272936Y12090000D01*
%TO.C,R12*%
X23327064Y17710000D02*
X21872936Y17710000D01*
X23327064Y15890000D02*
X21872936Y15890000D01*
%TO.C,J5*%
X6345000Y4130000D02*
X11485000Y4130000D01*
X3745000Y1470000D02*
X3745000Y2800000D01*
X6345000Y1470000D02*
X6345000Y4130000D01*
X11485000Y1470000D02*
X11485000Y4130000D01*
X5075000Y1470000D02*
X3745000Y1470000D01*
X6345000Y1470000D02*
X11485000Y1470000D01*
%TO.C,C2*%
X16288748Y21910000D02*
X17711252Y21910000D01*
X16288748Y20090000D02*
X17711252Y20090000D01*
%TO.C,C12*%
X3710000Y40288748D02*
X3710000Y41711252D01*
X1890000Y40288748D02*
X1890000Y41711252D01*
%TO.C,R3*%
X38727064Y10710000D02*
X37272936Y10710000D01*
X38727064Y8890000D02*
X37272936Y8890000D01*
%TO.C,R5*%
X38727064Y3510000D02*
X37272936Y3510000D01*
X38727064Y1690000D02*
X37272936Y1690000D01*
%TO.C,U2*%
X20000000Y25400000D02*
X20000000Y24650000D01*
X20000000Y50150000D02*
X38000000Y50150000D01*
X38000000Y25400000D02*
X38000000Y24650000D01*
X38000000Y24650000D02*
X37000000Y24650000D01*
X38000000Y44210000D02*
X20000000Y44210000D01*
X20000000Y24650000D02*
X21000000Y24650000D01*
X20000000Y50150000D02*
X20000000Y43400000D01*
X38000000Y50150000D02*
X38000000Y43400000D01*
%TO.C,JP5*%
X26800000Y15600000D02*
X26800000Y17600000D01*
X29600000Y15600000D02*
X26800000Y15600000D01*
X29600000Y17600000D02*
X29600000Y15600000D01*
X26800000Y17600000D02*
X29600000Y17600000D01*
%TO.C,R10*%
X26527064Y21310000D02*
X25072936Y21310000D01*
X26527064Y19490000D02*
X25072936Y19490000D01*
%TO.C,JP4*%
X44800000Y21600000D02*
X46800000Y21600000D01*
X46800000Y21600000D02*
X46800000Y18800000D01*
X44800000Y18800000D02*
X44800000Y21600000D01*
X46800000Y18800000D02*
X44800000Y18800000D01*
%TO.C,J3*%
X20340000Y1040000D02*
X30460000Y1040000D01*
X20340000Y2600000D02*
X30460000Y2600000D01*
X26893000Y4826000D02*
X26513000Y4446000D01*
X20100000Y1440000D02*
X20100000Y800000D01*
X30460000Y10160000D02*
X30460000Y1040000D01*
X20340000Y10160000D02*
X20340000Y1040000D01*
X26642000Y5108000D02*
X26247000Y4712000D01*
X21352000Y4819000D02*
X21246000Y4712000D01*
X20340000Y10160000D02*
X30460000Y10160000D01*
X29288000Y7754000D02*
X28908000Y7374000D01*
X29554000Y7488000D02*
X29159000Y7092000D01*
X20100000Y800000D02*
X20500000Y800000D01*
X24288000Y7754000D02*
X24181000Y7647000D01*
X24554000Y7488000D02*
X24447000Y7381000D01*
X21618000Y4553000D02*
X21512000Y4446000D01*
X20340000Y1500000D02*
X30460000Y1500000D01*
X30080000Y6100000D02*
G75*
G03*
X30080000Y6100000I-2180000J0D01*
G01*
X25080000Y6100000D02*
G75*
G03*
X25080000Y6100000I-2180000J0D01*
G01*
%TO.C,C5*%
X18110000Y40288748D02*
X18110000Y41711252D01*
X16290000Y40288748D02*
X16290000Y41711252D01*
%TO.C,C3*%
X9090000Y40288748D02*
X9090000Y41711252D01*
X10910000Y40288748D02*
X10910000Y41711252D01*
%TO.C,JP3*%
X42200000Y18800000D02*
X40200000Y18800000D01*
X42200000Y21600000D02*
X42200000Y18800000D01*
X40200000Y21600000D02*
X42200000Y21600000D01*
X40200000Y18800000D02*
X40200000Y21600000D01*
%TO.C,U1*%
X44600000Y13200000D02*
X49400000Y13200000D01*
X44600000Y13200000D02*
X44600000Y12800000D01*
X44600000Y2400000D02*
X49400000Y2400000D01*
X44600000Y12800000D02*
X43200000Y12800000D01*
%TO.C,U3*%
X13710000Y30390000D02*
X13710000Y31650000D01*
X7700000Y37210000D02*
X13710000Y37210000D01*
X9950000Y30390000D02*
X13710000Y30390000D01*
X13710000Y37210000D02*
X13710000Y35950000D01*
%TO.C,R6*%
X54872936Y12290000D02*
X56327064Y12290000D01*
X54872936Y14110000D02*
X56327064Y14110000D01*
%TO.C,JP1*%
X40200000Y24200000D02*
X40200000Y27000000D01*
X42200000Y27000000D02*
X42200000Y24200000D01*
X40200000Y27000000D02*
X42200000Y27000000D01*
X42200000Y24200000D02*
X40200000Y24200000D01*
%TO.C,J2*%
X46900000Y38330000D02*
X46900000Y30650000D01*
X44240000Y38330000D02*
X44240000Y30650000D01*
X44240000Y39600000D02*
X44240000Y40930000D01*
X44240000Y40930000D02*
X45570000Y40930000D01*
X44240000Y30650000D02*
X46900000Y30650000D01*
X44240000Y38330000D02*
X46900000Y38330000D01*
%TO.C,JP2*%
X44800000Y24200000D02*
X44800000Y27000000D01*
X46800000Y27000000D02*
X46800000Y24200000D01*
X46800000Y24200000D02*
X44800000Y24200000D01*
X44800000Y27000000D02*
X46800000Y27000000D01*
%TD*%
D14*
X10600000Y35600000D03*
X10600000Y36800000D03*
X47600000Y18600000D03*
X43600000Y19000000D03*
X8400000Y23000000D03*
X15400000Y23200000D03*
X12000000Y23200000D03*
X25400000Y2000000D03*
X25200000Y9000000D03*
X22400000Y40400000D03*
X34200000Y31600000D03*
X1000000Y42800000D03*
X15400000Y42600000D03*
X11800000Y42600000D03*
X4600000Y42600000D03*
X8200000Y42400000D03*
X1600000Y34400000D03*
X1600000Y30600000D03*
X39400000Y19800000D03*
X42200000Y13600000D03*
X38000000Y6000000D03*
X38000000Y8800000D03*
X58800000Y42000000D03*
X43000000Y28400000D03*
X48800000Y29200000D03*
X49200000Y36000000D03*
X46200000Y42400000D03*
X41200000Y42200000D03*
X34200000Y2000000D03*
X32400000Y5000000D03*
X21600000Y12800000D03*
X19400000Y13400000D03*
X21200000Y20800000D03*
X2200000Y20800000D03*
X12600000Y12800000D03*
X3800000Y12800000D03*
X16000000Y1600000D03*
X18400000Y5800000D03*
X14000000Y5800000D03*
X2600000Y5800000D03*
X23400000Y34600000D03*
X24200000Y40800000D03*
X25200000Y38200000D03*
X24000000Y39400000D03*
X27800000Y42400000D03*
X31600000Y38600000D03*
X33000000Y42400000D03*
X30400000Y41800000D03*
X35000000Y41400000D03*
X34800000Y38600000D03*
X35800000Y34600000D03*
X32400000Y35800000D03*
X28600000Y31400000D03*
X35000000Y30600000D03*
X31400000Y29000000D03*
X27000000Y22600000D03*
X25000000Y22800000D03*
X38400000Y21800000D03*
X44800000Y23400000D03*
X35600000Y18200000D03*
X34200000Y19000000D03*
X34600000Y8000000D03*
X34000000Y13000000D03*
X33200000Y9200000D03*
X58800000Y11600000D03*
X59200000Y7800000D03*
X58600000Y3800000D03*
X41600000Y1600000D03*
X51400000Y1400000D03*
X46400000Y11000000D03*
X46800000Y8200000D03*
X47000000Y4000000D03*
X57200000Y16800000D03*
X54000000Y29800000D03*
X54000000Y27200000D03*
X54000000Y40000000D03*
X54000000Y37400000D03*
X54000000Y34800000D03*
X25400000Y18200000D03*
X12000000Y18600000D03*
X4400000Y22600000D03*
X3600000Y31200000D03*
X30200000Y16600000D03*
X50800000Y19604502D03*
X7600000Y6600000D03*
X22600000Y42400000D03*
X51800000Y10000000D03*
X49745005Y20123157D03*
X51400000Y13800000D03*
X50000000Y23144015D03*
X48745996Y20154553D03*
X49600000Y25200000D03*
X44400000Y20800000D03*
X36600000Y23000000D03*
X38200000Y24400000D03*
X32200000Y26400000D03*
X39400000Y26600000D03*
X31881545Y27347413D03*
X51800000Y4600000D03*
X52549500Y13038494D03*
X25062746Y27097700D03*
X30800000Y17800000D03*
X26746744Y27649001D03*
X32400000Y17600000D03*
X38456359Y17574500D03*
X28380430Y27916012D03*
X29168094Y28531310D03*
X40621084Y17574500D03*
X22000000Y27600000D03*
X22200000Y26600000D03*
X15800000Y27800000D03*
X58400000Y15400000D03*
X52730000Y38690000D03*
X52730000Y41230000D03*
X55270000Y18370000D03*
X55270000Y25990000D03*
X52730000Y23450000D03*
X52730000Y18370000D03*
X55270000Y41230000D03*
X52730000Y25990000D03*
X52730000Y33610000D03*
X52730000Y20910000D03*
X52730000Y31070000D03*
X52730000Y36150000D03*
X55270000Y36150000D03*
X55270000Y28530000D03*
X55270000Y31070000D03*
X55270000Y33610000D03*
X55270000Y23450000D03*
X55270000Y38690000D03*
X55270000Y20910000D03*
X52730000Y28530000D03*
X11500000Y16250000D03*
X11500000Y9750000D03*
X16000000Y16250000D03*
X16000000Y9750000D03*
X41570000Y32000000D03*
X41570000Y34540000D03*
X41570000Y37080000D03*
X41570000Y39620000D03*
X2450000Y9700000D03*
X2450000Y16200000D03*
X6950000Y16200000D03*
X6950000Y9700000D03*
X5075000Y2800000D03*
X7615000Y2800000D03*
X10155000Y2800000D03*
X22900000Y6100000D03*
X27900000Y6100000D03*
X26074175Y36125825D03*
X28725825Y33474175D03*
X27400000Y36675000D03*
X29275000Y34800000D03*
X27400000Y32925000D03*
X28725825Y36125825D03*
X26074175Y33474175D03*
X25525000Y34800000D03*
X27400000Y34800000D03*
X45570000Y39600000D03*
X45570000Y37060000D03*
X45570000Y34520000D03*
X45570000Y31980000D03*
M02*
