M48
; DRILL file {KiCad (6.0.11-0)} date Friday 14 November 2025 at 21:04:09
; FORMAT={-:-/ absolute / metric / decimal}
; #@! TF.CreationDate,2025-11-14T21:04:09+00:00
; #@! TF.GenerationSoftware,Kicad,Pcbnew,(6.0.11-0)
; #@! TF.FileFunction,NonPlated,1,2,NPTH
FMAT,2
METRIC
; #@! TA.AperFunction,NonPlated,NPTH,ComponentDrill
T1C0.970
%
G90
G05
T1
X52.73Y41.23
X52.73Y38.69
X52.73Y36.15
X52.73Y33.61
X52.73Y31.07
X52.73Y28.53
X52.73Y25.99
X52.73Y23.45
X52.73Y20.91
X52.73Y18.37
X55.27Y41.23
X55.27Y38.69
X55.27Y36.15
X55.27Y33.61
X55.27Y31.07
X55.27Y28.53
X55.27Y25.99
X55.27Y23.45
X55.27Y20.91
X55.27Y18.37
T0
M30
