%TF.GenerationSoftware,KiCad,Pcbnew,(6.0.11-0)*%
%TF.CreationDate,2025-11-14T21:04:09+00:00*%
%TF.ProjectId,local-zappi-power,6c6f6361-6c2d-47a6-9170-70692d706f77,rev?*%
%TF.SameCoordinates,Original*%
%TF.FileFunction,Legend,Bot*%
%TF.FilePolarity,Positive*%
%FSLAX46Y46*%
G04 Gerber Fmt 4.6, Leading zero omitted, Abs format (unit mm)*
G04 Created by KiCad (PCBNEW (6.0.11-0)) date 2025-11-14 21:04:09*
%MOMM*%
%LPD*%
G01*
G04 APERTURE LIST*
%ADD10C,0.350000*%
G04 APERTURE END LIST*
D10*
X10600000Y35600000D03*
X10600000Y36800000D03*
X47600000Y18600000D03*
X43600000Y19000000D03*
X8400000Y23000000D03*
X15400000Y23200000D03*
X12000000Y23200000D03*
X25400000Y2000000D03*
X25200000Y9000000D03*
X22400000Y40400000D03*
X34200000Y31600000D03*
X1000000Y42800000D03*
X15400000Y42600000D03*
X11800000Y42600000D03*
X4600000Y42600000D03*
X8200000Y42400000D03*
X1600000Y34400000D03*
X1600000Y30600000D03*
X39400000Y19800000D03*
X42200000Y13600000D03*
X38000000Y6000000D03*
X38000000Y8800000D03*
X58800000Y42000000D03*
X43000000Y28400000D03*
X48800000Y29200000D03*
X49200000Y36000000D03*
X46200000Y42400000D03*
X41200000Y42200000D03*
X34200000Y2000000D03*
X32400000Y5000000D03*
X21600000Y12800000D03*
X19400000Y13400000D03*
X21200000Y20800000D03*
X2200000Y20800000D03*
X12600000Y12800000D03*
X3800000Y12800000D03*
X16000000Y1600000D03*
X18400000Y5800000D03*
X14000000Y5800000D03*
X2600000Y5800000D03*
X23400000Y34600000D03*
X24200000Y40800000D03*
X25200000Y38200000D03*
X24000000Y39400000D03*
X27800000Y42400000D03*
X31600000Y38600000D03*
X33000000Y42400000D03*
X30400000Y41800000D03*
X35000000Y41400000D03*
X34800000Y38600000D03*
X35800000Y34600000D03*
X32400000Y35800000D03*
X28600000Y31400000D03*
X35000000Y30600000D03*
X31400000Y29000000D03*
X27000000Y22600000D03*
X25000000Y22800000D03*
X38400000Y21800000D03*
X44800000Y23400000D03*
X35600000Y18200000D03*
X34200000Y19000000D03*
X34600000Y8000000D03*
X34000000Y13000000D03*
X33200000Y9200000D03*
X58800000Y11600000D03*
X59200000Y7800000D03*
X58600000Y3800000D03*
X41600000Y1600000D03*
X51400000Y1400000D03*
X46400000Y11000000D03*
X46800000Y8200000D03*
X47000000Y4000000D03*
X57200000Y16800000D03*
X54000000Y29800000D03*
X54000000Y27200000D03*
X54000000Y40000000D03*
X54000000Y37400000D03*
X54000000Y34800000D03*
X25400000Y18200000D03*
X12000000Y18600000D03*
X4400000Y22600000D03*
X3600000Y31200000D03*
X30200000Y16600000D03*
X50800000Y19604502D03*
X7600000Y6600000D03*
X22600000Y42400000D03*
X51800000Y10000000D03*
X49745005Y20123157D03*
X51400000Y13800000D03*
X50000000Y23144015D03*
X48745996Y20154553D03*
X49600000Y25200000D03*
X44400000Y20800000D03*
X36600000Y23000000D03*
X38200000Y24400000D03*
X32200000Y26400000D03*
X39400000Y26600000D03*
X31881545Y27347413D03*
X51800000Y4600000D03*
X52549500Y13038494D03*
X25062746Y27097700D03*
X30800000Y17800000D03*
X26746744Y27649001D03*
X32400000Y17600000D03*
X38456359Y17574500D03*
X28380430Y27916012D03*
X29168094Y28531310D03*
X40621084Y17574500D03*
X22000000Y27600000D03*
X22200000Y26600000D03*
X15800000Y27800000D03*
X58400000Y15400000D03*
X52730000Y38690000D03*
X52730000Y41230000D03*
X55270000Y18370000D03*
X55270000Y25990000D03*
X52730000Y23450000D03*
X52730000Y18370000D03*
X55270000Y41230000D03*
X52730000Y25990000D03*
X52730000Y33610000D03*
X52730000Y20910000D03*
X52730000Y31070000D03*
X52730000Y36150000D03*
X55270000Y36150000D03*
X55270000Y28530000D03*
X55270000Y31070000D03*
X55270000Y33610000D03*
X55270000Y23450000D03*
X55270000Y38690000D03*
X55270000Y20910000D03*
X52730000Y28530000D03*
X11500000Y16250000D03*
X11500000Y9750000D03*
X16000000Y16250000D03*
X16000000Y9750000D03*
X41570000Y32000000D03*
X41570000Y34540000D03*
X41570000Y37080000D03*
X41570000Y39620000D03*
X2450000Y9700000D03*
X2450000Y16200000D03*
X6950000Y16200000D03*
X6950000Y9700000D03*
X5075000Y2800000D03*
X7615000Y2800000D03*
X10155000Y2800000D03*
X22900000Y6100000D03*
X27900000Y6100000D03*
X26074175Y36125825D03*
X28725825Y33474175D03*
X27400000Y36675000D03*
X29275000Y34800000D03*
X27400000Y32925000D03*
X28725825Y36125825D03*
X26074175Y33474175D03*
X25525000Y34800000D03*
X27400000Y34800000D03*
X45570000Y39600000D03*
X45570000Y37060000D03*
X45570000Y34520000D03*
X45570000Y31980000D03*
M02*
